<svg width="60" height="60" viewBox="0 0 60 60" fill="none" xmlns="http://www.w3.org/2000/svg">
<g clip-path="url(#clip0_418_456)">
<path d="M17.1563 0.129174C16.5234 0.304956 15.668 0.972924 15.3281 1.52371C14.9649 2.10965 14.7656 3.04715 14.7656 4.18386V4.89871L12.75 4.94558C10.8281 4.98074 10.6875 5.00418 10.0195 5.30886C9.09376 5.74246 8.19142 6.6448 7.78126 7.54715C7.47657 8.21511 7.44142 8.39089 7.40626 10.1019L7.35939 11.9417L4.21876 11.9769C1.25392 12.012 1.0547 12.0237 0.738292 12.2581C-0.011708 12.8089 1.07611e-05 12.7151 1.07611e-05 19.0433C1.07611e-05 25.3714 -0.011708 25.2776 0.738292 25.8284C1.03126 26.0511 1.2422 26.0745 2.63673 26.0745C4.03126 26.0745 4.2422 26.0511 4.53517 25.8284C5.28517 25.2776 5.27345 25.348 5.27345 19.2425V13.7112H6.32814H7.38282V17.4612V21.223L7.67579 21.5042C8.03907 21.8792 8.48439 21.8792 8.84767 21.5042L9.14064 21.223V15.0941C9.14064 10.9691 9.18751 8.81277 9.26954 8.49636C9.44532 7.86355 10.3359 6.98465 10.9805 6.80886C11.3203 6.71511 16.6992 6.67996 30.2695 6.70339L49.0781 6.73855L49.582 7.09011C49.8633 7.28933 50.25 7.67605 50.4492 7.9573L50.8008 8.46121L50.8359 25.1487L50.8594 41.8362H47.7539C44.4258 41.8362 44.1445 41.8831 43.6289 42.4339C43.3594 42.7386 41.3672 47.2855 41.3672 47.6136C41.3672 47.9651 41.6484 48.4105 41.9649 48.5862C42.2344 48.7151 43.1016 48.7503 46.582 48.7503H50.8594V49.5237C50.8594 49.9573 50.7891 50.5198 50.7188 50.7894C50.5313 51.4222 49.6641 52.2894 49.0313 52.4769C48.3867 52.6644 11.6602 52.6878 10.9805 52.4886C10.3594 52.3245 9.4336 51.3987 9.26954 50.8011C9.19923 50.5433 9.14064 49.9808 9.14064 49.5355V48.7503H13.4531C17.5078 48.7503 17.7774 48.7386 18.1289 48.5159C18.832 48.094 18.7969 47.7776 17.6367 45.094C17.0742 43.7815 16.5 42.5862 16.3711 42.4339C15.8555 41.8831 15.5742 41.8362 12.2461 41.8362H9.14064V33.2933C9.14064 24.8323 9.14064 24.7503 8.89454 24.4456C8.56642 24.0237 7.95704 24.0237 7.62892 24.4573L7.38282 24.762L7.40626 37.8987L7.44142 51.0355L7.76954 51.7386C8.20314 52.6526 9.10548 53.5667 9.97267 53.9651L10.6641 54.2698V55.8987C10.6641 57.5042 10.6641 57.5276 11.0391 58.2542C11.4609 59.0628 12.1992 59.6605 13.0195 59.8831C13.3242 59.9651 14.7891 60.0003 17.0859 59.9769C20.543 59.9417 20.707 59.93 21.1641 59.6839C21.8438 59.3206 22.3711 58.7581 22.6875 58.0667C22.9336 57.5511 22.9688 57.305 22.9688 55.9222V54.3753H30H37.0313V55.9456C37.0313 57.4925 37.043 57.5276 37.418 58.2542C37.8281 59.0628 38.5664 59.6605 39.3867 59.8831C39.6914 59.9651 41.1563 60.0003 43.4531 59.9769C46.9102 59.9417 47.0742 59.93 47.5313 59.6839C48.2109 59.3206 48.7383 58.7581 49.0547 58.0667C49.3008 57.5394 49.3359 57.305 49.3359 55.8753V54.2698L50.0274 53.9651C50.8945 53.5667 51.7969 52.6526 52.2305 51.7386L52.5586 51.0355L52.5938 32.3675L52.6172 13.7112H53.6719H54.7266V19.2425C54.7266 25.348 54.7149 25.2776 55.4649 25.8284C55.7578 26.0511 55.9688 26.0745 57.3633 26.0745C58.7578 26.0745 58.9688 26.0511 59.2617 25.8284C60.0117 25.2776 60 25.3714 60 19.0433C60 12.7151 60.0117 12.8089 59.2617 12.2581C58.9453 12.0237 58.7461 12.012 55.7813 11.9769L52.6406 11.9417L52.5938 10.1019C52.5586 8.32058 52.5469 8.23855 52.1953 7.50027C51.7266 6.52761 51 5.80105 50.0391 5.34402C49.2891 4.99246 49.2305 4.98074 47.2734 4.94558L45.2695 4.89871L45.1992 3.67996C45.0938 1.88699 44.625 1.00808 43.4297 0.375268L42.832 0.0588614L30.1758 0.0354238C22.7813 0.0237051 17.3672 0.0588614 17.1563 0.129174ZM42.6094 1.94558C43.1953 2.22683 43.3945 2.69558 43.4531 3.89089L43.5 4.92215H30H16.5L16.5469 3.89089C16.6055 2.7073 16.8047 2.22683 17.3672 1.9573C17.7188 1.78152 18.9258 1.75808 29.9766 1.75808C41.0625 1.75808 42.2461 1.78152 42.6094 1.94558ZM3.51564 19.0433V24.3753H2.63673H1.75782V19.0433V13.7112H2.63673H3.51564V19.0433ZM58.2422 19.0433V24.3753H57.3633H56.4844V19.0433V13.7112H57.3633H58.2422V19.0433ZM15.6445 44.9065C15.9492 45.6331 16.2774 46.4065 16.3711 46.6058L16.5234 46.9925H12.832H9.14064V45.2933V43.594H12.1055H15.082L15.6445 44.9065ZM50.8594 45.2933V46.9925H47.168H43.4766L43.6289 46.6058C43.7227 46.4065 44.0508 45.6331 44.3555 44.9065L44.918 43.594H47.8945H50.8594V45.2933ZM21.2109 55.8401V57.305L20.8125 57.7503L20.4141 58.1839H16.8164H13.2188L12.8203 57.7503L12.4219 57.305V55.8401V54.3753H16.8164H21.2109V55.8401ZM47.5781 55.8401V57.305L47.1797 57.7503L46.7813 58.1839H43.1836H39.5859L39.1875 57.7503L38.7891 57.305V55.8401V54.3753H43.1836H47.5781V55.8401Z" fill="#3CAA9F"/>
<path d="M15.141 8.67188C14.5902 9.1875 14.9652 10.1953 15.7035 10.1953C16.1488 10.1953 16.5238 9.79688 16.5238 9.31641C16.5238 8.83594 16.1488 8.4375 15.7035 8.4375C15.5394 8.4375 15.2816 8.54297 15.141 8.67188Z" fill="#3CAA9F"/>
<path d="M20.1094 8.68359C19.8867 8.85938 19.8047 9.03516 19.8047 9.31641C19.8047 9.59766 19.8867 9.77344 20.1094 9.94922C20.4258 10.1953 20.4844 10.1953 30 10.1953C39.5156 10.1953 39.5742 10.1953 39.8906 9.94922C40.3125 9.62109 40.3125 9.01172 39.8906 8.68359C39.5742 8.4375 39.5156 8.4375 30 8.4375C20.4844 8.4375 20.4258 8.4375 20.1094 8.68359Z" fill="#3CAA9F"/>
<path d="M43.7344 8.67187C43.3828 9 43.3828 9.63281 43.7344 9.96093C44.2852 10.4648 45.1172 10.0781 45.1172 9.3164C45.1172 8.83593 44.7422 8.4375 44.2969 8.4375C44.1328 8.4375 43.875 8.54296 43.7344 8.67187Z" fill="#3CAA9F"/>
<path d="M12.0708 12.1758C11.8481 12.293 11.5083 12.5859 11.3091 12.8203L10.9575 13.2656L10.9224 23.4141C10.9106 29.0039 10.9224 33.75 10.9575 33.9609C11.0396 34.4297 11.6489 35.1445 12.1528 35.3438C12.4692 35.4844 15.5981 35.5078 30.0239 35.5078C46.8403 35.5078 47.5435 35.4961 47.9302 35.2852C48.1528 35.168 48.4927 34.875 48.6919 34.6406L49.0435 34.1953V23.7305V13.2656L48.6919 12.8203C48.4927 12.5859 48.1528 12.293 47.9302 12.1758C47.5435 11.9648 46.8403 11.9531 30.0005 11.9531C13.1606 11.9531 12.4575 11.9648 12.0708 12.1758ZM47.2856 23.7305V33.6914H30.0005H12.7153L12.6802 23.8477C12.6685 18.4336 12.6802 13.9336 12.7153 13.8516C12.7505 13.7344 16.2778 13.7109 30.0239 13.7344L47.2856 13.7695V23.7305Z" fill="#3CAA9F"/>
<path d="M19.9106 39.293C19.4184 39.6211 19.0785 40.2539 19.1489 40.7227C19.1957 41.0742 22.0434 47.6484 22.3481 48.1289C22.7582 48.75 22.7582 48.75 30.0004 48.75C37.2426 48.75 37.2426 48.75 37.6528 48.1289C37.9575 47.6484 40.8051 41.0742 40.852 40.7227C40.9223 40.2539 40.5825 39.6211 40.0903 39.293C39.7153 39.0352 39.5864 39.0234 37.477 39.0234C35.2856 39.0234 35.2621 39.0234 34.9809 39.3164C34.6293 39.6563 34.6059 40.0664 34.9106 40.4414C35.1215 40.7109 35.2153 40.7227 37.0551 40.7813L38.9887 40.8398L37.6293 43.9102L36.2817 46.9922H30.0004H23.7309L22.3715 43.9102L21.0121 40.8398L26.4496 40.7813L31.8989 40.7227L32.1215 40.4414C32.4262 40.0664 32.4028 39.6563 32.0512 39.3164L31.77 39.0234H26.0395H20.309L19.9106 39.293Z" fill="#3CAA9F"/>
<path d="M25.3828 43.2539C25.1602 43.4297 25.0781 43.6055 25.0781 43.8867C25.0781 44.168 25.1602 44.3438 25.3828 44.5195C25.6875 44.7539 25.8281 44.7656 30 44.7656C34.1719 44.7656 34.3125 44.7539 34.6172 44.5195C34.8398 44.3438 34.9219 44.168 34.9219 43.8867C34.9219 43.6055 34.8398 43.4297 34.6172 43.2539C34.3125 43.0195 34.1719 43.0078 30 43.0078C25.8281 43.0078 25.6875 43.0195 25.3828 43.2539Z" fill="#3CAA9F"/>
</g>
<defs>
<clipPath id="clip0_418_456">
<rect width="60" height="60" fill="white"/>
</clipPath>
</defs>
</svg>
