<svg width="20" height="18" viewBox="0 0 20 18" fill="none" xmlns="http://www.w3.org/2000/svg">
<g clip-path="url(#clip0_415_176)">
<path d="M19.0999 0.222967C18.0153 0.800863 16.3014 1.8975 15.1811 2.73021C12.936 4.39564 10.932 6.36594 9.526 8.29984C8.96361 9.06885 8.50389 9.80601 8.12897 10.5295L7.84331 11.071L7.66478 10.8617C7.56212 10.7434 6.91047 9.97437 6.20972 9.15076C5.50898 8.32715 4.87965 7.61729 4.80377 7.57634C4.68326 7.51263 4.43777 7.50353 2.44712 7.51718L0.219906 7.53084L0.112785 7.65825C-0.0612853 7.86756 -0.0345051 8.09053 0.197589 8.36355C0.300246 8.48641 2.2909 10.6888 4.62077 13.2552C7.09347 15.9808 8.90559 17.942 8.977 17.9739C9.15554 18.0467 9.40549 17.9602 9.48583 17.801C9.51707 17.7327 9.62865 17.3596 9.73131 16.9728C10.9364 12.4179 13.3957 7.83116 16.6852 3.99521C17.377 3.1898 18.6312 1.8975 19.3409 1.265C19.6757 0.969225 19.9613 0.691654 19.9747 0.655251C20.0149 0.546043 20.0059 0.323076 19.9568 0.222967C19.9033 0.127411 19.689 0 19.5819 0C19.5418 0 19.3275 0.100109 19.0999 0.222967Z" fill="#3CAA9F"/>
</g>
<defs>
<clipPath id="clip0_415_176">
<rect width="20" height="18" fill="white"/>
</clipPath>
</defs>
</svg>
