<svg width="14" height="14" viewBox="0 0 14 14" fill="none" xmlns="http://www.w3.org/2000/svg">
<g clip-path="url(#clip0_418_448)">
<path d="M2.31096 0.590924C1.77775 0.71944 1.28283 1.12413 1.03947 1.62725C0.839863 2.04288 0.848066 1.93077 0.848066 4.56397V6.92374L0.716816 7.07686C0.344941 7.51163 0.109785 8.03936 0.0277537 8.62725C0.00587872 8.77491 0.000409966 9.45577 0.00587872 10.7355L0.0140818 12.6222L0.117988 12.83C0.235566 13.0706 0.410566 13.2456 0.651191 13.3632C0.793379 13.4343 0.834394 13.4398 1.10783 13.4398C1.37854 13.4398 1.42502 13.4316 1.56721 13.3659C1.78869 13.262 2.00744 13.046 2.11135 12.8273C2.19064 12.6632 2.19885 12.6167 2.20979 12.3241L2.22072 12.0042H7.00041H11.7801L11.791 12.3269C11.802 12.6167 11.8102 12.6632 11.8895 12.8273C11.9934 13.046 12.2121 13.262 12.4336 13.3659C12.5758 13.4316 12.6223 13.4398 12.893 13.4398C13.1664 13.4398 13.2074 13.4343 13.3496 13.3632C13.5903 13.2456 13.7653 13.0706 13.8828 12.83L13.9867 12.6222L13.9949 10.7218C14.0004 9.13858 13.9949 8.77491 13.9621 8.55889C13.8719 7.97921 13.6121 7.43233 13.2375 7.02217L13.0981 6.86905V4.54757C13.0981 2.31085 13.0953 2.21514 13.0434 2.00733C12.8985 1.43585 12.5238 0.976471 11.9934 0.727643C11.5887 0.536236 11.9278 0.547174 6.95666 0.549908C3.14221 0.552643 2.45041 0.558112 2.31096 0.590924ZM11.5422 1.1378C11.6242 1.16241 11.75 1.21436 11.8266 1.25264C11.9961 1.33741 12.2969 1.63819 12.3926 1.82139C12.5539 2.11944 12.5512 2.09483 12.5512 4.35343C12.5512 5.49366 12.5485 6.42608 12.543 6.42608C12.5403 6.42608 12.4391 6.37686 12.3188 6.31671C12.1985 6.25655 12.0863 6.20733 12.0672 6.20733C12.0399 6.20733 12.0317 6.08975 12.0317 5.69327C12.0317 5.09718 12.0071 4.93038 11.8785 4.65421C11.7719 4.41905 11.4766 4.10733 11.2496 3.98702C10.9598 3.83116 10.916 3.82842 9.36565 3.82842C7.80158 3.82842 7.80979 3.82842 7.48713 3.99796C7.39963 4.04444 7.25471 4.15382 7.16447 4.24405L7.00041 4.40811L6.83908 4.24678C6.66682 4.07178 6.44533 3.94053 6.21018 3.87217C5.99143 3.80928 3.29533 3.80655 3.04924 3.86944C2.81955 3.9296 2.63908 4.03624 2.4258 4.23585C2.28088 4.37257 2.21525 4.46007 2.13322 4.63233C1.99377 4.92491 1.96916 5.08077 1.96916 5.6878V6.19913L1.85705 6.23468C1.79689 6.25655 1.66564 6.31944 1.56994 6.37413L1.39494 6.47803V4.36436C1.39494 2.50225 1.40041 2.23428 1.43869 2.10303C1.57268 1.6546 1.90627 1.30733 2.35197 1.15694L2.52971 1.09678L6.96213 1.09405C10.9571 1.09405 11.4082 1.09952 11.5422 1.1378ZM6.22111 4.4628C6.39065 4.5503 6.57385 4.74444 6.65314 4.91671C6.7051 5.02882 6.7133 5.10264 6.7215 5.51553L6.73244 5.98585L4.68439 5.99678C3.56057 6.00225 2.61174 6.01592 2.57893 6.0296L2.51604 6.04874V5.61397C2.51604 5.14639 2.54611 4.97413 2.66643 4.78819C2.77307 4.61866 2.97814 4.46007 3.17229 4.39991C3.21057 4.38897 3.88049 4.38077 4.66252 4.3835L6.08439 4.38897L6.22111 4.4628ZM10.9598 4.45186C11.1512 4.55303 11.3071 4.71436 11.3918 4.90303C11.4684 5.0671 11.4711 5.08897 11.4793 5.56202L11.4903 6.05147L11.4246 6.0296C11.3891 6.01592 10.4403 6.00225 9.31643 5.99678L7.26838 5.98585L7.27932 5.51553C7.28752 5.10264 7.29572 5.02882 7.34768 4.91671C7.45432 4.68428 7.68947 4.47647 7.9301 4.39991C7.96838 4.38897 8.6383 4.38077 9.42033 4.3835L10.8422 4.38897L10.9598 4.45186ZM11.2113 6.5628C11.8321 6.62843 12.3926 6.90186 12.7946 7.34483C12.9832 7.55264 13.0789 7.69483 13.2074 7.9628C13.3988 8.36202 13.4344 8.54522 13.4481 9.22061L13.459 9.81397L12.0317 9.82218L10.6043 9.83038L10.525 9.92061C10.4156 10.0409 10.4156 10.1749 10.525 10.2843L10.6043 10.3636H12.0289H13.4535V10.9105V11.4573H7.00041H0.547285V10.9105V10.3636H4.31525C8.48244 10.3636 8.16799 10.3773 8.23088 10.1858C8.27463 10.0491 8.2008 9.89874 8.06682 9.85225C7.99572 9.82764 7.06057 9.81944 4.2551 9.81944L0.541816 9.81671L0.552754 9.20694C0.566426 8.64639 0.571894 8.58077 0.640254 8.35655C0.845332 7.67296 1.25822 7.16163 1.86525 6.83897C2.11955 6.70225 2.46682 6.59561 2.74846 6.56553C3.08205 6.52999 10.875 6.52999 11.2113 6.5628ZM1.66838 12.2366C1.66838 12.5784 1.58635 12.7398 1.35666 12.8573C1.19533 12.9394 0.943769 12.9175 0.790644 12.8108C0.618379 12.6878 0.563691 12.5593 0.552754 12.2558L0.541816 12.0042H1.1051H1.66838V12.2366ZM13.4481 12.2558C13.4371 12.5593 13.3824 12.6878 13.2102 12.8108C13.0571 12.9175 12.8055 12.9394 12.6442 12.8573C12.4145 12.7398 12.3324 12.5784 12.3324 12.2366V12.0042H12.8957H13.459L13.4481 12.2558Z" fill="#3CAA9F"/>
<path d="M9.27773 9.83857C9.18477 9.85224 9.07812 9.99717 9.07812 10.1093C9.07812 10.246 9.20117 10.3636 9.34336 10.3636C9.54844 10.3636 9.66602 10.1858 9.58945 9.9999C9.56758 9.94795 9.53477 9.89599 9.51836 9.88506C9.46367 9.85224 9.34063 9.82763 9.27773 9.83857Z" fill="#3CAA9F"/>
</g>
<defs>
<clipPath id="clip0_418_448">
<rect width="14" height="14" fill="white"/>
</clipPath>
</defs>
</svg>
