<svg width="14" height="14" viewBox="0 0 14 14" fill="none" xmlns="http://www.w3.org/2000/svg">
<path d="M2.31047 0.590625C1.77727 0.719141 1.28234 1.12383 1.03898 1.62695C0.839375 2.04258 0.847578 1.93047 0.847578 4.56367V6.92344L0.716328 7.07656C0.344453 7.51133 0.109297 8.03906 0.0272654 8.62695C0.00539044 8.77461 -7.8314e-05 9.45547 0.00539044 10.7352L0.0135936 12.6219L0.1175 12.8297C0.235078 13.0703 0.410078 13.2453 0.650703 13.3629C0.79289 13.434 0.833906 13.4395 1.10734 13.4395C1.37805 13.4395 1.42453 13.4313 1.56672 13.3656C1.7882 13.2617 2.00695 13.0457 2.11086 12.827C2.19016 12.6629 2.19836 12.6164 2.2093 12.3238L2.22023 12.0039H6.99992H11.7796L11.7905 12.3266C11.8015 12.6164 11.8097 12.6629 11.889 12.827C11.9929 13.0457 12.2116 13.2617 12.4331 13.3656C12.5753 13.4313 12.6218 13.4395 12.8925 13.4395C13.1659 13.4395 13.207 13.434 13.3491 13.3629C13.5898 13.2453 13.7648 13.0703 13.8823 12.8297L13.9862 12.6219L13.9945 10.7215C13.9999 9.13828 13.9945 8.77461 13.9616 8.55859C13.8714 7.97891 13.6116 7.43203 13.237 7.02187L13.0976 6.86875V4.54727C13.0976 2.31055 13.0948 2.21484 13.0429 2.00703C12.898 1.43555 12.5234 0.976172 11.9929 0.727344C11.5882 0.535937 11.9273 0.546875 6.95617 0.549609C3.14172 0.552344 2.44992 0.557813 2.31047 0.590625ZM11.5417 1.1375C11.6237 1.16211 11.7495 1.21406 11.8261 1.25234C11.9956 1.33711 12.2964 1.63789 12.3921 1.82109C12.5534 2.11914 12.5507 2.09453 12.5507 4.35313C12.5507 5.49336 12.548 6.42578 12.5425 6.42578C12.5398 6.42578 12.4386 6.37656 12.3183 6.31641C12.198 6.25625 12.0859 6.20703 12.0667 6.20703C12.0394 6.20703 12.0312 6.08945 12.0312 5.69297C12.0312 5.09688 12.0066 4.93008 11.878 4.65391C11.7714 4.41875 11.4761 4.10703 11.2491 3.98672C10.9593 3.83086 10.9155 3.82812 9.36516 3.82812C7.80109 3.82812 7.8093 3.82812 7.48664 3.99766C7.39914 4.04414 7.25422 4.15352 7.16398 4.24375L6.99992 4.40781L6.83859 4.24648C6.66633 4.07148 6.44484 3.94023 6.20969 3.87187C5.99094 3.80898 3.29484 3.80625 3.04875 3.86914C2.81906 3.9293 2.63859 4.03594 2.42531 4.23555C2.28039 4.37227 2.21477 4.45977 2.13273 4.63203C1.99328 4.92461 1.96867 5.08047 1.96867 5.6875V6.19883L1.85656 6.23438C1.79641 6.25625 1.66516 6.31914 1.56945 6.37383L1.39445 6.47773V4.36406C1.39445 2.50195 1.39992 2.23398 1.4382 2.10273C1.57219 1.6543 1.90578 1.30703 2.35148 1.15664L2.52922 1.09648L6.96164 1.09375C10.9566 1.09375 11.4077 1.09922 11.5417 1.1375ZM6.22063 4.4625C6.39016 4.55 6.57336 4.74414 6.65266 4.91641C6.70461 5.02852 6.71281 5.10234 6.72102 5.51523L6.73195 5.98555L4.68391 5.99648C3.56008 6.00195 2.61125 6.01562 2.57844 6.0293L2.51555 6.04844V5.61367C2.51555 5.14609 2.54562 4.97383 2.66594 4.78789C2.77258 4.61836 2.97766 4.45977 3.1718 4.39961C3.21008 4.38867 3.88 4.38047 4.66203 4.3832L6.08391 4.38867L6.22063 4.4625ZM10.9593 4.45156C11.1507 4.55273 11.3066 4.71406 11.3913 4.90273C11.4679 5.0668 11.4706 5.08867 11.4788 5.56172L11.4898 6.05117L11.4241 6.0293C11.3886 6.01562 10.4398 6.00195 9.31594 5.99648L7.26789 5.98555L7.27883 5.51523C7.28703 5.10234 7.29523 5.02852 7.34719 4.91641C7.45383 4.68398 7.68898 4.47617 7.92961 4.39961C7.96789 4.38867 8.63781 4.38047 9.41984 4.3832L10.8417 4.38867L10.9593 4.45156ZM11.2109 6.5625C11.8316 6.62813 12.3921 6.90156 12.7941 7.34453C12.9827 7.55234 13.0784 7.69453 13.207 7.9625C13.3984 8.36172 13.4339 8.54492 13.4476 9.22031L13.4585 9.81367L12.0312 9.82188L10.6038 9.83008L10.5245 9.92031C10.4152 10.0406 10.4152 10.1746 10.5245 10.284L10.6038 10.3633H12.0284H13.453V10.9102V11.457H6.99992H0.546797V10.9102V10.3633H4.31477C8.48195 10.3633 8.1675 10.377 8.23039 10.1855C8.27414 10.0488 8.20031 9.89844 8.06633 9.85195C7.99523 9.82734 7.06008 9.81914 4.25461 9.81914L0.541328 9.81641L0.552265 9.20664C0.565937 8.64609 0.571406 8.58047 0.639766 8.35625C0.844844 7.67266 1.25773 7.16133 1.86477 6.83867C2.11906 6.70195 2.46633 6.59531 2.74797 6.56523C3.08156 6.52969 10.8745 6.52969 11.2109 6.5625ZM1.66789 12.2363C1.66789 12.5781 1.58586 12.7395 1.35617 12.857C1.19484 12.9391 0.943281 12.9172 0.790156 12.8105C0.617891 12.6875 0.563203 12.559 0.552265 12.2555L0.541328 12.0039H1.10461H1.66789V12.2363ZM13.4476 12.2555C13.4366 12.559 13.382 12.6875 13.2097 12.8105C13.0566 12.9172 12.805 12.9391 12.6437 12.857C12.414 12.7395 12.332 12.5781 12.332 12.2363V12.0039H12.8952H13.4585L13.4476 12.2555Z" fill="white"/>
<path d="M9.27773 9.83828C9.18477 9.85195 9.07812 9.99688 9.07812 10.109C9.07812 10.2457 9.20117 10.3633 9.34336 10.3633C9.54844 10.3633 9.66602 10.1855 9.58945 9.99961C9.56758 9.94766 9.53477 9.8957 9.51836 9.88477C9.46367 9.85195 9.34063 9.82734 9.27773 9.83828Z" fill="white"/>
</svg>
