<svg width="34" height="34" viewBox="0 0 34 34" fill="none" xmlns="http://www.w3.org/2000/svg">
<circle cx="17" cy="17" r="16.5" stroke="#3CAA9F"/>
<path d="M23.5 11H10.5C9.67285 11 9 11.6729 9 12.5V21.5C9 22.3272 9.67285 23 10.5 23H23.5C24.3271 23 25 22.3272 25 21.5V12.5C25 11.6729 24.3271 11 23.5 11ZM23.5 12C23.5679 12 23.6325 12.0141 23.6916 12.0387L17 17.8384L10.3083 12.0387C10.3674 12.0141 10.432 12 10.5 12H23.5ZM23.5 22H10.5C10.2241 22 10 21.7759 10 21.5V13.0952L16.6724 18.8779C16.7666 18.9595 16.8833 19 17 19C17.1167 19 17.2334 18.9595 17.3276 18.8779L24 13.0952V21.5C24 21.7759 23.7759 22 23.5 22Z" fill="#3CAA9F"/>
</svg>
