<svg width="34" height="34" viewBox="0 0 34 34" fill="none" xmlns="http://www.w3.org/2000/svg">
<path d="M21.3573 11.7399C20.375 10.0642 18.6301 9.04039 16.6897 9.00127C16.6069 8.99958 16.5235 8.99958 16.4407 9.00127C14.5004 9.04039 12.7555 10.0642 11.7731 11.7399C10.7689 13.4528 10.7415 15.5103 11.6996 17.2438L15.7135 24.5058C15.7153 24.5091 15.7171 24.5123 15.7189 24.5155C15.8955 24.8189 16.2119 25 16.5653 25C16.9186 25 17.235 24.8188 17.4115 24.5155C17.4134 24.5123 17.4152 24.5091 17.417 24.5058L21.4309 17.2438C22.3889 15.5103 22.3615 13.4528 21.3573 11.7399ZM16.5652 16.25C15.3101 16.25 14.289 15.2407 14.289 14C14.289 12.7594 15.3101 11.75 16.5652 11.75C17.8203 11.75 18.8415 12.7594 18.8415 14C18.8415 15.2407 17.8204 16.25 16.5652 16.25Z" fill="#3CAA9F"/>
<circle cx="17" cy="17" r="16.5" stroke="#3CAA9F"/>
</svg>
