<svg width="34" height="34" viewBox="0 0 34 34" fill="none" xmlns="http://www.w3.org/2000/svg">
<circle cx="17" cy="17" r="16.5" stroke="#3CAA9F"/>
<path d="M21.6515 18.9109C21.3235 18.5698 20.9278 18.3874 20.5085 18.3874C20.0926 18.3874 19.6935 18.5664 19.352 18.9075L18.2834 19.9712C18.1954 19.924 18.1075 19.8801 18.023 19.8362C17.9012 19.7754 17.7863 19.718 17.6882 19.6572C16.6872 19.0223 15.7775 18.195 14.9051 17.1245C14.4823 16.5909 14.1983 16.1418 13.992 15.6859C14.2693 15.4326 14.5263 15.1692 14.7766 14.9159C14.8712 14.8214 14.9659 14.7235 15.0606 14.6289C15.7708 13.9197 15.7708 13.0012 15.0606 12.292L14.1374 11.3701C14.0326 11.2655 13.9244 11.1574 13.8229 11.0493C13.62 10.84 13.407 10.6238 13.1872 10.4212C12.8591 10.097 12.4669 9.9248 12.0543 9.9248C11.6417 9.9248 11.2427 10.097 10.9045 10.4212C10.9011 10.4246 10.9011 10.4246 10.8978 10.428L9.74798 11.5863C9.31513 12.0185 9.06827 12.5453 9.01416 13.1565C8.933 14.1426 9.22382 15.0611 9.44701 15.6622C9.99485 17.138 10.8132 18.5056 12.034 19.9712C13.5152 21.7374 15.2973 23.1321 17.3331 24.1148C18.1109 24.4828 19.1491 24.9185 20.309 24.9928C20.38 24.9961 20.4544 24.9995 20.522 24.9995C21.3032 24.9995 21.9592 24.7192 22.4733 24.162C22.4766 24.1553 22.4834 24.1519 22.4868 24.1452C22.6626 23.9324 22.8655 23.7399 23.0786 23.5339C23.224 23.3955 23.3728 23.2503 23.5182 23.0983C23.853 22.7505 24.0288 22.3452 24.0288 21.9299C24.0288 21.5111 23.8496 21.1093 23.5081 20.7716L21.6515 18.9109ZM22.8622 22.4668C22.8588 22.4668 22.8588 22.4702 22.8622 22.4668C22.7303 22.6086 22.595 22.737 22.4496 22.8788C22.2298 23.0882 22.0066 23.3077 21.7969 23.5542C21.4554 23.9189 21.053 24.0911 20.5254 24.0911C20.4747 24.0911 20.4206 24.0911 20.3699 24.0877C19.3655 24.0236 18.4322 23.6319 17.7321 23.2975C15.8181 22.3723 14.1374 21.0586 12.7408 19.3938C11.5876 18.0059 10.8166 16.7226 10.306 15.3448C9.99147 14.504 9.87649 13.8488 9.92721 13.2308C9.96103 12.8357 10.1132 12.5082 10.3939 12.2279L11.547 11.0763C11.7127 10.921 11.8886 10.8366 12.0611 10.8366C12.2741 10.8366 12.4466 10.9649 12.5548 11.073C12.5582 11.0763 12.5615 11.0797 12.5649 11.0831C12.7712 11.2756 12.9673 11.4748 13.1736 11.6876C13.2785 11.7956 13.3867 11.9037 13.4949 12.0151L14.4181 12.937C14.7766 13.295 14.7766 13.6259 14.4181 13.9839C14.32 14.0818 14.2253 14.1798 14.1273 14.2743C13.8432 14.5647 13.5727 14.8349 13.2785 15.0983C13.2717 15.1051 13.2649 15.1084 13.2616 15.1152C12.9707 15.4056 13.0248 15.6893 13.0857 15.8817C13.0891 15.8919 13.0925 15.902 13.0959 15.9121C13.336 16.493 13.6741 17.04 14.1881 17.6918L14.1915 17.6952C15.1249 18.8433 16.1089 19.7382 17.1945 20.4238C17.3331 20.5116 17.4751 20.5825 17.6104 20.65C17.7321 20.7108 17.8471 20.7682 17.9452 20.829C17.9587 20.8357 17.9722 20.8459 17.9858 20.8526C18.1007 20.91 18.209 20.937 18.3206 20.937C18.6012 20.937 18.7771 20.7614 18.8346 20.704L19.9911 19.5491C20.1061 19.4343 20.2887 19.2958 20.5017 19.2958C20.7114 19.2958 20.8839 19.4275 20.9887 19.5424C20.9921 19.5457 20.9921 19.5457 20.9955 19.5491L22.8588 21.4098C23.2071 21.7543 23.2071 22.1089 22.8622 22.4668Z" fill="#3CAA9F"/>
<path d="M17.647 12.8048C18.533 12.9533 19.3379 13.3721 19.9804 14.0137C20.6229 14.6553 21.0388 15.459 21.191 16.3438C21.2282 16.5667 21.421 16.722 21.6408 16.722C21.6678 16.722 21.6915 16.7187 21.7186 16.7153C21.9688 16.6748 22.1345 16.4384 22.0939 16.1885C21.9113 15.118 21.4041 14.142 20.6297 13.3687C19.8553 12.5954 18.878 12.0888 17.806 11.9065C17.5557 11.866 17.3224 12.0314 17.2784 12.278C17.2345 12.5245 17.3968 12.7642 17.647 12.8048Z" fill="#3CAA9F"/>
<path d="M24.9933 16.058C24.6924 14.2953 23.8605 12.6912 22.5822 11.4147C21.3039 10.1382 19.6976 9.3075 17.9324 9.00695C17.6855 8.96305 17.4522 9.1319 17.4082 9.37841C17.3676 9.62831 17.5333 9.86132 17.7836 9.90522C19.3594 10.172 20.7967 10.9183 21.9397 12.0563C23.0827 13.1977 23.8266 14.633 24.0938 16.2066C24.131 16.4295 24.3238 16.5848 24.5436 16.5848C24.5706 16.5848 24.5943 16.5815 24.6213 16.5781C24.8682 16.5409 25.0373 16.3045 24.9933 16.058Z" fill="#3CAA9F"/>
</svg>
