<svg width="40" height="40" viewBox="0 0 40 40" fill="none" xmlns="http://www.w3.org/2000/svg">
<path d="M8.24219 5.22657C7.49219 5.57032 7.19531 6.125 7.1875 7.16407V7.89062L6.78125 8.09375C4.90625 9.03125 3.52344 10.6797 2.9375 12.6563C2.79688 13.1172 1.875 18.5234 1.875 18.8594C1.875 19.3125 2.54688 19.5625 2.85156 19.2188C2.95312 19.1016 3.10938 18.3438 3.48438 16.1563C4 13.1172 4.10938 12.6406 4.42969 11.9922C5.27344 10.3203 6.76562 9.14063 8.57812 8.69532C9.29688 8.52344 10.6562 8.52343 11.3672 8.70312C12.1016 8.89062 13.2266 9.44532 13.75 9.875L14.1797 10.2344L14.2266 10.9531C14.2891 12.0313 14.6484 12.625 15.4531 13.0234C15.8984 13.2422 15.9062 13.2422 17.4688 13.2422C18.9062 13.2422 19.0625 13.2266 19.2109 13.0938C19.4375 12.8906 19.4375 12.4219 19.2109 12.2188C19.0625 12.0859 18.875 12.0625 17.5078 12.0313C15.8281 11.9922 15.7188 11.9609 15.5078 11.5156C15.4453 11.375 15.3906 11.125 15.3906 10.9453V10.625H20H24.6094V10.9453C24.6094 11.3281 24.4141 11.7656 24.1875 11.8984C24.0781 11.9609 23.4844 12.0078 22.4922 12.0313C21.125 12.0625 20.9375 12.0859 20.7891 12.2188C20.5625 12.4219 20.5625 12.8906 20.7891 13.0938C20.9375 13.2266 21.0938 13.2422 22.5312 13.2422C24.0938 13.2422 24.1016 13.2422 24.5469 13.0234C25.3516 12.625 25.7109 12.0313 25.7734 10.9531L25.8203 10.2344L26.25 9.875C26.7891 9.42969 27.9141 8.87499 28.6328 8.70312C29.2969 8.53907 30.6328 8.52344 31.2891 8.66407C33.4141 9.125 35.1719 10.6797 35.8594 12.7266C36.0391 13.2734 38.8281 29.7109 38.8281 30.25C38.8281 31.0938 38.4062 32.0703 37.7656 32.7109C36.6484 33.8281 34.9141 34.0703 33.5 33.3047C33.0234 33.0469 32.3438 32.3281 32.0938 31.8281C31.9844 31.6172 31.7656 31.0391 31.6016 30.5469C31.4453 30.0547 31.2422 29.5781 31.1641 29.5C30.8906 29.2109 30.3828 29.3438 30.2266 29.7344C30.1406 29.9609 30.8281 32.0391 31.1875 32.6406C32.4531 34.7578 35.1875 35.5234 37.4453 34.3906C38.9297 33.6484 39.9922 31.9219 40 30.2422C40 29.75 37.2578 13.3047 37.0625 12.6563C36.4922 10.7188 35.1172 9.05469 33.3438 8.15625L32.8125 7.89062V7.19532C32.8125 6.15625 32.5469 5.625 31.8516 5.27344C31.4688 5.08594 31.3984 5.07812 30.0156 5.07812C28.4375 5.07812 28.125 5.13282 27.7031 5.47657C27.25 5.85157 27.1094 6.25782 27.1094 7.16407V7.94532L26.4922 8.30469C26.1562 8.5 25.6641 8.84375 25.4062 9.05469L24.9297 9.45312H20H15.0703L14.5938 9.05469C14.3359 8.84375 13.8438 8.5 13.5078 8.30469L12.8906 7.94532V7.16407C12.8906 6.25782 12.75 5.85157 12.2969 5.47657C11.875 5.13282 11.5625 5.07812 9.99219 5.07812C8.76562 5.07812 8.50781 5.10157 8.24219 5.22657ZM11.5625 6.40625C11.6875 6.53125 11.7188 6.66407 11.7188 7.07812C11.7188 7.58593 11.7188 7.59375 11.5312 7.54688C10.7188 7.34374 9.67188 7.32032 8.65625 7.47657L8.35938 7.52344V7.09375C8.35938 6.77344 8.39844 6.60938 8.52344 6.45312L8.67969 6.25H10.0469C11.3047 6.25 11.4219 6.26563 11.5625 6.40625ZM31.4766 6.45312C31.6016 6.60938 31.6406 6.77344 31.6406 7.09375V7.52344L31.3516 7.47657C30.3281 7.32032 29.2812 7.34374 28.4688 7.54688C28.2812 7.59375 28.2812 7.58593 28.2812 7.07812C28.2812 6.25782 28.2969 6.25 29.9531 6.25H31.3203L31.4766 6.45312Z" fill="#3CAA9F"/>
<path d="M29.727 10.3824C28.2192 11.0621 28.4536 13.2184 30.0786 13.5855C31.1098 13.8199 32.1098 12.9918 32.1098 11.9137C32.1098 10.6949 30.8364 9.87457 29.727 10.3824ZM30.7817 11.5621C31.063 11.8434 30.9302 12.359 30.5473 12.4293C30.2817 12.484 30.0005 12.3434 29.9458 12.1246C29.8755 11.859 29.9067 11.7184 30.0552 11.5387C30.2192 11.359 30.5864 11.3668 30.7817 11.5621Z" fill="#3CAA9F"/>
<path d="M9.33585 11.1402C8.75772 11.3512 8.28116 11.9605 8.17178 12.6246C8.1171 12.9371 8.1171 12.9371 7.64053 13.0387C7.23428 13.1246 7.10928 13.1949 6.75772 13.5387C6.43741 13.8668 6.32803 14.0387 6.24991 14.3668C5.99991 15.4059 6.70303 16.4684 7.73428 16.609L8.10928 16.6559L8.19522 17.0777C8.52335 18.734 10.539 19.1402 11.5155 17.7574C11.664 17.5387 11.7499 17.3043 11.7812 17.0387C11.8124 16.6559 11.828 16.6402 12.0624 16.6402C12.1952 16.6402 12.4843 16.5543 12.6952 16.4527C13.4062 16.1168 13.7499 15.5777 13.7499 14.8043C13.7499 13.8512 13.1093 13.1246 12.1483 12.9918C11.8358 12.9527 11.7968 12.9215 11.7968 12.7496C11.7968 11.5777 10.4921 10.7184 9.33585 11.1402ZM10.4296 12.3824C10.6015 12.5465 10.6249 12.6402 10.6249 13.1637C10.6249 13.6871 10.6483 13.7809 10.8202 13.9449C10.9843 14.1168 11.078 14.1402 11.5233 14.1402C12.0624 14.1402 12.4452 14.273 12.5312 14.4918C12.6327 14.7652 12.578 15.0855 12.3827 15.273C12.2187 15.4449 12.1249 15.4684 11.6171 15.4684C10.7812 15.4684 10.6874 15.5621 10.6327 16.4449C10.5937 17.0309 10.5624 17.1402 10.3983 17.273C10.1483 17.4762 9.82022 17.4605 9.5546 17.234C9.35928 17.0621 9.33585 16.9918 9.31241 16.4137C9.27335 15.5934 9.14835 15.4684 8.34366 15.4684C7.84366 15.4684 7.78116 15.4527 7.56241 15.234C7.3671 15.0309 7.33585 14.9527 7.37491 14.7418C7.39835 14.6012 7.50772 14.4137 7.62491 14.3121C7.78897 14.1715 7.91397 14.1402 8.39053 14.1402C9.18741 14.1402 9.2421 14.0855 9.3046 13.234C9.34366 12.6168 9.3671 12.5387 9.56241 12.3746C9.84366 12.1324 10.1874 12.1324 10.4296 12.3824Z" fill="#3CAA9F"/>
<path d="M26.8355 13.2578C26.484 13.4375 26.0855 13.8359 25.9605 14.1328C25.8277 14.4453 25.8121 15.1016 25.9371 15.4297C26.1871 16.0781 26.7965 16.4922 27.5152 16.4922C28.0308 16.4922 28.2574 16.4063 28.6246 16.0859C29.5855 15.25 29.3433 13.7344 28.1871 13.25C27.8121 13.0938 27.1402 13.0938 26.8355 13.2578ZM27.9058 14.4297C28.0777 14.5859 28.0855 14.9766 27.9136 15.1719C27.7574 15.3438 27.3668 15.3516 27.1715 15.1797C26.9996 15.0234 26.9918 14.6328 27.1636 14.4375C27.3199 14.2656 27.7105 14.2578 27.9058 14.4297Z" fill="#3CAA9F"/>
<path d="M32.6097 13.2345C32.2035 13.4142 31.8128 13.8673 31.68 14.3126C31.1722 16.0314 33.3128 17.2657 34.5472 15.961C35.3441 15.1251 35.0394 13.6954 33.9691 13.2501C33.6097 13.1017 32.9378 13.0939 32.6097 13.2345ZM33.7035 14.4689C33.9769 14.8517 33.766 15.3126 33.3285 15.3126C33.0394 15.3126 32.9456 15.2579 32.8206 15.0235C32.7035 14.7892 32.7113 14.7423 32.8988 14.5001C33.1097 14.2345 33.5316 14.2189 33.7035 14.4689Z" fill="#3CAA9F"/>
<path d="M16.0938 16.0938C15.8985 16.2891 15.8907 16.6484 16.086 16.8828C16.2344 17.0625 16.2735 17.0703 17.3672 17.0703C18.3672 17.0703 18.5157 17.0547 18.6641 16.9219C18.8751 16.7266 18.8829 16.3047 18.6719 16.0938C18.5313 15.9531 18.4141 15.9375 17.3829 15.9375C16.3516 15.9375 16.2344 15.9531 16.0938 16.0938Z" fill="#3CAA9F"/>
<path d="M21.3282 16.0938C21.1172 16.3047 21.1251 16.7266 21.336 16.9219C21.4844 17.0547 21.6329 17.0703 22.6329 17.0703C23.7266 17.0703 23.7657 17.0625 23.9141 16.8828C24.1094 16.6484 24.1016 16.2891 23.9063 16.0938C23.7657 15.9531 23.6485 15.9375 22.6172 15.9375C21.586 15.9375 21.4688 15.9531 21.3282 16.0938Z" fill="#3CAA9F"/>
<path d="M29.7813 16.094C28.5547 16.5861 28.3594 18.3361 29.4376 19.1018C29.8829 19.4143 30.6719 19.4768 31.1407 19.2346C32.7657 18.3986 32.2188 16.0002 30.4141 16.0236C30.1641 16.0236 29.8829 16.0549 29.7813 16.094ZM30.7969 17.3205C30.9688 17.4768 30.9766 17.8674 30.8047 18.0627C30.5157 18.383 29.9063 18.1408 29.9063 17.6955C29.9063 17.258 30.4688 17.0158 30.7969 17.3205Z" fill="#3CAA9F"/>
<path d="M12.8281 18.875C12.3516 19.0547 11.6953 19.6797 11.4766 20.1719C11.2266 20.7578 11.2266 21.6094 11.4844 22.1484C11.7266 22.6484 12.1953 23.1172 12.6953 23.3594C13 23.5 13.2188 23.5469 13.6719 23.5469C14.4453 23.5547 14.9453 23.3359 15.4609 22.7656C15.9609 22.2188 16.125 21.7422 16.0781 20.9844C16.0156 20.1016 15.6016 19.4453 14.8281 19.0234C14.4922 18.8359 14.3047 18.7969 13.7891 18.7734C13.3672 18.7578 13.0547 18.7891 12.8281 18.875ZM14.2891 20.0859C14.6875 20.3125 14.8672 20.5938 14.9063 21.0547C14.9453 21.5391 14.8047 21.8516 14.4297 22.1406C13.6719 22.7188 12.5703 22.2344 12.4453 21.2656C12.3984 20.8906 12.6797 20.3359 13.0391 20.1016C13.3828 19.8672 13.8984 19.8672 14.2891 20.0859Z" fill="#3CAA9F"/>
<path d="M25.578 18.8364C24.9139 19.0239 24.1717 19.7818 23.9842 20.4536C23.867 20.8833 23.8905 21.563 24.0311 21.9849C24.203 22.4849 24.8123 23.1333 25.328 23.3677C25.6326 23.5005 25.8905 23.5474 26.2889 23.5552C27.4451 23.5552 28.3045 22.9068 28.6326 21.7661C28.7889 21.2271 28.7498 20.7114 28.4998 20.1411C28.2967 19.6568 27.6326 19.0474 27.1405 18.8755C26.742 18.7427 25.9686 18.7193 25.578 18.8364ZM26.9608 20.1021C27.7811 20.6489 27.7108 21.8443 26.828 22.2661C26.0076 22.6646 25.078 22.0864 25.078 21.1724C25.078 20.6255 25.3514 20.2193 25.8592 19.9849C26.1248 19.8677 26.6951 19.9224 26.9608 20.1021Z" fill="#3CAA9F"/>
<path d="M1.6875 20.7188C1.5 20.8907 1.44531 21.1251 0.742188 25.3672C0.335938 27.8282 0 30.0235 0 30.25C0.0078125 32.3985 1.58594 34.336 3.71875 34.8125C4.49219 34.9844 5.53906 34.9297 6.25 34.6875C7.28125 34.336 8.26563 33.5547 8.8125 32.6407C8.96094 32.3829 9.51563 30.8907 10.2031 28.8516L11.3438 25.4844L11.8281 25.6641C13.4063 26.2579 15.2734 25.9766 16.5391 24.9532L16.8594 24.6876H19.9922H23.125L23.4922 24.9688C24.8438 26.0001 26.5938 26.2579 28.1797 25.6641L28.6641 25.4766L29.0703 26.7032C29.4922 27.9688 29.6797 28.2813 30.0156 28.2813C30.2734 28.2813 30.5156 28.086 30.5781 27.8438C30.6641 27.5235 29.5781 24.3516 29.3203 24.1407C29.2109 24.0547 29.0781 23.9844 29.0313 23.9844C28.9844 23.9844 28.6328 24.1407 28.2422 24.336C26.6953 25.1094 25.2188 24.9297 23.9297 23.8126L23.5859 23.5157H20H16.4141L16.0703 23.8126C14.7813 24.9297 13.3047 25.1094 11.7578 24.336C11.375 24.1407 11.0156 23.9844 10.9688 23.9844C10.9219 23.9844 10.7891 24.0547 10.6797 24.1407C10.5156 24.2735 10.2734 24.9141 9.28906 27.875C8.64063 29.836 8.01563 31.6172 7.90625 31.8282C7.65625 32.3282 6.97656 33.0469 6.5 33.3047C5.46875 33.8594 4.27344 33.8985 3.24219 33.4141C2.00781 32.8282 1.17188 31.5469 1.17188 30.2422C1.17188 30.0469 1.50781 27.9141 1.91406 25.5001C2.69531 20.8985 2.70313 20.8126 2.35156 20.6329C2.10938 20.5001 1.89844 20.5313 1.6875 20.7188Z" fill="#3CAA9F"/>
</svg>
