<svg width="50" height="50" viewBox="0 0 50 50" fill="none" xmlns="http://www.w3.org/2000/svg">
<path d="M23.7598 0.790631C21.1914 3.14415 17.4414 4.77501 13.4277 5.27306C12.9492 5.34142 11.8457 5.39024 10.9863 5.39024C9.00392 5.39024 8.07618 5.27306 5.49806 4.71642C5.34181 4.67735 5.19532 4.75548 4.98048 4.96056L4.68751 5.25352V19.2575C4.68751 34.5992 4.67774 34.2672 5.27345 36.0348C5.87892 37.8414 6.66993 39.111 8.10548 40.527C8.78907 41.2008 9.42384 41.7282 9.97071 42.0504C11.2305 42.8219 24.5215 49.9117 24.8242 49.9703C25.0293 50.0094 26.5137 49.2575 32.2461 46.2399C36.1817 44.1598 39.7754 42.2164 40.2344 41.9137C40.6934 41.6207 41.4551 40.986 41.9531 40.4879C43.3008 39.1403 44.1504 37.7731 44.7266 36.0348C45.3223 34.2672 45.3125 34.5992 45.3125 19.2575V5.25352L45.0195 4.96056C44.8047 4.75548 44.6582 4.67735 44.502 4.71642C41.8848 5.28282 40.9766 5.39024 38.916 5.39024C33.8477 5.38048 29.4336 3.73985 25.752 0.497662C24.9512 -0.205463 24.834 -0.185932 23.7598 0.790631ZM25.6641 2.48009C28.3301 4.62852 31.8945 6.1422 35.6641 6.7379C37.6953 7.0504 40.7129 7.03087 42.6758 6.68907C43.1348 6.61095 43.5645 6.54259 43.6328 6.54259C43.7891 6.54259 43.8086 32.6754 43.6426 33.8473C43.2715 36.5328 41.6699 39.111 39.4531 40.5758C39.1016 40.8102 35.6934 42.6461 31.875 44.6676L24.9317 48.3395L18.252 44.7653C14.5801 42.8024 11.2891 41.025 10.9375 40.82C8.53517 39.3942 6.74806 36.6891 6.35743 33.8473C6.19142 32.6754 6.21095 6.54259 6.37696 6.54259C6.43556 6.54259 6.86524 6.61095 7.32423 6.68907C8.69142 6.93321 10.8008 7.03087 12.3145 6.93321C17.0606 6.61095 20.9863 5.12657 24.3164 2.40196C24.6094 2.15782 24.8926 1.96251 24.9317 1.95274C24.9707 1.95274 25.3027 2.18712 25.6641 2.48009Z" fill="#3CAA9F"/>
<path d="M24.5606 4.24759C24.4043 4.33549 24.1406 4.5015 23.9746 4.62845C22.5488 5.69291 19.8047 6.98197 17.627 7.60697C15.3223 8.27103 13.4375 8.5054 10.7422 8.48587C9.69727 8.47611 8.71095 8.47611 8.5547 8.47611C8.35938 8.46634 8.19337 8.55423 8.03712 8.73001L7.81251 8.99368V21.0347C7.81251 34.3843 7.80274 34.0816 8.44727 35.5757C8.62306 35.9956 8.91602 36.5914 9.10157 36.8843C9.48243 37.5191 10.6934 38.7984 11.3281 39.2281C11.5723 39.3941 14.707 41.0933 18.291 43.0171C23.1738 45.6246 24.8731 46.4839 25.0391 46.4449C25.3418 46.3667 38.0762 39.6382 38.6426 39.2476C39.3066 38.7984 40.5176 37.5289 40.8984 36.8843C41.4453 35.9664 41.875 34.8531 42.041 33.9449C42.168 33.2124 42.1875 31.7769 42.1875 24.2671C42.1875 15.4976 42.1875 15.4585 41.9824 15.1949C41.7188 14.8628 41.1426 14.8335 40.8594 15.146C40.6836 15.3414 40.6738 15.6831 40.625 24.5503L40.5762 33.7398L40.293 34.5601C39.7559 36.0933 38.6523 37.441 37.2559 38.2515C36.2695 38.8374 25.0684 44.7456 24.9512 44.7554C24.8535 44.7554 13.9258 38.9449 12.7441 38.2515C11.3477 37.441 10.2441 36.0933 9.70704 34.5601L9.42384 33.7398L9.39454 21.9136L9.37501 10.0777H11.1524C15.8106 10.0581 20.3711 8.78861 23.9746 6.49368C24.4629 6.18118 24.9024 5.92728 24.9512 5.92728C25.0098 5.92728 25.4492 6.17142 25.9277 6.46439C29.7754 8.82767 34.1992 10.0581 38.8477 10.0777H40.625V11.3863C40.625 12.5972 40.6445 12.7046 40.8496 12.9292C41.1816 13.3101 41.5137 13.3394 41.875 13.0367L42.1875 12.773V10.8882C42.1875 9.05228 42.1777 8.98392 41.9629 8.73001C41.8066 8.55423 41.6406 8.46634 41.4453 8.46634C41.2891 8.46634 40.2832 8.47611 39.209 8.48587C37.959 8.49564 36.8164 8.44681 36.0352 8.34915C32.5195 7.9097 29.1113 6.67924 26.1914 4.7847C25.1367 4.10111 24.9512 4.04252 24.5606 4.24759Z" fill="#3CAA9F"/>
<path d="M27.6074 11.0933C26.709 11.3667 26.1426 12.187 25.7812 13.73C25.4102 15.2925 24.9316 15.8784 23.0957 16.9429C21.7383 17.7339 20.8691 18.5347 20.2148 19.5991L19.7754 20.312H18.877H17.9688V19.814C17.9688 19.394 17.9199 19.2768 17.6758 19.0327L17.3926 18.7397L14.7363 18.769L12.0898 18.7983L11.9043 19.0327C11.7285 19.2475 11.7188 19.5112 11.7188 25.7905C11.7188 32.1284 11.7285 32.3335 11.9043 32.5093C12.1973 32.8022 12.5293 32.8315 15.127 32.7925L17.5 32.7632L17.7344 32.4897C17.9102 32.2749 17.9688 32.0991 17.9688 31.728V31.2495H19.0039H20.0391L21.9922 32.812L23.9551 34.3745H28.9355C32.5586 34.3745 34.0234 34.3452 34.3164 34.2573C34.8535 34.1011 35.6641 33.2905 35.8203 32.7534C35.9668 32.2456 35.957 31.689 35.8008 31.2495C35.6738 30.9175 35.6836 30.8979 36.084 30.4585C36.6895 29.7749 36.875 28.9253 36.582 28.1245C36.4551 27.7925 36.4648 27.7729 36.8652 27.3335C37.4707 26.6499 37.6562 25.8003 37.3633 24.9995C37.2363 24.6675 37.2461 24.6479 37.6465 24.2085C38.4766 23.271 38.4961 22.0698 37.6855 21.1518C36.9824 20.3511 37.0605 20.3706 32.832 20.312L29.0918 20.2632L29.3457 19.9214C30.6348 18.2026 31.3086 16.1714 31.2305 14.2964C31.1914 13.4565 31.1426 13.2222 30.8887 12.6753C30.2148 11.23 29.0234 10.6636 27.6074 11.0933ZM29.1406 12.8315C29.541 13.2417 29.6875 13.7495 29.6875 14.6675C29.6875 16.3667 28.7598 18.3686 27.1582 20.1362C26.6699 20.6733 26.5625 20.8393 26.5625 21.1225C26.5625 21.3765 26.6309 21.5229 26.8164 21.6694C27.0703 21.8745 27.168 21.8745 31.6602 21.8745H36.2402L36.4746 22.1186C36.7969 22.4311 36.7969 22.8804 36.4746 23.1929C36.2695 23.4077 36.1523 23.437 35.5469 23.437C34.9414 23.437 34.8242 23.4663 34.6191 23.6811C34.1309 24.1597 34.4727 24.9995 35.1562 24.9995C35.8398 24.9995 36.1816 25.8393 35.6934 26.3179C35.4883 26.5327 35.3711 26.562 34.7656 26.562C34.1602 26.562 34.043 26.5913 33.8379 26.8061C33.3496 27.2847 33.6914 28.1245 34.375 28.1245C34.7754 28.1245 35.1562 28.5054 35.1562 28.9057C35.1562 29.0913 35.0684 29.2964 34.9121 29.4429C34.707 29.6577 34.5898 29.687 33.9844 29.687C33.3789 29.687 33.2617 29.7163 33.0566 29.9311C32.5684 30.4097 32.9102 31.2495 33.5938 31.2495C33.9941 31.2495 34.375 31.6304 34.375 32.0307C34.375 32.2163 34.2871 32.4214 34.1309 32.5679L33.8965 32.812H29.1895H24.4922L22.5391 31.2495L20.5762 29.687H19.2773H17.9688V25.7807V21.8745H19.248C19.9512 21.8745 20.6055 21.8354 20.7031 21.7768C20.8008 21.728 21.0449 21.3374 21.25 20.9272C21.6699 20.0483 22.7051 18.9253 23.4375 18.5542C24.4141 18.0561 25.7715 17.0796 26.1621 16.5913C26.6992 15.9175 27.1094 15.0288 27.2949 14.1694C27.5586 12.8901 27.8418 12.4995 28.5059 12.4995C28.75 12.4995 28.9062 12.5776 29.1406 12.8315ZM16.4062 25.7807V31.2495H14.8438H13.2812V25.7807V20.312H14.8438H16.4062V25.7807Z" fill="#3CAA9F"/>
</svg>
