<svg width="211" height="207" viewBox="0 0 211 207" fill="none" xmlns="http://www.w3.org/2000/svg">
<g clip-path="url(#clip0_429_239)">
<path d="M209.79 105.892C209.79 160.659 165.41 205.055 110.664 205.055C55.9188 205.055 11.5382 160.659 11.5382 105.892C11.5382 51.1258 55.9188 6.72949 110.664 6.72949C165.41 6.72949 209.79 51.1258 209.79 105.892Z" fill="white" stroke="#3CAA9F" stroke-width="2"/>
<path d="M21.322 166.408H21.3231C22.1998 165.789 23.4109 165.997 24.0281 166.876L24.0289 166.877C28.5178 173.24 33.7176 179.106 39.4866 184.313C40.2815 185.034 40.3457 186.26 39.6309 187.058C39.2462 187.479 38.7166 187.696 38.1871 187.696C37.724 187.696 37.2628 187.532 36.885 187.195C30.9028 181.795 25.5092 175.712 20.854 169.115C20.2355 168.238 20.4438 167.026 21.322 166.408Z" fill="#3CAA9F" stroke="white" stroke-width="1.5"/>
<path d="M72.247 2.96687V2.96685C73.832 2.3776 75.4495 1.8165 77.0524 1.30231C78.0752 0.976356 79.1679 1.54109 79.4934 2.5578C79.8202 3.58287 79.2579 4.67485 78.2386 5.00001L78.2385 5.00003C76.6934 5.49306 75.1347 6.03328 73.6093 6.60182C73.379 6.68527 73.1465 6.72518 72.927 6.72518C72.1384 6.72518 71.3991 6.24212 71.1071 5.46207C70.7335 4.45543 71.2439 3.33972 72.247 2.96687Z" fill="#3CAA9F" stroke="white" stroke-width="1.5"/>
<path d="M51.7542 15.3942L51.7549 15.3953C52.1208 15.9849 52.7546 16.312 53.405 16.312C53.7524 16.312 54.103 16.218 54.4228 16.0172L54.4258 16.0153C57.3412 14.2038 60.3884 12.5113 63.478 10.9802L63.4784 10.98C64.4391 10.5046 64.8331 9.33945 64.3578 8.37819C63.8824 7.41694 62.718 7.02324 61.7576 7.49844L51.7542 15.3942ZM51.7542 15.3942C51.1885 14.486 51.4684 13.286 52.3799 12.7174ZM51.7542 15.3942L52.3799 12.7174ZM52.3799 12.7174C55.3999 10.8421 58.5556 9.08369 61.7575 7.49849L52.3799 12.7174Z" fill="#3CAA9F"/>
<path d="M51.7542 15.3942C51.1885 14.486 51.4684 13.286 52.3799 12.7174M51.7542 15.3942L52.3799 12.7174M51.7542 15.3942L51.7549 15.3953C52.1208 15.9849 52.7546 16.312 53.405 16.312C53.7524 16.312 54.103 16.218 54.4228 16.0172L54.4258 16.0153C57.3412 14.2038 60.3884 12.5113 63.478 10.9802L63.4784 10.98C64.4391 10.5046 64.8331 9.33945 64.3578 8.37819C63.8824 7.41694 62.718 7.02324 61.7576 7.49844L51.7542 15.3942ZM52.3799 12.7174C55.3999 10.8421 58.5556 9.08369 61.7575 7.49849L52.3799 12.7174Z" stroke="white" stroke-width="1.5"/>
<path d="M40.6732 26.2014L40.6729 26.2016C4.66127 57.7169 -5.6525 109.72 15.5878 152.672C16.0631 153.633 15.6691 154.798 14.7084 155.273L14.7023 155.277C14.4315 155.414 14.1389 155.478 13.8503 155.478C13.1332 155.478 12.4483 155.081 12.1082 154.394C-9.909 109.866 0.782375 55.9486 38.1168 23.2766C38.9255 22.5699 40.1503 22.652 40.8562 23.4599C41.5632 24.2692 41.4811 25.4951 40.6732 26.2014Z" fill="#3CAA9F" stroke="white" stroke-width="1.5"/>
<path d="M147.958 51.1427C147.668 51.5051 147.451 51.9642 147.451 52.2057C147.451 52.8339 148.393 53.8968 148.924 53.8968C149.649 53.8968 149.456 54.6215 148.658 54.8872C148.079 55.1046 147.934 55.2979 147.934 55.8535C147.934 56.385 148.055 56.5541 148.393 56.5541C150.035 56.5541 151.074 55.2255 151.074 53.1479C151.074 51.4085 150.47 50.5146 149.262 50.5146C148.683 50.5146 148.32 50.6837 147.958 51.1427Z" fill="#222222"/>
<path d="M68.549 51.0931C68.4766 51.2864 68.4524 51.842 68.5007 52.3493L68.5732 53.2915L70.3367 53.364L72.0761 53.4364V58.7512V64.066L73.5981 63.9935L75.0959 63.9211L75.1684 58.6546L75.2167 53.4123H76.9078H78.5988V52.0836V50.7549H73.6464C69.612 50.7549 68.6457 50.8274 68.549 51.0931Z" fill="#222222"/>
<path d="M114.595 57.3994V64.0429H116.045H117.494V57.3994V50.7559H116.045H114.595V57.3994Z" fill="#222222"/>
<path d="M118.944 57.3994V64.0429H120.272H121.601V57.3994V50.7559H120.272H118.944V57.3994Z" fill="#222222"/>
<path d="M86.378 54.8859C83.8172 56.1663 83.0442 59.79 84.7594 62.3991C85.919 64.1627 88.673 64.8391 90.3882 63.8003C91.3304 63.2205 91.4029 63.2205 91.4029 63.6795C91.4029 63.9452 91.6928 64.0419 92.6108 64.0419H93.8187V59.331V54.6202H92.635C91.9585 54.6202 91.4029 54.741 91.3546 54.8859C91.2821 55.0792 91.0164 55.055 90.509 54.7651C89.4219 54.2095 87.6342 54.282 86.378 54.8859ZM90.3399 57.3984C91.1613 57.954 91.4995 59.0411 91.1613 60.0316C90.7989 61.1187 90.0983 61.6261 88.9146 61.6261C87.6342 61.6261 86.5713 60.5873 86.5713 59.331C86.5713 57.5433 88.8663 56.3596 90.3399 57.3984Z" fill="#222222"/>
<path d="M106.743 54.8387C104.98 55.66 103.965 57.3028 103.965 59.3321C103.965 62.1827 106.043 64.2845 108.845 64.2845C110.222 64.2845 111.792 63.6805 112.469 62.9316C112.71 62.6659 113.048 62.0619 113.266 61.5546L113.628 60.6608H112.275C111.116 60.6608 110.85 60.7574 110.439 61.2647C109.497 62.4485 106.864 61.772 106.864 60.3467C106.864 59.9843 107.226 59.936 110.246 59.936H113.628V59.1146C113.628 58.1242 113.217 56.8921 112.589 55.9741C111.551 54.5004 108.7 53.9448 106.743 54.8387ZM110.415 57.1337C110.777 57.4477 111.019 57.7859 110.947 57.8826C110.85 57.955 109.884 58.0034 108.772 57.955L106.743 57.8826L107.395 57.2061C108.241 56.3606 109.473 56.3123 110.415 57.1337Z" fill="#222222"/>
<path d="M125.104 55.0795C123.461 56.0216 122.713 57.3503 122.713 59.3313C122.737 62.7618 125.418 64.8394 128.969 64.1871C130.274 63.9214 132.231 61.9887 132.231 60.9016C132.231 60.7808 131.699 60.66 130.999 60.66C129.984 60.66 129.646 60.7808 129.187 61.264C128.414 62.1095 126.892 62.1095 126.071 61.264C124.863 60.0561 125.128 59.9353 128.849 59.9353H132.231V58.8965C132.231 57.7127 131.579 56.1666 130.757 55.4177C129.356 54.1373 126.989 53.9924 125.104 55.0795ZM128.68 56.8189C129.211 57.1088 129.573 57.4953 129.573 57.8093C129.573 57.9301 128.704 58.0026 127.641 58.0026C126.578 58.0026 125.708 57.906 125.708 57.7852C125.708 57.3745 126.964 56.5531 127.568 56.5531C127.882 56.5531 128.39 56.6739 128.68 56.8189Z" fill="#222222"/>
<path d="M141.411 54.8138C140.927 55.0795 140.372 55.6352 140.106 56.1666C139.719 56.9639 139.695 57.2054 139.937 58.0268C140.251 59.1139 141.048 59.6937 142.763 60.1769C143.947 60.5151 144.43 60.95 144.213 61.5056C144.02 62.0371 142.932 61.9646 142.618 61.3848C142.401 60.9983 142.111 60.9016 141.048 60.9016C139.84 60.9016 139.719 60.95 139.719 61.4331C139.719 62.9309 141.435 64.2838 143.343 64.2838C145.469 64.2838 146.967 62.9309 146.967 60.9741C146.967 59.5729 146.266 58.824 144.309 58.1476C143.102 57.7369 142.739 57.5195 142.739 57.1571C142.739 56.5049 143.488 56.4324 143.995 57.0122C144.309 57.3987 144.696 57.5195 145.566 57.5195C146.58 57.5195 146.725 57.447 146.725 57.0363C146.725 54.9104 143.657 53.6542 141.411 54.8138Z" fill="#222222"/>
<path d="M77.8758 59.3319V64.0428H79.3253H80.7748V60.9022C80.7748 57.3751 80.8231 57.2785 82.6833 57.2785H83.6738V55.9498V54.6211H82.7316C82.1518 54.6211 81.572 54.8144 81.1613 55.1284L80.5332 55.6116V55.1284C80.5332 54.6694 80.3883 54.6211 79.2045 54.6211H77.8758V59.3319Z" fill="#222222"/>
<path d="M94.8819 55.0308C94.9544 55.2723 95.655 57.3741 96.4281 59.6933L97.8534 63.921L99.4237 63.9934L101.018 64.0659L102.588 59.3309L104.159 54.6201H102.661H101.139L100.342 57.5432C99.8827 59.1618 99.472 60.3456 99.3995 60.1523C99.3512 59.959 98.9647 58.6786 98.554 57.2775L97.8051 54.7409L96.2831 54.6684C94.9061 54.5959 94.7612 54.6442 94.8819 55.0308Z" fill="#222222"/>
<path d="M133.439 59.3076V64.0426H134.768H136.096V61.1919C136.096 57.7131 136.29 57.2783 137.932 57.2783H138.995V55.9496V54.6209H138.029C137.377 54.6209 136.893 54.79 136.579 55.1041C136 55.6839 135.903 55.708 135.951 55.1524C135.975 54.8142 135.734 54.7175 134.719 54.6692L133.439 54.5967V59.3076Z" fill="#222222"/>
<path d="M116.119 67.2323C114.162 68.1744 115.66 71.2667 117.641 70.3487C118.945 69.7689 118.921 67.8121 117.592 67.2081C116.892 66.8941 116.819 66.8941 116.119 67.2323Z" fill="#222222"/>
<path d="M85.3644 67.6424C83.3835 68.2464 81.5475 70.0341 80.8952 72.015C80.0013 74.7207 80.8952 78.127 82.9728 79.7698C85.4852 81.7749 89.6163 81.6783 91.7663 79.5765C92.6119 78.7551 93.554 77.0882 93.5782 76.4118C93.5782 76.2185 93.1192 76.1219 92.0562 76.1219C90.6309 76.1219 90.5343 76.1461 90.2444 76.8225C89.5921 78.3203 87.2005 78.9726 85.606 78.1029C82.4896 76.3876 82.9245 71.242 86.2824 70.324C88.0218 69.8649 89.9786 70.783 90.5101 72.3049C90.6309 72.6673 90.945 72.7398 92.1287 72.7398C93.8439 72.7398 93.9164 72.5465 92.9742 70.638C92.2495 69.1885 91.0899 68.2222 89.5196 67.7632C88.36 67.4008 86.3549 67.3525 85.3644 67.6424Z" fill="#222222"/>
<path d="M94.7133 67.8341C94.6167 67.9066 94.5442 70.9022 94.5442 74.4776V80.9519H95.9937H97.4432V77.9322C97.4432 75.0332 97.4674 74.8641 98.0471 74.3085C98.7477 73.5837 99.3758 73.5354 100.125 74.1635C100.68 74.5984 100.705 74.8158 100.777 77.7872L100.874 80.9519H102.178H103.483V77.2558C103.483 74.0427 103.434 73.4871 103 72.8107C102.057 71.2404 99.9073 70.8055 98.3129 71.8926L97.4432 72.4724V70.0808V67.665H96.1628C95.4381 67.665 94.7858 67.7374 94.7133 67.8341Z" fill="#222222"/>
<path d="M138.029 68.6332C138.029 68.754 138.198 68.8748 138.391 68.8748C138.633 68.8748 138.753 69.1405 138.753 69.7203C138.753 70.1793 138.874 70.5658 138.995 70.5658C139.14 70.5658 139.237 70.1793 139.237 69.7203C139.237 69.2613 139.357 68.8748 139.478 68.8748C139.623 68.8748 139.72 68.754 139.72 68.6332C139.72 68.4882 139.333 68.3916 138.874 68.3916C138.415 68.3916 138.029 68.4882 138.029 68.6332Z" fill="#222222"/>
<path d="M139.962 69.478C139.962 70.5409 140.3 70.9516 140.517 70.1303C140.614 69.7437 140.638 69.7437 140.662 70.1303C140.662 70.3718 140.783 70.5651 140.928 70.5651C141.049 70.5651 141.266 70.3718 141.387 70.1303C141.629 69.7437 141.629 69.7437 141.653 70.1303C141.653 70.3718 141.774 70.5651 141.894 70.5651C142.039 70.5651 142.136 70.0819 142.136 69.478C142.136 68.2218 141.58 67.956 141.29 69.0431L141.121 69.7196L140.783 69.0431C140.276 68.0768 139.962 68.2459 139.962 69.478Z" fill="#222222"/>
<path d="M107.758 71.5315C104.375 72.5945 103.313 77.5227 105.922 79.9144C107.927 81.7504 111.744 81.5571 113.435 79.552C115.416 77.1845 114.739 73.295 112.082 71.918C111.019 71.3866 108.821 71.1691 107.758 71.5315ZM110.898 74.3097C111.671 74.8412 112.009 76.2423 111.599 77.1845C111.164 78.2475 110.632 78.6098 109.497 78.6098C107.758 78.6098 106.743 76.9671 107.444 75.276C107.637 74.8412 107.975 74.358 108.241 74.2131C108.893 73.8507 110.294 73.899 110.898 74.3097Z" fill="#222222"/>
<path d="M122.447 71.5798C121.191 72.0388 120.466 72.7152 119.814 73.9956C118.051 77.5227 120.346 81.1706 124.308 81.1947C125.878 81.1947 126.796 80.9048 127.593 80.1559C128.173 79.6245 129.091 78.03 129.091 77.571C129.091 77.4261 128.487 77.3294 127.666 77.3294C126.434 77.3294 126.192 77.4019 125.878 77.9092C125.419 78.5857 124.308 78.8031 123.317 78.3924C122.423 78.03 122.085 77.4019 122.085 76.1698C122.085 74.1889 124.501 73.1501 125.805 74.5512C126.289 75.0586 126.578 75.1552 127.738 75.1552C129.163 75.1552 129.236 75.0827 128.825 74.0198C128.028 71.8697 124.96 70.7101 122.447 71.5798Z" fill="#222222"/>
<path d="M132.352 71.75C128.897 73.2962 128.438 78.3452 131.53 80.3987C132.931 81.3167 135.154 81.4616 136.7 80.7127C137.739 80.2054 138.995 78.6351 138.995 77.862C138.995 77.4272 136.434 77.4755 136.265 77.9104C136.048 78.466 134.671 79.07 133.994 78.9008C133.366 78.7559 132.231 77.7654 132.231 77.3547C132.231 77.1856 133.535 77.0648 135.685 77.0407L139.116 76.9682L139.019 75.7603C138.947 74.4558 138.367 73.1271 137.618 72.4506C136.338 71.291 134.018 70.977 132.352 71.75ZM135.444 73.731C135.975 74.0209 136.338 74.4074 136.338 74.7215C136.338 74.8423 135.468 74.9148 134.405 74.9148C133.342 74.9148 132.472 74.8181 132.472 74.6973C132.472 74.2866 133.729 73.4653 134.333 73.4653C134.647 73.4653 135.154 73.5861 135.444 73.731Z" fill="#222222"/>
<path d="M115.561 76.2411V80.9519H116.89H118.219V76.2411V71.5303H116.89H115.561V76.2411Z" fill="#222222"/>
<path d="M105.656 84.2151C91.7412 86.4135 81.6431 98.7583 82.2954 112.818C82.8752 125.09 91.258 135.406 103.12 138.45C109.159 139.996 115.972 139.368 121.528 136.759C129.742 132.917 135.516 125.453 137.207 116.538C137.787 113.374 137.569 107.745 136.748 104.556C134.574 96.3425 128.607 89.4333 120.779 86.0994C116.02 84.0702 110.754 83.4179 105.656 84.2151ZM114.643 87.5972C117.107 88.1287 118.533 88.6119 120.755 89.699C131.167 94.8447 136.458 106.416 133.607 117.674C131.385 126.322 124.669 133.014 115.851 135.333C112.904 136.131 108.338 136.203 105.173 135.551C89.5911 132.338 81.0875 115.596 87.7793 101.319C91.1131 94.2166 97.5392 89.1192 105.173 87.5972C107.396 87.1382 112.469 87.1624 114.643 87.5972Z" fill="#222222"/>
<path d="M104.497 99.9171C103.144 100.256 101.308 100.98 99.9307 101.729L97.6115 102.937H94.2777C92.4175 102.937 90.9197 103.01 90.9197 103.082C90.9197 103.179 91.572 103.928 92.3692 104.773L93.8187 106.319L92.9249 107.479C91.7894 108.953 91.1855 110.33 90.9197 112.069C90.2675 116.103 92.6108 120.428 96.4278 122.215C97.6598 122.795 98.0947 122.868 100.462 122.868C102.926 122.868 103.216 122.819 104.448 122.167C105.173 121.805 105.994 121.273 106.284 121.032C106.792 120.548 106.792 120.548 108.41 122.191L110.029 123.834L111.478 122.215L112.928 120.621L114.136 121.442C115.923 122.65 117.614 123.061 120.127 122.94C121.842 122.844 122.446 122.699 123.678 122.07C125.635 121.08 127.181 119.486 128.172 117.48C128.896 116.007 128.969 115.693 128.969 113.567C128.945 110.861 128.413 109.194 126.988 107.551C125.997 106.368 125.949 106.561 127.833 104.411L129.138 102.937H125.611C122.132 102.937 122.084 102.937 120.948 102.212C119.499 101.294 116.407 100.087 114.353 99.6515C111.768 99.0959 107.154 99.2407 104.497 99.9171ZM113.145 102.816C114.136 102.986 115.392 103.3 115.899 103.469L116.866 103.831L115.73 104.387C113.242 105.643 111.14 108.059 110.222 110.764C109.908 111.682 109.787 111.827 109.787 111.368C109.739 109.436 106.888 105.836 104.327 104.459L102.95 103.734L104.835 103.227C108 102.382 110.27 102.285 113.145 102.816ZM102.25 107.431C103.917 107.914 105.705 109.557 106.308 111.103C106.961 112.818 106.84 114.726 105.994 116.393C104.038 120.21 98.7711 120.983 95.848 117.867C94.5193 116.466 94.1811 115.572 94.1811 113.446C94.1811 111.779 94.2777 111.368 94.8333 110.378C95.6789 108.953 97.0076 107.841 98.4087 107.406C99.8582 106.972 100.728 106.972 102.25 107.431ZM121.335 107.431C123.92 108.18 125.78 110.692 125.756 113.398C125.756 115.91 124.644 117.843 122.519 119.027C121.407 119.63 120.972 119.727 119.426 119.727C117.3 119.703 116.141 119.22 114.788 117.722C111.744 114.34 113.194 108.759 117.494 107.406C118.943 106.972 119.813 106.972 121.335 107.431Z" fill="#222222"/>
<path d="M99.4965 110.112C97.2981 110.716 96.2593 113.422 97.5155 115.282C99.4482 118.205 103.797 116.901 103.797 113.398C103.797 111.272 101.526 109.557 99.4965 110.112Z" fill="#222222"/>
<path d="M117.977 110.378C115.513 111.731 115.392 115.016 117.784 116.466C120.054 117.843 122.905 116.104 122.857 113.374C122.833 110.91 120.079 109.218 117.977 110.378Z" fill="#222222"/>
<path d="M63.6219 91.5828C63.6219 91.7278 63.8393 92.8874 64.1292 94.1677C65.482 100.376 68.1636 105.57 71.4008 108.276C72.9711 109.581 74.3722 110.378 74.638 110.112C74.9037 109.846 74.2756 106.682 73.4784 104.145C71.8115 98.9027 69.0091 94.8683 65.0955 92.0901C63.9842 91.2929 63.6219 91.1721 63.6219 91.5828Z" fill="#222222"/>
<path d="M154.167 92.5487C150.109 95.6168 147.355 100.038 145.905 105.909C145.229 108.614 145.011 110.185 145.301 110.185C146.026 110.185 147.814 108.904 149.505 107.189C151.727 104.942 153.153 102.478 154.554 98.4192C155.737 94.9887 156.462 91.3408 155.979 91.3408C155.858 91.3408 155.061 91.8965 154.167 92.5487Z" fill="#222222"/>
<path d="M74.7354 99.6518C74.7354 103.493 75.3877 106.924 76.5714 109.388C77.4411 111.224 79.8569 114.074 80.2193 113.736C80.5333 113.398 80.3642 107.769 79.9777 105.933C79.7603 104.991 79.3737 103.614 79.0838 102.865C78.4799 101.271 76.5714 98.2748 75.4843 97.2843L74.7354 96.5596V99.6518Z" fill="#222222"/>
<path d="M143.609 98.1297C140.783 101.632 139.744 104.724 139.55 110.232C139.381 114.388 139.454 114.46 141.217 112.576C143.609 110.039 144.914 106.077 145.179 100.497C145.397 96.3661 145.228 96.1245 143.609 98.1297Z" fill="#222222"/>
<path d="M61.6899 104.048C61.6899 104.821 63.3568 109.435 64.3714 111.441C66.5698 115.837 69.1789 118.785 72.3195 120.427C74.4212 121.539 74.5903 121.539 74.3729 120.379C73.9139 117.867 71.9329 113.277 70.1452 110.667C68.5266 108.3 65.9417 105.957 63.1152 104.314C61.8348 103.565 61.6899 103.541 61.6899 104.048Z" fill="#222222"/>
<path d="M156.655 104.387C154.142 105.764 151.606 108.011 149.987 110.306C148.103 112.963 146.267 117.118 145.421 120.67C145.252 121.322 145.276 121.346 145.929 121.177C148.055 120.645 151.751 117.577 153.611 114.751C155.399 112.069 157.09 108.204 158.201 104.194C158.394 103.493 158.225 103.517 156.655 104.387Z" fill="#222222"/>
<path d="M72.946 112.166C73.2359 113.518 74.6612 116.659 75.845 118.592C77.8501 121.805 80.4109 124.148 82.8992 125.018C83.8413 125.356 83.9138 125.356 83.9138 124.969C83.8897 124.172 82.2952 120.355 81.2564 118.64C79.4204 115.62 77.1254 113.47 74.0815 111.9C72.7528 111.248 72.7286 111.248 72.946 112.166Z" fill="#222222"/>
<path d="M145.276 112.165C142.112 113.977 140.034 116.103 138.101 119.558C137.159 121.225 135.806 124.872 136 125.187C136.193 125.501 138.754 124.269 140.155 123.181C142.426 121.418 144.841 117.794 146.363 113.881C146.822 112.648 147.209 111.586 147.209 111.513C147.209 111.223 146.508 111.441 145.276 112.165Z" fill="#222222"/>
<path d="M59.2732 115.935C59.2732 116.297 60.9643 118.954 62.3171 120.718C64.1048 123.061 67.5594 126.347 69.323 127.386C70.1202 127.845 71.4006 128.473 72.1495 128.763C73.6473 129.294 76.1839 129.705 76.1839 129.391C76.1839 129.27 75.8457 128.594 75.435 127.845C72.995 123.52 69.0814 119.655 65.1919 117.747C63.0419 116.659 59.2732 115.524 59.2732 115.935Z" fill="#222222"/>
<path d="M158.49 116.248C154.818 117.287 151.774 119.099 148.996 121.901C147.16 123.737 145.131 126.467 144.164 128.351L143.584 129.511H144.406C146.435 129.511 149.914 128.013 152.547 125.984C154.939 124.148 158.297 120.162 159.988 117.118C160.882 115.572 160.882 115.572 158.49 116.248Z" fill="#222222"/>
<path d="M74.8311 123.616C76.7879 127.023 80.5566 130.985 83.1173 132.362C84.4219 133.038 86.9102 133.859 87.7074 133.859C88.2872 133.859 88.0214 133.159 86.5961 131.033C83.5039 126.419 79.2037 123.23 75.1693 122.602L74.1547 122.433L74.8311 123.616Z" fill="#222222"/>
<path d="M144.07 122.674C140.229 124.051 138.054 125.404 135.904 127.699C133.851 129.873 131.483 133.449 131.846 133.787C132.087 134.029 135.083 133.183 136.412 132.507C138.199 131.637 139.963 130.212 141.582 128.376C142.934 126.829 145.519 123.109 145.519 122.698C145.519 122.481 144.65 122.457 144.07 122.674Z" fill="#222222"/>
<path d="M67.0518 130.479C64.9983 130.793 64.9742 130.72 68.3563 133.015C72.6564 135.938 76.9807 137.484 80.7977 137.509C83.0444 137.533 85.122 137.17 85.122 136.784C85.122 136.687 84.2765 135.963 83.2619 135.214C80.9668 133.498 77.1499 131.614 74.7099 130.986C72.5356 130.43 68.8636 130.189 67.0518 130.479Z" fill="#222222"/>
<path d="M147.087 130.574C144.816 130.961 143.367 131.42 140.999 132.555C139.018 133.498 135.999 135.454 135.153 136.348L134.598 136.976L135.612 137.242C137.062 137.629 141.024 137.58 142.715 137.121C145.976 136.252 150.445 134.029 153.344 131.782C154.431 130.961 154.48 130.864 154.045 130.695C153.03 130.333 149.02 130.26 147.087 130.574Z" fill="#222222"/>
<path d="M85.3651 135.187C85.8483 135.767 88.9647 137.627 90.6074 138.304C92.5401 139.101 95.0767 139.536 96.5503 139.318C97.1784 139.222 97.6858 139.077 97.6858 138.98C97.6858 138.738 94.9076 136.902 93.4098 136.178C91.5254 135.236 89.6169 134.825 87.2253 134.825C85.3168 134.825 85.0994 134.873 85.3651 135.187Z" fill="#222222"/>
<path d="M128.172 135.526C126.191 136.227 122.567 138.305 122.398 138.86C122.253 139.247 124.186 139.512 125.659 139.319C127.109 139.102 128.896 138.546 130.418 137.797C131.892 137.072 134.646 135.261 134.646 135.019C134.646 134.898 133.631 134.826 132.424 134.826C130.588 134.826 129.814 134.947 128.172 135.526Z" fill="#222222"/>
<path d="M81.0165 138.861C78.9872 139.199 74.7354 140.89 74.7354 141.349C74.7354 141.446 75.5568 141.76 76.5472 142.05C81.8379 143.62 87.6117 144.176 91.018 143.403C93.0714 142.968 94.545 142.412 94.545 142.122C94.545 141.856 91.7185 140.455 90.0275 139.875C87.2251 138.933 83.3115 138.474 81.0165 138.861Z" fill="#222222"/>
<path d="M134.042 138.86C131.433 139.222 126.988 140.817 125.611 141.88C125.176 142.218 125.224 142.266 126.456 142.749C129.524 143.885 133.317 144.054 137.931 143.281C141.096 142.725 145.034 141.638 145.034 141.3C145.034 140.889 141.579 139.464 139.671 139.077C137.931 138.715 135.709 138.642 134.042 138.86Z" fill="#222222"/>
<path d="M99.0135 140.599C97.4674 141.155 96.7185 141.542 96.7185 141.831C96.7185 142.194 99.3517 142.604 101.55 142.604C103.579 142.604 105.005 142.242 106.333 141.397C107.131 140.889 106.986 140.696 105.657 140.406C103.724 139.995 100.415 140.092 99.0135 140.599Z" fill="#222222"/>
<path d="M114.064 140.43C113.556 140.551 113.146 140.768 113.146 140.889C113.146 141.227 114.571 142.048 115.682 142.338C117.518 142.87 123.292 142.483 123.292 141.855C123.292 141.734 122.616 141.348 121.794 140.961C120.466 140.357 119.958 140.261 117.615 140.212C116.165 140.188 114.547 140.285 114.064 140.43Z" fill="#222222"/>
<path d="M108.798 141.106C107.808 142.097 108.556 143.764 109.958 143.764C110.827 143.764 111.455 143.087 111.455 142.145C111.455 140.768 109.789 140.116 108.798 141.106Z" fill="#222222"/>
<path d="M83.3354 147.364C82.7315 148.016 82.9247 149.103 83.6978 149.538C84.2776 149.852 84.3984 149.852 84.9782 149.489C85.7996 148.958 85.8479 147.823 85.0748 147.291C84.3501 146.784 83.8427 146.808 83.3354 147.364Z" fill="#222222"/>
<path d="M125.394 147.34C124.814 147.968 124.886 148.983 125.515 149.418C126.239 149.925 126.578 149.901 127.157 149.321C127.81 148.669 127.785 147.751 127.109 147.292C126.408 146.784 125.877 146.809 125.394 147.34Z" fill="#222222"/>
<path d="M70.314 147.291C70.2173 147.388 70.1449 147.895 70.1449 148.403V149.321H71.7151H73.2854V154.031V158.742H74.3725H75.4597V154.031V149.321H77.0541H78.6244L78.5519 148.282L78.4794 147.267L74.4692 147.195C72.2708 147.17 70.4106 147.219 70.314 147.291Z" fill="#222222"/>
<path d="M113.002 147.484C112.93 147.678 112.906 148.499 112.954 149.32C112.978 150.118 113.002 150.77 113.002 150.77C112.978 150.77 112.543 150.601 112.036 150.383C109.403 149.272 106.141 151.543 106.141 154.49C106.141 156.35 107.639 158.235 109.548 158.742C110.369 158.96 110.78 158.935 111.77 158.621C112.616 158.331 113.051 158.307 113.099 158.476C113.147 158.621 113.679 158.742 114.259 158.742H115.322L115.273 152.992L115.201 147.267L114.162 147.195C113.437 147.146 113.099 147.219 113.002 147.484ZM112.157 152.848C112.761 153.355 112.906 153.669 112.906 154.394C112.906 155.795 112.06 156.689 110.731 156.689C109.403 156.689 108.557 155.795 108.557 154.394C108.557 153.669 108.702 153.355 109.306 152.848C109.717 152.485 110.345 152.219 110.731 152.219C111.118 152.219 111.746 152.485 112.157 152.848Z" fill="#222222"/>
<path d="M89.7125 150.432C89.181 150.674 88.8428 150.698 88.7945 150.529C88.7462 150.408 88.2147 150.287 87.6349 150.287H86.5719V155.723V161.158H87.659H88.7462V159.685C88.7462 158.38 88.7945 158.235 89.181 158.38C92.4424 159.733 95.6312 157.728 95.5829 154.37C95.5588 152.558 94.5683 151.157 92.8047 150.408C91.6935 149.949 90.7996 149.949 89.7125 150.432ZM92.6356 152.92C93.0463 153.355 93.3362 153.887 93.3362 154.273C93.3362 156.447 90.8962 157.559 89.4709 156.037C88.7462 155.264 88.6254 154.466 89.0844 153.524C89.7608 152.075 91.476 151.785 92.6356 152.92Z" fill="#222222"/>
<path d="M99.3278 150.287C97.371 150.867 96.0665 152.872 96.308 154.925C96.6463 157.679 99.2795 159.419 101.889 158.646C102.517 158.453 103.048 158.404 103.145 158.525C103.217 158.646 103.749 158.742 104.353 158.742H105.416V154.515V150.287H104.208C103.555 150.287 103 150.384 103 150.505C103 150.649 102.613 150.577 102.154 150.384C101.236 150.021 100.342 149.973 99.3278 150.287ZM102.251 152.848C102.855 153.355 103 153.669 103 154.394C103 155.795 102.154 156.689 100.826 156.689C99.4969 156.689 98.6514 155.795 98.6514 154.394C98.6514 153.669 98.7963 153.355 99.4003 152.848C99.811 152.485 100.439 152.22 100.826 152.22C101.212 152.22 101.84 152.485 102.251 152.848Z" fill="#222222"/>
<path d="M130.37 150.215C130.08 150.264 129.501 150.626 129.09 151.013C128.534 151.52 128.365 151.906 128.365 152.583C128.365 153.742 129.211 154.564 130.998 155.095C132.52 155.554 133.028 156.11 132.424 156.714C131.916 157.221 130.781 156.98 130.612 156.327C130.515 155.941 130.274 155.844 129.307 155.844C128.027 155.844 127.93 155.989 128.462 157.004C128.969 157.97 129.67 158.526 130.709 158.743C132.931 159.25 134.888 157.97 134.888 156.013C134.888 154.685 134.308 154.105 132.472 153.573C130.781 153.066 130.443 152.849 130.612 152.365C130.829 151.786 132.158 151.858 132.472 152.462C132.665 152.824 132.979 152.945 133.68 152.945C134.526 152.945 134.646 152.873 134.646 152.39C134.646 150.795 132.665 149.78 130.37 150.215Z" fill="#222222"/>
<path d="M138.271 150.433C136.532 151.182 135.565 152.583 135.541 154.371C135.493 158.816 141.025 160.507 143.513 156.811C144.649 155.144 144.455 153.163 142.982 151.52C141.726 150.143 139.914 149.708 138.271 150.433ZM141.436 152.921C142.209 153.718 142.329 154.54 141.798 155.578C141.436 156.255 140.518 156.811 139.72 156.811C139.068 156.811 137.86 155.723 137.691 154.95C137.135 152.849 139.865 151.375 141.436 152.921Z" fill="#222222"/>
<path d="M77.3934 154.514V158.741H78.4563H79.5193L79.6159 155.842C79.6884 152.605 79.7609 152.46 81.3311 152.46H82.225V151.373C82.225 150.31 82.2008 150.286 81.4278 150.286C80.9929 150.286 80.389 150.455 80.0991 150.672C79.6159 151.011 79.5676 151.011 79.5676 150.672C79.5676 150.382 79.3019 150.286 78.4805 150.286H77.3934V154.514Z" fill="#222222"/>
<path d="M83.1904 154.514V158.741H84.2775H85.3646V154.514V150.286H84.2775H83.1904V154.514Z" fill="#222222"/>
<path d="M116.263 151.423C116.504 152.075 117.156 153.983 117.736 155.674L118.751 158.767L120.104 158.694L121.481 158.622L122.858 154.756C123.607 152.63 124.235 150.746 124.235 150.577C124.259 150.384 123.872 150.287 123.075 150.287H121.916L121.094 153.065C120.635 154.587 120.225 155.843 120.152 155.843C120.08 155.843 119.645 154.587 119.186 153.065L118.34 150.287H117.084H115.804L116.263 151.423Z" fill="#222222"/>
<path d="M125.225 154.514V158.741H126.312H127.4V154.514V150.286H126.312H125.225V154.514Z" fill="#222222"/>
<path d="M145.035 154.515V158.742H146.243H147.451V155.892C147.451 154.007 147.548 152.944 147.741 152.751C147.91 152.582 148.49 152.461 149.07 152.461H150.108V151.374V150.287H149.215C148.731 150.287 148.127 150.456 147.886 150.698C147.475 151.06 147.451 151.06 147.451 150.698C147.451 150.359 147.209 150.287 146.243 150.287H145.035V154.515Z" fill="#222222"/>
</g>
<defs>
<clipPath id="clip0_429_239">
<rect width="211" height="207" fill="white"/>
</clipPath>
</defs>
</svg>
