<svg width="20" height="20" viewBox="0 0 20 20" fill="none" xmlns="http://www.w3.org/2000/svg">
<g clip-path="url(#clip0_414_28)">
<path d="M9.84375 0.0426833C9.78906 0.0622145 7.60156 1.04268 4.98047 2.21455C1.50391 3.76924 0.1875 4.37862 0.109375 4.46065L0 4.57002V6.6208V8.67159H0.332031H0.664062L0.671875 6.77315L0.683594 4.87471L5.34375 2.78487L10 0.698934L14.6602 2.78487L19.3164 4.87471L19.3281 6.77315L19.3359 8.67159H19.668H20V6.6208V4.57002L19.8945 4.46065C19.8125 4.37862 18.4805 3.76143 14.9688 2.19112C12.3203 1.00752 10.1055 0.0270583 10.0469 0.0192457C9.98828 0.00752704 9.89844 0.0192457 9.84375 0.0426833Z" fill="#3CAA9F"/>
<path d="M9.70703 2.68359C8.78125 2.82031 8.01953 3.48438 7.75 4.39453C7.65625 4.71094 7.65625 5.28906 7.75 5.60547C7.98828 6.41016 8.58984 7.01172 9.39453 7.25C9.71094 7.34375 10.2891 7.34375 10.6055 7.25C11.4102 7.01172 12.0117 6.41016 12.25 5.60547C12.3164 5.38672 12.3516 4.67969 12.2969 4.62891C12.2891 4.61719 12.1758 4.62891 12.0469 4.64844C11.6094 4.72656 11.6289 4.71484 11.6523 4.86328C11.7188 5.26172 11.5039 5.83594 11.1719 6.17188C10.5234 6.81641 9.47656 6.81641 8.82812 6.17188C8.18359 5.52344 8.18359 4.47656 8.82812 3.82812C9.26172 3.39844 9.82422 3.25781 10.5156 3.41016C10.5742 3.42188 10.7852 2.8125 10.7305 2.79297C10.4922 2.71875 10.3711 2.69922 10.1172 2.68359C9.95703 2.67188 9.77344 2.67188 9.70703 2.68359Z" fill="#3CAA9F"/>
<path d="M11.0469 3.81641L10 4.86328L9.78516 4.64844L9.57031 4.43359L9.33594 4.67188L9.09766 4.90625L9.48438 5.28516C9.82031 5.61328 9.89062 5.66406 10.0039 5.66406C10.1211 5.66406 10.2383 5.55859 11.3477 4.45312L12.5586 3.24219L12.3242 3.00781L12.0898 2.77344L11.0469 3.81641Z" fill="#3CAA9F"/>
<path d="M16.5627 7.68363C16.4143 7.73832 16.3479 7.88676 16.0159 8.89066C15.6292 10.0469 15.6174 10.1367 15.8127 10.2656C15.8948 10.3164 16.0276 10.3359 16.4534 10.3438L16.9924 10.3594V10.8438V11.3281H16.6604H16.3284V11.6602V11.9922H17.3245H18.3206V11.6602V11.3281H17.9885H17.6565V10.8438V10.3594L18.2268 10.3438C18.7971 10.332 18.7971 10.332 18.8909 10.2227C18.9417 10.1641 18.9846 10.0664 18.9846 10.0078C18.9846 9.81645 18.3206 7.87895 18.219 7.77348C18.1252 7.67582 18.1174 7.67582 17.3713 7.66801C16.9612 7.6641 16.594 7.67192 16.5627 7.68363ZM17.9768 8.98442L18.1956 9.64848H17.3401C16.8713 9.64848 16.4846 9.63285 16.4846 9.61723C16.4846 9.59379 16.8284 8.54692 16.8948 8.36723C16.9065 8.33598 17.0315 8.32035 17.3323 8.32035H17.7542L17.9768 8.98442Z" fill="#3CAA9F"/>
<path d="M1.93359 8.76572C1.70312 8.8751 1.51562 9.0626 1.41797 9.27744C1.35547 9.41807 1.34375 9.60557 1.32812 11.0704L1.30859 12.7071L1.08594 12.7853C0.664062 12.9376 0.289062 13.3048 0.105469 13.7501L0.0195312 13.9649L0.0078125 16.8673L-0.00390625 19.7696L0.113281 19.8829L0.226562 20.0001H0.976562C1.73047 20.0001 1.83594 19.9845 1.94141 19.8478C1.97266 19.8048 1.98828 19.6056 1.99219 19.2267V18.672H6.98828H11.9883L12 19.2423C12.0117 19.8126 12.0117 19.8126 12.1211 19.9063C12.2305 20.0001 12.2461 20.0001 12.9727 20.0001C13.7734 20.0001 13.9219 19.9689 13.9648 19.7931C13.9766 19.7462 13.9805 18.4063 13.9766 16.8165L13.9648 13.9259L13.875 13.6993C13.7109 13.297 13.2773 12.8985 12.8398 12.7501L12.6602 12.6876L12.6484 11.0235L12.6367 9.35556L12.5312 9.17588C12.4727 9.07822 12.3633 8.94932 12.2891 8.89072C11.9844 8.66026 12.2578 8.67197 6.97656 8.67197H2.12891L1.93359 8.76572ZM11.8086 9.3829C11.9922 9.47665 11.9883 9.46884 11.9922 11.1017V12.6563H11.6602H11.3281V11.922C11.3281 11.5196 11.3086 11.1251 11.2891 11.047C11.2227 10.8165 11.0195 10.5782 10.7852 10.4571L10.5703 10.3517H9.33984C8.18359 10.3517 8.09375 10.3595 7.92969 10.4337C7.69531 10.5392 7.54688 10.6837 7.4375 10.9181C7.34766 11.1017 7.34375 11.1563 7.34375 11.8829V12.6563H7.01562H6.6875L6.67188 11.8829C6.65625 11.0235 6.62109 10.8868 6.36328 10.629C6.09375 10.3595 6.0625 10.3517 4.66797 10.3517C3.27344 10.3517 3.24219 10.3595 2.97266 10.629C2.71094 10.8868 2.67969 11.0235 2.66406 11.8829L2.64844 12.6563H2.32031H1.98828L2 11.0899L2.01172 9.52354L2.12109 9.42979L2.23047 9.33604H6.97656C10.5117 9.33604 11.7461 9.34775 11.8086 9.3829ZM5.90234 11.1173C5.99219 11.2149 5.99609 11.2384 6.00781 11.9376L6.02344 12.6563H4.66797H3.31641L3.32812 11.9376C3.33984 11.2384 3.34375 11.2149 3.43359 11.1173L3.52734 11.0157H4.66797H5.80859L5.90234 11.1173ZM10.5664 11.1134C10.6641 11.2071 10.6641 11.2149 10.6641 11.9337V12.6563H9.33594H8.00781V11.9337C8.00781 11.2149 8.00781 11.2071 8.10547 11.1134L8.19922 11.0157H9.33594H10.4727L10.5664 11.1134ZM12.7266 13.4142C12.9336 13.504 13.2109 13.8087 13.2734 14.0157C13.3047 14.1134 13.3203 14.4923 13.3203 15.0939V16.0157H6.99219H0.664062V15.1251C0.664062 14.1524 0.691406 13.9728 0.878906 13.7267C1.01172 13.5548 1.25 13.4024 1.45703 13.3595C1.54688 13.3439 4.08203 13.3321 7.08984 13.3321C12.332 13.3399 12.5664 13.3439 12.7266 13.4142ZM13.3203 18.0079V19.336H12.9883H12.6562V18.7696C12.6562 18.2149 12.6523 18.1954 12.5586 18.1056L12.4648 18.0079H7H1.53516L1.44141 18.1095C1.35156 18.2032 1.34766 18.2384 1.33594 18.7735L1.32422 19.336H0.992188H0.664062V18.0079V16.6798H6.99219H13.3203V18.0079Z" fill="#3CAA9F"/>
<path d="M14.8554 12.7145C14.7617 12.7536 14.7226 12.8044 14.6914 12.9216C14.6601 13.027 14.6523 13.8864 14.6562 15.5309L14.6679 17.988H15H15.332L15.3437 16.9997L15.3515 16.0153H17.3437H19.3359V17.0114V18.0075H19.6679H20V15.4528V12.8942L19.9062 12.7849L19.8125 12.6755L17.3945 12.6677C15.3984 12.6599 14.957 12.6677 14.8554 12.7145ZM19.3281 14.3239L19.3164 15.3317L17.3359 15.3435L15.3515 15.3513V14.3356V13.32H17.3437H19.3359L19.3281 14.3239Z" fill="#3CAA9F"/>
<path d="M16.6797 14.3164V14.6484H17.3438H18.0117L18 14.3242L17.9883 14.0039L17.3359 13.9922L16.6797 13.9844V14.3164Z" fill="#3CAA9F"/>
</g>
<defs>
<clipPath id="clip0_414_28">
<rect width="20" height="20" fill="white"/>
</clipPath>
</defs>
</svg>
