<svg width="49" height="49" viewBox="0 0 49 49" fill="none" xmlns="http://www.w3.org/2000/svg">
<g opacity="0.05" clip-path="url(#clip0_2_10804)">
<path d="M32.7792 46.0236C33.4683 45.8609 36.5786 44.2436 37.8993 43.3631C39.6124 42.2242 40.579 41.449 42.0241 40.0039C46.704 35.3527 48.4745 30.4623 48.9052 21.0068C48.9722 19.6479 49.0009 15.8484 48.9817 11.6758C48.953 5.13926 48.9434 4.61289 48.7808 4.29707C48.5511 3.84727 48.1013 3.38789 47.6227 3.12949L47.2304 2.91895L38.952 2.91895C32.1858 2.91895 30.6067 2.94766 30.3005 3.05293C29.8315 3.21563 29.2382 3.75156 28.9702 4.24922L28.7597 4.6416L28.7309 12.8146C28.7022 21.8012 28.6927 21.6002 29.286 22.318C29.4392 22.5094 29.7933 22.7773 30.0708 22.9113L30.5684 23.1602L34.521 23.1602L38.4735 23.1602L38.4735 23.8588C38.4735 25.39 38.1003 27.5434 37.5643 29.1512C36.3489 32.7879 34.2339 35.0848 30.2431 37.085C29.4679 37.4773 28.7118 37.9176 28.5395 38.0994C28.0993 38.5492 27.9175 39.1043 27.9653 39.8316C28.0036 40.3676 28.1376 40.7121 29.1425 42.808C30.3196 45.2676 30.5397 45.6025 31.2384 45.8896C31.669 46.0715 32.339 46.1289 32.7792 46.0236Z" fill="#1C171D"/>
<path d="M5.55225 45.7174C11.9931 42.9037 16.9026 38.1186 19.0751 32.5391C19.6972 30.9504 20.2522 28.5291 20.5681 26.0313C20.97 22.9018 21.0083 21.7246 21.0083 13.0156C21.0083 4.98613 20.9987 4.62246 20.8265 4.27793C20.5968 3.80898 20.1853 3.39746 19.678 3.12949L19.2856 2.91895L10.9595 2.91895C2.70029 2.91895 2.6333 2.91895 2.20264 3.11992C1.68584 3.35918 1.30303 3.73242 1.01592 4.25879C0.814942 4.6416 0.814942 4.66074 0.786231 12.8147C0.75752 21.8012 0.747951 21.6002 1.34131 22.318C1.49443 22.5094 1.84854 22.7773 2.12608 22.9113L2.62373 23.1602L6.62412 23.1602C10.5192 23.1602 10.6245 23.1602 10.6245 23.342C10.6245 24.0598 10.3757 26.1748 10.1843 27.1318C9.8876 28.6057 9.57178 29.5531 8.94971 30.8643C7.62901 33.6397 5.61924 35.5059 2.20264 37.152C0.441701 37.9941 0.0588887 38.444 0.0493196 39.669C0.0493197 40.3293 0.0684599 40.3676 1.14991 42.6166C1.75284 43.8607 2.37491 45.0475 2.52803 45.2389C3.20752 46.0619 4.34639 46.2438 5.55225 45.7174Z" fill="#1C171D"/>
</g>
<defs>
<clipPath id="clip0_2_10804">
<rect width="49" height="49" fill="white" transform="translate(49 49) rotate(180)"/>
</clipPath>
</defs>
</svg>
