<svg width="50" height="50" viewBox="0 0 50 50" xmlns="http://www.w3.org/2000/svg">
<path d="M1.9043 0.156254C1.36719 0.341801 0.839844 0.800785 0.507813 1.34766L0.244141 1.80664V20.0195V38.2324L0.458984 38.623C0.703125 39.082 1.18164 39.5508 1.66016 39.8047C1.98242 39.9805 2.36328 39.9902 7.98828 40.0195L13.9648 40.0488L14.209 39.8047C14.502 39.5117 14.5215 39.1699 14.2676 38.8574L14.082 38.623L8.16406 38.5742L2.24609 38.5254L1.98242 38.252L1.70898 37.9883L1.67969 29.3945L1.66016 20.8008H10.5469H19.4336V29.6875V38.5742H18.2129C17.5195 38.5742 16.8945 38.623 16.7578 38.6816C16.2598 38.9063 16.2207 39.6875 16.6895 39.9316C16.8164 40.0098 18.9746 40.0391 23.3301 40.0391H29.7754L29.8047 44.1113C29.834 48.0859 29.8438 48.2031 30.0488 48.584C30.293 49.043 30.7715 49.5117 31.25 49.7656C31.5723 49.9414 31.9824 49.9512 39.7949 49.9512H47.9981L48.3887 49.7363C48.9063 49.4629 49.3555 48.9746 49.5996 48.4375C49.7949 48.0176 49.8047 47.8125 49.8047 42.7637C49.8047 36.8457 49.8145 36.9141 49.0723 36.1816C48.8477 35.957 48.4668 35.6934 48.2227 35.5957L47.7734 35.4297L47.7344 33.1152C47.6953 31.0547 47.666 30.7422 47.4707 30.127C46.7676 27.9395 45.1953 26.1523 43.1641 25.2148C42.334 24.8242 41.2695 24.5117 40.8008 24.5117C40.1856 24.5117 40.2344 25.4785 40.2344 13.291C40.2344 0.72266 40.293 1.61133 39.4531 0.781254C38.6133 -0.0683556 40.3516 3.8147e-06 20.1758 0.00976944C4.91211 0.00976944 2.23633 0.0390663 1.9043 0.156254ZM19.4531 3.03711C19.4824 4.55079 19.4922 4.60938 19.7168 4.79493C20.0098 5.03907 20.459 5.0293 20.7031 4.78516C20.8789 4.60938 20.8984 4.46289 20.8984 3.02735V1.46485H29.3945C36.8066 1.46485 37.9395 1.48438 38.1836 1.61133C38.7988 1.92383 38.7695 1.50391 38.7695 10.8398V19.3359L29.8633 19.3164L20.9473 19.2871L20.918 13.3594L20.8984 7.43164L20.6445 7.23633C20.3027 6.97266 20.0879 6.98243 19.7559 7.26563L19.4824 7.5L19.4531 13.418L19.4336 19.3359H10.5469H1.66016V10.8398C1.66016 3.4375 1.67969 2.29493 1.80664 2.05079C2.11914 1.44532 1.67969 1.47461 10.957 1.46485H19.4141L19.4531 3.03711ZM38.7695 22.6367V24.4727L38.0176 24.6484C35.459 25.2344 33.2715 27.1387 32.334 29.5703C31.9141 30.6738 31.8359 31.2695 31.8359 33.4473V35.4199L31.377 35.5957C30.4199 35.9668 29.7852 36.9434 29.7852 38.0566V38.5742H25.3418H20.8984V29.6875V20.8008H29.834H38.7695V22.6367ZM41.6797 26.1816C42.9688 26.582 44.3945 27.6074 45.127 28.6816C46.0938 30.0781 46.2891 30.8887 46.2891 33.4766V35.459L45.7813 35.4297L45.2637 35.4004L45.2148 33.3008C45.166 31.6211 45.127 31.1035 44.9805 30.7129C44.4922 29.3457 43.4863 28.1934 42.2656 27.5977C41.5234 27.2266 40.4688 26.9531 39.7949 26.9531C39.1211 26.9531 38.0664 27.2266 37.3242 27.5977C36.1035 28.1934 35.0977 29.3457 34.6094 30.7129C34.4629 31.1035 34.4238 31.6211 34.375 33.3008L34.3262 35.4004L33.8184 35.4297L33.3008 35.459V33.4766C33.3008 31.1914 33.3789 30.7715 34.0039 29.4922C34.707 28.0469 36.2402 26.7188 37.7832 26.2207C38.9648 25.8398 40.4883 25.8203 41.6797 26.1816ZM41.582 28.8672C42.3145 29.2285 43.0176 29.9512 43.3887 30.7324L43.7012 31.3965L43.7305 33.418L43.7598 35.4492H39.7949H35.8301L35.8594 33.418L35.8887 31.3965L36.2012 30.7324C36.582 29.9414 37.2852 29.2188 38.0273 28.8672C38.3203 28.7305 38.6133 28.6133 38.6621 28.6133C38.7402 28.6133 38.7695 29.3066 38.7695 30.752C38.7695 32.7637 38.7793 32.9004 38.9746 33.1445C39.2285 33.4668 39.6875 33.4863 40.0098 33.1836C40.2344 32.9785 40.2344 32.9492 40.2344 30.7324V28.4863L40.6543 28.5547C40.8789 28.5938 41.2988 28.7305 41.582 28.8672ZM47.9102 37.0898C48.0273 37.1777 48.1738 37.3535 48.2324 37.4707C48.3106 37.6172 48.3398 39.2188 48.3398 42.7637V47.8516L48.0566 48.1641L47.7734 48.4863H39.8047H31.8359L31.5723 48.2129L31.2988 47.9492L31.2695 42.8906C31.2598 40.1172 31.2695 37.7539 31.2891 37.6367C31.3184 37.5293 31.4648 37.3145 31.6016 37.1777L31.8652 36.9141H39.7852C47.1387 36.9141 47.7246 36.9336 47.9102 37.0898Z" fill="#DBA765"/>
<path d="M5.22464 10.1855C3.61331 10.7227 2.55863 12.0508 2.46097 13.6719C2.25589 17.2754 6.53324 19.2285 9.06253 16.6797C9.668 16.0742 10.0391 15.3516 10.1758 14.5215C10.4493 12.8906 9.53128 11.1523 8.01761 10.4297C7.47074 10.166 7.24613 10.1172 6.49417 10.0879C5.9473 10.0684 5.46878 10.1074 5.22464 10.1855ZM7.40238 11.7773C9.39456 12.7734 9.12113 15.6445 6.97269 16.2695C4.68753 16.9336 2.92972 14.1504 4.51175 12.3633C5.27347 11.4941 6.38675 11.2695 7.40238 11.7773Z" fill="#DBA765"/>
<path d="M5.22461 13.5254C5.08789 13.6523 4.98047 13.877 4.98047 14.0137C4.98047 14.1504 5.08789 14.375 5.22461 14.502C5.43945 14.7266 5.53711 14.7461 6.29883 14.7461C7.26563 14.7461 7.51953 14.5996 7.51953 14.0234C7.51953 13.4766 7.17773 13.2812 6.23047 13.2812C5.54688 13.2812 5.42969 13.3105 5.22461 13.5254Z" fill="#DBA765"/>
<path d="M24.6582 10.1855C23.0469 10.7227 21.9922 12.0508 21.8946 13.6719C21.6895 17.2754 25.9668 19.2285 28.4961 16.6797C29.1016 16.0742 29.4727 15.3516 29.6094 14.5215C29.8828 12.8906 28.9649 11.1523 27.4512 10.4297C26.9043 10.166 26.6797 10.1172 25.9278 10.0879C25.3809 10.0684 24.9024 10.1074 24.6582 10.1855ZM26.836 11.7773C28.8282 12.7734 28.5547 15.6445 26.4063 16.2695C24.1211 16.9336 22.3633 14.1504 23.9453 12.3633C24.7071 11.4941 25.8203 11.2695 26.836 11.7773Z" fill="#DBA765"/>
<path d="M24.6582 13.5254C24.5215 13.6523 24.4141 13.877 24.4141 14.0137C24.4141 14.1504 24.5215 14.375 24.6582 14.502C24.873 14.7266 24.9707 14.7461 25.7324 14.7461C26.6992 14.7461 26.9531 14.5996 26.9531 14.0234C26.9531 13.4766 26.6113 13.2812 25.6641 13.2812C24.9805 13.2812 24.8633 13.3105 24.6582 13.5254Z" fill="#DBA765"/>
<path d="M24.8047 29.5312C23.6719 29.8438 22.7441 30.6055 22.2461 31.6211C21.9434 32.2363 21.9238 32.3438 21.9238 33.3008C21.9238 34.2676 21.9434 34.375 22.2461 34.9805C22.6465 35.8008 23.4961 36.6113 24.2871 36.9238C24.7363 37.1094 25.0488 37.1484 25.791 37.1582C26.6699 37.1582 26.7578 37.1387 27.4609 36.7871C29.7852 35.6445 30.3711 32.6855 28.6719 30.7129C27.793 29.6777 26.1133 29.1699 24.8047 29.5312ZM26.7969 31.1035C28.0469 31.6992 28.5547 33.252 27.8906 34.4531C27.2559 35.6055 25.9082 36.0547 24.7559 35.5078C22.7832 34.5801 22.9102 31.7578 24.9609 30.9961C25.4297 30.8203 26.3086 30.8789 26.7969 31.1035Z" fill="#DBA765"/>
<path d="M24.6094 32.9297C24.1992 33.3789 24.4824 34.0137 25.1563 34.1406C25.6738 34.2383 26.5527 34.1211 26.7676 33.9258C27.0117 33.7012 27.0215 33.0957 26.7773 32.8809C26.6406 32.7539 26.3965 32.7148 25.7031 32.7148C24.9121 32.7148 24.7852 32.7344 24.6094 32.9297Z" fill="#DBA765"/>
<path d="M39.1992 37.9883C38.2031 38.1934 37.2168 38.9844 36.7871 39.9219C36.6211 40.2832 36.5723 40.5664 36.5723 41.2598C36.5723 42.3437 36.7676 42.8223 37.5488 43.6426L38.0859 44.209V44.9316C38.0859 45.7715 38.2031 46.0449 38.6719 46.3672C38.9844 46.5723 39.1016 46.5918 39.9609 46.5625C40.8496 46.5332 40.918 46.5137 41.2012 46.25C41.5625 45.9082 41.6992 45.4687 41.6992 44.6973C41.6992 44.1504 41.7188 44.1016 42.1289 43.7012C42.373 43.4668 42.6855 43.0469 42.8418 42.7637C43.0859 42.2852 43.1152 42.1387 43.1152 41.2598C43.1152 40.3906 43.0859 40.2344 42.8516 39.7852C42.5098 39.1406 41.6406 38.3496 41.0449 38.1445C40.4492 37.9395 39.707 37.8809 39.1992 37.9883ZM40.3613 39.4629C40.8203 39.5898 41.3965 40.0781 41.5625 40.498C41.6406 40.6738 41.6992 41.0156 41.6992 41.2598C41.6992 41.5039 41.6406 41.8457 41.5625 42.0215C41.4453 42.3047 41.2793 42.4707 40.459 43.1641C40.2539 43.3301 40.2344 43.4277 40.2344 44.2285V45.1172H39.9023H39.5703L39.5312 44.2285C39.502 43.2617 39.5703 43.3789 38.6719 42.6855C37.5586 41.8359 37.8809 39.9805 39.2285 39.502C39.6875 39.3359 39.8828 39.3262 40.3613 39.4629Z" fill="#DBA765"/>
<path d="M5.37109 29.5312C4.23828 29.8438 3.31055 30.6055 2.8125 31.6211C2.50977 32.2363 2.49023 32.3438 2.49023 33.3008C2.49023 34.2676 2.50977 34.375 2.8125 34.9805C3.21289 35.8008 4.0625 36.6113 4.85352 36.9238C5.30273 37.1094 5.61523 37.1484 6.35742 37.1582C7.23633 37.1582 7.32422 37.1387 8.02734 36.7871C10.3516 35.6445 10.9375 32.6855 9.23828 30.7129C8.35938 29.6777 6.67969 29.1699 5.37109 29.5312ZM7.36328 31.1035C8.61328 31.6992 9.12109 33.252 8.45703 34.4531C7.82227 35.6055 6.47461 36.0547 5.32227 35.5078C3.34961 34.5801 3.47656 31.7578 5.52734 30.9961C5.99609 30.8203 6.875 30.8789 7.36328 31.1035Z" fill="#DBA765"/>
<path d="M5.17579 32.9297C4.76563 33.3789 5.04883 34.0137 5.72266 34.1406C6.24024 34.2383 7.11914 34.1211 7.33399 33.9258C7.57813 33.7012 7.58789 33.0957 7.34375 32.8809C7.20704 32.7539 6.96289 32.7148 6.26954 32.7148C5.47852 32.7148 5.35157 32.7344 5.17579 32.9297Z" fill="#DBA765"/>
</svg>
