<svg width="81" height="73" viewBox="0 0 81 73" fill="none" xmlns="http://www.w3.org/2000/svg">
<path fill-rule="evenodd" clip-rule="evenodd" d="M41.0043 0H69.4274H76C73.3362 0 71 2.21898 71 4.9103V42.5C71.0088 43.1772 70.9161 43.8616 70.4025 44.3717L42.8325 72.2348C42.3275 72.7449 41.666 73 41.0043 73C40.3428 73 39.6812 72.7449 39.1762 72.2348L11.5975 44.3805C11.0839 43.8616 10.9912 43.1772 11 42.5V4.88001C11 2.18869 8.66385 0 6 0H12.5726H41.0043Z" fill="#3CAA9F" fill-opacity="0.9"/>
<path d="M1 5C1 2.23858 3.23858 0 6 0V0C8.76142 0 11 2.23858 11 5V32H6C3.23858 32 1 29.7614 1 27V5Z" fill="#3CAA9F"/>
<path d="M81 27C81 29.7614 78.7614 32 76 32L71 32L71 5C71 2.23858 73.2386 6.78525e-07 76 4.37114e-07V4.37114e-07C78.7614 1.95703e-07 81 2.23858 81 5L81 27Z" fill="#3CAA9F"/>
</svg>
