<svg width="50" height="50" viewBox="0 0 50 50" fill="none" xmlns="http://www.w3.org/2000/svg">
<g clip-path="url(#clip0_418_442)">
<path d="M14.2578 0.155822C13.9062 0.390197 3.55469 10.7223 3.21289 11.1715C3.02734 11.4254 2.92969 11.6695 2.92969 11.9039C2.92969 12.2359 3.34961 12.6754 12.4805 21.7965L22.0215 31.3473H22.4609H22.9004L27.9785 26.2691L33.0566 21.191H33.8965C35.2441 21.191 36.5039 20.7613 37.7344 19.8824C38.3496 19.443 39.4824 18.3199 39.7852 17.8414L39.9609 17.5777H44.5898C49.5508 17.5777 49.5996 17.568 49.8633 17.0797C50.0684 16.6695 50.0684 4.22809 49.8633 3.81793C49.6094 3.33941 49.4531 3.31988 46.0449 3.31988H42.8809L42.6074 3.55426C42.373 3.75934 42.3242 3.87652 42.2852 4.46246L42.2363 5.12652L40.6543 5.15582L39.0723 5.17535L38.8281 5.47809C38.6719 5.65387 38.5742 5.89801 38.5742 6.07379V6.37652L38.0176 6.31793C37.1387 6.22027 36.4746 5.94684 34.6484 4.92145C32.4414 3.68121 29.4336 2.2066 28.5156 1.91363C27.4316 1.56207 26.1035 1.43512 25.0391 1.56207C24.1406 1.66949 23.7793 1.78668 20.6543 2.91949L18.7988 3.59332L17.0898 1.90387C16.1523 0.976134 15.2832 0.165588 15.166 0.106994C14.8633 -0.0492566 14.5312 -0.0297254 14.2578 0.155822ZM15.8398 3.4859C16.4258 4.06207 16.8945 4.56988 16.8945 4.59918C16.8945 4.63824 16.6602 4.76519 16.3867 4.89215C15.9375 5.09723 15.7227 5.12652 14.7461 5.12652C13.7695 5.12652 13.5547 5.09723 13.1152 4.89215C12.832 4.76519 12.5977 4.63824 12.5977 4.59918C12.5977 4.53082 14.668 2.44098 14.7461 2.44098C14.7656 2.44098 15.2637 2.90973 15.8398 3.4859ZM27.6172 3.68121C28.2812 3.84723 31.8555 5.56598 33.4961 6.51324C35.5957 7.72418 36.416 8.05621 37.7441 8.25152L38.5254 8.35895L38.5547 12.2555L38.5742 16.1519L38.2129 16.6793C37.6562 17.4898 36.6895 18.3199 35.7617 18.7789C34.9805 19.1598 34.873 19.1891 33.9355 19.2184C32.1094 19.2867 30.752 18.7496 29.4434 17.4215L28.6621 16.6402L26.6113 15.9469C20.7031 13.9547 20.4199 13.8473 19.9609 13.4469C19.4727 13.0172 19.2871 12.7144 19.1895 12.1969C19.0527 11.4547 19.5801 10.4879 20.2832 10.1949C20.9277 9.92145 21.3477 10.0094 25.9473 11.4742C28.4082 12.2555 30.5371 12.8902 30.6934 12.8902C31.1328 12.8902 31.543 12.4215 31.543 11.9137C31.543 11.2789 31.3184 11.1324 29.3359 10.4976C28.3789 10.1949 26.7773 9.68707 25.7812 9.3648L23.9746 8.78863L22.1387 6.95269L20.3027 5.11676L20.8203 4.94098C21.1035 4.83355 22.0312 4.50152 22.8809 4.18902C23.7305 3.87652 24.6973 3.57379 25.0293 3.52496C25.7617 3.40777 26.7871 3.47613 27.6172 3.68121ZM48.0469 10.4488V15.6246H46.1426H44.2383V10.4488V5.27301H46.1426H48.0469V10.4488ZM11.6895 6.33746C12.4902 6.83551 13.3105 7.05035 14.502 7.10895C15.7812 7.15777 16.748 6.94293 17.7637 6.37652L18.3789 6.03473L19.3945 7.04059C20.3516 7.99762 20.4004 8.06598 20.1953 8.1441C18.877 8.67145 18.4277 8.98395 17.9004 9.7359C17.6465 10.107 17.4707 10.2633 17.2461 10.3023C16.5234 10.4586 15.3418 11.1324 14.7266 11.7574C13.6426 12.8316 13.0859 14.1793 13.0859 15.7027C13.0859 17.1773 13.5547 18.398 14.5312 19.443C16.7773 21.8648 20.3906 21.8746 22.6855 19.4527C23.1934 18.9156 23.9258 17.6558 23.9258 17.3141C23.9258 17.1187 24.043 17.148 25.7031 17.6949L27.2461 18.2027L27.1875 19.1402C27.1094 20.3609 27.3047 21.2691 27.8613 22.3824L28.291 23.2223L27.207 24.3062L26.123 25.3805L25.2441 24.941C23.3594 24.0035 21.377 24.023 19.541 25.0094L18.8086 25.4L13.8477 20.4391L8.89648 15.4781L9.17969 15.0094C9.3457 14.7555 9.58984 14.2086 9.73633 13.7887C9.9707 13.1344 10 12.8805 10.0098 11.8648C10.0098 10.5269 9.80469 9.7066 9.22852 8.77887L8.90625 8.25152L10 7.14801C10.5957 6.5523 11.1133 6.05426 11.1523 6.05426C11.1914 6.05426 11.4258 6.18121 11.6895 6.33746ZM42.2852 11.3766V15.6246H41.4062H40.5273V11.3766V7.12848H41.4062H42.2852V11.3766ZM7.91016 10.6246C8.22266 11.6207 8.11523 12.9 7.65625 13.7887L7.5 14.0914L6.38672 12.9781L5.27344 11.8648L6.36719 10.7613C7.61719 9.51129 7.56836 9.52105 7.91016 10.6246ZM17.3145 12.7633C17.4609 13.6812 18.3203 14.8141 19.2871 15.3902C19.5508 15.5465 20.3027 15.859 20.9473 16.0738C22.2656 16.5328 22.2363 16.484 21.7969 17.3629C21.4648 18.0465 20.6641 18.7691 19.9414 19.0523C19.1699 19.3551 18.0371 19.3551 17.2656 19.0523C16.5332 18.7691 15.8398 18.1246 15.4199 17.3629C15.0977 16.7769 15.0879 16.7086 15.0879 15.7223C15.0879 14.5016 15.2539 14.0523 15.9766 13.2711C16.377 12.8512 16.9824 12.4215 17.1973 12.4019C17.2363 12.4019 17.2852 12.568 17.3145 12.7633ZM29.6777 20.1168C29.9316 20.2828 30.293 20.4586 30.459 20.5172C30.625 20.5758 30.7617 20.6539 30.7617 20.693C30.7617 20.732 30.5273 20.9859 30.2441 21.2691L29.7266 21.7769L29.5508 21.4156C29.2676 20.8394 29.0137 19.8238 29.1504 19.8238C29.1797 19.8238 29.4141 19.9605 29.6777 20.1168ZM23.9062 26.4644C24.209 26.5719 24.4922 26.6988 24.5508 26.7574C24.6191 26.8258 24.3066 27.2066 23.5547 27.9586L22.4609 29.0523L21.3867 27.9781C20.8008 27.3922 20.3125 26.8746 20.3125 26.8355C20.3125 26.7281 20.9668 26.4547 21.582 26.3082C22.2461 26.1422 23.1836 26.2105 23.9062 26.4644Z" fill="#3CAA9F"/>
<path d="M33.4473 12.3438C33.1348 12.6563 33.0567 13.0176 33.2032 13.3887C33.4766 14.0333 34.2676 14.1797 34.7754 13.6817C35.1465 13.3008 35.1563 12.8321 34.8047 12.4122C34.5899 12.1583 34.4824 12.1094 34.1211 12.1094C33.7891 12.1094 33.6231 12.168 33.4473 12.3438Z" fill="#3CAA9F"/>
<path d="M14.668 30.4586C13.1934 30.8688 11.6602 31.8844 10.5957 33.1832L10.0488 33.8375L5.3125 33.8864L0.566406 33.9352L0.283203 34.2575L0 34.5797L0.0195312 41.1227L0.0488281 47.6754L0.322266 47.9098L0.595703 48.1442H3.89648H7.19727L7.46094 47.8903C7.68555 47.6657 7.71484 47.5485 7.71484 47.0114V46.3864H9.17969C11.0645 46.3864 11.4258 46.2301 11.4258 45.4098V45.0973L11.9434 45.1657C12.8809 45.2926 13.6133 45.5954 15.1855 46.4938C17.1973 47.6364 20.6641 49.3356 21.4941 49.5895C23.0762 50.0778 24.7949 50.1071 26.2305 49.6676C26.6504 49.5407 29.2188 48.6422 31.9336 47.6657C34.6484 46.6891 38.0957 45.4489 39.5996 44.9118C42.627 43.8278 43.0664 43.6227 43.8086 42.9391C45.293 41.5915 45.6055 39.8141 44.668 38.0954C43.9453 36.7477 42.334 35.9957 40.6934 36.2301C40.3613 36.279 38.418 36.7868 36.3867 37.3532C34.3457 37.9196 32.666 38.3786 32.6562 38.3786C32.6367 38.3786 32.4902 38.1149 32.3145 37.7926C31.9531 37.1188 31.084 36.2594 30.4492 35.9567C30 35.7321 27.6953 34.9313 24.4434 33.8473L22.4707 33.193L21.7383 32.4899C20.2637 31.0641 18.6719 30.4 16.5039 30.3122C15.5859 30.2829 15.2441 30.3024 14.668 30.4586ZM17.5293 32.3727C17.9102 32.4508 18.5742 32.695 19.0137 32.9098C19.6484 33.2223 19.9414 33.4469 20.5078 34.0524L21.2109 34.8043L25.332 36.2008C27.9004 37.0797 29.5898 37.7047 29.834 37.8707C30.3613 38.2418 30.752 38.8278 30.8203 39.3747C30.9082 40.029 30.5176 40.82 29.9512 41.152C29.1211 41.6403 29.209 41.6598 24.0918 40.0387C20.8008 38.9938 19.3457 38.5739 19.1797 38.6129C18.75 38.7204 18.457 39.1012 18.457 39.5407C18.457 40.3024 18.418 40.2926 23.5352 41.9137C27.9102 43.3102 28.2129 43.3883 28.9551 43.3883C30.625 43.3883 32.041 42.3825 32.5684 40.8297L32.7148 40.3805L36.0645 39.4625C41.416 37.9782 41.084 38.0563 41.6797 38.1735C42.3828 38.3102 42.7539 38.6032 43.0371 39.2379C43.4766 40.1754 43.1738 41.0543 42.1875 41.7575C41.8652 41.9821 39.6582 42.8122 34.1797 44.775C30.0195 46.2692 26.3086 47.5973 25.9277 47.734C25.3418 47.9489 25.0781 47.9879 24.1211 47.9879C23.3496 47.9879 22.8027 47.9391 22.3633 47.8219C21.6016 47.6071 18.0078 45.8493 15.9668 44.6872C14.3555 43.7692 13.4473 43.4176 12.2363 43.2516L11.4258 43.1344V39.2184V35.3024L11.9238 34.6383C12.4609 33.9254 13.3203 33.1832 14.0625 32.7731C15.0391 32.236 16.2402 32.0993 17.5293 32.3727ZM5.76172 41.0153V46.1911H3.85742H1.95312V41.0153V35.8395H3.85742H5.76172V41.0153ZM9.47266 40.1364V44.443L8.62305 44.4137L7.76367 44.3844L7.73438 40.234C7.72461 37.9489 7.73438 36.025 7.76367 35.9567C7.79297 35.8786 8.06641 35.8395 8.64258 35.8395H9.47266V40.1364Z" fill="#3CAA9F"/>
<path d="M15.2247 37.7833C14.5606 38.4473 15.1465 39.5801 16.0547 39.4141C16.5235 39.3262 16.8458 38.9454 16.8458 38.4571C16.8458 38.1348 16.7872 38.0176 16.5235 37.7833C16.0938 37.3926 15.6153 37.3926 15.2247 37.7833Z" fill="#3CAA9F"/>
</g>
<defs>
<clipPath id="clip0_418_442">
<rect width="50" height="50" fill="white"/>
</clipPath>
</defs>
</svg>
