<svg width="20" height="14" viewBox="0 0 20 14" fill="none" xmlns="http://www.w3.org/2000/svg">
<g clip-path="url(#clip0_418_451)">
<path d="M9.47266 0.034681C8.30859 0.204232 7.37891 0.990336 7.02344 2.11169C6.89453 2.52787 6.89453 3.31012 7.02344 3.73014C7.42188 4.99022 8.55078 5.81101 9.89062 5.81486C10.4062 5.81486 10.7227 5.7455 11.1914 5.522C11.8164 5.22528 12.2383 4.80911 12.5586 4.18485C12.7969 3.71858 12.8633 3.37948 12.8438 2.79375C12.8281 2.41612 12.8047 2.26198 12.7188 2.01536C12.5664 1.57606 12.3359 1.20999 11.9961 0.874733C11.5156 0.400759 10.9492 0.127163 10.2617 0.034681C9.91797 -0.0115603 9.80859 -0.0115603 9.47266 0.034681ZM10.625 0.762983C11.3281 0.998043 11.8867 1.54909 12.1133 2.235C12.2344 2.60108 12.2461 3.21378 12.1328 3.53747C11.8477 4.36982 11.2695 4.9093 10.4375 5.12124C9.68359 5.31006 8.88672 5.10582 8.29688 4.56249C7.98828 4.28119 7.8125 4.01144 7.66797 3.60683C7.53516 3.23305 7.52734 2.64732 7.65234 2.26583C7.89844 1.50285 8.62891 0.843905 9.39453 0.689767C9.71094 0.628112 10.332 0.662793 10.625 0.762983Z" fill="#3CAA9F"/>
<path d="M15.5472 2.05414C14.7582 2.2314 14.0707 2.8518 13.8246 3.61479C13.7269 3.90765 13.7074 4.53191 13.7855 4.80936C13.891 5.18699 14.1019 5.54151 14.3871 5.83052C14.7074 6.1465 14.9222 6.28137 15.3168 6.41239C15.9066 6.60892 16.5004 6.56268 17.0941 6.27752C18.6488 5.51839 18.7933 3.37587 17.3558 2.4048C16.8402 2.05799 16.1371 1.92312 15.5472 2.05414ZM16.5277 2.71308C16.8246 2.80171 17.0277 2.92887 17.2621 3.17164C18.0394 3.98086 17.7738 5.26406 16.7308 5.74189C16.0511 6.05787 15.1722 5.84208 14.7191 5.2525C14.473 4.93652 14.3988 4.69761 14.3949 4.25061C14.3949 3.89609 14.4066 3.84599 14.5199 3.60323C14.723 3.17935 15.1097 2.84795 15.5668 2.70537C15.7894 2.63601 16.2777 2.63986 16.5277 2.71308Z" fill="#3CAA9F"/>
<path d="M3.48058 2.21138C2.89464 2.33469 2.36339 2.68921 2.03527 3.17089C1.41808 4.0803 1.54308 5.25946 2.33214 6.0263C2.73839 6.4232 3.40246 6.6968 3.96496 6.6968C4.93761 6.6968 5.87511 6.01088 6.17589 5.07835C6.30089 4.70071 6.29308 4.11498 6.16027 3.73735C6.01964 3.34044 5.84386 3.06685 5.53918 2.78554C4.98449 2.26533 4.21886 2.05339 3.48058 2.21138ZM4.64855 2.94739C5.1173 3.16704 5.40636 3.49458 5.5548 3.97626C5.78918 4.73154 5.40636 5.55232 4.66027 5.89913C4.15636 6.13034 3.48058 6.08024 3.03136 5.77197C2.79308 5.61398 2.54308 5.33267 2.44152 5.10532C2.03527 4.22673 2.48058 3.20942 3.42199 2.88188C3.60558 2.82022 3.72668 2.80481 4.02355 2.81637C4.34386 2.82408 4.4298 2.84335 4.64855 2.94739Z" fill="#3CAA9F"/>
<path d="M9.53125 6.22287C8.33594 6.33848 7.19141 6.82787 6.35547 7.58314L6.08984 7.82591L5.71094 7.64865C5.25 7.43286 4.93359 7.33652 4.47266 7.27487C2.64062 7.02054 0.808594 8.13804 0.207031 9.87595C0.046875 10.3384 0 10.7276 0 11.5522C0 12.3114 0 12.3152 0.109375 12.5195C0.1875 12.6697 0.269531 12.7584 0.410156 12.8431L0.597656 12.9587L2.57812 12.9703L4.5625 12.9819L4.58594 13.136C4.62109 13.3595 4.73438 13.5599 4.92188 13.7256C5.25391 14.0223 4.83594 13.9992 10 13.9992C15.1641 13.9992 14.7461 14.0223 15.0781 13.7256C15.3008 13.5291 15.3984 13.321 15.4219 13.0088L15.4414 12.7507L17.3984 12.7391C18.7891 12.7314 19.3867 12.7121 19.457 12.6813C19.6289 12.6081 19.8516 12.3923 19.9258 12.2266C19.9883 12.0956 20 11.9646 20 11.3172C20 10.4964 19.9531 10.1072 19.793 9.64474C19.3867 8.46944 18.4414 7.56002 17.2461 7.18624C16.1641 6.85099 14.9023 7.00127 13.9688 7.57158L13.7773 7.69104L13.5352 7.48681C12.4297 6.56198 10.9258 6.08415 9.53125 6.22287ZM10.8047 6.90879C12.7578 7.24019 14.2891 8.69294 14.6914 10.5966C14.7578 10.9203 14.7773 11.1669 14.7891 11.9491C14.8086 12.9857 14.7891 13.1553 14.6211 13.2824C14.5195 13.3634 14.5 13.3634 10 13.3634C5.52734 13.3634 5.47656 13.3634 5.37891 13.2863C5.21094 13.1553 5.19531 13.032 5.21094 11.9761C5.22266 11.1515 5.23828 10.928 5.30859 10.5966C5.71094 8.70835 7.23047 7.25175 9.16016 6.91264C9.58203 6.83943 10.3789 6.83557 10.8047 6.90879ZM16.8711 7.74113C18.0352 8.034 18.957 8.94726 19.2578 10.1033C19.3242 10.3615 19.3359 10.5311 19.3359 11.2054C19.3359 11.7719 19.3242 12.0108 19.2891 12.0455C19.2539 12.0802 18.7695 12.0917 17.3398 12.0917H15.4414L15.418 11.4251C15.3828 10.4617 15.2344 9.87209 14.8203 9.08214C14.7188 8.88561 14.543 8.60045 14.4297 8.44632L14.2227 8.16501L14.3516 8.08409C15.0391 7.66792 16.0352 7.53305 16.8711 7.74113ZM4.77344 7.9839C5.10547 8.06482 5.625 8.28447 5.625 8.33842C5.625 8.34998 5.55078 8.46173 5.46484 8.59275C5.23438 8.92414 4.90234 9.62547 4.78516 10.0301C4.63281 10.5465 4.57031 11.0397 4.57031 11.7141V12.3229H2.66016C1.03125 12.3229 0.746094 12.3152 0.703125 12.2651C0.667969 12.2227 0.660156 11.9838 0.671875 11.3326C0.6875 10.5465 0.699219 10.4232 0.777344 10.1843C1.16016 9.03589 2.08203 8.20355 3.26172 7.94922C3.66406 7.86059 4.34766 7.87601 4.77344 7.9839Z" fill="#3CAA9F"/>
</g>
<defs>
<clipPath id="clip0_418_451">
<rect width="20" height="14" fill="white"/>
</clipPath>
</defs>
</svg>
