<svg width="20" height="14" viewBox="0 0 20 14" fill="none" xmlns="http://www.w3.org/2000/svg">
<path d="M9.47241 0.0347657C8.30835 0.204318 7.37866 0.990421 7.02319 2.11178C6.89429 2.52795 6.89429 3.3102 7.02319 3.73022C7.42163 4.9903 8.55054 5.81109 9.89038 5.81494C10.406 5.81494 10.7224 5.74558 11.1912 5.52208C11.8162 5.22536 12.238 4.80919 12.5583 4.18493C12.7966 3.71866 12.863 3.37956 12.8435 2.79384C12.8279 2.4162 12.8044 2.26206 12.7185 2.01544C12.5662 1.57615 12.3357 1.21007 11.9958 0.874818C11.5154 0.400844 10.949 0.127248 10.2615 0.0347657C9.91772 -0.0114756 9.80835 -0.0114756 9.47241 0.0347657ZM10.6248 0.763068C11.3279 0.998128 11.8865 1.54917 12.113 2.23509C12.2341 2.60116 12.2458 3.21386 12.1326 3.53755C11.8474 4.3699 11.2693 4.90938 10.4373 5.12132C9.68335 5.31014 8.88647 5.10591 8.29663 4.56257C7.98804 4.28127 7.81226 4.01153 7.66772 3.60691C7.53491 3.23313 7.5271 2.64741 7.6521 2.26591C7.89819 1.50293 8.62866 0.84399 9.39429 0.689852C9.71069 0.628197 10.3318 0.662878 10.6248 0.763068Z" fill="white"/>
<path d="M15.547 2.05391C14.7579 2.23117 14.0704 2.85157 13.8243 3.61456C13.7267 3.90742 13.7071 4.53168 13.7853 4.80913C13.8907 5.18676 14.1017 5.54128 14.3868 5.83029C14.7071 6.14627 14.922 6.28114 15.3165 6.41216C15.9064 6.60869 16.5001 6.56245 17.0939 6.27729C18.6485 5.51816 18.7931 3.37564 17.3556 2.40457C16.84 2.05776 16.1368 1.92289 15.547 2.05391ZM16.5275 2.71285C16.8243 2.80148 17.0275 2.92864 17.2618 3.17141C18.0392 3.98063 17.7735 5.26383 16.7306 5.74166C16.0509 6.05764 15.172 5.84185 14.7189 5.25227C14.4728 4.93629 14.3985 4.69738 14.3946 4.25038C14.3946 3.89586 14.4064 3.84576 14.5196 3.603C14.7228 3.17912 15.1095 2.84772 15.5665 2.70514C15.7892 2.63578 16.2775 2.63963 16.5275 2.71285Z" fill="white"/>
<path d="M3.48034 2.21185C2.8944 2.33516 2.36315 2.68968 2.03503 3.17136C1.41784 4.08077 1.54284 5.25993 2.3319 6.02677C2.73815 6.42367 3.40221 6.69727 3.96471 6.69727C4.93737 6.69727 5.87487 6.01135 6.17565 5.07882C6.30065 4.70118 6.29284 4.11545 6.16003 3.73782C6.0194 3.34091 5.84362 3.06732 5.53893 2.78601C4.98424 2.2658 4.21862 2.05386 3.48034 2.21185ZM4.64831 2.94786C5.11706 3.16751 5.40612 3.49505 5.55456 3.97673C5.78893 4.73201 5.40612 5.55279 4.66003 5.8996C4.15612 6.13081 3.48034 6.08071 3.03112 5.77244C2.79284 5.61445 2.54284 5.33314 2.44128 5.10579C2.03503 4.2272 2.48034 3.20989 3.42174 2.88235C3.60534 2.82069 3.72643 2.80528 4.02331 2.81684C4.34362 2.82455 4.42956 2.84382 4.64831 2.94786Z" fill="white"/>
<path d="M9.53125 6.22331C8.33594 6.33892 7.19141 6.82831 6.35547 7.58358L6.08984 7.82635L5.71094 7.64909C5.25 7.4333 4.93359 7.33696 4.47266 7.27531C2.64062 7.02098 0.808594 8.13848 0.207031 9.87639C0.046875 10.3388 0 10.728 0 11.5526C0 12.3118 0 12.3156 0.109375 12.5199C0.1875 12.6701 0.269531 12.7588 0.410156 12.8435L0.597656 12.9591L2.57812 12.9707L4.5625 12.9823L4.58594 13.1364C4.62109 13.3599 4.73438 13.5603 4.92188 13.726C5.25391 14.0227 4.83594 13.9996 10 13.9996C15.1641 13.9996 14.7461 14.0227 15.0781 13.726C15.3008 13.5295 15.3984 13.3214 15.4219 13.0092L15.4414 12.7511L17.3984 12.7395C18.7891 12.7318 19.3867 12.7125 19.457 12.6817C19.6289 12.6085 19.8516 12.3927 19.9258 12.227C19.9883 12.096 20 11.965 20 11.3176C20 10.4968 19.9531 10.1076 19.793 9.64518C19.3867 8.46988 18.4414 7.56046 17.2461 7.18668C16.1641 6.85143 14.9023 7.00171 13.9688 7.57202L13.7773 7.69148L13.5352 7.48725C12.4297 6.56242 10.9258 6.08459 9.53125 6.22331ZM10.8047 6.90923C12.7578 7.24063 14.2891 8.69338 14.6914 10.597C14.7578 10.9207 14.7773 11.1673 14.7891 11.9495C14.8086 12.9861 14.7891 13.1557 14.6211 13.2828C14.5195 13.3638 14.5 13.3638 10 13.3638C5.52734 13.3638 5.47656 13.3638 5.37891 13.2867C5.21094 13.1557 5.19531 13.0324 5.21094 11.9765C5.22266 11.1519 5.23828 10.9284 5.30859 10.597C5.71094 8.70879 7.23047 7.25219 9.16016 6.91308C9.58203 6.83987 10.3789 6.83601 10.8047 6.90923ZM16.8711 7.74157C18.0352 8.03444 18.957 8.9477 19.2578 10.1037C19.3242 10.3619 19.3359 10.5315 19.3359 11.2058C19.3359 11.7723 19.3242 12.0112 19.2891 12.0459C19.2539 12.0806 18.7695 12.0921 17.3398 12.0921H15.4414L15.418 11.4255C15.3828 10.4621 15.2344 9.87253 14.8203 9.08258C14.7188 8.88605 14.543 8.60089 14.4297 8.44676L14.2227 8.16545L14.3516 8.08453C15.0391 7.66836 16.0352 7.53349 16.8711 7.74157ZM4.77344 7.98434C5.10547 8.06526 5.625 8.28491 5.625 8.33886C5.625 8.35042 5.55078 8.46217 5.46484 8.59319C5.23438 8.92458 4.90234 9.62591 4.78516 10.0305C4.63281 10.5469 4.57031 11.0401 4.57031 11.7145V12.3233H2.66016C1.03125 12.3233 0.746094 12.3156 0.703125 12.2655C0.667969 12.2231 0.660156 11.9842 0.671875 11.333C0.6875 10.5469 0.699219 10.4236 0.777344 10.1847C1.16016 9.03633 2.08203 8.20399 3.26172 7.94966C3.66406 7.86103 4.34766 7.87645 4.77344 7.98434Z" fill="white"/>
</svg>
