<svg width="40" height="40" viewBox="0 0 40 40" fill="none" xmlns="http://www.w3.org/2000/svg">
<path d="M25.7031 3.11719C24.2109 3.51563 23.0391 4.63282 22.5234 6.13282C22.3125 6.75 22.3125 6.77344 22.2812 9.23438C22.2578 11.0469 22.2266 11.7188 22.1641 11.7188C22.0156 11.7188 20.3984 12.5234 19.9219 12.8281C19.2734 13.2422 18.625 13.5547 17.8906 13.7969C17.2734 14 17.1406 14.0156 15.9375 14.0156C14.7891 14.0156 14.5625 13.9922 13.8281 13.8047C12.6719 13.5078 11.7656 13.4063 10.625 13.4688C5.76562 13.7031 1.76562 17.1797 0.804688 22.0156C0.617188 22.9688 0.617188 24.9609 0.804688 25.8516C1.26562 27.9922 2.125 29.6641 3.53906 31.1406C5.35156 33.0391 7.55469 34.1094 10.1953 34.375C11.4375 34.5 12.4531 34.4063 14.0625 34.0078C14.7109 33.8438 15.0781 33.7969 15.8203 33.7969C17.3438 33.7891 18.3906 34.1016 19.8203 34.9844C21.3047 35.8984 22.7578 36.4844 24.4062 36.8203C25.6562 37.0703 28.0781 37.0703 29.3438 36.8125C30.5938 36.5625 31.5391 36.2344 32.7734 35.625C35.8828 34.0781 38.3047 31.2578 39.3594 27.9688C40.5156 24.3438 40.0859 20.5469 38.1562 17.2422C37.375 15.9141 36 14.3906 34.75 13.4609L34.0625 12.9531V10.2656C34.0625 7.30469 34.0859 7.10938 34.5078 6.94532C34.9219 6.78907 35.3906 7.07813 35.3906 7.48438C35.3906 8.33594 36.0234 9.17969 36.8438 9.42188C37.9141 9.72657 39.0547 9.05469 39.2891 7.96875C39.3828 7.53125 39.2969 6.64063 39.1094 6.10938C38.4375 4.21094 36.7109 2.96875 34.7656 2.96875C34.4453 2.96875 33.9531 3.02344 33.6797 3.08594C32.7031 3.32032 31.6016 4.05469 31.0547 4.84375L30.8281 5.17188L30.6719 4.94532C30.3359 4.46875 29.5469 3.77344 29.0156 3.5C28.0078 2.96875 26.7656 2.82813 25.7031 3.11719ZM28.2891 4.59375C29.2578 5.0625 30.0156 6.125 30.125 7.17188C30.1875 7.72657 30.0938 7.97657 29.7891 8.11719C29.2812 8.35157 28.9297 8.07032 28.8281 7.35157C28.7344 6.67969 28.4375 6.20313 27.9062 5.89063C27.375 5.57032 26.9141 5.5 26.3594 5.66407C25.8281 5.82032 25.3516 6.23438 25.1094 6.75782L24.9219 7.14844V12.0547V16.9609L24.7266 17.1484C24.4922 17.3906 24.0781 17.4063 23.8203 17.1953L23.6328 17.0469V11.9375V6.83594L23.8125 6.38282C24.1641 5.51563 24.9297 4.76563 25.7812 4.46094C26.125 4.33594 26.3672 4.30469 26.9922 4.32032C27.6875 4.34375 27.8281 4.36719 28.2891 4.59375ZM35.875 4.47657C37.0859 4.94532 37.8672 5.95313 38.0156 7.25C38.0625 7.71094 38.0547 7.73438 37.8281 7.96875C37.5234 8.27344 37.25 8.27344 36.9453 7.97657C36.7734 7.80469 36.7188 7.67188 36.7188 7.44532C36.7188 6.41407 35.5469 5.42969 34.4922 5.58594C33.9688 5.67188 33.3672 6.0625 33.0859 6.51563L32.8516 6.89844L32.8125 11.9063C32.7891 14.6641 32.7422 16.9766 32.7031 17.0547C32.5391 17.3906 31.9688 17.4453 31.6797 17.1484L31.4844 16.9609V12.0547C31.4844 8.98438 31.5156 7.01563 31.5703 6.79688C31.7422 6.03907 32.3594 5.17188 33.0234 4.75782C33.8047 4.27344 35.0312 4.14844 35.875 4.47657ZM27.3594 7.11719C27.4375 7.20313 27.5156 7.40625 27.5391 7.5625C27.6172 8.03907 27.7266 8.38282 27.8906 8.64844C28.25 9.23438 29.1562 9.61719 29.8281 9.46094L30.1562 9.39063V10.0859V10.7813H28.2031H26.25V9.03907C26.25 7.21875 26.2578 7.15625 26.6016 6.96094C26.8125 6.84375 27.1953 6.92188 27.3594 7.11719ZM30.1562 12.7734V13.4375H28.2031H26.25V12.7734V12.1094H28.2031H30.1562V12.7734ZM22.2656 13.8281V14.5313L21.9453 14.6875C21.7734 14.7813 21.4453 14.9688 21.2266 15.1094C20.2109 15.7578 18.9688 16.2656 17.7188 16.5313C16.8359 16.7266 14.8906 16.7188 14.0625 16.5313C12.1797 16.0938 12.0312 16.0781 10.8594 16.1172C9.9375 16.1484 9.60156 16.1875 9.02344 16.3594C4.625 17.6641 2.21094 22.3359 3.75 26.5859C4.64844 29.0703 6.625 30.8516 9.28125 31.5781C9.76562 31.7109 10.1094 31.7422 11.0938 31.75C12.2109 31.75 12.3828 31.7344 13.3594 31.4922C14.2109 31.2813 14.6172 31.2188 15.4844 31.1875C17.6484 31.1094 19.1484 31.5234 21.25 32.7734C22.8984 33.7578 24.2109 34.2031 25.9531 34.375C27.4297 34.5156 29 34.3125 30.4688 33.7813C33.9531 32.5313 36.5859 29.375 37.2188 25.7109C37.3828 24.7656 37.3828 23.0547 37.2266 22.1406C36.8906 20.2188 35.9375 18.2891 34.6172 16.8594L34.0625 16.2656V15.4766C34.0625 15.0313 34.0938 14.6875 34.1328 14.6875C34.2734 14.6875 35.2266 15.5469 35.75 16.1484C36.9844 17.5703 37.875 19.25 38.3203 21.0156C38.6172 22.1953 38.6953 23.0313 38.6484 24.4141C38.5781 26.3125 38.2344 27.625 37.3359 29.3828C35.6016 32.75 32.2812 35.0859 28.4531 35.6328C27.5938 35.75 25.3125 35.6797 24.5312 35.5078C23.1797 35.2109 21.6094 34.5703 20.4922 33.8516C18.4062 32.5156 16.1484 32.1641 13.6172 32.7734C10.7812 33.4531 8.30469 33.0547 6.01562 31.5469C5.41406 31.1563 4.33594 30.1406 3.86719 29.5313C3.0625 28.4844 2.4375 27.1094 2.14062 25.7031C1.95312 24.8281 1.95312 22.9453 2.14062 22.125C2.55469 20.2734 3.32031 18.8516 4.60156 17.5313C5.35938 16.7578 6.07031 16.2422 7.07031 15.7422C9.14062 14.7188 11.1875 14.5156 13.5938 15.0859C14.5547 15.3203 14.7578 15.3438 15.8984 15.3438C17.2734 15.3438 17.6953 15.2734 18.8906 14.8203C19.2656 14.6797 20 14.3125 20.5234 14C21.4062 13.4766 22.0703 13.1328 22.2109 13.125C22.2422 13.125 22.2656 13.4375 22.2656 13.8281ZM30.1562 15.4297V16.0938H28.2031H26.25V15.4297V14.7656H28.2031H30.1562V15.4297ZM22.4844 17.5234C22.6484 17.8984 23.0234 18.2969 23.3906 18.4922C23.7422 18.6875 24.7109 18.6797 25.1094 18.4844C25.4766 18.3047 25.8906 17.8906 26.0156 17.5781L26.1094 17.3438H28.1719H30.2266L30.5 17.7656C31.1484 18.7813 32.5 18.9766 33.4062 18.1797L33.7734 17.8594L34.0156 18.1563C35.4922 19.9609 36.2656 22.5156 36.0234 24.7813C35.625 28.4766 33.1719 31.5469 29.7266 32.6484C28.6562 32.9922 28.1094 33.0781 26.875 33.0781C24.8906 33.0781 23.6719 32.7109 21.6328 31.4766C19.2109 30.0156 16.3125 29.5 13.7109 30.0703C13.3281 30.1563 12.7422 30.2813 12.4219 30.3516C11.6016 30.5313 10.0938 30.4766 9.33594 30.2344C7.08594 29.5156 5.4375 27.7813 4.83594 25.5078C4.63281 24.7109 4.60938 23.3281 4.79688 22.5469C5.35938 20.1875 7.02344 18.3906 9.33594 17.6563C9.74219 17.5234 10.1484 17.4688 10.9062 17.4453C11.8516 17.4063 12.0156 17.4219 13.0391 17.6484C13.6484 17.7813 14.5234 17.9297 14.9844 17.9766C17.1953 18.1875 19.7188 17.5781 21.7188 16.3438L22.2266 16.0313L22.2812 16.6094C22.3125 16.9297 22.4062 17.3359 22.4844 17.5234Z" fill="#3CAA9F"/>
<path d="M17.3045 20.1011C16.8358 20.2573 16.5624 20.4214 16.1561 20.7729C15.7577 21.1245 15.3514 21.3276 15.0389 21.3276C14.5233 21.3276 14.2655 22.062 14.6483 22.4214C15.0624 22.812 16.1405 22.5464 16.9139 21.8667C17.4374 21.4136 17.617 21.3276 18.078 21.3276C18.4217 21.3276 18.953 21.6089 19.2577 21.9526C19.3436 22.0464 19.5858 22.2104 19.7967 22.3198C20.7811 22.8198 21.9686 22.6558 22.7733 21.9058C23.242 21.4761 23.5233 21.3276 23.8827 21.3276C24.3358 21.3276 24.5702 21.4292 25.0311 21.8511C25.492 22.2651 25.9295 22.4839 26.4999 22.5698C27.1952 22.6792 27.4999 22.4839 27.4999 21.9214C27.4999 21.6089 27.2186 21.3276 26.8983 21.3276C26.5936 21.3276 26.1717 21.1167 25.8045 20.7729C25.6092 20.6011 25.2577 20.3589 25.0155 20.2495C24.6405 20.0698 24.4686 20.0386 23.9061 20.0386C23.3358 20.0464 23.1795 20.0776 22.8124 20.2651C22.578 20.3823 22.2264 20.6323 22.0233 20.8198C21.7108 21.1089 21.2655 21.3276 20.9764 21.3276C20.6874 21.3276 20.2733 21.1167 19.8827 20.7729C19.6249 20.5542 19.2655 20.3042 19.0702 20.2183C18.617 20.0229 17.7186 19.9683 17.3045 20.1011Z" fill="#3CAA9F"/>
<path d="M9.57031 24.0157C9.04688 24.1485 8.75 24.3126 8.27344 24.7345C7.83594 25.1251 7.60938 25.2345 7.25781 25.2345C6.97656 25.2345 6.5625 25.6017 6.5625 25.8517C6.5625 26.8282 7.98438 26.7579 9.15625 25.7189C9.875 25.086 10.4922 25.0939 11.2109 25.7423C12.0078 26.461 12.9062 26.7032 13.7812 26.4532C14.2969 26.3048 14.7109 26.0626 15 25.7423C15.2344 25.4845 15.7344 25.2423 16.0391 25.2345C16.3672 25.2345 16.7812 25.4376 17.1641 25.7892C17.6016 26.1876 18.2344 26.4845 18.7812 26.5392C19.1797 26.5782 19.2266 26.5704 19.4453 26.3439C19.5938 26.1954 19.6875 26.0235 19.6875 25.8985C19.6875 25.6095 19.2969 25.2345 18.9922 25.2345C18.6328 25.2345 18.375 25.1095 17.9062 24.6876C17.3594 24.2032 16.7812 23.9689 16.0938 23.961C15.3906 23.9532 14.875 24.1485 14.3281 24.6251C13.3984 25.4298 12.8125 25.4454 11.9688 24.672C11.3125 24.0704 10.3672 23.8126 9.57031 24.0157Z" fill="#3CAA9F"/>
<path d="M24.625 24.0232C24.0703 24.1795 23.8203 24.3123 23.3516 24.7342C22.9141 25.1248 22.6875 25.2342 22.3359 25.2342C22.0312 25.2342 21.6406 25.6092 21.6406 25.8982C21.6406 26.0232 21.7344 26.1951 21.8828 26.3436C22.1094 26.5701 22.1406 26.5779 22.5625 26.5311C23.1562 26.4607 23.6953 26.2029 24.2344 25.7186C24.9844 25.0545 25.5547 25.0779 26.375 25.7967C26.6328 26.0154 26.9844 26.2654 27.1641 26.3436C28.0625 26.742 29.1953 26.5467 29.9453 25.8592C30.8203 25.0623 31.4297 25.0389 32.2422 25.7889C32.6797 26.1873 33.3125 26.4842 33.8594 26.5389C34.2578 26.5779 34.3047 26.5701 34.5234 26.3436C34.6719 26.1951 34.7656 26.0232 34.7656 25.8982C34.7656 25.6092 34.375 25.2342 34.0703 25.2342C33.7109 25.2342 33.4531 25.1092 32.9844 24.6873C31.9062 23.7264 30.4531 23.7029 29.3906 24.6404C28.4844 25.4295 27.8828 25.4373 27.0469 24.6717C26.375 24.0545 25.4297 23.8045 24.625 24.0232Z" fill="#3CAA9F"/>
</svg>
