<svg width="50" height="46" viewBox="0 0 50 46" fill="none" xmlns="http://www.w3.org/2000/svg">
<path d="M33.4472 44.9629C34.1503 44.7969 37.3241 43.1465 38.6718 42.248C40.4198 41.0859 41.4062 40.2949 42.8808 38.8203C47.6562 34.0742 49.4628 29.084 49.9023 19.4355C49.9706 18.0488 49.9999 14.1719 49.9804 9.91406C49.9511 3.24414 49.9413 2.70703 49.7753 2.38477C49.5409 1.92578 49.082 1.45703 48.5937 1.19336L48.1933 0.978516L39.746 0.978517C32.8417 0.978517 31.2304 1.00781 30.9179 1.11524C30.4394 1.28125 29.8339 1.82813 29.5605 2.33594L29.3456 2.73633L29.3163 11.0762C29.287 20.2461 29.2773 20.041 29.8827 20.7734C30.039 20.9687 30.4003 21.2422 30.6835 21.3789L31.1913 21.6328L35.2245 21.6328L39.2577 21.6328L39.2577 22.3457C39.2577 23.9082 38.8769 26.1055 38.33 27.7461C37.0898 31.457 34.9316 33.8008 30.8593 35.8418C30.0683 36.2422 29.2968 36.6914 29.121 36.8769C28.6718 37.3359 28.4863 37.9023 28.5351 38.6445C28.5741 39.1914 28.7109 39.543 29.7363 41.6816C30.9374 44.1914 31.162 44.5332 31.8749 44.8262C32.3144 45.0117 32.998 45.0703 33.4472 44.9629Z" fill="#222222"/>
<path d="M5.66407 44.6504C12.2363 41.7793 17.2461 36.8965 19.4629 31.2031C20.0977 29.582 20.6641 27.1113 20.9863 24.5625C21.3965 21.3691 21.4355 20.168 21.4355 11.2813C21.4355 3.08789 21.4258 2.7168 21.25 2.36523C21.0156 1.88672 20.5957 1.4668 20.0781 1.19336L19.6777 0.978516L11.1816 0.978517C2.75391 0.978517 2.68555 0.978517 2.24609 1.1836C1.71875 1.42774 1.32813 1.8086 1.03516 2.34571C0.830078 2.73633 0.830078 2.75586 0.800782 11.0762C0.771486 20.2461 0.76172 20.041 1.36719 20.7734C1.52344 20.9688 1.88477 21.2422 2.16797 21.3789L2.67578 21.6328L6.75781 21.6328C10.7324 21.6328 10.8398 21.6328 10.8398 21.8184C10.8398 22.5508 10.5859 24.709 10.3906 25.6855C10.0879 27.1895 9.76563 28.1563 9.13086 29.4941C7.78321 32.3262 5.73242 34.2305 2.2461 35.9102C0.449222 36.7695 0.0585969 37.2285 0.0488314 38.4785C0.0488315 39.1523 0.0683627 39.1914 1.17188 41.4863C1.78711 42.7559 2.42188 43.9668 2.57813 44.1621C3.27149 45.002 4.4336 45.1875 5.66407 44.6504Z" fill="#222222"/>
</svg>
