<svg width="60" height="60" viewBox="0 0 60 60" fill="none" xmlns="http://www.w3.org/2000/svg">
<g clip-path="url(#clip0_418_465)">
<path d="M0.598072 0.164062C0.000415504 0.492188 0.0121343 0.328125 0.0121343 8.49609C0.00041554 17.0508 0.000415564 17.0625 0.820728 18.7266C1.39495 19.875 2.50823 21.0586 3.60979 21.6797L4.33635 22.0898L4.35979 39.7266L4.39495 57.3633L4.64104 57.9023C5.00432 58.6758 5.5551 59.2383 6.3051 59.6133C6.85589 59.8828 7.12542 59.9414 7.85198 59.9414C9.31682 59.9414 10.4535 59.2148 11.0629 57.9023L11.309 57.3633L11.3442 39.7266L11.3793 22.0898L12.1059 21.6797C13.1957 21.0586 14.309 19.875 14.8832 18.7266C15.7035 17.0625 15.7035 17.0391 15.7035 8.51953C15.7035 0.28125 15.7153 0.433594 15.059 0.140625C14.6723 -0.0351562 14.391 -0.0351562 14.0043 0.140625C13.3598 0.433594 13.3598 0.375 13.3598 7.38281V13.8281H12.3051H11.2504V7.38281C11.2504 2.64844 11.2153 0.867188 11.1098 0.644531C10.9574 0.304688 10.4653 0 10.0785 0C9.69182 0 9.19964 0.304688 9.04729 0.644531C8.94182 0.867188 8.90667 2.64844 8.90667 7.38281V13.8281H7.85198H6.79729V7.38281C6.79729 2.64844 6.76214 0.867188 6.65667 0.644531C6.41057 0.09375 5.69573 -0.140625 5.09807 0.140625C4.45354 0.433594 4.45354 0.375 4.45354 7.38281V13.8281H3.39885H2.34417V7.38281C2.34417 2.64844 2.30901 0.867188 2.20354 0.644531C1.94573 0.0820312 1.17229 -0.152344 0.598072 0.164062ZM13.2074 16.5703C13.0082 17.8242 11.6606 19.4062 10.3598 19.9102C9.98479 20.0625 9.52776 20.332 9.35198 20.5195L9.02385 20.8594V38.8008C9.02385 58.3008 9.05901 57.2109 8.37932 57.5156C7.9926 57.6914 7.71135 57.6914 7.32464 57.5156C6.64495 57.2109 6.6801 58.3008 6.6801 38.8008V20.8828L6.37542 20.5195C6.21135 20.3203 6.01213 20.1562 5.9301 20.1562C5.56682 20.1562 4.33635 19.4062 3.78557 18.8555C3.16448 18.2344 2.60198 17.2383 2.49651 16.5703L2.4262 16.1719H7.85198H13.2778L13.2074 16.5703Z" fill="#3CAA9F"/>
<path d="M57.8211 0.457031C56.7547 1.17188 55.243 2.53125 54.2352 3.67969C51.7625 6.46875 50.0633 9.96094 49.3133 13.7344C49.0555 15.0234 49.0555 15.3164 49.0086 24.1523C48.9735 34.1953 48.9617 34.0664 49.7 35.5312C49.9695 36.0586 50.4735 36.6797 51.5164 37.7344L52.9695 39.2109L52.993 48.293C53.0281 57.2344 53.0281 57.375 53.2742 57.9023C53.6375 58.6758 54.1883 59.2383 54.9383 59.6133C55.4891 59.8828 55.7586 59.9414 56.4852 59.9414C57.95 59.9414 59.0867 59.2148 59.6961 57.9023L59.9422 57.3633L59.9774 29.1797C60.0008 8.09766 59.9656 0.914062 59.8719 0.667969C59.7195 0.304688 59.2274 0 58.7938 0C58.6297 0 58.1961 0.210938 57.8211 0.457031ZM57.5281 56.9883C57.3758 57.3398 56.8836 57.6562 56.4852 57.6562C56.1453 57.6562 55.5945 57.3516 55.4774 57.1055C55.4188 56.9883 55.3485 52.6875 55.3133 47.5547L55.2547 38.2148L53.6024 36.5391C52.5242 35.4375 51.8563 34.6641 51.6688 34.2773L51.3875 33.6914L51.3524 25.0898C51.3289 17.9648 51.3524 16.2422 51.5047 15.1289C52.0203 11.1094 53.8133 7.41797 56.6024 4.58203L57.5985 3.57422L57.6336 30.1172C57.657 49.9219 57.6219 56.7422 57.5281 56.9883Z" fill="#3CAA9F"/>
<path d="M27.4219 7.74565C25.2656 7.99175 22.6055 8.74175 20.6836 9.65581C19.5117 10.2066 19.2188 10.4996 19.2188 11.109C19.2188 11.648 19.7578 12.1871 20.2852 12.1871C20.4961 12.1871 21.3516 11.9058 22.1953 11.5543C25.5938 10.1363 29.0625 9.66753 32.6133 10.1363C36.8672 10.6988 40.5117 12.4215 43.6992 15.4098C44.8008 16.4293 44.9297 16.523 45.3633 16.523C46.043 16.523 46.5234 16.0308 46.5234 15.3394C46.5234 14.8824 46.4648 14.7887 45.6445 13.9918C42 10.4527 37.3945 8.29644 32.3203 7.74565C31.0078 7.59331 28.7109 7.60503 27.4219 7.74565Z" fill="#3CAA9F"/>
<path d="M28.3013 13.4298C25.7349 13.711 22.8872 14.7657 20.6372 16.2657C19.3247 17.1329 17.1333 19.3243 16.2661 20.6251C15.0005 22.5353 14.1685 24.4923 13.688 26.7071C13.3247 28.3126 13.3364 31.6642 13.688 33.2931C15.1411 39.9376 20.0982 44.8829 26.7544 46.3126C28.4654 46.6759 31.5357 46.6759 33.2349 46.3126C34.9458 45.9493 36.0943 45.5392 37.6294 44.7423C42.0943 42.4571 45.2232 38.3087 46.313 33.2462C46.6528 31.6524 46.6763 28.5821 46.3599 27.0118C45.3169 21.7384 42.0474 17.4259 37.3247 15.0821C35.0982 13.9806 33.0591 13.4884 30.4693 13.4181C29.5318 13.3946 28.5591 13.4064 28.3013 13.4298ZM32.1216 15.879C36.7036 16.5704 40.688 19.4649 42.8091 23.672C43.395 24.8439 43.9224 26.5079 44.1216 27.879C45.2935 35.6485 39.9029 42.9493 32.1099 44.1329C25.9341 45.0587 19.8169 41.8009 17.1099 36.1524C13.9107 29.461 16.3599 21.5157 22.7935 17.672C25.5122 16.0431 28.9107 15.3868 32.1216 15.879Z" fill="#3CAA9F"/>
<path d="M29.4609 19.3361C29.0742 19.4885 28.8281 19.9221 28.8281 20.426C28.8281 21.5978 30.4687 21.9963 31.0078 20.965C31.5352 19.9338 30.5391 18.8908 29.4609 19.3361Z" fill="#3CAA9F"/>
<path d="M25.1486 20.4025C22.0314 21.9729 19.8282 25.0666 19.3478 28.5354C19.1368 30.0588 19.1603 30.3166 19.6173 30.7736C20.0626 31.219 20.4376 31.2775 20.965 30.9963C21.3751 30.7854 21.504 30.4455 21.6564 29.1096C21.797 27.8791 22.1954 26.6369 22.7579 25.6877C23.3439 24.6799 24.8556 23.2385 25.9571 22.6291C26.4728 22.3361 26.9884 22.0315 27.0939 21.9377C27.3986 21.6799 27.4806 21.0705 27.2579 20.6486C26.8829 19.9338 26.215 19.8518 25.1486 20.4025Z" fill="#3CAA9F"/>
<path d="M46.2665 42.0464C46.161 42.0933 45.4461 42.7847 44.6961 43.5815C41.661 46.7573 38.6141 48.5386 34.536 49.5112C29.661 50.6714 24.2704 49.8628 19.9813 47.3433C19.3251 46.9565 18.786 46.7222 18.5516 46.7222C17.743 46.6987 17.1571 47.5425 17.4618 48.2925C17.6493 48.7261 18.2938 49.1597 19.9813 50.0034C29.4266 54.7378 40.8993 52.2183 47.4969 43.9683C47.6961 43.7104 47.8133 43.4175 47.8133 43.1714C47.8133 42.4448 46.8876 41.7769 46.2665 42.0464Z" fill="#3CAA9F"/>
<path d="M14.4261 43.9925C14.2737 44.0745 14.0745 44.2737 13.9925 44.4261C13.3362 45.6097 14.8831 46.7815 15.8323 45.8323C16.7815 44.8831 15.6096 43.3362 14.4261 43.9925Z" fill="#3CAA9F"/>
</g>
<defs>
<clipPath id="clip0_418_465">
<rect width="60" height="60" fill="white"/>
</clipPath>
</defs>
</svg>
