<svg width="40" height="40" viewBox="0 0 40 40" fill="none" xmlns="http://www.w3.org/2000/svg">
<g clip-path="url(#clip0_417_401)">
<path d="M0.398063 0.109375C-0.000374019 0.328125 0.00743849 0.21875 0.00743849 5.66406C-0.000374013 11.3672 -0.000374019 11.375 0.546501 12.4844C0.929313 13.25 1.6715 14.0391 2.40588 14.4531L2.89025 14.7266L2.90588 26.4844L2.92931 38.2422L3.09338 38.6016C3.33556 39.1172 3.70275 39.4922 4.20275 39.7422C4.56994 39.9219 4.74963 39.9609 5.234 39.9609C6.21056 39.9609 6.96838 39.4766 7.37463 38.6016L7.53869 38.2422L7.56213 26.4844L7.58556 14.7266L8.06994 14.4531C8.7965 14.0391 9.53869 13.25 9.9215 12.4844C10.4684 11.375 10.4684 11.3594 10.4684 5.67969C10.4684 0.1875 10.4762 0.289062 10.0387 0.09375C9.78088 -0.0234375 9.59338 -0.0234375 9.33556 0.09375C8.90588 0.289062 8.90588 0.25 8.90588 4.92188V9.21875H8.20275H7.49963V4.92188C7.49963 1.76562 7.47619 0.578125 7.40588 0.429688C7.30431 0.203125 6.97619 0 6.71838 0C6.46056 0 6.13244 0.203125 6.03088 0.429688C5.96056 0.578125 5.93713 1.76562 5.93713 4.92188V9.21875H5.234H4.53088V4.92188C4.53088 1.76562 4.50744 0.578125 4.43713 0.429688C4.27306 0.0625 3.7965 -0.09375 3.39806 0.09375C2.96838 0.289062 2.96838 0.25 2.96838 4.92188V9.21875H2.26525H1.56213V4.92188C1.56213 1.76562 1.53869 0.578125 1.46838 0.429688C1.2965 0.0546875 0.780876 -0.101562 0.398063 0.109375ZM8.80431 11.0469C8.6715 11.8828 7.77306 12.9375 6.90588 13.2734C6.65588 13.375 6.35119 13.5547 6.234 13.6797L6.01525 13.9062V25.8672C6.01525 38.8672 6.03869 38.1406 5.58556 38.3438C5.32775 38.4609 5.14025 38.4609 4.88244 38.3438C4.42931 38.1406 4.45275 38.8672 4.45275 25.8672V13.9219L4.24963 13.6797C4.14025 13.5469 4.00744 13.4375 3.95275 13.4375C3.71056 13.4375 2.89025 12.9375 2.52306 12.5703C2.109 12.1562 1.734 11.4922 1.66369 11.0469L1.61681 10.7812H5.234H8.85119L8.80431 11.0469Z" fill="#3CAA9F"/>
<path d="M38.5474 0.304688C37.8365 0.78125 36.8287 1.6875 36.1568 2.45312C34.5083 4.3125 33.3755 6.64062 32.8755 9.15625C32.7037 10.0156 32.7037 10.2109 32.6724 16.1016C32.649 22.7969 32.6412 22.7109 33.1333 23.6875C33.313 24.0391 33.649 24.4531 34.3443 25.1562L35.313 26.1406L35.3287 32.1953C35.3521 38.1562 35.3521 38.25 35.5162 38.6016C35.7583 39.1172 36.1255 39.4922 36.6255 39.7422C36.9927 39.9219 37.1724 39.9609 37.6568 39.9609C38.6333 39.9609 39.3912 39.4766 39.7974 38.6016L39.9615 38.2422L39.9849 19.4531C40.0005 5.39844 39.9771 0.609375 39.9146 0.445312C39.813 0.203125 39.4849 0 39.1958 0C39.0865 0 38.7974 0.140625 38.5474 0.304688ZM38.3521 37.9922C38.2505 38.2266 37.9224 38.4375 37.6568 38.4375C37.4302 38.4375 37.063 38.2344 36.9849 38.0703C36.9458 37.9922 36.899 35.125 36.8755 31.7031L36.8365 25.4766L35.7349 24.3594C35.0162 23.625 34.5708 23.1094 34.4458 22.8516L34.2583 22.4609L34.2349 16.7266C34.2193 11.9766 34.2349 10.8281 34.3365 10.0859C34.6802 7.40625 35.8755 4.94531 37.7349 3.05469L38.399 2.38281L38.4224 20.0781C38.438 33.2812 38.4146 37.8281 38.3521 37.9922Z" fill="#3CAA9F"/>
<path d="M18.2812 5.16409C16.8438 5.32815 15.0703 5.82815 13.7891 6.43753C13.0078 6.80472 12.8125 7.00003 12.8125 7.40628C12.8125 7.76565 13.1719 8.12503 13.5234 8.12503C13.6641 8.12503 14.2344 7.93753 14.7969 7.70315C17.0625 6.75784 19.375 6.44534 21.7422 6.75784C24.5781 7.13284 27.0078 8.28128 29.1328 10.2734C29.8672 10.9531 29.9531 11.0156 30.2422 11.0156C30.6953 11.0156 31.0156 10.6875 31.0156 10.2266C31.0156 9.9219 30.9766 9.8594 30.4297 9.32815C28 6.96878 24.9297 5.53128 21.5469 5.16409C20.6719 5.06253 19.1406 5.07034 18.2812 5.16409Z" fill="#3CAA9F"/>
<path d="M18.8672 8.95286C17.1563 9.14036 15.2578 9.84348 13.7578 10.8435C12.8828 11.4216 11.4219 12.8825 10.8438 13.7497C10 15.0231 9.44532 16.3278 9.12501 17.8044C8.88282 18.8747 8.89064 21.1091 9.12501 22.195C10.0938 26.6247 13.3985 29.9216 17.836 30.8747C18.9766 31.1169 21.0235 31.1169 22.1563 30.8747C23.2969 30.6325 24.0625 30.3591 25.086 29.8278C28.0625 28.3044 30.1485 25.5388 30.875 22.1638C31.1016 21.1013 31.1172 19.0544 30.9063 18.0075C30.211 14.4919 28.0313 11.6169 24.8828 10.0544C23.3985 9.32004 22.0391 8.99192 20.3125 8.94504C19.6875 8.92942 19.0391 8.93723 18.8672 8.95286ZM21.4141 10.5856C24.4688 11.0466 27.125 12.9763 28.5391 15.781C28.9297 16.5622 29.2813 17.6716 29.4141 18.5856C30.1953 23.7653 26.6016 28.6325 21.4063 29.4216C17.2891 30.0388 13.2109 27.8669 11.4063 24.1013C9.27345 19.6403 10.9063 14.3435 15.1953 11.781C17.0078 10.695 19.2735 10.2575 21.4141 10.5856Z" fill="#3CAA9F"/>
<path d="M19.6406 12.8907C19.3828 12.9923 19.2188 13.2814 19.2188 13.6173C19.2188 14.3985 20.3125 14.6642 20.6719 13.9767C21.0234 13.2892 20.3594 12.5939 19.6406 12.8907Z" fill="#3CAA9F"/>
<path d="M16.7651 13.602C14.6869 14.6488 13.2182 16.7113 12.8979 19.0238C12.7572 20.0395 12.7729 20.2113 13.0776 20.516C13.3744 20.8129 13.6244 20.852 13.976 20.6645C14.2494 20.5238 14.3354 20.2973 14.4369 19.4066C14.5307 18.5863 14.7963 17.7582 15.1713 17.1254C15.5619 16.4535 16.5697 15.4926 17.3041 15.0863C17.6479 14.891 17.9916 14.6879 18.0619 14.6254C18.2651 14.4535 18.3197 14.0473 18.1713 13.766C17.9213 13.2895 17.476 13.2348 16.7651 13.602Z" fill="#3CAA9F"/>
<path d="M30.8437 28.0309C30.7733 28.0621 30.2968 28.523 29.7968 29.0543C27.7733 31.1715 25.7421 32.359 23.0233 33.0074C19.7733 33.7809 16.1796 33.2418 13.3202 31.5621C12.8827 31.3043 12.5233 31.148 12.3671 31.148C11.828 31.1324 11.4374 31.6949 11.6405 32.1949C11.7655 32.484 12.1952 32.773 13.3202 33.3355C19.6171 36.4918 27.2655 34.8121 31.664 29.3121C31.7968 29.1402 31.8749 28.9449 31.8749 28.7809C31.8749 28.2965 31.2577 27.8512 30.8437 28.0309Z" fill="#3CAA9F"/>
<path d="M9.61672 29.3277C9.51515 29.3824 9.38234 29.5152 9.32765 29.6168C8.89015 30.4058 9.9214 31.1871 10.5542 30.5543C11.187 29.9215 10.4058 28.8902 9.61672 29.3277Z" fill="#3CAA9F"/>
</g>
<defs>
<clipPath id="clip0_417_401">
<rect width="40" height="40" fill="white"/>
</clipPath>
</defs>
</svg>
