<svg width="180" height="10" viewBox="0 0 180 10" fill="none" xmlns="http://www.w3.org/2000/svg">
<g clip-path="url(#clip0_414_37)">
<path d="M90 10C92.7614 10 95 7.76142 95 5C95 2.23858 92.7614 0 90 0C87.2386 0 85 2.23858 85 5C85 7.76142 87.2386 10 90 10Z" fill="#3CAA9F"/>
<path d="M179 4H101C100.448 4 100 4.44772 100 5C100 5.55228 100.448 6 101 6H179C179.552 6 180 5.55228 180 5C180 4.44772 179.552 4 179 4Z" fill="#3CAA9F"/>
<path d="M79 4H1C0.447715 4 0 4.44772 0 5C0 5.55228 0.447715 6 1 6H79C79.5523 6 80 5.55228 80 5C80 4.44772 79.5523 4 79 4Z" fill="#3CAA9F"/>
</g>
<defs>
<clipPath id="clip0_414_37">
<rect width="180" height="10" fill="white"/>
</clipPath>
</defs>
</svg>
