<svg width="92" height="22" viewBox="0 0 92 22" fill="none" xmlns="http://www.w3.org/2000/svg">
<path d="M29.4444 2.50256C29.4444 3.06116 29.3306 3.64211 29.1032 4.24541C28.8757 4.84498 28.546 5.4371 28.1142 6.02177C27.6785 6.60645 27.1425 7.17064 26.5063 7.71435C25.8701 8.25434 25.1395 8.74405 24.3143 9.18348C23.4853 9.62664 22.5696 10.0046 21.5671 10.3175C20.5646 10.634 19.4792 10.8574 18.3109 10.9878C17.8328 11.8331 17.3374 12.6729 16.8245 13.5071C16.3079 14.3413 15.7604 15.1345 15.182 15.8868C14.6036 16.6427 13.9906 17.341 13.3428 17.9815C12.6989 18.6258 12.0087 19.1825 11.2723 19.6518C10.5358 20.1247 9.74539 20.4934 8.90099 20.7578C8.05658 21.0259 7.15048 21.16 6.18269 21.16C5.38455 21.16 4.6134 21.0483 3.86924 20.8248C3.12508 20.6014 2.46575 20.2793 1.89124 19.8584C1.31674 19.4339 0.857903 18.9163 0.514742 18.3055C0.171581 17.6948 0 16.9965 0 16.2107C0 15.3654 0.160013 14.628 0.48004 13.9987C0.800067 13.3693 1.22613 12.8461 1.75822 12.429C2.28646 12.0082 2.8841 11.6953 3.55114 11.4905C4.21818 11.2857 4.90065 11.1833 5.59854 11.1833C6.13063 11.1833 6.65694 11.2336 7.17747 11.3341C7.69799 11.4347 8.19538 11.5762 8.66964 11.7587C9.1439 11.9411 9.58731 12.159 9.99987 12.4122C10.4086 12.6655 10.771 12.9448 11.0872 13.2501L10.6823 13.6691C10.4664 13.468 10.21 13.2762 9.91312 13.0937C9.62008 12.9112 9.28463 12.7474 8.90677 12.6022C8.52505 12.4606 8.10863 12.3471 7.65751 12.2614C7.20639 12.1795 6.71864 12.1385 6.19425 12.1385C5.5889 12.1385 5.0009 12.2372 4.43025 12.4346C3.86346 12.6282 3.35835 12.9112 2.91494 13.2837C2.47153 13.6561 2.11488 14.1104 1.84497 14.6467C1.57122 15.1829 1.43434 15.7955 1.43434 16.4845C1.43434 17.0431 1.55001 17.5644 1.78135 18.0486C2.0127 18.5327 2.33851 18.9516 2.75879 19.3054C3.17906 19.6592 3.67645 19.9367 4.25096 20.1377C4.82546 20.3388 5.45973 20.4394 6.15377 20.4394C6.94805 20.4394 7.69607 20.3184 8.39781 20.0763C9.09956 19.838 9.75503 19.5065 10.3642 19.082C10.9734 18.6612 11.5518 18.1584 12.0993 17.5737C12.6468 16.9891 13.1654 16.3485 13.6551 15.6521C14.1487 14.9595 14.621 14.2296 15.0721 13.4624C15.5232 12.6915 15.9705 11.9058 16.4139 11.1051H16.0495C14.5304 11.1051 13.1635 10.9543 11.949 10.6526C10.7344 10.351 9.69913 9.9376 8.84315 9.41251C7.99103 8.89115 7.33555 8.27854 6.87672 7.5747C6.42174 6.87458 6.19425 6.1186 6.19425 5.30676C6.19425 4.49492 6.35619 3.77804 6.68008 3.15612C7.00782 2.53793 7.45123 2.01843 8.01031 1.59761C8.56939 1.18052 9.22101 0.863977 9.96517 0.647983C10.7055 0.435713 11.4901 0.329578 12.3191 0.329578C13.0363 0.329578 13.6917 0.383577 14.2855 0.491574C14.8832 0.603295 15.4191 0.742947 15.8934 0.910529C16.3676 1.08183 16.7879 1.26804 17.1542 1.46913C17.5205 1.67023 17.8309 1.86202 18.0854 2.0445C18.336 2.22698 18.5346 2.38897 18.6811 2.53048C18.8237 2.66827 18.9182 2.75951 18.9645 2.8042L18.5018 3.19523C18.4941 3.18778 18.363 3.07606 18.1085 2.86006C17.8579 2.64779 17.5012 2.41318 17.0385 2.15622C16.5797 1.89926 16.0245 1.66278 15.3729 1.44679C14.7212 1.23452 13.9983 1.12838 13.204 1.12838C12.3981 1.12838 11.6598 1.23638 10.9889 1.45237C10.3141 1.67209 9.7319 1.9756 9.24222 2.3629C8.7564 2.75393 8.37468 3.21571 8.09706 3.74825C7.82331 4.28078 7.68643 4.85987 7.68643 5.48551C7.68643 6.23032 7.89849 6.90437 8.32262 7.50767C8.74676 8.11468 9.33669 8.63419 10.0924 9.06618C10.8481 9.49817 11.7388 9.83519 12.7644 10.0773C13.7901 10.3156 14.9082 10.4348 16.1189 10.4348H16.7667C17.2371 9.57078 17.7056 8.71426 18.1721 7.86517C18.6348 7.01237 19.111 6.20053 19.6007 5.42965C20.0904 4.65505 20.5974 3.93631 21.1218 3.27343C21.6423 2.61055 22.1975 2.03705 22.7875 1.55292C23.3735 1.0688 24.002 0.688946 24.6729 0.413367C25.34 0.137788 26.0571 0 26.8244 0C27.1406 0 27.4548 0.0428262 27.7671 0.128479C28.0795 0.210408 28.359 0.35006 28.6058 0.547434C28.8564 0.741084 29.0588 0.998043 29.213 1.31831C29.3673 1.63485 29.4444 2.0296 29.4444 2.50256ZM27.1078 0.70943C26.541 0.70943 25.9993 0.832323 25.4826 1.07811C24.9698 1.32017 24.4782 1.66278 24.0078 2.10595C23.5374 2.54538 23.0805 3.06302 22.6371 3.65887C22.1937 4.25844 21.758 4.91387 21.33 5.62516C20.902 6.33645 20.4701 7.08685 20.0344 7.87635C19.6026 8.66584 19.1592 9.46651 18.7042 10.2784C19.8802 10.1294 20.9463 9.88919 21.9026 9.55775C22.8626 9.22631 23.7128 8.84087 24.4531 8.40143C25.1934 7.95827 25.8354 7.47974 26.3791 6.96582C26.9227 6.4519 27.37 5.93798 27.7209 5.42406C28.0717 4.90642 28.332 4.41113 28.5017 3.93817C28.6675 3.4615 28.7504 3.03509 28.7504 2.65896C28.7504 2.37966 28.7214 2.1227 28.6636 1.88809C28.6058 1.65347 28.5132 1.44865 28.386 1.27362C28.2588 1.09859 28.091 0.960803 27.8828 0.860254C27.6746 0.759705 27.4163 0.70943 27.1078 0.70943ZM30.6474 7.22836C30.6474 7.40339 30.603 7.58401 30.5144 7.77021C30.4218 7.96014 30.3062 8.12958 30.1673 8.27854C30.0285 8.42378 29.8724 8.54481 29.6989 8.64164C29.5292 8.73846 29.3576 8.78687 29.1841 8.78687C29.0299 8.78687 28.9123 8.73287 28.8313 8.62488C28.7504 8.51316 28.7099 8.37909 28.7099 8.22268C28.7099 8.08489 28.7369 7.91917 28.7908 7.72552C28.8448 7.5356 28.9258 7.35498 29.0338 7.18367C29.1417 7.01237 29.2728 6.86527 29.427 6.74238C29.5813 6.62321 29.7586 6.56362 29.9591 6.56362C30.1481 6.56362 30.31 6.63252 30.445 6.77031C30.5799 6.91182 30.6474 7.0645 30.6474 7.22836ZM27.6804 9.95436L28.1142 10.1331C27.9946 10.3603 27.8288 10.6601 27.6168 11.0325C27.4047 11.4049 27.1772 11.8108 26.9343 12.2502C26.6914 12.6897 26.4427 13.1514 26.1882 13.6356C25.9337 14.1197 25.7062 14.5908 25.5057 15.0488C25.3014 15.5106 25.1356 15.9408 25.0084 16.3392C24.8811 16.7414 24.8175 17.0822 24.8175 17.3615C24.8175 17.6147 24.8734 17.7879 24.9852 17.881C25.0932 17.9704 25.2455 18.015 25.4421 18.015C25.8123 18.015 26.1747 17.8977 26.5294 17.6631C26.8803 17.4285 27.2293 17.1213 27.5763 16.7414C27.9272 16.3616 28.2684 15.9277 28.6 15.4399C28.9354 14.9483 29.2709 14.4549 29.6063 13.9596L30.0922 14.3227C29.83 14.777 29.535 15.263 29.2073 15.7806C28.8757 16.2945 28.5074 16.7712 28.1026 17.2107C27.6939 17.6538 27.2466 18.0188 26.7608 18.3055C26.2711 18.5923 25.7371 18.7356 25.1587 18.7356C24.6151 18.7356 24.1987 18.5792 23.9095 18.2664C23.6203 17.9499 23.4757 17.544 23.4757 17.0487C23.4757 16.464 23.6164 15.8532 23.8979 15.2164C24.1794 14.5796 24.5302 13.9484 24.9505 13.3228C25.3708 12.7008 25.8258 12.1013 26.3155 11.524C26.809 10.9468 27.264 10.4236 27.6804 9.95436ZM40.8844 11.7196C41.1466 11.4216 41.4165 11.1461 41.6941 10.8928C41.9756 10.6396 42.257 10.4217 42.5385 10.2392C42.8161 10.0568 43.0937 9.91526 43.3713 9.81471C43.6451 9.71416 43.9092 9.66389 44.1637 9.66389C44.3603 9.66389 44.557 9.6974 44.7536 9.76443C44.9464 9.82774 45.1199 9.92829 45.2742 10.0661C45.4284 10.2001 45.5498 10.3715 45.6385 10.58C45.7311 10.7885 45.7773 11.0381 45.7773 11.3285C45.7773 11.7456 45.7176 12.1571 45.598 12.5631C45.4824 12.969 45.3339 13.3637 45.1527 13.7473C44.9715 14.1309 44.7787 14.5014 44.5743 14.8589C44.3738 15.2202 44.183 15.5628 44.0018 15.8868C43.8205 16.2145 43.6702 16.5254 43.5506 16.8196C43.435 17.1101 43.3771 17.3782 43.3771 17.624C43.3771 17.8177 43.4292 17.9555 43.5333 18.0374C43.6374 18.1193 43.7473 18.1603 43.863 18.1603C44.0982 18.1603 44.3777 18.0299 44.7016 17.7693C45.0216 17.5049 45.3571 17.1678 45.7079 16.7582C46.0627 16.3485 46.4174 15.8979 46.7721 15.4064C47.1307 14.9111 47.4719 14.4288 47.7958 13.9596L48.2816 14.3227C48.166 14.5089 48.0156 14.7509 47.8305 15.0488C47.6454 15.3505 47.4314 15.6745 47.1885 16.0208C46.9418 16.3634 46.6738 16.7116 46.3846 17.0654C46.0954 17.4192 45.7908 17.7395 45.4708 18.0262C45.1508 18.3092 44.8192 18.5401 44.476 18.7189C44.1329 18.8976 43.7897 18.987 43.4465 18.987C43.2537 18.987 43.0706 18.961 42.8971 18.9088C42.7197 18.8567 42.5636 18.771 42.4286 18.6519C42.2937 18.5327 42.1857 18.3781 42.1047 18.1882C42.0238 17.9946 41.9833 17.7581 41.9833 17.4788C41.9833 17.0952 42.0508 16.7209 42.1857 16.356C42.3207 15.9873 42.4922 15.6242 42.7004 15.2667C42.9087 14.9092 43.1323 14.5535 43.3713 14.1998C43.6104 13.846 43.834 13.4941 44.0422 13.144C44.2505 12.7977 44.422 12.4476 44.557 12.0938C44.6919 11.74 44.7594 11.3788 44.7594 11.0101C44.7594 10.8276 44.7228 10.6824 44.6495 10.5744C44.5801 10.4664 44.4452 10.4124 44.2447 10.4124C43.9285 10.4124 43.595 10.5353 43.2441 10.7811C42.8894 11.0306 42.5231 11.3658 42.1452 11.7866C41.7635 12.2037 41.3741 12.6897 40.9769 13.2445C40.5798 13.7994 40.1846 14.3841 39.7913 14.9986C39.398 15.613 39.0105 16.2368 38.6288 16.8699C38.2432 17.503 37.8731 18.1119 37.5183 18.6965L36.3847 18.1212C36.8628 17.1716 37.312 16.3206 37.7323 15.5684C38.1526 14.8161 38.5208 14.1383 38.837 13.535C39.1532 12.928 39.4019 12.3731 39.5831 11.8704C39.7643 11.3676 39.8549 10.8947 39.8549 10.4515C39.8549 10.3621 39.8453 10.2728 39.826 10.1834C39.8067 10.0903 39.7701 10.0084 39.7161 9.9376C39.6621 9.86685 39.5927 9.80912 39.5079 9.76443C39.4231 9.71602 39.3112 9.69182 39.1724 9.69182C38.8678 9.69182 38.5574 9.82961 38.2413 10.1052C37.9251 10.377 37.5897 10.7513 37.2349 11.228C36.8841 11.7047 36.5081 12.2595 36.1071 12.8926C35.7023 13.5257 35.2685 14.196 34.8058 14.9036C34.3393 15.6075 33.8342 16.3336 33.2905 17.0822C32.7507 17.827 32.1588 18.5494 31.5149 19.2496L30.578 18.6463C30.8672 18.2255 31.1737 17.7823 31.4976 17.3168C31.8176 16.8513 32.1338 16.3783 32.4461 15.8979C32.7584 15.4175 33.0553 14.939 33.3368 14.4623C33.6221 13.9856 33.8746 13.5332 34.0944 13.1049C34.3103 12.6804 34.4819 12.2875 34.6092 11.9262C34.7325 11.5687 34.7942 11.2634 34.7942 11.0101C34.7942 10.7159 34.7191 10.5037 34.5687 10.3733C34.4144 10.2392 34.214 10.1722 33.9672 10.1722C33.678 10.1722 33.3965 10.2728 33.1228 10.4739C32.8452 10.675 32.556 10.9599 32.2552 11.3285C31.9506 11.6935 31.6248 12.1311 31.2778 12.6413C30.9308 13.1514 30.5356 13.7119 30.0922 14.3227L29.6063 13.9596C30.0844 13.2259 30.5163 12.5798 30.9019 12.0212C31.2836 11.4626 31.646 10.9952 31.9892 10.6191C32.3323 10.243 32.6736 9.95995 33.0129 9.77002C33.3522 9.57637 33.7204 9.47954 34.1176 9.47954C34.2371 9.47954 34.3894 9.50189 34.5745 9.54658C34.7595 9.59127 34.9427 9.66947 35.1239 9.78119C35.3051 9.89664 35.4651 10.053 35.6039 10.2504C35.7428 10.4515 35.8257 10.7103 35.8526 11.0269C36.3577 10.3975 36.886 9.89478 37.4374 9.51865C37.9887 9.14252 38.5093 8.95446 38.9989 8.95446C39.3498 8.95446 39.6486 9.02335 39.8954 9.16114C40.1383 9.29521 40.3349 9.4721 40.4853 9.69182C40.6318 9.90781 40.7398 10.1536 40.8092 10.4292C40.8748 10.7048 40.9075 10.9822 40.9075 11.2615C40.9075 11.3323 40.9056 11.4067 40.9017 11.4849C40.8979 11.5631 40.8921 11.6414 40.8844 11.7196ZM58.1369 9.95436L58.5707 10.1331C58.455 10.3603 58.2911 10.6582 58.0791 11.0269C57.867 11.3918 57.6376 11.7959 57.3908 12.2391C57.1479 12.6785 56.9031 13.1384 56.6563 13.6188C56.4057 14.0992 56.1801 14.5684 55.9796 15.0265C55.7753 15.4846 55.6076 15.9165 55.4765 16.3225C55.3454 16.7284 55.2798 17.071 55.2798 17.3503C55.2798 17.6296 55.3357 17.8102 55.4475 17.8922C55.5594 17.9741 55.7059 18.015 55.8871 18.015C56.1493 18.015 56.4192 17.9406 56.6968 17.7916C56.9706 17.6464 57.2405 17.4546 57.5065 17.2162C57.7725 16.9816 58.0328 16.7154 58.2873 16.4174C58.5418 16.1232 58.7789 15.8253 58.9987 15.5237C59.2223 15.222 59.4228 14.9334 59.6002 14.6578C59.7814 14.3822 59.9356 14.1495 60.0629 13.9596L60.5545 14.3227C60.4002 14.602 60.219 14.9036 60.0108 15.2276C59.8026 15.5516 59.5732 15.8774 59.3226 16.2052C59.0758 16.5329 58.8078 16.8494 58.5186 17.1548C58.2295 17.4602 57.9249 17.7302 57.6048 17.9648C57.2848 18.1994 56.9474 18.3874 56.5927 18.529C56.2418 18.6668 55.8813 18.7356 55.5112 18.7356C54.9675 18.7356 54.5684 18.5792 54.3139 18.2664C54.0633 17.9499 53.938 17.544 53.938 17.0487C53.938 17.0151 53.9399 16.9388 53.9438 16.8196C53.9477 16.7005 53.9592 16.6055 53.9785 16.5347C53.5274 17.0859 53.0955 17.5402 52.683 17.8977C52.2704 18.2552 51.8733 18.5401 51.4915 18.7524C51.106 18.961 50.7358 19.1062 50.3811 19.1881C50.0225 19.27 49.6813 19.311 49.3574 19.311C49.0142 19.311 48.6903 19.257 48.3857 19.149C48.0811 19.041 47.8151 18.8827 47.5876 18.6742C47.3563 18.4619 47.175 18.2031 47.0439 17.8977C46.9128 17.5924 46.8473 17.2386 46.8473 16.8364C46.8473 16.3411 46.963 15.7732 47.1943 15.1326C47.4257 14.4884 47.8344 13.7957 48.4204 13.0546C48.9178 12.4178 49.4345 11.8816 49.9705 11.4458C50.5103 11.0101 51.0385 10.6582 51.5552 10.3901C52.0757 10.1257 52.5712 9.93574 53.0416 9.8203C53.512 9.70857 53.9322 9.65271 54.3024 9.65271C55.1352 9.65271 55.7637 9.78492 56.1878 10.0493C56.612 10.3175 56.8684 10.7252 56.9571 11.2727C57.1383 11.0567 57.3291 10.8388 57.5296 10.6191C57.7263 10.4031 57.9287 10.1815 58.1369 9.95436ZM54.4123 15.1103C54.5279 14.9278 54.6725 14.6951 54.846 14.412C55.0157 14.1253 55.1969 13.8329 55.3897 13.535C55.5786 13.2334 55.7637 12.9429 55.9449 12.6636C56.1261 12.3843 56.2842 12.1478 56.4192 11.9542C56.4192 11.876 56.4076 11.7493 56.3845 11.5743C56.3614 11.3993 56.2997 11.2224 56.1994 11.0436C56.0992 10.8649 55.9411 10.7103 55.7252 10.58C55.5092 10.4497 55.2066 10.3845 54.8171 10.3845C54.5357 10.3845 54.2214 10.4255 53.8744 10.5074C53.5274 10.5893 53.1572 10.729 52.7639 10.9263C52.3707 11.1237 51.9658 11.3844 51.5494 11.7084C51.133 12.0287 50.7185 12.429 50.3059 12.9094C49.6813 13.6356 49.1993 14.3636 48.86 15.0935C48.5207 15.8197 48.351 16.4752 48.351 17.0598C48.351 17.5589 48.4686 17.9424 48.7038 18.2106C48.939 18.4824 49.2745 18.6183 49.7102 18.6183C50.2037 18.6183 50.6683 18.5122 51.104 18.2999C51.5359 18.0839 51.9427 17.8065 52.3244 17.4676C52.7022 17.125 53.0628 16.747 53.4059 16.3336C53.7491 15.9203 54.0845 15.5125 54.4123 15.1103ZM71.3814 12.0491C71.3814 12.4215 71.3139 12.8033 71.179 13.1943C71.044 13.5816 70.8724 13.9689 70.6642 14.3562C70.456 14.7472 70.2343 15.1289 69.9991 15.5013C69.7639 15.8774 69.5422 16.2405 69.334 16.5906C69.1258 16.9407 68.9542 17.274 68.8193 17.5905C68.6843 17.9108 68.6168 18.2012 68.6168 18.4619C68.6168 18.663 68.6612 18.799 68.7499 18.8697C68.8424 18.9367 68.9426 18.9703 69.0506 18.9703C69.3938 18.9703 69.7774 18.8083 70.2015 18.4843C70.6257 18.1566 71.0575 17.7432 71.4971 17.2442C71.9366 16.7451 72.3723 16.2033 72.8042 15.6186C73.2399 15.034 73.6332 14.4809 73.984 13.9596L74.4756 14.3227C74.4024 14.4307 74.2713 14.6392 74.0823 14.9483C73.8896 15.2574 73.6544 15.6112 73.3767 16.0097C73.0953 16.4044 72.781 16.8178 72.434 17.2498C72.087 17.6817 71.713 18.0802 71.312 18.4452C70.9149 18.8064 70.5061 19.1043 70.0859 19.3389C69.6656 19.5736 69.2434 19.6909 68.8193 19.6909C68.5763 19.6909 68.3546 19.6518 68.1541 19.5736C67.9575 19.4954 67.7878 19.3874 67.6452 19.2496C67.5064 19.1081 67.3965 18.9442 67.3155 18.758C67.2346 18.5681 67.1941 18.3688 67.1941 18.1603C67.1941 17.8214 67.2731 17.4527 67.4312 17.0542C67.5893 16.6558 67.7859 16.248 68.0211 15.8309C68.2563 15.4101 68.5147 14.9893 68.7961 14.5684C69.0737 14.1439 69.3301 13.7398 69.5653 13.3563C69.8005 12.9727 69.9972 12.617 70.1553 12.2893C70.3134 11.9616 70.3924 11.6805 70.3924 11.4458C70.3924 11.174 70.3172 10.9468 70.1668 10.7643C70.0203 10.5819 69.8102 10.4906 69.5364 10.4906C69.2472 10.4906 68.9137 10.6061 68.5359 10.837C68.158 11.0678 67.7339 11.4049 67.2635 11.848C66.7931 12.2949 66.2803 12.8442 65.725 13.4959C65.1698 14.1439 64.5664 14.8831 63.9148 15.7136C63.5446 16.194 63.1822 16.6558 62.8274 17.0989C62.6732 17.2926 62.5209 17.49 62.3705 17.6911C62.2163 17.8922 62.0621 18.0895 61.9078 18.2832C61.7536 18.4806 61.609 18.6686 61.4741 18.8474C61.3391 19.0261 61.2177 19.1807 61.1097 19.311L59.9125 18.8418L61.503 16.7358C61.7266 16.4379 61.956 16.1195 62.1912 15.7806C62.4264 15.438 62.6597 15.0861 62.8911 14.7249C63.1224 14.3636 63.3402 13.9987 63.5446 13.63C63.7528 13.265 63.9475 12.9075 64.1287 12.5575C64.3909 12.0324 64.5722 11.5985 64.6724 11.2559C64.7727 10.9096 64.8228 10.6321 64.8228 10.4236C64.8228 10.189 64.7765 10.0344 64.684 9.95995C64.5953 9.88547 64.47 9.84822 64.308 9.84822C64.1345 9.84822 63.9379 9.93388 63.7181 10.1052C63.4945 10.2728 63.2651 10.4906 63.0299 10.7588C62.7947 11.0232 62.5575 11.3229 62.3185 11.6581C62.0794 11.997 61.8519 12.3322 61.636 12.6636C61.4201 12.995 61.2177 13.3079 61.0287 13.6021C60.8359 13.9 60.6779 14.1402 60.5545 14.3227L60.0629 13.9596C60.5256 13.2594 60.9439 12.6189 61.3179 12.038C61.6919 11.4607 62.0524 10.9617 62.3994 10.5409C62.7503 10.1238 63.0896 9.79795 63.4174 9.56334C63.749 9.33245 64.0998 9.217 64.47 9.217C64.6666 9.217 64.8575 9.2561 65.0426 9.33431C65.2315 9.41624 65.3954 9.53354 65.5342 9.68623C65.673 9.83891 65.7829 10.0233 65.8638 10.2392C65.9448 10.459 65.9853 10.7122 65.9853 10.999C65.9853 11.2261 65.9583 11.4626 65.9043 11.7084C66.3015 11.3323 66.6716 11.0213 67.0148 10.7755C67.3618 10.5334 67.6799 10.3398 67.9691 10.1946C68.2582 10.0493 68.5243 9.94691 68.7672 9.88733C69.0101 9.82402 69.2318 9.79236 69.4323 9.79236C69.602 9.79236 69.8005 9.82402 70.028 9.88733C70.2517 9.94691 70.4637 10.0605 70.6642 10.2281C70.8647 10.3919 71.0344 10.621 71.1732 10.9152C71.312 11.2056 71.3814 11.5836 71.3814 12.0491ZM74.3657 8.03834H76.737C76.8257 7.8931 76.9857 7.63615 77.2171 7.26747C77.4484 6.90251 77.7202 6.49659 78.0326 6.0497C78.3449 5.60654 78.6842 5.15966 79.0505 4.70905C79.4129 4.25844 79.7715 3.87673 80.1262 3.56391L80.7335 3.91583C80.3479 4.53774 79.9508 5.19504 79.5421 5.88771C79.1372 6.58038 78.7362 7.29726 78.3391 8.03834H82.7578L82.4859 8.71984H77.9689C77.5641 9.50561 77.1824 10.2877 76.8238 11.066C76.4691 11.8406 76.1548 12.5817 75.8811 13.2892C75.6112 13.9968 75.3991 14.6578 75.2449 15.2723C75.0906 15.8905 75.0135 16.4249 75.0135 16.8755C75.0135 17.4453 75.1504 17.8549 75.4241 18.1044C75.6941 18.3502 76.0276 18.4731 76.4247 18.4731C76.7756 18.4731 77.138 18.3707 77.512 18.1659C77.8822 17.961 78.2446 17.7022 78.5994 17.3894C78.9579 17.0729 79.2972 16.7284 79.6173 16.356C79.9373 15.9799 80.2226 15.6261 80.4732 15.2946C80.72 14.9632 80.9244 14.6727 81.0863 14.4232C81.2482 14.1737 81.3485 14.0192 81.3871 13.9596L81.8902 14.3227C81.5741 14.8291 81.2155 15.3673 80.8145 15.937C80.4173 16.5031 79.9778 17.0282 79.4958 17.5123C79.0138 17.9964 78.4875 18.3986 77.9169 18.7189C77.3462 19.0354 76.7312 19.1937 76.0719 19.1937C75.6671 19.1937 75.3123 19.1248 75.0077 18.987C74.707 18.8455 74.4525 18.65 74.2443 18.4005C74.0361 18.1547 73.8799 17.8605 73.7758 17.5179C73.6717 17.179 73.6197 16.8085 73.6197 16.4063C73.6197 16.1456 73.6621 15.775 73.7469 15.2946C73.8317 14.8142 73.9782 14.2445 74.1865 13.5853C74.3947 12.9261 74.6723 12.1869 75.0193 11.3676C75.3702 10.5446 75.8117 9.66202 76.3437 8.71984H74.0939L74.3657 8.03834ZM89.033 15.2779C89.0677 15.289 89.1024 15.2946 89.1371 15.2946C89.1757 15.2946 89.2181 15.2946 89.2643 15.2946C89.515 15.2946 89.7444 15.2704 89.9526 15.222C90.1608 15.1736 90.3536 15.0973 90.531 14.993C90.7045 14.8887 90.8741 14.7509 91.0399 14.5796C91.2019 14.4083 91.3599 14.2016 91.5142 13.9596L92 14.3227C91.5682 14.9185 91.1209 15.3337 90.6582 15.5684C90.1955 15.803 89.7078 15.9203 89.1949 15.9203C89.006 15.9203 88.8383 15.9035 88.6918 15.87C88.3023 16.4994 87.8878 17.0338 87.4483 17.4732C87.0049 17.9126 86.5518 18.272 86.0891 18.5513C85.6303 18.8306 85.1734 19.0336 84.7184 19.1602C84.2673 19.2868 83.847 19.3501 83.4576 19.3501C83.0605 19.3501 82.6922 19.2831 82.3529 19.149C82.0175 19.0149 81.7264 18.8213 81.4796 18.5681C81.2367 18.3148 81.0478 18.0132 80.9128 17.6631C80.7779 17.3131 80.7104 16.9202 80.7104 16.4845C80.7104 16.0488 80.7817 15.6037 80.9244 15.1494C81.0709 14.6951 81.2675 14.2463 81.5143 13.8032C81.7649 13.3563 82.056 12.9261 82.3876 12.5128C82.7231 12.0957 83.0855 11.7084 83.4749 11.3509C83.8644 10.9934 84.2654 10.6712 84.6779 10.3845C85.0944 10.0977 85.5108 9.86126 85.9272 9.67506L86.361 10.2281C85.8829 10.5595 85.397 10.9785 84.9035 11.4849C84.41 11.9914 83.9627 12.5444 83.5617 13.144C83.1607 13.7473 82.831 14.3748 82.5727 15.0265C82.3144 15.6745 82.1852 16.3038 82.1852 16.9146C82.1852 17.4657 82.3124 17.8922 82.5669 18.1938C82.8175 18.4954 83.2012 18.6463 83.7179 18.6463C84.115 18.6463 84.5083 18.5681 84.8977 18.4117C85.2871 18.2515 85.6669 18.0374 86.0371 17.7693C86.4072 17.4974 86.7639 17.1771 87.1071 16.8085C87.4502 16.4361 87.776 16.0394 88.0845 15.6186C87.8223 15.4734 87.591 15.276 87.3905 15.0265C87.1938 14.777 87.0261 14.4921 86.8873 14.1718C86.7523 13.8553 86.6521 13.5127 86.5865 13.144C86.5171 12.779 86.4824 12.4048 86.4824 12.0212C86.4824 11.6376 86.5326 11.2745 86.6328 10.9319C86.7331 10.593 86.8699 10.2951 87.0434 10.0382C87.2208 9.78119 87.4271 9.57823 87.6623 9.42927C87.8975 9.28031 88.1558 9.20583 88.4373 9.20583C88.6879 9.20583 88.9135 9.26914 89.114 9.39575C89.3106 9.52237 89.4783 9.6974 89.6171 9.92084C89.7521 10.1406 89.8543 10.405 89.9237 10.7141C89.9969 11.0194 90.0336 11.3453 90.0336 11.6916C90.0336 11.956 90.0104 12.2446 89.9642 12.5575C89.9218 12.8703 89.8562 13.1868 89.7675 13.5071C89.6827 13.8236 89.5805 14.1383 89.461 14.4511C89.3376 14.7602 89.1949 15.0358 89.033 15.2779ZM87.188 12.0212C87.188 12.2744 87.2112 12.55 87.2574 12.8479C87.2999 13.1421 87.3712 13.4289 87.4714 13.7082C87.5717 13.9875 87.6989 14.2482 87.8531 14.4902C88.0074 14.7286 88.1963 14.9185 88.4199 15.06C88.5819 14.7546 88.7207 14.4418 88.8364 14.1216C88.9482 13.805 89.0426 13.4978 89.1198 13.1999C89.1969 12.9019 89.2509 12.6245 89.2817 12.3675C89.3125 12.1106 89.328 11.8853 89.328 11.6916C89.328 11.4309 89.3068 11.1907 89.2643 10.971C89.2181 10.755 89.1564 10.5651 89.0793 10.4012C89.0022 10.2411 88.9077 10.1145 88.7959 10.0214C88.6802 9.93202 88.5549 9.88733 88.4199 9.88733C88.2387 9.88733 88.0729 9.94691 87.9225 10.0661C87.7683 10.1815 87.6372 10.3379 87.5293 10.5353C87.4174 10.7327 87.3326 10.9599 87.2748 11.2168C87.2169 11.4738 87.188 11.7419 87.188 12.0212Z" fill="#1C171D"/>
</svg>
