<svg width="60" height="60" viewBox="0 0 60 60" fill="none" xmlns="http://www.w3.org/2000/svg">
<path d="M9.87852 3.31635C9.45664 3.55072 8.80039 4.48822 8.5543 5.21478C8.15586 6.38666 8.29649 7.94525 8.89414 8.90619C8.98789 9.07025 9.26914 9.44525 9.51524 9.73822C10.4293 10.8632 10.441 11.7773 9.55039 12.996C9.09336 13.6289 9.22227 14.3906 9.85508 14.7187C10.7106 15.1523 11.4606 14.6484 12.1637 13.1601C12.4332 12.5742 12.4801 12.3398 12.4801 11.3671C12.4801 10.3945 12.4332 10.1601 12.1637 9.57416C11.9879 9.18744 11.6246 8.63666 11.3668 8.32025C10.4293 7.19525 10.4059 6.28119 11.3082 5.05072C11.4723 4.82807 11.6012 4.5351 11.6012 4.38275C11.6012 3.48041 10.6402 2.89447 9.87852 3.31635Z" fill="#3CAA9F"/>
<path d="M31.2305 6.79702C28.9102 7.26576 26.8945 8.98842 26.1328 11.1681C25.4062 13.2423 25.6992 15.6095 26.9062 17.3087L27.3047 17.8712L25.6992 17.9532C24.8086 17.9884 23.7656 18.1173 23.3789 18.2228C22.418 18.4806 21.1172 19.1251 20.4023 19.6876C20.0742 19.9454 19.7812 20.1563 19.7578 20.1563C19.7227 20.1563 19.0664 19.3712 18.293 18.4103C17.5195 17.461 16.8047 16.6407 16.6992 16.5939C16.3359 16.4532 15.7266 16.5235 15.4922 16.7228C15.0938 17.0743 11.4609 21.6915 11.0391 22.3829C9.90234 24.2696 9.91406 26.8595 11.0742 28.6056C11.2383 28.8517 11.3672 29.086 11.3672 29.1212C11.3672 29.1563 10.793 29.1798 10.1016 29.1798H8.82422L7.81641 29.8126C6.33984 30.7384 5.56641 31.3712 4.42969 32.5548C2.32031 34.7696 0.878906 37.5704 0.269531 40.6407C-0.0117187 42.0587 -0.0117187 45.2579 0.269531 46.6642C0.632812 48.4806 1.54688 50.8009 2.4375 52.1954C3.43359 53.754 5.32031 55.8165 6.42188 56.5431L6.87891 56.836L28.3711 56.8126L49.8633 56.7774L51.0352 56.461C53.9648 55.6524 56.3438 53.9298 58.0547 51.3868C58.4766 50.754 58.5938 50.4845 58.5938 50.0978C58.5938 49.4063 58.1719 48.9845 57.4922 48.9845C56.8828 48.9962 56.7773 49.0782 56.0508 50.1563C55.125 51.5392 53.8008 52.711 52.3477 53.4259C50.332 54.4337 49.875 54.4923 43.8281 54.4923H38.7305L39.1406 54.1759C42.6094 51.4923 44.6016 47.2149 44.3672 42.9142C44.2852 41.4962 44.1094 40.8751 43.7109 40.6642C43.582 40.5939 42.9844 40.4767 42.3984 40.4063C40.3594 40.1485 37.6875 40.6056 35.6484 41.5431C35.168 41.7657 34.7578 41.9532 34.7344 41.9532C34.7227 41.9532 34.6172 41.672 34.5 41.3321C33.9141 39.5509 32.5195 37.4181 31.0312 36.0353L30.1992 35.2618L39.9727 35.3087C51.0352 35.3439 50.1562 35.2735 52.3711 36.3517C53.4492 36.8673 53.7305 37.0665 54.7383 38.0743C55.3828 38.7189 56.0273 39.4923 56.25 39.879C56.4492 40.2423 56.7539 40.6524 56.918 40.7813C57.6328 41.3439 58.7109 40.8048 58.7109 39.8907C58.7109 38.9415 56.9766 36.6563 55.2891 35.3907C54.3281 34.6642 52.6758 33.7853 51.7148 33.504L51.2227 33.3634L52.0312 32.4845C52.9336 31.5118 53.6133 30.3048 54.0469 28.9454C54.2695 28.2189 54.3164 27.8087 54.3164 26.6017C54.3164 24.9024 54.0938 24.0001 53.2852 22.4415C52.6172 21.1407 51.1641 19.6876 49.8633 19.0196C48.2695 18.1993 47.5312 18.0235 45.457 17.9532L43.6289 17.9063L44.0977 17.2032C45.4102 15.2345 45.5742 12.6798 44.5195 10.4767C43.9805 9.3517 42.5508 7.9103 41.4492 7.39467C40.1016 6.75014 39.5039 6.67983 35.3906 6.69155C33.3633 6.70326 31.4883 6.75014 31.2305 6.79702ZM40.1367 9.36342C40.6289 9.56264 41.0508 9.85561 41.5547 10.3595C42.5039 11.3087 42.8203 12.0939 42.8203 13.4767C42.8203 14.8595 42.5039 15.6446 41.5547 16.5939C41.0508 17.0978 40.6289 17.3907 40.1367 17.5899C39.457 17.8595 39.3164 17.8712 35.8125 17.9063C33.6094 17.9298 31.9688 17.8946 31.6289 17.8243C29.2617 17.3087 27.7148 15.0587 28.125 12.7501C28.4414 11.0626 29.4844 9.83217 31.125 9.26967C31.7812 9.0353 32.0391 9.02358 35.625 9.05873C39.3398 9.08217 39.4453 9.09389 40.1367 9.36342ZM17.7539 21.504C18.5742 22.5353 19.3828 23.6603 19.5352 24.0001C20.0977 25.1954 19.875 26.7657 19.0195 27.7735C18.6211 28.2306 17.6602 28.9454 17.4375 28.9454C17.3906 28.9454 17.3438 28.0196 17.3438 26.8829V24.8204L17.0039 24.4806C16.7695 24.2462 16.5352 24.1407 16.2891 24.1407C15.8438 24.1407 15.3047 24.4103 15.1641 24.6915C15.1055 24.8087 15.0352 25.8048 15 26.9181L14.9414 28.9337L14.5664 28.7579C13.9453 28.4532 13.3125 27.8321 12.9492 27.1759C12.6328 26.6017 12.5977 26.4376 12.5977 25.4884C12.5977 24.6329 12.6445 24.3282 12.8555 23.9063C13.1133 23.4024 16.1484 19.5118 16.2305 19.5939C16.2539 19.6173 16.9453 20.4728 17.7539 21.504ZM47.2734 20.5079C48.4336 20.8009 49.3125 21.3048 50.1562 22.1485C51 22.9923 51.5039 23.8712 51.7969 25.0313C52.0898 26.1798 52.0898 27.0235 51.7969 28.172C51.5039 29.3321 51 30.211 50.1562 31.0548C49.3125 31.8985 48.4336 32.4024 47.2734 32.6954C46.4062 32.9181 45.9609 32.9298 37.3594 32.9298H28.3359L27.5625 32.1563C26.5781 31.1837 25.6406 30.4571 24.4453 29.7423L23.5195 29.1798H22.2305H20.9531L21.1641 28.8517C21.8672 27.797 22.1719 26.7657 22.1836 25.4884C22.1953 24.4454 21.9492 23.4493 21.4805 22.6173L21.1875 22.0899L21.6445 21.6915C22.1953 21.211 23.543 20.5548 24.3281 20.4142C24.6562 20.3439 29.4727 20.297 35.6367 20.2853C45.9844 20.2735 46.4062 20.2853 47.2734 20.5079ZM23.8477 32.1329C24.7734 32.7306 26.8359 34.6642 27.2461 35.3087L27.457 35.6368L26.6953 36.422C25.3477 37.8282 24.375 39.3517 23.7305 41.0743C23.5547 41.5196 23.4023 41.9063 23.3906 41.9298C23.3672 41.9415 22.9688 41.7774 22.4883 41.5548C20.5078 40.6173 17.7656 40.1485 15.7383 40.4063C14.625 40.5353 14.3086 40.6642 14.0742 41.0392C13.8516 41.4024 13.6875 43.1954 13.7695 44.3556C14.0508 48.2813 15.8086 51.6095 18.9258 54.1056L19.3945 54.4806L13.4414 54.4923H7.47656L6.45703 53.4728C5.23828 52.2423 4.53516 51.2813 3.83203 49.8634C1.57031 45.3399 1.92188 40.1134 4.78125 35.8009C5.53125 34.6876 7.23047 33.0001 8.4375 32.1915L9.43359 31.5235H16.1719H22.9219L23.8477 32.1329ZM29.7305 37.9923C30.9727 39.3048 31.793 40.629 32.332 42.2462L32.6836 43.3009L31.7695 44.2384C30.7383 45.3048 29.9414 46.3829 29.4609 47.3673C29.2734 47.7423 29.0977 48.047 29.0625 48.047C29.0273 48.047 28.9102 47.836 28.793 47.5782C28.3711 46.6642 27.4102 45.3399 26.4727 44.3556L25.5117 43.3595L25.6523 42.7032C26.0391 40.9923 28.3594 37.5001 29.1094 37.5001C29.1914 37.5001 29.4609 37.7228 29.7305 37.9923ZM19.582 42.9962C21.6445 43.5235 23.332 44.4962 24.7852 45.9845C26.7539 48.0118 27.8906 50.7774 27.8906 53.5782V54.4923H27.0234C25.9922 54.4923 24.457 54.2345 23.4961 53.9063C19.2539 52.4415 16.418 48.6915 16.1016 44.0978C15.9844 42.5509 15.9375 42.6095 17.4375 42.6915C18.1289 42.7384 19.0898 42.8673 19.582 42.9962ZM41.9883 44.004C41.8945 49.1134 38.0977 53.4259 32.918 54.3282C32.3555 54.422 31.5234 54.4923 31.0898 54.4689L30.293 54.4337L30.2578 53.7306C30.2109 52.8634 30.4102 51.422 30.7266 50.4024C32.1094 45.8556 36.5156 42.5978 41.1328 42.6915L42.0117 42.7149L41.9883 44.004Z" fill="#3CAA9F"/>
<path d="M3.67985 7.9692C3.08219 8.20358 2.32047 9.50436 2.10953 10.641C1.88688 11.9067 2.33219 13.4067 3.2111 14.3793C4.17203 15.4574 4.21891 16.5473 3.34 17.602C2.70719 18.3637 3.10563 19.4067 4.07828 19.5356C4.55875 19.6059 4.60563 19.5824 5.14469 19.0199C5.92985 18.1996 6.25797 17.3442 6.25797 16.0551C6.25797 14.8012 5.965 14.0277 5.16813 13.0785C4.20719 11.9535 4.13688 10.934 4.94547 9.91452C5.4611 9.26999 5.4611 8.64889 4.94547 8.19186C4.55875 7.85202 4.16032 7.76999 3.67985 7.9692Z" fill="#3CAA9F"/>
<path d="M58.2536 43.9926C57.234 44.5551 57.6676 46.1723 58.8278 46.1723C59.4254 46.1723 59.9997 45.5981 59.9997 45.0121C59.9997 44.1332 59.027 43.559 58.2536 43.9926Z" fill="#3CAA9F"/>
</svg>
