<svg width="40" height="40" viewBox="0 0 40 40" fill="none" xmlns="http://www.w3.org/2000/svg">
<g clip-path="url(#clip0_417_410)">
<path d="M6.58568 2.21122C6.30443 2.36747 5.86693 2.99247 5.70287 3.47685C5.43724 4.2581 5.53099 5.29716 5.92943 5.93779C5.99193 6.04716 6.17943 6.29716 6.34349 6.49247C6.95287 7.24247 6.96068 7.85185 6.36693 8.66435C6.06224 9.08622 6.14818 9.59404 6.57005 9.81279C7.14037 10.1019 7.64037 9.76591 8.10912 8.77372C8.2888 8.3831 8.32005 8.22685 8.32005 7.57841C8.32005 6.92997 8.2888 6.77372 8.10912 6.3831C7.99193 6.12529 7.74974 5.7581 7.57787 5.54716C6.95287 4.79716 6.93724 4.18779 7.5388 3.36747C7.64818 3.21904 7.73412 3.02372 7.73412 2.92216C7.73412 2.3206 7.09349 1.92997 6.58568 2.21122Z" fill="#3CAA9F"/>
<path d="M20.8203 4.53102C19.2734 4.84352 17.9297 5.99196 17.4219 7.44509C16.9375 8.8279 17.1328 10.4061 17.9375 11.5389L18.2031 11.9139L17.1328 11.9686C16.5391 11.992 15.8438 12.0779 15.5859 12.1482C14.9453 12.3201 14.0781 12.7498 13.6016 13.1248C13.3828 13.2967 13.1875 13.4373 13.1719 13.4373C13.1484 13.4373 12.7109 12.9139 12.1953 12.2732C11.6797 11.6404 11.2031 11.0936 11.1328 11.0623C10.8906 10.9686 10.4844 11.0154 10.3281 11.1482C10.0625 11.3826 7.64062 14.4607 7.35938 14.9217C6.60156 16.1795 6.60938 17.9061 7.38281 19.0701C7.49219 19.2342 7.57812 19.3904 7.57812 19.4139C7.57812 19.4373 7.19531 19.4529 6.73438 19.4529H5.88281L5.21094 19.8748C4.22656 20.492 3.71094 20.9139 2.95312 21.7029C1.54688 23.1795 0.585938 25.0467 0.179688 27.0936C-0.00781262 28.0389 -0.00781262 30.1717 0.179688 31.1092C0.421875 32.3201 1.03125 33.867 1.625 34.7967C2.28906 35.8357 3.54688 37.2107 4.28125 37.6951L4.58594 37.8904L18.9141 37.8748L33.2422 37.8514L34.0234 37.6404C35.9766 37.1014 37.5625 35.9529 38.7031 34.2576C38.9844 33.8357 39.0625 33.6561 39.0625 33.3982C39.0625 32.9373 38.7812 32.6561 38.3281 32.6561C37.9219 32.6639 37.8516 32.7186 37.3672 33.4373C36.75 34.3592 35.8672 35.1404 34.8984 35.617C33.5547 36.2889 33.25 36.3279 29.2188 36.3279H25.8203L26.0938 36.117C28.4062 34.3279 29.7344 31.4764 29.5781 28.6092C29.5234 27.6639 29.4062 27.2498 29.1406 27.1092C29.0547 27.0623 28.6562 26.9842 28.2656 26.9373C26.9062 26.7654 25.125 27.0701 23.7656 27.6951C23.4453 27.8436 23.1719 27.9686 23.1562 27.9686C23.1484 27.9686 23.0781 27.7811 23 27.5545C22.6094 26.367 21.6797 24.9451 20.6875 24.0232L20.1328 23.5076L26.6484 23.5389C34.0234 23.5623 33.4375 23.5154 34.9141 24.2342C35.6328 24.5779 35.8203 24.7107 36.4922 25.3826C36.9219 25.8123 37.3516 26.3279 37.5 26.5857C37.6328 26.8279 37.8359 27.1014 37.9453 27.1873C38.4219 27.5623 39.1406 27.2029 39.1406 26.5936C39.1406 25.9607 37.9844 24.4373 36.8594 23.5936C36.2188 23.1092 35.1172 22.5232 34.4766 22.3357L34.1484 22.242L34.6875 21.6561C35.2891 21.0076 35.7422 20.2029 36.0312 19.2967C36.1797 18.8123 36.2109 18.5389 36.2109 17.7342C36.2109 16.6014 36.0625 15.9998 35.5234 14.9607C35.0781 14.0936 34.1094 13.1248 33.2422 12.6795C32.1797 12.1326 31.6875 12.0154 30.3047 11.9686L29.0859 11.9373L29.3984 11.4686C30.2734 10.1561 30.3828 8.4529 29.6797 6.98415C29.3203 6.23415 28.3672 5.27321 27.6328 4.92946C26.7344 4.49977 26.3359 4.4529 23.5938 4.46071C22.2422 4.46852 20.9922 4.49977 20.8203 4.53102ZM26.7578 6.24196C27.0859 6.37477 27.3672 6.57009 27.7031 6.90602C28.3359 7.53884 28.5469 8.06227 28.5469 8.98415C28.5469 9.90602 28.3359 10.4295 27.7031 11.0623C27.3672 11.3982 27.0859 11.5936 26.7578 11.7264C26.3047 11.9061 26.2109 11.9139 23.875 11.9373C22.4062 11.9529 21.3125 11.9295 21.0859 11.8826C19.5078 11.5389 18.4766 10.0389 18.75 8.49977C18.9609 7.37477 19.6562 6.55446 20.75 6.17946C21.1875 6.02321 21.3594 6.0154 23.75 6.03884C26.2266 6.05446 26.2969 6.06227 26.7578 6.24196ZM11.8359 14.3357C12.3828 15.0232 12.9219 15.7732 13.0234 15.9998C13.3984 16.7967 13.25 17.8436 12.6797 18.5154C12.4141 18.8201 11.7734 19.2967 11.625 19.2967C11.5938 19.2967 11.5625 18.6795 11.5625 17.9217V16.5467L11.3359 16.3201C11.1797 16.1639 11.0234 16.0936 10.8594 16.0936C10.5625 16.0936 10.2031 16.2732 10.1094 16.4607C10.0703 16.5389 10.0234 17.2029 10 17.9451L9.96094 19.2889L9.71094 19.1717C9.29688 18.9686 8.875 18.5545 8.63281 18.117C8.42188 17.7342 8.39844 17.6248 8.39844 16.992C8.39844 16.4217 8.42969 16.2186 8.57031 15.9373C8.74219 15.6014 10.7656 13.0076 10.8203 13.0623C10.8359 13.0779 11.2969 13.6482 11.8359 14.3357ZM31.5156 13.6717C32.2891 13.867 32.875 14.2029 33.4375 14.7654C34 15.3279 34.3359 15.9139 34.5312 16.6873C34.7266 17.4529 34.7266 18.0154 34.5312 18.7811C34.3359 19.5545 34 20.1404 33.4375 20.7029C32.875 21.2654 32.2891 21.6014 31.5156 21.7967C30.9375 21.9451 30.6406 21.9529 24.9062 21.9529H18.8906L18.375 21.4373C17.7188 20.7889 17.0938 20.3045 16.2969 19.8279L15.6797 19.4529H14.8203H13.9688L14.1094 19.2342C14.5781 18.5311 14.7812 17.8436 14.7891 16.992C14.7969 16.2967 14.6328 15.6326 14.3203 15.0779L14.125 14.7264L14.4297 14.4607C14.7969 14.1404 15.6953 13.7029 16.2188 13.6092C16.4375 13.5623 19.6484 13.5311 23.7578 13.5232C30.6562 13.5154 30.9375 13.5232 31.5156 13.6717ZM15.8984 21.4217C16.5156 21.8201 17.8906 23.1092 18.1641 23.5389L18.3047 23.7576L17.7969 24.2811C16.8984 25.2186 16.25 26.2342 15.8203 27.3826C15.7031 27.6795 15.6016 27.9373 15.5938 27.9529C15.5781 27.9607 15.3125 27.8514 14.9922 27.7029C13.6719 27.0779 11.8438 26.7654 10.4922 26.9373C9.75 27.0232 9.53906 27.1092 9.38281 27.3592C9.23438 27.6014 9.125 28.7967 9.17969 29.5701C9.36719 32.1873 10.5391 34.4061 12.6172 36.0701L12.9297 36.3201L8.96094 36.3279H4.98438L4.30469 35.6482C3.49219 34.8279 3.02344 34.1873 2.55469 33.242C1.04688 30.2264 1.28125 26.742 3.1875 23.867C3.6875 23.1248 4.82031 21.9998 5.625 21.4607L6.28906 21.0154H10.7812H15.2812L15.8984 21.4217ZM19.8203 25.3279C20.6484 26.2029 21.1953 27.0857 21.5547 28.1639L21.7891 28.867L21.1797 29.492C20.4922 30.2029 19.9609 30.9217 19.6406 31.5779C19.5156 31.8279 19.3984 32.0311 19.375 32.0311C19.3516 32.0311 19.2734 31.8904 19.1953 31.7186C18.9141 31.1092 18.2734 30.2264 17.6484 29.5701L17.0078 28.9061L17.1016 28.4686C17.3594 27.3279 18.9062 24.9998 19.4062 24.9998C19.4609 24.9998 19.6406 25.1482 19.8203 25.3279ZM13.0547 28.6639C14.4297 29.0154 15.5547 29.6639 16.5234 30.6561C17.8359 32.0076 18.5938 33.8514 18.5938 35.7186V36.3279H18.0156C17.3281 36.3279 16.3047 36.1561 15.6641 35.9373C12.8359 34.9607 10.9453 32.4607 10.7344 29.3982C10.6562 28.367 10.625 28.4061 11.625 28.4607C12.0859 28.492 12.7266 28.5779 13.0547 28.6639ZM27.9922 29.3357C27.9297 32.742 25.3984 35.617 21.9453 36.2186C21.5703 36.2811 21.0156 36.3279 20.7266 36.3123L20.1953 36.2889L20.1719 35.8201C20.1406 35.242 20.2734 34.2811 20.4844 33.6014C21.4062 30.5701 24.3438 28.3982 27.4219 28.4607L28.0078 28.4764L27.9922 29.3357Z" fill="#3CAA9F"/>
<path d="M2.45291 5.31248C2.05447 5.46873 1.54666 6.33592 1.40603 7.09373C1.25759 7.93748 1.55447 8.93748 2.14041 9.58592C2.78103 10.3047 2.81228 11.0313 2.22634 11.7344C1.80447 12.2422 2.07009 12.9375 2.71853 13.0234C3.03884 13.0703 3.07009 13.0547 3.42947 12.6797C3.95291 12.1328 4.17166 11.5625 4.17166 10.7031C4.17166 9.86717 3.97634 9.35154 3.44509 8.71873C2.80447 7.96873 2.75759 7.28903 3.29666 6.60935C3.64041 6.17966 3.64041 5.76561 3.29666 5.46091C3.03884 5.23436 2.77322 5.17967 2.45291 5.31248Z" fill="#3CAA9F"/>
<path d="M38.836 29.328C38.1563 29.703 38.4454 30.7811 39.2188 30.7811C39.6173 30.7811 40.0001 30.3983 40.0001 30.0077C40.0001 29.4218 39.3517 29.039 38.836 29.328Z" fill="#3CAA9F"/>
</g>
<defs>
<clipPath id="clip0_417_410">
<rect width="40" height="40" fill="white"/>
</clipPath>
</defs>
</svg>
