<svg width="60" height="60" viewBox="0 0 60 60" fill="none" xmlns="http://www.w3.org/2000/svg">
<g clip-path="url(#clip0_418_479)">
<path d="M30.75 0.644983C30.6094 0.738733 30.375 1.0903 30.2227 1.43014C29.9883 1.94577 29.9414 2.25046 29.9414 3.16452C29.9414 4.34811 30.0937 4.80514 30.75 5.5903L31.0312 5.93014L30.5742 6.85592C29.7656 8.48483 29.5781 10.0317 30 11.6489C30.4102 13.2544 31.4062 14.7778 32.6836 15.7388L33.375 16.2544L32.2383 18.0357L31.1133 19.8052L30.1758 19.7817L29.2383 19.7466L28.125 18.1411C26.7656 16.1841 26.5781 15.9849 25.8398 15.6333C25.1602 15.3169 24.1172 15.27 23.4023 15.5161C21.9375 16.0435 21.0352 17.8013 21.4687 19.3013C21.5859 19.688 22.1719 20.6372 23.2031 22.1021C26.25 26.4146 25.9219 26.1685 28.7461 26.2271L30.7031 26.2739V27.9849V29.6958L28.4297 31.981C25.4062 35.0513 25.6289 34.4185 25.5703 39.9028L25.5234 44.1216L24.75 44.4732C23.0391 45.2466 21.8906 46.6528 21.5156 48.4224L21.4453 48.7505H19.6406H17.8242L17.7539 48.0708C17.4141 44.895 15.5742 42.8091 12.5156 42.1411L12.1875 42.0708V34.1607C12.1875 29.813 12.2109 26.2505 12.2461 26.2505C12.2695 26.2505 12.832 26.5317 13.4766 26.8599C14.5781 27.4341 14.7187 27.481 15.4453 27.4692C16.7812 27.4575 17.8711 26.7896 18.4453 25.6411C19.0312 24.4692 18.75 22.9224 17.8008 22.0903C17.3086 21.6567 4.91015 14.6138 4.28906 14.4146C3.66796 14.2153 2.40234 14.3208 1.8164 14.6255C1.26562 14.9067 0.585931 15.5982 0.281243 16.1724C-0.0351627 16.7817 -0.0234441 18.188 0.3164 18.8091C0.714837 19.5474 1.17187 19.8989 3.37499 21.1646L5.44921 22.3364L5.50781 26.8833L5.5664 31.4302L5.89453 31.7114C6.29296 32.0513 6.55078 32.063 6.96093 31.7466L7.26562 31.5122V27.4575C7.26562 25.02 7.31249 23.438 7.37109 23.4614C7.42968 23.4732 8.14453 23.8599 8.95312 24.3169L10.4297 25.1372V33.6099V42.0825L8.88281 42.0474L7.32421 42.0122L7.26562 38.4614C7.20703 35.1099 7.19531 34.8989 6.98437 34.7349C6.64453 34.4888 6.04687 34.5239 5.78906 34.8169C5.57812 35.0513 5.5664 35.3091 5.53124 38.5552L5.49609 42.0591L3.63281 42.0942C1.96874 42.1294 1.73437 42.1528 1.45312 42.3755C0.984369 42.7153 0.703119 43.1372 0.585931 43.6646C0.445306 44.2622 0.445306 57.3403 0.585931 57.938C0.726556 58.5708 1.03124 58.9575 1.64062 59.2622L2.15624 59.5317H28.6172C47.4258 59.5317 55.2422 59.4966 55.6875 59.4028C57.2344 59.0864 58.793 57.8677 59.4492 56.4614C60.8672 53.4614 59.332 49.9575 56.168 48.9849C55.5234 48.7857 55.0781 48.7505 53.3672 48.7505C52.2422 48.7505 51.3281 48.7271 51.3281 48.6919C51.3281 48.6567 51.8672 47.1919 52.5117 45.4341C53.7539 42.106 53.8945 41.4849 53.5664 40.8521C53.4727 40.6763 53.2266 40.4419 53.0391 40.313C52.6172 40.0669 49.4531 38.9185 46.2305 37.8521C45.0117 37.4419 43.9922 37.1021 43.9688 37.0903C43.957 37.0786 43.6289 35.4966 43.2539 33.5864L42.5742 30.106L43.0313 27.7388C43.2891 26.438 43.5117 25.3599 43.5352 25.3364C43.5586 25.313 43.7344 25.3247 43.9336 25.3716L44.2734 25.4419L44.3203 27.6919C44.3555 29.9302 44.3555 29.9419 44.6953 30.563C45.3281 31.6997 46.418 32.2974 47.6719 32.2036C48.5156 32.145 49.1484 31.8403 49.7695 31.2075C50.6016 30.3403 50.6484 30.0825 50.6016 25.9341C50.5664 21.8677 50.5664 21.8794 49.5938 20.9419C49.1016 20.4614 48.375 20.1685 44.4375 18.856L42.6563 18.2583L41.9531 17.2739C41.5664 16.7349 41.25 16.2544 41.25 16.2192C41.25 16.1841 41.5195 15.9028 41.8594 15.6099C43.5117 14.1216 44.4375 11.6372 44.4258 8.67233C44.4258 7.81686 44.3672 7.06686 44.2383 6.62155C43.6523 4.37155 42.1523 2.78952 39.7969 1.91061C39.4688 1.78171 38.5664 1.69967 36.9141 1.62936C34.3711 1.53561 33.7969 1.43014 32.2617 0.820764C31.2656 0.422326 31.0898 0.398889 30.75 0.644983ZM32.3555 2.76608C33.4453 3.14108 34.5703 3.30514 36.7969 3.38717C39.0352 3.46921 39.0938 3.48092 39.8555 3.84421C40.9688 4.38327 41.6367 5.01608 42.1289 6.01217C42.5742 6.92624 42.832 8.39108 42.6797 9.12936L42.5977 9.5278L41.5195 8.53171C39.8906 7.00827 39.0352 6.60983 36.9375 6.38717C34.6289 6.1528 32.3203 5.09811 31.8281 4.05514C31.6289 3.63327 31.5703 2.57858 31.7461 2.57858C31.8047 2.57858 32.0742 2.66061 32.3555 2.76608ZM35.1797 7.85202C35.7187 7.96921 36.5859 8.13327 37.125 8.19186C38.25 8.33249 38.9648 8.61374 39.6914 9.21139C40.2773 9.69186 41.0742 10.77 41.6016 11.813L41.9766 12.5513L41.6484 13.1021C40.2773 15.4458 37.1953 16.2544 34.6758 14.9302C33.7031 14.4146 32.5195 13.2192 32.0625 12.27C31.3711 10.8638 31.3828 9.18796 32.1094 7.67624L32.4609 6.93796L33.3398 7.2778C33.8203 7.4653 34.6523 7.72311 35.1797 7.85202ZM4.13671 16.2544C5.95312 17.1919 16.5234 23.2857 16.7344 23.5083C17.2148 24.0474 17.0039 25.0435 16.3242 25.4888C16.125 25.6177 15.7852 25.7114 15.4687 25.7114C14.9883 25.7114 14.3086 25.3482 8.5664 22.0903C1.96874 18.3403 1.75781 18.1997 1.75781 17.4849C1.75781 16.4185 3.10546 15.7153 4.13671 16.2544ZM36.2344 17.2622C37.0781 17.3794 38.4961 17.2857 39.3281 17.0396C39.5273 16.9927 39.6563 17.0864 40.0078 17.5552C40.2422 17.8716 40.4297 18.1646 40.4297 18.1997C40.4297 18.2349 40.3125 18.2817 40.1602 18.3286C39.7266 18.4341 38.9883 19.1489 38.6719 19.7583C38.2734 20.5317 38.2617 21.856 38.6367 22.5591C39.0703 23.3794 39.8086 23.9536 40.8867 24.3169C41.8125 24.6216 41.8594 24.645 41.8008 24.9497C41.7656 25.1138 41.5664 26.1333 41.3555 27.2114L40.9688 29.1802H36.7148H32.4609V25.0669V20.9419L33.7266 18.9732C34.6406 17.5317 35.0273 17.0044 35.1562 17.063C35.25 17.0982 35.7422 17.1802 36.2344 17.2622ZM25.2773 17.2857C25.418 17.3911 26.0859 18.27 26.7539 19.2544C27.4336 20.2271 28.1016 21.1411 28.2422 21.27C28.4531 21.4575 28.6992 21.5161 29.6016 21.5396L30.7031 21.5864V23.0396V24.4927H28.957C27.4687 24.4927 27.1758 24.4575 26.9766 24.2817C26.543 23.9067 23.2734 19.1607 23.168 18.7505C23.0273 18.2349 23.2852 17.6138 23.7656 17.3208C24.1641 17.063 24.9492 17.0513 25.2773 17.2857ZM44.9414 20.8833C47.1914 21.6567 48.1992 22.0552 48.457 22.2778L48.8086 22.5942L48.8438 25.981C48.8789 28.9224 48.8555 29.4028 48.6914 29.7192C48.3164 30.4224 47.4258 30.6685 46.7461 30.27C46.125 29.9067 46.0547 29.5669 46.0547 26.9771C46.0547 24.8325 46.0313 24.6216 45.8203 24.3521C45.6445 24.1294 45.0469 23.8716 43.2305 23.2622C40.6289 22.3833 40.2305 22.1489 40.1133 21.4224C39.9844 20.5669 40.6055 19.8052 41.4258 19.8052C41.625 19.8052 43.1953 20.2857 44.9414 20.8833ZM40.5469 31.0317C40.5469 31.2896 39.6445 32.5903 39.0469 33.1997C38.2031 34.0669 37.125 34.77 34.1016 36.4458C32.7773 37.1724 31.5586 37.8755 31.3828 38.0044C30.7617 38.4614 30.7031 38.7778 30.7031 41.4732V43.9458H28.9922H27.2812L27.3281 39.9263C27.3633 36.0825 27.375 35.895 27.6211 35.4497C27.75 35.1919 28.793 34.0669 29.918 32.9536L31.957 30.938H36.2578C38.6133 30.938 40.5469 30.9849 40.5469 31.0317ZM41.7656 35.1567C42.2109 37.5474 42.3633 38.0161 42.7734 38.356C42.9844 38.5435 43.957 38.9302 45.3164 39.3755C46.5234 39.7857 47.6016 40.1489 47.707 40.2075C47.8828 40.3013 47.8359 40.4888 47.2969 41.895C46.957 42.7622 46.6523 43.5005 46.6172 43.5357C46.582 43.5708 46.2656 43.5005 45.9258 43.3716C45.5742 43.2427 43.8164 42.6333 42.0117 42.0122C40.2188 41.4028 38.6133 40.8169 38.4609 40.7114C38.2852 40.5942 37.875 39.8911 37.3594 38.8247C36.9141 37.8872 36.5625 37.1138 36.5859 37.1021C36.6094 37.0786 37.043 36.8208 37.5586 36.5161C39.0469 35.6138 40.7695 34.1489 41.168 33.4458C41.2266 33.3403 41.3203 33.3052 41.3672 33.3638C41.4141 33.4107 41.6016 34.2192 41.7656 35.1567ZM35.8359 39.7036C36.3633 40.8052 36.832 41.6021 37.1016 41.8716C37.5938 42.3638 37.9336 42.4927 42.668 44.1099L46.0195 45.2583L46.0898 46.3247C46.1367 46.9224 46.2422 47.6607 46.3477 47.9888C46.4414 48.3052 46.5234 48.6099 46.5234 48.6567C46.5234 48.7153 45.4453 48.7505 44.1211 48.7505C41.7188 48.7505 41.707 48.7505 41.4258 49.0435C40.9688 49.4888 41.0508 50.0513 41.6133 50.3325C41.8945 50.4849 42.9844 50.5083 48.6094 50.5083C56.1445 50.5083 55.9219 50.4849 56.9531 51.4107C57.8555 52.2192 58.1836 52.9341 58.1836 54.0825C58.1836 54.7857 58.125 55.1489 57.9258 55.5591C57.5742 56.3325 56.918 57.0122 56.1563 57.3872L55.4883 57.7153L36.6563 57.7505L17.8125 57.7739V56.3677V54.9614H36.4102H55.0078L55.2773 54.7036C55.6055 54.3989 55.6289 53.9185 55.3242 53.5435L55.1016 53.2622L36.457 53.2271L17.8125 53.2036V51.856V50.5083H27.8672C38.5781 50.5083 38.3438 50.52 38.625 49.9341C38.7773 49.6411 38.6484 49.0552 38.4023 48.8911C38.3203 48.8442 36.9727 48.7857 35.3906 48.7505L32.5195 48.6919V44.0161V39.3521L33.6914 38.6724C34.3359 38.2974 34.8984 37.981 34.9336 37.981C34.9687 37.9692 35.3789 38.7544 35.8359 39.7036ZM50.8711 41.3208L52.0195 41.7427L51.8086 42.2817C51.6914 42.5864 51.1055 44.1685 50.4961 45.7857C49.5234 48.4458 49.3828 48.7505 49.1484 48.7505C49.0078 48.7505 48.7969 48.7153 48.6914 48.6802C48.2813 48.5161 47.8125 47.0864 47.8125 45.9849C47.8125 45.6216 48.0469 44.8482 48.5859 43.4419C49.6055 40.77 49.5586 40.8989 49.6406 40.8989C49.6875 40.8989 50.2383 41.0864 50.8711 41.3208ZM13.2773 44.2036C14.1328 44.6138 15.1523 45.5747 15.5273 46.3364C15.9844 47.2974 16.0547 48.1528 16.0547 53.1099V57.7739H9.21093C3.08203 57.7739 2.36718 57.7505 2.29687 57.5864C2.20312 57.3403 2.20312 44.2505 2.29687 44.0044C2.36718 43.8403 2.85937 43.8169 7.48828 43.8521L12.5977 43.8872L13.2773 44.2036ZM30.7031 47.2271V48.7505H27.0117C22.8633 48.7505 23.1094 48.8091 23.543 47.8716C23.9297 47.0161 25.0078 46.1372 25.9922 45.8677C26.332 45.7739 27.3398 45.7153 28.6289 45.7153L30.7031 45.7036V47.2271Z" fill="#3CAA9F"/>
<path d="M7.03125 48.0121C6.69141 48.141 6.32812 48.5629 6.32812 48.809C6.32812 48.9496 6.43359 49.2074 6.57422 49.3832C6.80859 49.6762 6.85547 49.6879 8.09766 49.6879C9.22266 49.6879 9.39844 49.6645 9.60938 49.4535C9.90234 49.1606 9.91406 48.6215 9.62109 48.2699C9.42188 48.0121 9.29297 47.9887 8.29688 47.9652C7.69922 47.9535 7.125 47.9652 7.03125 48.0121Z" fill="#3CAA9F"/>
<path d="M6.62109 52.4414C6.45703 52.5938 6.32812 52.8633 6.32812 53.0273C6.32812 53.1914 6.45703 53.4609 6.62109 53.6133C6.87891 53.8828 6.98438 53.9062 8.0625 53.9062C9.05859 53.9062 9.26953 53.8711 9.53906 53.6602C9.9375 53.3438 9.96095 52.7344 9.58595 52.3828C9.36329 52.1836 9.17578 52.1484 8.12109 52.1484C6.98438 52.1484 6.87891 52.1719 6.62109 52.4414Z" fill="#3CAA9F"/>
</g>
<defs>
<clipPath id="clip0_418_479">
<rect width="60" height="60" fill="white"/>
</clipPath>
</defs>
</svg>
