<svg width="40" height="40" viewBox="0 0 40 40" fill="none" xmlns="http://www.w3.org/2000/svg">
<g clip-path="url(#clip0_417_415)">
<path d="M20.5002 0.429663C20.4065 0.492163 20.2502 0.726537 20.1487 0.9531C19.9924 1.29686 19.9612 1.49998 19.9612 2.10936C19.9612 2.89842 20.0627 3.2031 20.5002 3.72654L20.6877 3.9531L20.383 4.57029C19.844 5.65623 19.719 6.68748 20.0002 7.7656C20.2737 8.83592 20.9377 9.85154 21.7893 10.4922L22.2502 10.8359L21.4924 12.0234L20.7424 13.2031L20.1174 13.1875L19.4924 13.1641L18.7502 12.0938C17.844 10.7891 17.719 10.6562 17.2268 10.4219C16.7737 10.2109 16.0783 10.1797 15.6018 10.3438C14.6252 10.6953 14.0236 11.8672 14.3127 12.8672C14.3908 13.125 14.7815 13.7578 15.469 14.7344C17.5002 17.6094 17.2815 17.4453 19.1643 17.4844L20.469 17.5156V18.6562V19.7969L18.9533 21.3203C16.9377 23.3672 17.0862 22.9453 17.0471 26.6016L17.0158 29.4141L16.5002 29.6484C15.3596 30.1641 14.594 31.1016 14.344 32.2812L14.2971 32.5H13.094H11.883L11.8361 32.0469C11.6096 29.9297 10.383 28.5391 8.34396 28.0938L8.12521 28.0469V22.7734C8.12521 19.875 8.14084 17.5 8.16427 17.5C8.1799 17.5 8.5549 17.6875 8.98459 17.9062C9.71896 18.2891 9.81271 18.3203 10.2971 18.3125C11.1877 18.3047 11.9143 17.8594 12.2971 17.0938C12.6877 16.3125 12.5002 15.2812 11.8674 14.7266C11.5393 14.4375 3.27365 9.74216 2.85959 9.60935C2.44552 9.47653 1.60177 9.54686 1.21115 9.74998C0.843959 9.93748 0.390834 10.3984 0.187709 10.7812C-0.0232282 11.1875 -0.0154157 12.125 0.211147 12.5391C0.476772 13.0312 0.78146 13.2656 2.25021 14.1094L3.63302 14.8906L3.67209 17.9219L3.71115 20.9531L3.9299 21.1406C4.19552 21.3672 4.3674 21.375 4.64084 21.1641L4.84396 21.0078V18.3047C4.84396 16.6797 4.87521 15.625 4.91427 15.6406C4.95334 15.6484 5.4299 15.9062 5.96896 16.2109L6.95334 16.7578V22.4062V28.0547L5.92209 28.0312L4.88302 28.0078L4.84396 25.6406C4.8049 23.4062 4.79709 23.2656 4.65646 23.1562C4.4299 22.9922 4.03146 23.0156 3.85959 23.2109C3.71896 23.3672 3.71115 23.5391 3.68771 25.7031L3.66427 28.0391L2.42208 28.0625C1.31271 28.0859 1.15646 28.1016 0.96896 28.25C0.656459 28.4766 0.468959 28.7578 0.390834 29.1094C0.297084 29.5078 0.297084 38.2266 0.390834 38.625C0.484584 39.0469 0.687709 39.3047 1.09396 39.5078L1.43771 39.6875H19.0783C31.6174 39.6875 36.8283 39.6641 37.1252 39.6016C38.1565 39.3906 39.1955 38.5781 39.633 37.6406C40.5783 35.6406 39.5549 33.3047 37.4455 32.6562C37.0158 32.5234 36.719 32.5 35.5783 32.5C34.8283 32.5 34.219 32.4844 34.219 32.4609C34.219 32.4375 34.5783 31.4609 35.008 30.2891C35.8362 28.0703 35.9299 27.6562 35.7112 27.2344C35.6487 27.1172 35.4846 26.9609 35.3596 26.875C35.0783 26.7109 32.969 25.9453 30.8205 25.2344C30.008 24.9609 29.3283 24.7344 29.3127 24.7266C29.3049 24.7188 29.0862 23.6641 28.8362 22.3906L28.383 20.0703L28.6877 18.4922C28.8596 17.625 29.008 16.9062 29.0237 16.8906C29.0393 16.875 29.1565 16.8828 29.2893 16.9141L29.5158 16.9609L29.5471 18.4609C29.5705 19.9531 29.5705 19.9609 29.7971 20.375C30.219 21.1328 30.9455 21.5312 31.7815 21.4688C32.344 21.4297 32.7658 21.2266 33.1799 20.8047C33.7346 20.2266 33.7658 20.0547 33.7346 17.2891C33.7112 14.5781 33.7112 14.5859 33.0627 13.9609C32.7346 13.6406 32.2502 13.4453 29.6252 12.5703L28.4377 12.1719L27.969 11.5156C27.7112 11.1562 27.5002 10.8359 27.5002 10.8125C27.5002 10.7891 27.6799 10.6016 27.9065 10.4062C29.008 9.41404 29.6252 7.75779 29.6174 5.78123C29.6174 5.21092 29.5783 4.71092 29.4924 4.41404C29.1018 2.91404 28.1018 1.85936 26.5315 1.27342C26.3127 1.18748 25.7112 1.13279 24.6096 1.08592C22.9143 1.02342 22.5315 0.9531 21.508 0.54685C20.844 0.281225 20.7268 0.2656 20.5002 0.429663ZM21.5705 1.84373C22.2971 2.09373 23.0471 2.2031 24.5315 2.25779C26.0237 2.31248 26.0627 2.32029 26.5705 2.56248C27.3127 2.92186 27.758 3.34373 28.0862 4.00779C28.383 4.61717 28.5549 5.59373 28.4533 6.08592L28.3987 6.35154L27.6799 5.68748C26.594 4.67186 26.0237 4.40623 24.6252 4.25779C23.0862 4.10154 21.5471 3.39842 21.219 2.7031C21.0862 2.42186 21.0471 1.71873 21.1643 1.71873C21.2033 1.71873 21.383 1.77342 21.5705 1.84373ZM23.4533 5.23435C23.8127 5.31247 24.3908 5.42186 24.7502 5.46092C25.5002 5.55467 25.9768 5.74217 26.4612 6.1406C26.8518 6.46092 27.383 7.17967 27.7346 7.87498L27.9846 8.36717L27.7658 8.73435C26.8518 10.2969 24.7971 10.8359 23.1174 9.9531C22.469 9.60936 21.6799 8.81248 21.3752 8.17967C20.9143 7.24217 20.9221 6.12498 21.4065 5.11717L21.6408 4.62498L22.2268 4.85154C22.5471 4.97654 23.1018 5.14841 23.4533 5.23435ZM2.75802 10.8359C3.96896 11.4609 11.0158 15.5234 11.1565 15.6719C11.4768 16.0312 11.3361 16.6953 10.883 16.9922C10.7502 17.0781 10.5236 17.1406 10.3127 17.1406C9.9924 17.1406 9.53927 16.8984 5.71115 14.7266C1.31271 12.2266 1.17208 12.1328 1.17208 11.6562C1.17208 10.9453 2.07052 10.4766 2.75802 10.8359ZM24.1565 11.5078C24.719 11.5859 25.6643 11.5234 26.219 11.3594C26.3518 11.3281 26.4377 11.3906 26.6721 11.7031C26.8283 11.9141 26.9533 12.1094 26.9533 12.1328C26.9533 12.1562 26.8752 12.1875 26.7737 12.2188C26.4846 12.2891 25.9924 12.7656 25.7815 13.1719C25.5158 13.6875 25.508 14.5703 25.758 15.0391C26.0471 15.5859 26.5393 15.9688 27.258 16.2109C27.8752 16.4141 27.9065 16.4297 27.8674 16.6328C27.844 16.7422 27.7112 17.4219 27.5705 18.1406L27.3127 19.4531H24.4768H21.6408V16.7109V13.9609L22.4846 12.6484C23.094 11.6875 23.3518 11.3359 23.4377 11.375C23.5002 11.3984 23.8283 11.4531 24.1565 11.5078ZM16.8518 11.5234C16.9455 11.5938 17.3908 12.1797 17.8362 12.8359C18.2893 13.4844 18.7346 14.0938 18.8283 14.1797C18.969 14.3047 19.133 14.3438 19.7346 14.3594L20.469 14.3906V15.3594V16.3281H19.3049C18.3127 16.3281 18.1174 16.3047 17.9846 16.1875C17.6955 15.9375 15.5158 12.7734 15.4455 12.5C15.3518 12.1562 15.5237 11.7422 15.844 11.5469C16.1096 11.375 16.633 11.3672 16.8518 11.5234ZM29.9612 13.9219C31.4612 14.4375 32.133 14.7031 32.3049 14.8516L32.5393 15.0625L32.5627 17.3203C32.5862 19.2812 32.5705 19.6016 32.4612 19.8125C32.2112 20.2812 31.6174 20.4453 31.1643 20.1797C30.7502 19.9375 30.7033 19.7109 30.7033 17.9844C30.7033 16.5547 30.6877 16.4141 30.5471 16.2344C30.4299 16.0859 30.0315 15.9141 28.8205 15.5078C27.0862 14.9219 26.8205 14.7656 26.7424 14.2812C26.6565 13.7109 27.0705 13.2031 27.6174 13.2031C27.7502 13.2031 28.7971 13.5234 29.9612 13.9219ZM27.0315 20.6875C27.0315 20.8594 26.4299 21.7266 26.0315 22.1328C25.469 22.7109 24.7502 23.1797 22.7346 24.2969C21.8518 24.7812 21.0393 25.25 20.9221 25.3359C20.508 25.6406 20.469 25.8516 20.469 27.6484V29.2969H19.3283H18.1877L18.219 26.6172C18.2424 24.0547 18.2502 23.9297 18.4143 23.6328C18.5002 23.4609 19.1955 22.7109 19.9455 21.9688L21.3049 20.625H24.1721C25.7424 20.625 27.0315 20.6562 27.0315 20.6875ZM27.844 23.4375C28.1408 25.0312 28.2424 25.3438 28.5158 25.5703C28.6565 25.6953 29.3049 25.9531 30.2112 26.25C31.0158 26.5234 31.7346 26.7656 31.8049 26.8047C31.9221 26.8672 31.8908 26.9922 31.5315 27.9297C31.3049 28.5078 31.1018 29 31.0783 29.0234C31.0549 29.0469 30.844 29 30.6174 28.9141C30.383 28.8281 29.2112 28.4219 28.008 28.0078C26.8127 27.6016 25.7424 27.2109 25.6408 27.1406C25.5237 27.0625 25.2502 26.5938 24.9065 25.8828C24.6096 25.2578 24.3752 24.7422 24.3908 24.7344C24.4065 24.7188 24.6955 24.5469 25.0393 24.3438C26.0315 23.7422 27.1799 22.7656 27.4455 22.2969C27.4846 22.2266 27.5471 22.2031 27.5783 22.2422C27.6096 22.2734 27.7346 22.8125 27.844 23.4375ZM23.8908 26.4688C24.2424 27.2031 24.5549 27.7344 24.7346 27.9141C25.0627 28.2422 25.2893 28.3281 28.4455 29.4062L30.6799 30.1719L30.7268 30.8828C30.758 31.2812 30.8283 31.7734 30.8987 31.9922C30.9612 32.2031 31.0158 32.4062 31.0158 32.4375C31.0158 32.4766 30.2971 32.5 29.4143 32.5C27.8127 32.5 27.8049 32.5 27.6174 32.6953C27.3127 32.9922 27.3674 33.3672 27.7424 33.5547C27.9299 33.6562 28.6565 33.6719 32.4065 33.6719C37.4299 33.6719 37.2815 33.6562 37.969 34.2734C38.5705 34.8125 38.7893 35.2891 38.7893 36.0547C38.7893 36.5234 38.7502 36.7656 38.6174 37.0391C38.383 37.5547 37.9455 38.0078 37.4377 38.2578L36.9924 38.4766L24.4377 38.5L11.8752 38.5156V37.5781V36.6406H24.2737H36.6721L36.8518 36.4688C37.0705 36.2656 37.0862 35.9453 36.883 35.6953L36.7346 35.5078L24.3049 35.4844L11.8752 35.4688V34.5703V33.6719H18.5783C25.719 33.6719 25.5627 33.6797 25.7502 33.2891C25.8518 33.0938 25.7658 32.7031 25.6018 32.5938C25.5471 32.5625 24.6487 32.5234 23.594 32.5L21.6799 32.4609V29.3438V26.2344L22.4612 25.7812C22.8908 25.5312 23.2658 25.3203 23.2893 25.3203C23.3127 25.3125 23.5862 25.8359 23.8908 26.4688ZM33.9143 27.5469L34.6799 27.8281L34.5393 28.1875C34.4612 28.3906 34.0705 29.4453 33.6643 30.5234C33.0158 32.2969 32.9221 32.5 32.7658 32.5C32.6721 32.5 32.5315 32.4766 32.4612 32.4531C32.1877 32.3438 31.8752 31.3906 31.8752 30.6562C31.8752 30.4141 32.0315 29.8984 32.3908 28.9609C33.0705 27.1797 33.0393 27.2656 33.094 27.2656C33.1252 27.2656 33.4924 27.3906 33.9143 27.5469ZM8.85177 29.4688C9.42209 29.7422 10.1018 30.3828 10.3518 30.8906C10.6565 31.5312 10.7033 32.1016 10.7033 35.4062V38.5156H6.14084C2.0549 38.5156 1.57833 38.5 1.53146 38.3906C1.46896 38.2266 1.46896 29.5 1.53146 29.3359C1.57833 29.2266 1.90646 29.2109 4.9924 29.2344L8.39865 29.2578L8.85177 29.4688ZM20.469 31.4844V32.5H18.008C15.2424 32.5 15.4065 32.5391 15.6955 31.9141C15.9533 31.3438 16.6721 30.7578 17.3283 30.5781C17.5549 30.5156 18.2268 30.4766 19.0862 30.4766L20.469 30.4688V31.4844Z" fill="#3CAA9F"/>
<path d="M4.6875 32.0077C4.46094 32.0936 4.21875 32.3749 4.21875 32.539C4.21875 32.6327 4.28906 32.8046 4.38281 32.9218C4.53906 33.1171 4.57031 33.1249 5.39844 33.1249C6.14844 33.1249 6.26563 33.1093 6.40625 32.9686C6.60156 32.7733 6.60938 32.414 6.41406 32.1796C6.28125 32.0077 6.19531 31.9921 5.53125 31.9765C5.13281 31.9686 4.75 31.9765 4.6875 32.0077Z" fill="#3CAA9F"/>
<path d="M4.41406 34.9609C4.30469 35.0625 4.21875 35.2422 4.21875 35.3516C4.21875 35.4609 4.30469 35.6406 4.41406 35.7422C4.58594 35.9219 4.65625 35.9375 5.375 35.9375C6.03906 35.9375 6.17969 35.9141 6.35938 35.7734C6.625 35.5625 6.64063 35.1562 6.39063 34.9219C6.24219 34.7891 6.11719 34.7656 5.41406 34.7656C4.65625 34.7656 4.58594 34.7812 4.41406 34.9609Z" fill="#3CAA9F"/>
</g>
<defs>
<clipPath id="clip0_417_415">
<rect width="40" height="40" fill="white"/>
</clipPath>
</defs>
</svg>
