<svg width="54" height="73" viewBox="0 0 54 73" fill="none" xmlns="http://www.w3.org/2000/svg">
<path fill-rule="evenodd" clip-rule="evenodd" d="M18.6218 72.8526C18.9121 72.8289 19.2028 72.7974 19.4931 72.7974C19.7838 72.7974 20.074 72.8289 20.3643 72.8526V69.1541H20.4449C20.698 69.5915 21.0201 70.1219 21.1926 70.4326L22.5646 72.8526C22.9125 72.8289 23.2609 72.7974 23.6092 72.7974C23.9688 72.7974 24.3167 72.8289 24.6642 72.8526L24.2119 72.1377C23.5156 71.0661 22.7964 70.0065 22.1582 68.9007C23.2371 68.6702 23.9684 67.9558 23.9684 66.8264C23.9684 66.0434 23.6201 65.525 22.9589 65.1777C22.4715 64.9231 21.629 64.9464 21.0886 64.9464H18.621V72.8526H18.6218ZM38.4231 68.8426C38.4118 67.0527 37.4353 64.7416 34.1332 64.7416C31.2496 64.7416 29.5647 66.5913 29.5647 68.8879C29.5647 71.5085 31.296 73.0001 33.8546 73.0001C36.6923 73.0005 38.4348 71.0931 38.4231 68.8426ZM41.9081 68.8621C43.2768 68.8621 44.3807 67.7207 44.3807 66.3026C44.3807 64.9127 43.2768 63.7812 41.9081 63.7812C40.5327 63.7812 39.4297 64.9131 39.4297 66.3026C39.4301 67.7207 40.5327 68.8621 41.9081 68.8621ZM15.1919 72.8526C14.9016 72.8289 14.6109 72.7974 14.3207 72.7974C14.03 72.7974 13.7397 72.8289 13.4494 72.8526V65.758C12.6262 65.758 11.8957 65.8382 11.293 65.9196C11.3164 65.758 11.3477 65.5977 11.3477 65.4257C11.3477 65.2658 11.3164 65.1055 11.293 64.9455H17.2673C17.2423 65.1044 17.2286 65.2649 17.2264 65.4257C17.2264 65.5977 17.2439 65.7584 17.2673 65.9196C16.5836 65.8386 15.8994 65.758 15.1923 65.758V72.8526H15.1919Z" fill="#1C171D"/>
<path fill-rule="evenodd" clip-rule="evenodd" d="M20.3652 65.5713C21.0669 65.5713 21.9294 65.4787 22.1136 66.4353C22.1518 66.625 22.1711 66.8179 22.1712 67.0114C22.1712 68.1973 21.5731 68.7734 20.3657 68.6583V65.5713H20.3652Z" fill="white"/>
<path fill-rule="evenodd" clip-rule="evenodd" d="M26.123 64.9451C26.4133 64.9679 26.704 64.9995 26.9943 64.9995C27.285 64.9995 27.5753 64.9679 27.8656 64.9451V72.8526C27.5753 72.8289 27.2846 72.7973 26.9943 72.7973C26.704 72.7973 26.4133 72.8289 26.123 72.8526V64.9451Z" fill="#1C171D"/>
<path fill-rule="evenodd" clip-rule="evenodd" d="M34.0639 65.4248C35.7998 65.4248 36.4948 67.1341 36.4948 68.6228C36.4948 70.5389 35.6953 72.3167 33.9127 72.3167C32.1761 72.3167 31.4932 70.7241 31.4932 69.2234C31.4936 66.6377 32.4542 65.4248 34.0639 65.4248ZM41.9082 64.1687C43.0643 64.1687 43.9531 65.129 43.9531 66.3025C43.9531 67.5042 43.0639 68.4736 41.9082 68.4736C40.7529 68.4736 39.8566 67.5042 39.8566 66.3025C39.8566 65.1295 40.7529 64.1687 41.9082 64.1687Z" fill="white"/>
<path fill-rule="evenodd" clip-rule="evenodd" d="M41.0098 67.7341C41.1029 67.7275 41.1948 67.7163 41.2879 67.7163C41.3811 67.7163 41.473 67.7275 41.5661 67.7341V66.4037H41.6952L42.4374 67.7341C42.5443 67.7275 42.6512 67.7163 42.7581 67.7163C42.8651 67.7163 42.972 67.7275 43.0789 67.7341L42.9223 67.4753C42.68 67.0924 42.4378 66.716 42.2168 66.3169C42.609 66.2309 42.8588 65.9696 42.8588 65.5671C42.8588 65.143 42.5731 64.8979 42.074 64.8979H41.0102V67.7341H41.0098Z" fill="#1C171D"/>
<path fill-rule="evenodd" clip-rule="evenodd" d="M41.5664 65.1567H41.7882C42.0167 65.1567 42.2451 65.1779 42.2451 65.6726C42.2451 66.1034 42.0304 66.3023 41.5664 66.2666V65.1567Z" fill="white"/>
<path fill-rule="evenodd" clip-rule="evenodd" d="M10.7734 58.385C10.7734 58.385 12.7056 59.7154 14.1177 58.5333C14.1177 58.5333 15.9755 57.4982 18.0563 58.6807C18.0563 58.6807 20.2115 59.7889 22.6636 58.5333C22.6636 58.5333 25.4132 57.6456 25.6362 56.6113C25.6362 56.6113 25.1162 55.8724 24.3732 55.2809C24.3732 55.2809 23.8528 55.207 23.4814 55.5023C23.4814 55.5023 20.2859 58.1632 18.1307 57.4242C18.1307 57.4242 15.7529 56.6113 13.8947 57.8678C13.8947 57.8683 12.4086 58.6811 10.7734 58.385ZM27.197 49.2949C27.197 49.2949 27.197 47.5952 25.711 47.5952C25.711 47.5952 23.5558 47.7427 23.6301 52.3251C23.6301 52.3251 23.9271 56.4643 29.65 58.0161C29.65 58.0161 31.6561 58.6076 33.4399 58.0161C33.4399 58.0161 34.2573 57.4246 35.7438 58.3854C35.7438 58.3854 38.865 60.1595 41.6889 58.7555C41.6889 58.7555 42.2837 58.2379 41.6146 58.2379C41.6146 58.2379 41.1685 58.2379 40.2768 58.4593C40.2768 58.4593 39.1616 58.8294 36.9321 57.6464C36.9321 57.6464 35.0747 56.2421 32.3987 56.3908C32.3987 56.3908 27.717 56.3908 26.6027 52.6956C26.6027 52.6956 26.5283 51.7344 26.751 51.2912C26.7514 51.2904 27.3461 50.404 27.197 49.2949Z" fill="#1C171D"/>
<path fill-rule="evenodd" clip-rule="evenodd" d="M25.3389 37.5436C25.3389 37.5436 22.5894 40.4998 24.4472 44.4916C24.4472 44.4916 25.562 45.6738 26.8998 47.4478C26.8998 47.4478 28.758 49.1475 27.4945 51.3648C27.4945 51.3648 26.6767 52.9166 28.0893 53.8774C28.0893 53.8774 28.981 54.3949 29.724 53.2859C29.724 53.2859 31.8792 50.5519 30.3932 47.2256C30.3932 47.2256 29.5014 45.3045 27.4206 43.8262C27.4206 43.8262 25.9341 42.3478 27.1232 40.8699C27.1232 40.8699 27.7919 39.8348 27.2723 38.6527C27.2715 38.6527 26.305 36.953 25.3389 37.5436Z" fill="#1C171D"/>
<path fill-rule="evenodd" clip-rule="evenodd" d="M5.1248 20.0281C5.1248 20.0281 7.27998 20.1756 6.9826 23.6493L7.05694 24.2404C7.05694 24.2404 7.87474 21.6539 9.95515 22.0971C9.95515 22.0971 10.9212 25.0533 7.57736 25.5704C7.57736 25.5704 8.09777 26.6051 8.69211 27.1966C8.69211 27.1966 8.39474 24.6101 11.6647 24.684C11.6647 24.684 12.482 27.936 9.3608 28.2313C9.3608 28.2313 9.80646 29.5618 10.8469 29.7836C10.8469 29.7836 11.2186 29.3404 11.3673 28.4531C11.3673 28.4531 11.5903 26.7534 12.7794 26.7534C12.7794 26.7534 13.7455 27.0488 13.7455 28.3796C13.7455 28.3796 13.9685 29.8579 12.259 30.3751C12.259 30.3751 13.5225 31.4098 14.9342 31.188C14.9342 31.188 13.8194 29.0446 15.0085 27.7146C15.0085 27.7146 17.4611 28.1578 17.015 30.6708C17.015 30.6708 18.2785 30.523 18.7989 30.1533C18.7989 30.1533 19.988 29.4878 21.1027 29.6357C21.1027 29.6357 20.6571 28.4531 19.1706 27.5663C19.1706 27.5663 16.6441 25.7187 16.0494 22.3928C16.0494 22.3928 15.6776 19.7319 11.8877 19.658C11.8877 19.658 9.88122 20.3234 8.17212 18.9191C8.17212 18.9191 7.94908 19.8063 5.19915 19.7324C5.19915 19.7324 4.45611 19.7324 4.01004 18.7716C4.01004 18.7716 4.15873 17.2933 7.35432 17.589C7.35432 17.589 7.27998 17.1454 6.38825 16.7022C6.38825 16.7022 3.19266 16.7761 4.23308 13.4502C4.23308 13.4502 7.05694 12.8587 7.05694 16.2586C7.05694 16.2586 7.20563 16.5543 7.65128 16.7022C7.65128 16.7022 7.50259 14.7807 8.98908 14.2631C8.98908 14.2631 8.24604 13.8934 8.09735 13.3763C8.09735 13.3763 8.61777 11.6766 11.6647 12.0459L10.6986 11.233C10.6986 11.233 7.35474 11.0851 8.24646 7.83313C8.24646 7.83313 10.7729 7.16811 11.3677 10.4201L11.8881 11.0851C11.8881 11.0851 11.5164 8.86824 13.9689 8.72037C13.9689 8.72037 15.232 10.4201 13.2998 12.342C13.2998 12.342 13.2255 13.3767 13.9689 13.8939C13.9689 13.8939 13.5972 11.4548 16.1985 10.8637C16.1985 10.8637 17.3132 13.2284 15.3067 15.0764C15.3067 15.0764 15.8272 16.4808 16.1985 17.8108C16.1985 17.8108 16.8672 19.2892 16.8672 20.9889C16.8672 20.9889 17.7589 22.1714 18.428 24.5366C18.428 24.5366 20.1371 27.3449 22.2923 27.5667C22.2923 27.5667 22.5896 26.8278 22.144 25.867C22.144 25.867 21.4749 24.3887 22.5157 22.2454C22.5157 22.2454 23.4074 20.6196 22.0701 19.8067C22.0701 19.8067 19.3201 20.3978 19.5432 16.5547C19.5432 16.5547 21.4753 15.8158 22.5157 17.7373C22.5157 17.7373 22.8874 15.0029 21.7727 13.1553C21.7727 13.1553 21.401 12.3424 20.8066 12.1206C20.8066 12.1206 18.6514 15.3726 16.6454 13.3032C16.6454 13.3032 17.0167 11.8992 18.8745 11.012C18.8745 11.012 18.5771 10.273 17.3141 9.82942C17.3141 9.82942 13.4498 8.72078 16.2736 5.32095C16.2736 5.32095 18.4288 5.61628 17.9832 9.45973C17.9832 9.45973 21.2531 10.9381 22.5166 12.7856C22.5166 12.7856 22.5909 11.4552 22.5166 10.3466C22.5166 10.3466 19.4697 11.9727 18.8749 7.98183C18.8749 7.98183 21.0301 6.50352 22.5166 8.86866C22.5166 8.86866 22.7396 7.46469 22.0709 6.50352C22.0709 6.50352 18.7266 8.64685 18.2805 4.72987C18.2805 4.72987 20.4357 3.76911 22.0709 5.69063C22.0709 5.69063 21.9222 4.87774 21.5505 4.43412C21.5505 4.43412 18.2066 3.10368 20.2127 0C20.2127 0 23.4083 0.517141 22.0709 4.13879L22.5166 5.02561C22.5166 5.02561 22.2935 2.88228 25.1917 2.58654C25.1917 2.58654 26.2321 5.61669 23.0365 6.42958C23.0365 6.42958 23.4826 7.39034 23.3339 7.83354C23.3339 7.83354 24.003 5.98596 26.2321 6.28171C26.2321 6.28171 26.9752 9.68155 23.7057 9.97688C23.7057 9.97688 23.26 14.7807 23.6313 17.9587C23.6313 17.9587 25.1917 18.9191 23.8539 22.8364C23.8539 22.8364 22.6648 25.2012 24.6717 28.0839C24.6717 28.0839 25.0435 28.7489 25.3408 31.6316C25.3408 31.6316 25.1921 33.4792 28.239 34.8836C28.239 34.8836 31.7312 37.1748 30.8399 41.0917C30.8399 41.0917 30.3203 44.1219 28.6847 44.1219C28.6847 44.1219 27.0499 42.9397 27.6447 41.9046C27.6447 41.9046 28.9081 38.727 26.8273 37.3962C26.8273 37.3962 24.6721 35.8443 22.5913 32.1491C22.5913 32.1491 21.4766 30.2276 18.3553 31.6316C18.3553 31.6316 16.4232 33.1099 14.268 32.3705C14.268 32.3705 15.531 35.4007 11.5185 35.6225C11.5185 35.6225 9.80938 34.2921 12.6332 32.0013C12.6332 32.0013 11.5185 31.7795 10.9241 31.188C10.9241 31.188 11.2215 34.4399 7.72855 33.7749C7.72855 33.7749 6.61379 31.7055 9.512 30.5973L9.06635 30.3016C9.06635 30.3016 8.54593 29.6361 6.24248 30.8926C6.24248 30.8926 8.17462 32.962 5.35076 34.2181C5.35076 34.2181 3.56731 35.0314 3.86428 33.701C3.86428 33.701 4.08731 32.2227 5.12773 31.188C5.12773 31.188 4.68165 30.9662 3.93862 31.0405C3.93862 31.0405 1.7091 33.8489 0 31.2623C0 31.2623 0.743033 28.2322 3.93862 30.5973L4.97904 30.4494C4.97904 30.4494 2.52648 29.8584 3.78993 27.1239C3.78993 27.1239 6.61379 26.3846 6.31641 29.9323C6.31641 29.9323 8.02593 29.2669 8.992 29.3412C8.992 29.3412 7.13421 27.05 6.98552 25.8674C6.98552 25.8674 5.49903 27.715 3.34428 25.6456C3.34428 25.6456 2.37821 24.4631 3.71559 24.3895C3.71559 24.3895 5.72207 24.2417 6.4651 24.7592C6.4651 24.7592 6.31641 23.9463 6.31641 23.7245C6.31349 23.7233 2.74659 22.3932 5.1248 20.0281Z" fill="#1C171D"/>
<path fill-rule="evenodd" clip-rule="evenodd" d="M8.98926 17.9587C8.98926 17.9587 10.401 18.1805 10.104 14.7067C10.104 14.7067 11.0701 15.0025 12.1105 13.746C12.1105 13.746 12.7053 13.5981 13.0766 14.337C13.0766 14.337 11.2188 14.1896 10.4014 15.4457C10.4014 15.4457 10.8471 18.4758 14.117 16.4064C14.117 16.4064 15.3061 16.7022 15.3804 19.2148C15.3804 19.2148 13.374 18.328 11.4414 18.919C11.4414 18.919 9.13795 19.2148 8.98926 17.9587Z" fill="white"/>
<path fill-rule="evenodd" clip-rule="evenodd" d="M27.9392 33.8979C27.9392 33.8979 28.9303 34.6863 29.6236 35.3762C29.6236 35.3762 32.3982 31.8285 34.6774 27.9855C34.6774 27.9855 36.3619 26.606 39.0375 30.7448C39.0375 30.7448 36.6589 31.3359 37.9469 34.4894C37.9469 34.4894 38.9381 35.9677 39.9292 34.1936C39.9292 34.1936 40.6225 33.3068 40.1276 31.7301C40.1276 31.7301 41.0193 32.5184 42.2084 32.7153C42.2084 32.7153 42.604 33.2084 42.406 33.6021C42.406 33.6021 40.8209 34.6863 42.6044 36.8541C42.6044 36.8541 44.4872 37.7409 44.0909 33.9968C44.0909 33.9968 43.6945 33.3068 43.6945 32.9126C43.6945 32.9126 44.6856 33.5037 46.1721 33.3068C46.1721 33.3068 45.5773 36.263 48.1535 36.9534C48.1535 36.9534 48.9463 37.1499 49.0461 35.9677C49.0461 35.9677 49.343 34.4894 47.9556 33.701H49.0461C49.0461 33.701 51.4239 35.8689 52.9104 33.6026C52.9104 33.6026 53.2073 31.6316 50.3342 31.9274C50.3342 31.9274 49.64 32.2231 48.9467 32.8142L48.055 32.9126L48.1535 32.3216C48.1535 32.3216 49.4416 31.5332 49.64 30.0553C49.64 30.0553 50.4328 30.2522 50.6311 29.9568C50.6311 29.9568 51.1265 28.1828 49.0461 27.0991L49.7394 26.8033C49.7394 26.8033 52.4142 28.7743 54.0001 25.6207C54.0001 25.6207 51.4239 23.5513 49.64 26.3107L48.5503 26.4091C48.5503 26.4091 50.2348 25.5223 49.3431 23.1571C49.3431 23.1571 46.7669 22.2703 46.8654 26.5076C46.8654 26.5076 44.884 26.9017 43.299 26.3103C43.299 26.3103 45.6767 25.5223 45.0824 23.354C45.0824 23.354 41.8129 22.2703 41.5151 25.8176C41.5151 25.8176 40.6234 25.8176 39.3353 25.4234C39.3353 25.4234 37.4524 24.7335 34.9756 26.0145C34.9756 26.0145 36.3623 20.6931 41.5147 20.5947C41.5147 20.5947 43.4969 20.6931 44.4872 21.5804C44.4872 21.5804 45.9737 24.2409 48.5499 22.763C48.5499 22.763 49.3426 20.9893 46.1721 20.3978C46.1721 20.3978 46.4691 20.004 46.9648 20.004C46.9648 20.004 50.5322 21.0878 50.6307 17.5405C50.6307 17.5405 48.7479 15.7664 46.4686 19.1168C46.4686 19.1168 47.2614 17.5405 46.2703 16.949C46.2703 16.949 44.0904 16.259 43.5955 19.8067C43.5955 19.8067 42.6044 20.2994 41.6141 19.8067C41.6141 19.8067 44.1903 18.23 44.785 15.8648C44.785 15.8648 46.9648 18.0327 49.0457 14.7807C49.0457 14.7807 48.1531 13.0071 45.379 14.5838C45.379 14.5838 45.9737 13.9927 46.0731 13.4997C46.0731 13.4997 49.1447 13.0071 47.4598 9.55821C47.4598 9.55821 44.3882 9.36091 45.082 12.8102C45.082 12.8102 45.2804 13.697 44.6856 14.2885C44.6856 14.2885 44.5871 11.6276 42.2088 11.8245C42.2088 11.8245 40.8213 14.3865 43.5955 15.5691C43.5955 15.5691 43.5955 16.5548 42.7038 17.0474C42.7038 17.0474 41.911 15.9637 40.7215 14.6827C40.7215 14.6827 39.5328 12.416 41.1179 10.8396C41.1179 10.8396 43.6941 12.318 45.0816 9.85437C45.0816 9.85437 45.5769 8.27761 41.6137 9.26288L42.109 8.47491C42.109 8.47491 44.9822 7.39078 43.2985 4.63187C43.2985 4.63187 39.9296 4.82876 41.2177 8.27802L40.8213 9.06599C40.8213 9.06599 39.7316 6.10977 38.1458 6.89815C38.1458 6.89815 36.4613 9.75593 39.8302 10.347C39.8302 10.347 38.1458 14.6831 40.5244 16.1614C40.5244 16.1614 42.1094 17.0482 41.4161 18.5266C41.4161 18.5266 36.4613 20.3986 34.3809 23.4533C34.3809 23.4533 34.5793 20.694 33.0928 17.0482C33.0928 17.0482 32.2002 14.4862 33.0928 13.4021C33.0928 13.4021 36.6593 13.9936 35.9659 10.4459C35.9659 10.4459 34.6778 9.6579 32.6964 11.7269C32.6964 11.7269 32.6964 8.96796 33.5881 6.50438C33.5881 6.50438 35.5696 9.06641 37.5518 6.20904C37.5518 6.20904 38.6415 3.44971 34.0831 5.51911C34.0831 5.51911 34.1825 5.02606 34.6778 4.33654C34.6778 4.33654 36.6593 3.35085 35.7675 1.08457C35.7675 1.08457 35.3712 0.197748 34.5789 0.887269C34.5789 0.887269 32.2996 1.77409 33.5877 4.53342L33.3893 5.1245C33.3893 5.1245 32.4976 2.66092 30.4168 3.15355C30.4168 3.15355 29.2273 6.30666 32.4976 6.79971C32.4976 6.79971 32.1012 8.37647 32.1012 9.26329C32.1012 9.26329 31.6059 8.67221 29.9214 8.47533C29.9214 8.47533 28.237 11.6284 31.9029 12.0226C31.9029 12.0226 31.5065 15.4719 32.1998 17.344C32.1998 17.344 29.1283 15.5699 29.2273 10.7416C29.2273 10.7416 29.0289 9.36215 29.2273 8.08114C29.2273 8.08114 30.5162 5.32181 27.6422 4.53342C27.6422 4.53342 25.165 6.80012 28.237 8.96796C28.237 8.96796 28.4354 9.85479 28.3355 10.2486C28.3355 10.2486 27.2458 9.55904 25.363 9.75593C25.363 9.75593 24.1739 12.6137 28.5335 12.7121C28.5335 12.7121 29.4252 17.5409 32.4972 19.413C32.4972 19.413 34.38 23.9459 32.4972 26.7053C32.4972 26.7053 31.9024 25.6211 30.8127 25.0301C30.8127 25.0301 30.218 24.3401 30.5158 23.3549C30.5158 23.3549 32.8936 23.4533 32.3978 20.0049C32.3978 20.0049 30.3178 19.2165 29.4252 22.5669L29.3267 21.877C29.3267 21.877 30.1194 17.9355 26.6511 18.2312C26.6511 18.2312 24.7686 20.3006 28.5335 21.9758L28.7319 22.6658C28.7319 22.6658 26.9485 21.4832 25.462 23.3553C25.462 23.3553 26.9485 26.3115 29.2268 24.4394C29.2268 24.4394 30.0196 25.5235 30.6143 26.1146C30.6143 26.1146 32.0018 28.0856 30.6143 30.0565C30.6148 30.0549 28.5339 32.9122 27.9392 33.8979Z" fill="#1C171D"/>
<path fill-rule="evenodd" clip-rule="evenodd" d="M36.7588 26.9012C36.7588 26.9012 39.038 28.2806 40.3261 30.4485C40.3261 30.4485 41.6142 28.3795 44.091 29.3648C44.091 29.3648 43.3976 28.3795 43.5956 27.4927C43.5956 27.4927 41.8122 27.4927 39.9297 26.8027C39.9297 26.8027 37.0558 25.9155 36.7588 26.9012ZM45.1807 27.4923C45.1807 27.4923 46.8651 28.5764 46.8651 29.9558L47.3613 29.8574L47.9552 29.4632C47.9552 29.4632 47.1633 28.4779 47.1633 27.3938C47.1629 27.3938 45.6769 27.6891 45.1807 27.4923Z" fill="white"/>
</svg>
