<svg width="187" height="175" viewBox="0 0 187 175" fill="none" xmlns="http://www.w3.org/2000/svg">
<g clip-path="url(#clip0_415_107)">
<path d="M94.2061 174.8C141.049 174.8 179.023 136.813 179.023 89.953C179.023 43.093 141.049 5.10547 94.2061 5.10547C47.3633 5.10547 9.38971 43.093 9.38971 89.953C9.38971 136.813 47.3633 174.8 94.2061 174.8Z" fill="#3CAA9F"/>
<path d="M128.309 161.636C127.467 161.636 126.662 161.169 126.263 160.367C125.705 159.239 126.168 157.871 127.296 157.312C132.463 154.756 137.319 151.625 141.728 148.004C142.701 147.206 144.136 147.345 144.938 148.319C145.735 149.292 145.596 150.732 144.623 151.529C139.942 155.37 134.795 158.692 129.321 161.4C128.994 161.56 128.647 161.636 128.309 161.636Z" fill="white"/>
<path d="M149.89 145.829C149.324 145.829 148.754 145.618 148.311 145.195C147.402 144.322 147.374 142.878 148.244 141.969C149.001 141.179 149.755 140.358 150.48 139.528C151.309 138.583 152.753 138.487 153.698 139.317C154.642 140.146 154.738 141.59 153.909 142.535C153.139 143.412 152.338 144.286 151.533 145.123C151.086 145.594 150.488 145.829 149.89 145.829Z" fill="white"/>
<path d="M157.648 136.321C157.202 136.321 156.747 136.19 156.353 135.915C155.316 135.197 155.057 133.777 155.774 132.74C171.347 110.222 173.492 81.0074 161.368 56.4873C160.81 55.3586 161.272 53.9906 162.401 53.4322C163.533 52.8738 164.896 53.3365 165.455 54.4652C178.312 80.469 176.04 111.454 159.522 135.332C159.084 135.978 158.374 136.321 157.648 136.321Z" fill="white"/>
<path d="M32.8118 159.885C32.2656 159.885 31.7234 159.689 31.2848 159.298C26.1817 154.692 21.5808 149.503 17.6099 143.876C16.8843 142.847 17.1275 141.423 18.1601 140.697C19.1887 139.971 20.612 140.214 21.3376 141.247C25.1132 146.6 29.4868 151.533 34.3388 155.912C35.2717 156.758 35.3475 158.198 34.5062 159.135C34.0557 159.629 33.4338 159.885 32.8118 159.885Z" fill="#3CAA9F"/>
<path d="M168.281 145.024C167.823 145.024 167.364 144.889 166.961 144.601C165.933 143.872 165.694 142.448 166.423 141.423C167.986 139.221 169.465 136.916 170.825 134.579C171.455 133.49 172.85 133.119 173.942 133.749C175.031 134.383 175.402 135.779 174.772 136.868C173.344 139.329 171.789 141.75 170.147 144.063C169.696 144.693 168.995 145.024 168.281 145.024Z" fill="#3CAA9F"/>
<path d="M176.419 131.093C176.092 131.093 175.761 131.025 175.446 130.874C174.306 130.335 173.819 128.979 174.358 127.839C178.03 120.042 180.553 111.77 181.857 103.259C182.048 102.014 183.212 101.161 184.456 101.348C185.7 101.54 186.553 102.704 186.366 103.949C184.995 112.894 182.343 121.585 178.48 129.781C178.093 130.611 177.276 131.093 176.419 131.093Z" fill="#3CAA9F"/>
<path d="M62.2392 6.58529C61.3143 6.58529 60.4451 6.01902 60.1023 5.10183C59.6637 3.92144 60.2617 2.60946 61.4418 2.1708C62.7934 1.66834 64.1728 1.18981 65.5403 0.751153C66.7404 0.368325 68.0241 1.0303 68.4069 2.22663C68.7896 3.42696 68.1318 4.71103 66.9317 5.09386C65.632 5.50859 64.3204 5.96319 63.0366 6.44173C62.7735 6.53744 62.5023 6.58529 62.2392 6.58529Z" fill="#3CAA9F"/>
<path d="M45.7015 14.7053C44.94 14.7053 44.1944 14.3224 43.7639 13.6285C43.0981 12.5596 43.429 11.1517 44.4974 10.4857C47.073 8.88635 49.7641 7.38674 52.4951 6.0347C53.6234 5.47633 54.9909 5.93898 55.549 7.06767C56.1072 8.19637 55.6447 9.56436 54.5164 10.1227C51.917 11.411 49.3534 12.8348 46.9015 14.3583C46.5268 14.5937 46.1121 14.7053 45.7015 14.7053Z" fill="#3CAA9F"/>
<path d="M12.1957 132.593C11.3545 132.593 10.5491 132.126 10.1505 131.32C-8.62763 93.3439 0.490316 47.3586 32.3333 19.4922C33.2822 18.6626 34.7215 18.7583 35.5507 19.7075C36.38 20.6568 36.2843 22.0965 35.3354 22.9261C5.0473 49.4325 -3.62811 93.1724 14.237 129.298C14.7952 130.427 14.3327 131.795 13.2044 132.353C12.8815 132.517 12.5346 132.593 12.1957 132.593Z" fill="#3CAA9F"/>
<path d="M125.798 43.5741C125.553 43.881 125.368 44.2699 125.368 44.4745C125.368 45.0066 126.166 45.907 126.617 45.907C127.231 45.907 127.067 46.5209 126.392 46.746C125.9 46.9302 125.778 47.0939 125.778 47.5646C125.778 48.0148 125.88 48.1581 126.166 48.1581C127.558 48.1581 128.438 47.0325 128.438 45.2726C128.438 43.7992 127.926 43.042 126.903 43.042C126.412 43.042 126.105 43.1853 125.798 43.5741Z" fill="white"/>
<path d="M58.5312 43.5336C58.4698 43.6973 58.4493 44.168 58.4903 44.5978L58.5516 45.3959L60.0455 45.4573L61.519 45.5187V50.0208V54.5229L62.8082 54.4615L64.077 54.4001L64.1384 49.9389L64.1793 45.4982H65.6118H67.0443V44.3727V43.2471H62.8491C59.4316 43.2471 58.613 43.3085 58.5312 43.5336Z" fill="white"/>
<path d="M97.5368 48.8748V54.5024H98.7647H99.9925V48.8748V43.2471H98.7647H97.5368V48.8748Z" fill="white"/>
<path d="M101.22 48.8738V54.5014H102.345H103.471V48.8738V43.2461H102.345H101.22V48.8738Z" fill="white"/>
<path d="M73.6343 46.7463C71.4651 47.831 70.8102 50.9006 72.2632 53.1107C73.2455 54.6046 75.5784 55.1776 77.0314 54.2977C77.8295 53.8065 77.8909 53.8065 77.8909 54.1953C77.8909 54.4204 78.1364 54.5023 78.9141 54.5023H79.9373V50.5118V46.5212H78.9346C78.3616 46.5212 77.8909 46.6236 77.85 46.7463C77.7886 46.9101 77.5635 46.8896 77.1337 46.644C76.2128 46.1733 74.6985 46.2347 73.6343 46.7463ZM76.9905 48.8746C77.6862 49.3453 77.9727 50.2662 77.6862 51.1052C77.3793 52.0261 76.7858 52.4559 75.7831 52.4559C74.6985 52.4559 73.798 51.5759 73.798 50.5118C73.798 48.9974 75.7421 47.9947 76.9905 48.8746Z" fill="white"/>
<path d="M90.8857 46.7055C89.3918 47.4013 88.5323 48.7928 88.5323 50.5118C88.5323 52.9266 90.2922 54.707 92.6661 54.707C93.8325 54.707 95.1627 54.1954 95.7357 53.561C95.9403 53.3359 96.2268 52.8243 96.411 52.3945L96.718 51.6374H95.572C94.5897 51.6374 94.3646 51.7192 94.0167 52.149C93.2186 53.1517 90.988 52.5787 90.988 51.3713C90.988 51.0644 91.295 51.0234 93.853 51.0234H96.718V50.3277C96.718 49.4886 96.3701 48.4449 95.838 47.6673C94.9581 46.419 92.5433 45.9483 90.8857 46.7055ZM93.9962 48.6496C94.3032 48.9156 94.5079 49.2021 94.4465 49.284C94.3646 49.3454 93.546 49.3863 92.6047 49.3454L90.8857 49.284L91.4382 48.711C92.1545 47.9947 93.1981 47.9538 93.9962 48.6496Z" fill="white"/>
<path d="M106.439 46.9096C105.047 47.7077 104.413 48.8333 104.413 50.5113C104.433 53.4173 106.705 55.1772 109.713 54.6247C110.818 54.3996 112.476 52.7624 112.476 51.8415C112.476 51.7392 112.025 51.6369 111.432 51.6369C110.572 51.6369 110.286 51.7392 109.897 52.1485C109.242 52.8647 107.953 52.8647 107.257 52.1485C106.234 51.1253 106.459 51.0229 109.611 51.0229H112.476V50.143C112.476 49.1402 111.923 47.8305 111.227 47.1961C110.04 46.1115 108.035 45.9887 106.439 46.9096ZM109.467 48.3831C109.918 48.6286 110.225 48.9561 110.225 49.2221C110.225 49.3244 109.488 49.3858 108.587 49.3858C107.687 49.3858 106.95 49.304 106.95 49.2016C106.95 48.8537 108.014 48.158 108.526 48.158C108.792 48.158 109.222 48.2603 109.467 48.3831Z" fill="white"/>
<path d="M120.252 46.6848C119.843 46.9099 119.372 47.3806 119.147 47.8308C118.819 48.5061 118.799 48.7108 119.004 49.4066C119.27 50.3274 119.945 50.8186 121.398 51.2279C122.401 51.5144 122.81 51.8827 122.626 52.3534C122.462 52.8036 121.541 52.7422 121.275 52.2511C121.091 51.9237 120.845 51.8418 119.945 51.8418C118.922 51.8418 118.819 51.8827 118.819 52.292C118.819 53.5608 120.272 54.7068 121.889 54.7068C123.69 54.7068 124.959 53.5608 124.959 51.9032C124.959 50.7163 124.365 50.0819 122.708 49.5089C121.684 49.161 121.377 48.9768 121.377 48.6698C121.377 48.1173 122.012 48.0559 122.442 48.5471C122.708 48.8745 123.035 48.9768 123.772 48.9768C124.631 48.9768 124.754 48.9154 124.754 48.5675C124.754 46.7667 122.155 45.7025 120.252 46.6848Z" fill="white"/>
<path d="M66.4312 50.511V54.5015H67.659H68.8869V51.8412C68.8869 48.8534 68.9278 48.7715 70.5035 48.7715H71.3426V47.646V46.5205H70.5445C70.0533 46.5205 69.5622 46.6842 69.2143 46.9502L68.6822 47.3595V46.9502C68.6822 46.5614 68.5594 46.5205 67.5567 46.5205H66.4312V50.511Z" fill="white"/>
<path d="M80.8374 46.8694C80.8988 47.074 81.4922 48.8544 82.1471 50.819L83.3545 54.4002L84.6847 54.4616L86.0353 54.523L87.3655 50.512L88.6956 46.5215H87.4269H86.1376L85.4623 48.9977C85.0735 50.3688 84.7256 51.3715 84.6642 51.2078C84.6233 51.0441 84.2958 49.9595 83.9479 48.7726L83.3135 46.6238L82.0243 46.5624C80.8578 46.501 80.735 46.542 80.8374 46.8694Z" fill="white"/>
<path d="M113.499 50.4905V54.5015H114.624H115.75V52.0868C115.75 49.1399 115.914 48.7715 117.305 48.7715H118.206V47.646V46.5205H117.387C116.835 46.5205 116.425 46.6637 116.159 46.9298C115.668 47.4209 115.586 47.4414 115.627 46.9707C115.648 46.6842 115.443 46.6023 114.584 46.5614L113.499 46.5V50.4905Z" fill="white"/>
<path d="M98.8266 57.2038C97.169 58.0019 98.4378 60.6213 100.116 59.8437C101.221 59.3525 101.2 57.6949 100.075 57.1833C99.4814 56.9173 99.42 56.9173 98.8266 57.2038Z" fill="white"/>
<path d="M72.7749 57.5512C71.0968 58.0628 69.5415 59.577 68.989 61.2551C68.2318 63.5471 68.989 66.4327 70.7489 67.8242C72.8772 69.5228 76.3766 69.4408 78.1979 67.6604C78.9142 66.9646 79.7123 65.5526 79.7327 64.9796C79.7327 64.8159 79.3439 64.734 78.4435 64.734C77.2361 64.734 77.1542 64.7545 76.9087 65.3275C76.3561 66.5963 74.3302 67.1489 72.9795 66.4122C70.3396 64.9592 70.708 60.6004 73.5525 59.8227C75.0259 59.4339 76.6836 60.2115 77.1338 61.5008C77.2361 61.8078 77.5021 61.869 78.5049 61.869C79.9578 61.869 80.0192 61.7053 79.2211 60.0887C78.6072 58.8608 77.6249 58.0422 76.2947 57.6534C75.3124 57.3464 73.6139 57.3056 72.7749 57.5512Z" fill="white"/>
<path d="M80.6948 57.7146C80.613 57.776 80.5516 60.3135 80.5516 63.3423V68.8267H81.7794H83.0073V66.2686C83.0073 63.8129 83.0278 63.6697 83.5189 63.199C84.1124 62.5851 84.6444 62.5441 85.2788 63.0762C85.7495 63.4446 85.77 63.6288 85.8314 66.1459L85.9132 68.8267H87.0183H88.1234V65.6956C88.1234 62.9739 88.0824 62.5032 87.7141 61.9302C86.916 60.6 85.0946 60.2317 83.744 61.1526L83.0073 61.6437V59.6178V57.5713H81.9227C81.3088 57.5713 80.7562 57.6327 80.6948 57.7146Z" fill="white"/>
<path d="M117.387 58.3901C117.387 58.4925 117.53 58.5948 117.694 58.5948C117.899 58.5948 118.001 58.8199 118.001 59.311C118.001 59.6999 118.103 60.0273 118.206 60.0273C118.328 60.0273 118.41 59.6999 118.41 59.311C118.41 58.9222 118.513 58.5948 118.615 58.5948C118.738 58.5948 118.819 58.4925 118.819 58.3901C118.819 58.2674 118.492 58.1855 118.103 58.1855C117.714 58.1855 117.387 58.2674 117.387 58.3901Z" fill="white"/>
<path d="M119.025 59.1072C119.025 60.0076 119.311 60.3555 119.495 59.6597C119.577 59.3323 119.598 59.3323 119.618 59.6597C119.618 59.8643 119.72 60.0281 119.843 60.0281C119.945 60.0281 120.13 59.8643 120.232 59.6597C120.437 59.3323 120.437 59.3323 120.457 59.6597C120.457 59.8643 120.559 60.0281 120.662 60.0281C120.784 60.0281 120.866 59.6188 120.866 59.1072C120.866 58.043 120.396 57.8179 120.15 58.7388L120.007 59.3118L119.72 58.7388C119.291 57.9202 119.025 58.0635 119.025 59.1072Z" fill="white"/>
<path d="M91.7451 60.846C88.8801 61.7464 87.9797 65.9211 90.1898 67.9471C91.8884 69.5024 95.1217 69.3387 96.5542 67.6401C98.2323 65.6346 97.6593 62.3399 95.4082 61.1734C94.5078 60.7232 92.6456 60.539 91.7451 60.846ZM94.4055 63.1994C95.0603 63.6496 95.3468 64.8365 94.9989 65.6346C94.6306 66.5351 94.1804 66.842 93.2186 66.842C91.7451 66.842 90.8856 65.4505 91.4791 64.018C91.6428 63.6496 91.9293 63.2403 92.1544 63.1175C92.707 62.8106 93.8939 62.8515 94.4055 63.1994Z" fill="white"/>
<path d="M104.188 60.8869C103.124 61.2758 102.51 61.8488 101.957 62.9334C100.464 65.9211 102.408 69.0112 105.764 69.0317C107.094 69.0317 107.872 68.7861 108.547 68.1517C109.038 67.7015 109.816 66.3509 109.816 65.9621C109.816 65.8393 109.304 65.7574 108.608 65.7574C107.565 65.7574 107.36 65.8188 107.094 66.2486C106.705 66.8216 105.764 67.0057 104.925 66.6579C104.168 66.3509 103.881 65.8188 103.881 64.7751C103.881 63.0971 105.928 62.2171 107.033 63.404C107.442 63.8338 107.687 63.9156 108.67 63.9156C109.877 63.9156 109.939 63.8543 109.591 62.9538C108.915 61.1325 106.316 60.1502 104.188 60.8869Z" fill="white"/>
<path d="M112.578 61.03C109.652 62.3397 109.263 66.6167 111.882 68.3562C113.069 69.1338 114.952 69.2566 116.262 68.6222C117.142 68.1925 118.206 66.8623 118.206 66.2074C118.206 65.8391 116.037 65.88 115.893 66.2483C115.709 66.719 114.543 67.2306 113.97 67.0874C113.438 66.9646 112.476 66.1256 112.476 65.7777C112.476 65.6344 113.581 65.5321 115.402 65.5116L118.308 65.4502L118.226 64.427C118.165 63.322 117.674 62.1964 117.039 61.6234C115.955 60.6411 113.99 60.3751 112.578 61.03ZM115.198 62.708C115.648 62.9536 115.955 63.281 115.955 63.5471C115.955 63.6494 115.218 63.7108 114.318 63.7108C113.417 63.7108 112.68 63.6289 112.68 63.5266C112.68 63.1787 113.745 62.4829 114.256 62.4829C114.522 62.4829 114.952 62.5852 115.198 62.708Z" fill="white"/>
<path d="M98.3554 64.8362V68.8268H99.4809H100.606V64.8362V60.8457H99.4809H98.3554V64.8362Z" fill="white"/>
<path d="M89.9654 71.5894C78.178 73.4517 69.624 83.9089 70.1765 95.8191C70.6676 106.215 77.7687 114.953 87.8167 117.532C92.9328 118.842 98.7037 118.31 103.41 116.099C110.368 112.846 115.259 106.522 116.692 98.9706C117.183 96.2898 116.999 91.5216 116.303 88.8203C114.461 81.8625 109.406 76.0097 102.776 73.1856C98.7446 71.4666 94.2834 70.9141 89.9654 71.5894ZM97.5781 74.4544C99.6655 74.9046 100.873 75.3139 102.756 76.2348C111.576 80.5937 116.057 90.3961 113.643 99.9324C111.76 107.259 106.071 112.927 98.6014 114.892C96.1047 115.567 92.237 115.629 89.5561 115.076C76.3567 112.354 69.1533 98.1725 74.8219 86.0781C77.6459 80.0616 83.0894 75.7437 89.5561 74.4544C91.4389 74.0656 95.7364 74.0861 97.5781 74.4544Z" fill="white"/>
<path d="M88.9823 84.8917C87.8363 85.1782 86.281 85.7921 85.1146 86.4265L83.15 87.4497H80.3259C78.7502 87.4497 77.4814 87.5111 77.4814 87.5725C77.4814 87.6544 78.0339 88.2888 78.7093 89.005L79.9371 90.3147L79.1799 91.297C78.2181 92.5454 77.7065 93.7118 77.4814 95.1852C76.9289 98.6028 78.9139 102.265 82.1473 103.78C83.1909 104.271 83.5593 104.332 85.5648 104.332C87.6521 104.332 87.8977 104.291 88.9414 103.739C89.5553 103.432 90.2511 102.982 90.4967 102.777C90.9264 102.368 90.9264 102.368 92.2975 103.759L93.6686 105.151L94.8965 103.78L96.1243 102.429L97.1476 103.125C98.6619 104.148 100.094 104.496 102.223 104.394C103.676 104.312 104.187 104.189 105.231 103.657C106.889 102.818 108.198 101.467 109.037 99.7692C109.651 98.5209 109.713 98.2549 109.713 96.454C109.692 94.162 109.242 92.75 108.035 91.3584C107.196 90.3557 107.155 90.5194 108.751 88.6981L109.856 87.4497H106.868C103.921 87.4497 103.88 87.4497 102.918 86.8358C101.691 86.0582 99.0712 85.035 97.3317 84.6666C95.1421 84.1959 91.2334 84.3187 88.9823 84.8917ZM96.3085 87.3474C97.1476 87.4907 98.2117 87.7567 98.6414 87.9L99.46 88.2069L98.4982 88.6776C96.3904 89.7417 94.61 91.7882 93.8323 94.0802C93.5663 94.8578 93.464 94.9806 93.464 94.5918C93.4231 92.9546 91.0083 89.9055 88.8391 88.739L87.6726 88.1251L89.2688 87.6953C91.9496 86.9791 93.8733 86.8972 96.3085 87.3474ZM87.0791 91.2561C88.4912 91.6654 90.0055 93.057 90.5171 94.3667C91.0697 95.8196 90.9674 97.4363 90.2511 98.8483C88.5935 102.081 84.1323 102.736 81.6561 100.096C80.5306 98.9097 80.2441 98.1526 80.2441 96.3517C80.2441 94.9397 80.3259 94.5918 80.7966 93.7527C81.5129 92.5454 82.6384 91.604 83.8253 91.2356C85.0532 90.8673 85.7899 90.8673 87.0791 91.2561ZM103.246 91.2561C105.436 91.8905 107.011 94.0188 106.991 96.3108C106.991 98.4391 106.05 100.076 104.249 101.079C103.307 101.59 102.939 101.672 101.629 101.672C99.8284 101.652 98.8461 101.242 97.7001 99.9739C95.1216 97.1089 96.3495 92.3816 99.9921 91.2356C101.22 90.8673 101.957 90.8673 103.246 91.2561Z" fill="white"/>
<path d="M84.7467 93.528C82.8844 94.0397 82.0044 96.3316 83.0686 97.9074C84.7057 100.383 88.3893 99.2785 88.3893 96.3112C88.3893 94.5103 86.4656 93.0574 84.7467 93.528Z" fill="white"/>
<path d="M100.402 93.753C98.3144 94.899 98.212 97.6822 100.238 98.91C102.162 100.076 104.576 98.6031 104.536 96.2906C104.515 94.2032 102.182 92.7707 100.402 93.753Z" fill="white"/>
<path d="M54.3567 77.8317C54.3567 77.9545 54.5408 78.9369 54.7864 80.0215C55.9324 85.2808 58.2039 89.6805 60.9462 91.9725C62.2763 93.0776 63.4633 93.753 63.6884 93.5279C63.9135 93.3028 63.3814 90.6219 62.7061 88.4732C61.294 84.0324 58.9202 80.6149 55.605 78.2615C54.6636 77.5862 54.3567 77.4838 54.3567 77.8317Z" fill="white"/>
<path d="M131.058 78.6503C127.62 81.2492 125.287 84.9941 124.059 89.9669C123.486 92.2589 123.302 93.5891 123.547 93.5891C124.161 93.5891 125.676 92.5046 127.108 91.0516C128.991 89.1484 130.198 87.061 131.385 83.623C132.388 80.7171 133.002 77.627 132.592 77.627C132.49 77.627 131.815 78.0977 131.058 78.6503Z" fill="white"/>
<path d="M63.7709 84.6664C63.7709 87.9202 64.3235 90.8261 65.3262 92.9135C66.0629 94.4687 68.1094 96.8835 68.4163 96.597C68.6824 96.3105 68.5391 91.5423 68.2117 89.9871C68.0275 89.189 67.7001 88.0225 67.4545 87.3881C66.9429 86.0375 65.3262 83.4999 64.4053 82.6609L63.7709 82.0469V84.6664Z" fill="white"/>
<path d="M122.114 83.3771C119.72 86.3444 118.84 88.9638 118.676 93.6297C118.533 97.1496 118.595 97.2109 120.088 95.6147C122.114 93.466 123.219 90.1098 123.445 85.3826C123.629 81.8832 123.486 81.6786 122.114 83.3771Z" fill="white"/>
<path d="M52.72 88.3905C52.72 89.0453 54.1321 92.954 54.9916 94.6525C56.8538 98.377 59.064 100.874 61.7243 102.266C63.5047 103.207 63.6479 103.207 63.4638 102.225C63.0749 100.096 61.3969 96.2078 59.8825 93.9977C58.5114 91.9922 56.3217 90.0072 53.9274 88.6156C52.8428 87.9812 52.72 87.9607 52.72 88.3905Z" fill="white"/>
<path d="M133.165 88.6778C131.036 89.8443 128.888 91.7475 127.517 93.6916C125.92 95.9427 124.365 99.4625 123.649 102.47C123.506 103.023 123.526 103.043 124.079 102.9C125.879 102.45 129.011 99.8513 130.586 97.457C132.101 95.1855 133.533 91.9112 134.474 88.5141C134.638 87.9207 134.495 87.9411 133.165 88.6778Z" fill="white"/>
<path d="M62.2562 95.2663C62.5018 96.4123 63.7091 99.0727 64.7119 100.71C66.4104 103.432 68.5796 105.417 70.6875 106.154C71.4856 106.44 71.547 106.44 71.547 106.113C71.5265 105.437 70.1759 102.204 69.2959 100.751C67.7406 98.1927 65.7965 96.3714 63.218 95.0412C62.0925 94.4887 62.072 94.4887 62.2562 95.2663Z" fill="white"/>
<path d="M123.526 95.2672C120.845 96.802 119.085 98.6029 117.448 101.529C116.65 102.941 115.504 106.031 115.668 106.297C115.832 106.563 118.001 105.519 119.188 104.598C121.111 103.105 123.158 100.035 124.447 96.7201C124.836 95.6765 125.163 94.776 125.163 94.7146C125.163 94.4691 124.57 94.6533 123.526 95.2672Z" fill="white"/>
<path d="M50.6737 98.4596C50.6737 98.7665 52.1062 101.017 53.2522 102.511C54.7665 104.496 57.6929 107.28 59.1868 108.16C59.8621 108.548 60.9467 109.08 61.5811 109.326C62.8499 109.776 64.9987 110.124 64.9987 109.858C64.9987 109.756 64.7122 109.183 64.3643 108.548C62.2974 104.885 58.9822 101.611 55.6874 99.9944C53.8661 99.0735 50.6737 98.1117 50.6737 98.4596Z" fill="white"/>
<path d="M134.721 98.7258C131.61 99.6058 129.032 101.14 126.678 103.514C125.123 105.069 123.404 107.382 122.585 108.978L122.094 109.96H122.79C124.509 109.96 127.456 108.692 129.686 106.973C131.712 105.417 134.557 102.041 135.989 99.4625C136.747 98.1528 136.747 98.1528 134.721 98.7258Z" fill="white"/>
<path d="M63.8527 104.967C65.5103 107.852 68.7027 111.208 70.8719 112.375C71.977 112.948 74.0848 113.644 74.7601 113.644C75.2513 113.644 75.0262 113.05 73.8188 111.249C71.1994 107.341 67.5567 104.639 64.1392 104.107L63.2797 103.964L63.8527 104.967Z" fill="white"/>
<path d="M122.504 104.169C119.25 105.335 117.408 106.481 115.587 108.425C113.847 110.267 111.842 113.296 112.149 113.582C112.353 113.787 114.891 113.071 116.016 112.498C117.531 111.761 119.025 110.554 120.396 108.998C121.542 107.689 123.731 104.537 123.731 104.189C123.731 104.005 122.995 103.985 122.504 104.169Z" fill="white"/>
<path d="M57.2635 110.779C55.5241 111.045 55.5036 110.983 58.3686 112.928C62.0113 115.404 65.6744 116.713 68.9077 116.734C70.8109 116.754 72.5708 116.447 72.5708 116.12C72.5708 116.038 71.8546 115.424 70.9951 114.79C69.051 113.337 65.8176 111.741 63.7507 111.209C61.9089 110.738 58.7984 110.533 57.2635 110.779Z" fill="white"/>
<path d="M125.061 110.861C123.137 111.188 121.909 111.577 119.904 112.539C118.226 113.337 115.668 114.995 114.952 115.752L114.481 116.284L115.34 116.509C116.568 116.836 119.924 116.795 121.357 116.407C124.12 115.67 127.905 113.787 130.361 111.884C131.282 111.188 131.323 111.106 130.955 110.963C130.095 110.656 126.698 110.595 125.061 110.861Z" fill="white"/>
<path d="M72.7757 114.769C73.185 115.26 75.8249 116.836 77.2165 117.409C78.8536 118.085 81.0024 118.453 82.2507 118.269C82.7827 118.187 83.2125 118.064 83.2125 117.982C83.2125 117.778 80.8591 116.222 79.5903 115.608C77.9941 114.81 76.3774 114.462 74.3515 114.462C72.7348 114.462 72.5506 114.503 72.7757 114.769Z" fill="white"/>
<path d="M109.038 115.056C107.359 115.649 104.29 117.409 104.147 117.88C104.024 118.207 105.661 118.433 106.909 118.269C108.137 118.085 109.651 117.614 110.941 116.98C112.189 116.366 114.522 114.831 114.522 114.626C114.522 114.524 113.662 114.462 112.639 114.462C111.084 114.462 110.429 114.565 109.038 115.056Z" fill="white"/>
<path d="M69.0916 117.88C67.3726 118.166 63.7709 119.599 63.7709 119.988C63.7709 120.069 64.4667 120.335 65.3058 120.581C69.7874 121.911 74.6784 122.382 77.5638 121.727C79.3033 121.359 80.5516 120.888 80.5516 120.642C80.5516 120.417 78.1573 119.23 76.7248 118.739C74.351 117.941 71.0357 117.552 69.0916 117.88Z" fill="white"/>
<path d="M114.01 117.88C111.8 118.187 108.035 119.538 106.868 120.438C106.5 120.725 106.541 120.766 107.584 121.175C110.183 122.137 113.396 122.28 117.305 121.625C119.986 121.154 123.321 120.233 123.321 119.947C123.321 119.599 120.395 118.392 118.778 118.064C117.305 117.757 115.422 117.696 114.01 117.88Z" fill="white"/>
<path d="M84.3374 119.353C83.0276 119.824 82.3932 120.151 82.3932 120.397C82.3932 120.704 84.6239 121.052 86.4861 121.052C88.2051 121.052 89.4125 120.745 90.538 120.029C91.2133 119.599 91.0906 119.435 89.965 119.19C88.3279 118.842 85.5243 118.924 84.3374 119.353Z" fill="white"/>
<path d="M97.0867 119.21C96.6569 119.312 96.309 119.497 96.309 119.599C96.309 119.885 97.5164 120.581 98.4578 120.827C100.013 121.277 104.904 120.95 104.904 120.418C104.904 120.315 104.331 119.988 103.635 119.66C102.51 119.149 102.08 119.067 100.095 119.026C98.8671 119.005 97.4959 119.087 97.0867 119.21Z" fill="white"/>
<path d="M92.6256 119.783C91.7865 120.622 92.4209 122.034 93.6078 122.034C94.3446 122.034 94.8766 121.461 94.8766 120.663C94.8766 119.497 93.4646 118.944 92.6256 119.783Z" fill="white"/>
<path d="M71.0562 125.083C70.5446 125.636 70.7083 126.557 71.3632 126.925C71.8543 127.191 71.9566 127.191 72.4478 126.884C73.1436 126.434 73.1845 125.472 72.5296 125.022C71.9157 124.592 71.486 124.613 71.0562 125.083Z" fill="white"/>
<path d="M106.684 125.063C106.193 125.595 106.254 126.455 106.786 126.823C107.4 127.253 107.686 127.232 108.178 126.741C108.73 126.189 108.71 125.411 108.137 125.022C107.543 124.592 107.093 124.613 106.684 125.063Z" fill="white"/>
<path d="M60.0266 125.022C59.9447 125.104 59.8833 125.534 59.8833 125.963V126.741H61.2135H62.5437V130.732V134.722H63.4645H64.3854V130.732V126.741H65.7361H67.0663L67.0049 125.861L66.9435 125.002L63.5464 124.94C61.6842 124.92 60.1084 124.961 60.0266 125.022Z" fill="white"/>
<path d="M96.1865 125.186C96.1251 125.349 96.1046 126.045 96.1456 126.741C96.166 127.416 96.1865 127.969 96.1865 127.969C96.166 127.969 95.7977 127.825 95.3679 127.641C93.1373 126.7 90.3746 128.624 90.3746 131.12C90.3746 132.696 91.6434 134.292 93.2601 134.722C93.9559 134.906 94.3038 134.886 95.1428 134.62C95.8591 134.374 96.2274 134.354 96.2683 134.497C96.3093 134.62 96.7595 134.722 97.2506 134.722H98.1511L98.1101 129.851L98.0487 125.001L97.1688 124.94C96.5548 124.899 96.2683 124.96 96.1865 125.186ZM95.4702 129.729C95.9818 130.158 96.1046 130.424 96.1046 131.038C96.1046 132.225 95.3884 132.982 94.2628 132.982C93.1373 132.982 92.4211 132.225 92.4211 131.038C92.4211 130.424 92.5438 130.158 93.0555 129.729C93.4033 129.422 93.9354 129.197 94.2628 129.197C94.5903 129.197 95.1223 129.422 95.4702 129.729Z" fill="white"/>
<path d="M76.4583 127.682C76.0081 127.887 75.7216 127.907 75.6807 127.764C75.6398 127.662 75.1895 127.559 74.6984 127.559H73.798V132.164V136.768H74.7189H75.6398V135.52C75.6398 134.415 75.6807 134.292 76.0081 134.415C78.7708 135.561 81.4721 133.862 81.4311 131.018C81.4107 129.483 80.5716 128.296 79.0778 127.662C78.1364 127.273 77.3792 127.273 76.4583 127.682ZM78.9345 129.79C79.2824 130.158 79.528 130.609 79.528 130.936C79.528 132.778 77.4611 133.719 76.2537 132.43C75.6398 131.775 75.5374 131.1 75.9263 130.302C76.4993 129.074 77.9522 128.828 78.9345 129.79Z" fill="white"/>
<path d="M84.6037 127.56C82.9461 128.051 81.841 129.749 82.0456 131.489C82.3321 133.822 84.5627 135.295 86.7729 134.64C87.3049 134.476 87.7552 134.436 87.837 134.538C87.8984 134.64 88.3486 134.722 88.8602 134.722H89.7607V131.141V127.56H88.7374C88.1849 127.56 87.7142 127.641 87.7142 127.744C87.7142 127.867 87.3868 127.805 86.998 127.641C86.2203 127.334 85.4632 127.294 84.6037 127.56ZM87.0798 129.729C87.5914 130.159 87.7142 130.425 87.7142 131.038C87.7142 132.225 86.998 132.983 85.8724 132.983C84.7469 132.983 84.0307 132.225 84.0307 131.038C84.0307 130.425 84.1534 130.159 84.6651 129.729C85.0129 129.422 85.545 129.197 85.8724 129.197C86.1999 129.197 86.7319 129.422 87.0798 129.729Z" fill="white"/>
<path d="M110.9 127.498C110.654 127.539 110.163 127.846 109.815 128.173C109.345 128.603 109.201 128.93 109.201 129.503C109.201 130.486 109.918 131.182 111.432 131.632C112.721 132.021 113.151 132.491 112.639 133.003C112.21 133.433 111.248 133.228 111.105 132.675C111.023 132.348 110.818 132.266 109.999 132.266C108.915 132.266 108.833 132.389 109.283 133.248C109.713 134.067 110.306 134.538 111.186 134.722C113.069 135.152 114.727 134.067 114.727 132.409C114.727 131.284 114.236 130.793 112.68 130.343C111.248 129.913 110.961 129.729 111.105 129.319C111.289 128.828 112.414 128.89 112.68 129.401C112.844 129.708 113.11 129.81 113.704 129.81C114.42 129.81 114.522 129.749 114.522 129.34C114.522 127.989 112.844 127.13 110.9 127.498Z" fill="white"/>
<path d="M117.592 127.682C116.119 128.317 115.3 129.504 115.279 131.018C115.239 134.784 119.925 136.216 122.033 133.085C122.994 131.673 122.831 129.995 121.582 128.603C120.518 127.437 118.984 127.068 117.592 127.682ZM120.273 129.79C120.928 130.466 121.03 131.161 120.58 132.041C120.273 132.614 119.495 133.085 118.82 133.085C118.267 133.085 117.244 132.164 117.101 131.509C116.63 129.729 118.943 128.481 120.273 129.79Z" fill="white"/>
<path d="M66.0223 131.141V134.722H66.9228H67.8232L67.9051 132.266C67.9664 129.524 68.0278 129.401 69.358 129.401H70.1152V128.48C70.1152 127.58 70.0947 127.56 69.4399 127.56C69.0715 127.56 68.5599 127.703 68.3143 127.887C67.9051 128.174 67.8641 128.174 67.8641 127.887C67.8641 127.641 67.639 127.56 66.9432 127.56H66.0223V131.141Z" fill="white"/>
<path d="M70.9331 131.141V134.722H71.854H72.7749V131.141V127.56H71.854H70.9331V131.141Z" fill="white"/>
<path d="M98.9488 128.521C99.1535 129.074 99.706 130.69 100.197 132.123L101.057 134.742L102.203 134.681L103.369 134.62L104.536 131.345C105.17 129.544 105.702 127.948 105.702 127.805C105.722 127.641 105.395 127.559 104.72 127.559H103.737L103.042 129.913C102.653 131.202 102.305 132.266 102.244 132.266C102.182 132.266 101.814 131.202 101.425 129.913L100.709 127.559H99.6446H98.56L98.9488 128.521Z" fill="white"/>
<path d="M106.541 131.141V134.722H107.462H108.383V131.141V127.56H107.462H106.541V131.141Z" fill="white"/>
<path d="M123.322 131.141V134.722H124.345H125.368V132.307C125.368 130.711 125.45 129.811 125.614 129.647C125.757 129.504 126.248 129.401 126.74 129.401H127.62V128.48V127.56H126.862C126.453 127.56 125.941 127.703 125.737 127.907C125.389 128.214 125.368 128.214 125.368 127.907C125.368 127.621 125.164 127.56 124.345 127.56H123.322V131.141Z" fill="white"/>
</g>
<defs>
<clipPath id="clip0_415_107">
<rect width="187" height="175" fill="white"/>
</clipPath>
</defs>
</svg>
