<svg width="20" height="20" viewBox="0 0 20 20" fill="none" xmlns="http://www.w3.org/2000/svg">
<g clip-path="url(#clip0_414_2)">
<path d="M4.61719 0.0431384C4.44141 0.0939196 4.19531 0.355639 4.14453 0.535326C4.12109 0.617358 4.10156 0.879076 4.10156 1.11736V1.55486L3.35156 1.57048C2.67578 1.58611 2.5625 1.60173 2.24609 1.69548C1.24609 1.99626 0.441406 2.79314 0.128906 3.80876L0.0195312 4.16033V10.7814V17.4025L0.128906 17.7541C0.441406 18.7658 1.23438 19.5588 2.24609 19.8713L2.59766 19.9807H10H17.4023L17.7539 19.8713C19.0469 19.469 19.9609 18.2932 19.9766 17.008C19.9805 16.6447 19.9727 16.6057 19.875 16.4572C19.7148 16.2111 19.5234 16.1135 19.2148 16.1135C19.0039 16.1135 18.9336 16.133 18.8008 16.219C18.5703 16.3713 18.4805 16.5393 18.4336 16.9143C18.3438 17.6564 17.9883 18.133 17.3672 18.3479C17.1797 18.4143 16.7969 18.4182 10 18.4182C3.20312 18.4182 2.82031 18.4143 2.63281 18.3479C2.19141 18.1955 1.84766 17.8674 1.67188 17.4338L1.58203 17.2072V10.801C1.58203 4.73845 1.58594 4.38298 1.65234 4.19548C1.80469 3.75408 2.13672 3.40642 2.56641 3.23845C2.76172 3.16423 2.88672 3.14861 3.44141 3.13298L4.09375 3.11736L4.10547 3.64079C4.12109 4.10564 4.12891 4.17595 4.21484 4.30876C4.26562 4.39079 4.37891 4.50408 4.46484 4.56267C4.59766 4.65251 4.66797 4.66814 4.88281 4.66814C5.09766 4.66814 5.16797 4.65251 5.30078 4.56267C5.38672 4.50408 5.5 4.39079 5.55078 4.30876C5.63672 4.17595 5.64453 4.10564 5.65625 3.64079L5.67188 3.12517H7.42188H9.17188L9.1875 3.6447C9.19922 4.13298 9.20703 4.17595 9.30469 4.32439C9.46484 4.57048 9.65625 4.66814 9.96484 4.66814C10.1758 4.66814 10.2461 4.64861 10.3789 4.56267C10.4648 4.50408 10.5781 4.39079 10.6289 4.30876C10.7148 4.17595 10.7227 4.10564 10.7344 3.64079L10.75 3.12517H12.5195H14.2891L14.3047 3.6447C14.3164 4.13298 14.3242 4.17595 14.4219 4.32439C14.582 4.57048 14.7734 4.66814 15.082 4.66814C15.293 4.66814 15.3633 4.64861 15.4961 4.56267C15.582 4.50408 15.6953 4.39079 15.7461 4.30876C15.832 4.17595 15.8398 4.10564 15.8555 3.64079L15.8672 3.11736L16.5391 3.13298C17.1055 3.14861 17.2383 3.16033 17.418 3.23455C17.8516 3.40642 18.1562 3.7072 18.3281 4.12908L18.418 4.35564L18.4375 8.79314L18.457 13.2268L18.5625 13.3869C18.7227 13.6291 18.9141 13.7307 19.2188 13.7307C19.5234 13.7307 19.7148 13.6291 19.875 13.3869L19.9805 13.2268V8.69548V4.16033L19.8711 3.80876C19.5586 2.79705 18.7539 1.99626 17.7539 1.69548C17.4375 1.60173 17.3242 1.58611 16.6328 1.57048L15.8672 1.55486L15.8516 1.03923C15.8398 0.554858 15.832 0.511889 15.7344 0.363451C15.5742 0.121264 15.3828 0.0197008 15.0781 0.0197008C14.7734 0.0197008 14.582 0.121264 14.4219 0.363451C14.3242 0.511889 14.3164 0.554858 14.3047 1.04314L14.2891 1.56267H12.5195H10.75L10.7344 1.04314C10.7227 0.582201 10.7148 0.511889 10.6289 0.379076C10.5781 0.297045 10.4648 0.183764 10.3789 0.12517C10.2461 0.0392321 10.1758 0.0197008 9.96484 0.0197008C9.65625 0.0197008 9.46484 0.117358 9.30469 0.363451C9.20703 0.511889 9.19922 0.554858 9.1875 1.04314L9.17188 1.56267H7.42188H5.67188L5.65625 1.04314C5.64453 0.582201 5.63672 0.511889 5.55078 0.379076C5.36719 0.0822009 4.96094 -0.0623304 4.61719 0.0431384Z" fill="#3CAA9F"/>
<path d="M4.61711 7.46524C4.42961 7.51993 4.19132 7.77774 4.13664 7.97696C4.04679 8.32462 4.18351 8.6879 4.48039 8.87149C4.70304 9.01212 5.08195 9.0043 5.3007 8.85977C5.54289 8.69962 5.64445 8.50821 5.64445 8.20352C5.64445 7.90274 5.54289 7.70743 5.31242 7.55508C5.14445 7.4418 4.82414 7.40274 4.61711 7.46524Z" fill="#3CAA9F"/>
<path d="M8.01554 7.46524C7.82804 7.51993 7.58976 7.77774 7.53507 7.97696C7.44523 8.32462 7.58195 8.6879 7.87882 8.87149C8.10148 9.01212 8.48039 9.0043 8.69914 8.85977C8.94132 8.69962 9.04289 8.50821 9.04289 8.20352C9.04289 7.90274 8.94132 7.70743 8.71086 7.55508C8.54289 7.4418 8.22257 7.40274 8.01554 7.46524Z" fill="#3CAA9F"/>
<path d="M11.414 7.46524C11.2265 7.51993 10.9882 7.77774 10.9335 7.97696C10.8437 8.32462 10.9804 8.6879 11.2773 8.87149C11.4999 9.01212 11.8788 9.0043 12.0976 8.85977C12.3398 8.69962 12.4413 8.50821 12.4413 8.20352C12.4413 7.90274 12.3398 7.70743 12.1093 7.55508C11.9413 7.4418 11.621 7.40274 11.414 7.46524Z" fill="#3CAA9F"/>
<path d="M14.8124 7.46524C14.6249 7.51993 14.3866 7.77774 14.3319 7.97696C14.2421 8.32462 14.3788 8.6879 14.6757 8.87149C14.8984 9.01212 15.2773 9.0043 15.496 8.85977C15.7382 8.69962 15.8398 8.50821 15.8398 8.20352C15.8398 7.90274 15.7382 7.70743 15.5077 7.55508C15.3398 7.4418 15.0194 7.40274 14.8124 7.46524Z" fill="#3CAA9F"/>
<path d="M4.61711 10.8637C4.42961 10.9184 4.19132 11.1762 4.13664 11.3754C4.04679 11.7231 4.18351 12.0863 4.48039 12.2699C4.70304 12.4106 5.08195 12.4027 5.3007 12.2582C5.54289 12.0981 5.64445 11.9066 5.64445 11.602C5.64445 11.3012 5.54289 11.1059 5.31242 10.9535C5.14445 10.8402 4.82414 10.8012 4.61711 10.8637Z" fill="#3CAA9F"/>
<path d="M8.01554 10.8637C7.82804 10.9184 7.58976 11.1762 7.53507 11.3754C7.44523 11.7231 7.58195 12.0863 7.87882 12.2699C8.10148 12.4106 8.48039 12.4027 8.69914 12.2582C8.94132 12.0981 9.04289 11.9066 9.04289 11.602C9.04289 11.3012 8.94132 11.1059 8.71086 10.9535C8.54289 10.8402 8.22257 10.8012 8.01554 10.8637Z" fill="#3CAA9F"/>
<path d="M13.1248 10.8867C12.9842 10.9805 12.9842 10.9805 12.7889 11.6016C12.6482 12.0469 12.5857 12.1914 12.4959 12.2734L12.3826 12.3828H11.699H11.0154L10.8982 12.4883C10.7342 12.6367 10.699 12.8672 10.8201 13.0156C10.8631 13.0742 11.117 13.2812 11.3826 13.4766C11.8318 13.8047 11.9529 13.9375 11.9529 14.0898C11.9529 14.125 11.8631 14.4258 11.7537 14.7578C11.617 15.1836 11.5662 15.3906 11.5818 15.4727C11.6131 15.6094 11.8084 15.7812 11.9373 15.7812C12.0701 15.7812 12.1326 15.7422 12.6326 15.3789C13.1678 14.9883 13.2732 14.9414 13.4529 15.0156C13.5271 15.0469 13.7771 15.2109 14.0076 15.3789C14.5076 15.7422 14.5701 15.7812 14.7029 15.7812C14.8318 15.7812 15.0271 15.6094 15.0584 15.4727C15.074 15.3906 15.0232 15.1836 14.8865 14.7578C14.7771 14.4258 14.6873 14.125 14.6873 14.0898C14.6873 13.9375 14.8084 13.8047 15.2576 13.4766C15.5232 13.2812 15.7732 13.0781 15.8201 13.0195C15.9451 12.8633 15.9256 12.6758 15.7654 12.5156L15.6326 12.3828H14.9451H14.2576L14.1443 12.2734C14.0545 12.1914 13.992 12.0469 13.8514 11.6016C13.7537 11.2891 13.66 11.0156 13.6443 10.9922C13.5818 10.9102 13.4178 10.8203 13.3201 10.8203C13.2654 10.8203 13.1756 10.8516 13.1248 10.8867Z" fill="#3CAA9F"/>
<path d="M4.61711 14.2621C4.42961 14.3168 4.19132 14.5746 4.13664 14.7738C4.04679 15.1215 4.18351 15.4848 4.48039 15.6684C4.70304 15.809 5.08195 15.8012 5.3007 15.6566C5.54289 15.4965 5.64445 15.3051 5.64445 15.0004C5.64445 14.6996 5.54289 14.5043 5.31242 14.352C5.14445 14.2387 4.82414 14.1996 4.61711 14.2621Z" fill="#3CAA9F"/>
<path d="M8.01554 14.2621C7.82804 14.3168 7.58976 14.5746 7.53507 14.7738C7.44523 15.1215 7.58195 15.4848 7.87882 15.6684C8.10148 15.809 8.48039 15.8012 8.69914 15.6566C8.94132 15.4965 9.04289 15.3051 9.04289 15.0004C9.04289 14.6996 8.94132 14.5043 8.71086 14.352C8.54289 14.2387 8.22257 14.1996 8.01554 14.2621Z" fill="#3CAA9F"/>
</g>
<defs>
<clipPath id="clip0_414_2">
<rect width="20" height="20" fill="white"/>
</clipPath>
</defs>
</svg>
