<svg width="52" height="67" viewBox="0 0 52 67" fill="none" xmlns="http://www.w3.org/2000/svg">
<g clip-path="url(#clip0_412_4)">
<path fill-rule="evenodd" clip-rule="evenodd" d="M51.965 1.2237C41.1595 22.8348 28.2433 29.733 20.6083 31.1836C21.4791 31.513 22.3958 31.9621 23.3508 32.5327C25.6371 33.8988 28.1736 35.9791 30.875 38.8472C36.2778 44.5837 42.3721 53.5063 48.4691 66.2848L47.5665 66.7154C41.5 54.0005 35.4592 45.1731 30.1471 39.5329C27.491 36.7127 25.025 34.698 22.8379 33.3911C20.6569 32.088 18.7824 31.506 17.2877 31.5001H0V30.5H17.2646L17.2896 30.5001H17.5C23.7603 30.5001 38.7302 25.4574 51.0706 0.776489L51.965 1.2237Z" fill="#EEEEEE"/>
</g>
<defs>
<clipPath id="clip0_412_4">
<rect width="52" height="67" fill="white"/>
</clipPath>
</defs>
</svg>
