<svg width="45" height="68" viewBox="0 0 45 68" fill="none" xmlns="http://www.w3.org/2000/svg">
<path fill-rule="evenodd" clip-rule="evenodd" d="M45 29.5H36.753L36.7328 29.5H36.5176C30.2211 29.5 13.269 24.92 0.947205 0.276367L0.0527954 0.723581C10.9692 22.5564 25.563 28.978 33.5335 30.2435C32.5241 30.6598 31.4407 31.2455 30.2997 31.987C27.8058 33.6075 24.9788 36.0102 21.9597 39.1536C15.9202 45.4418 9.07751 54.7302 2.56036 66.7618L3.43964 67.2381C9.92249 55.2698 16.7148 46.0581 22.681 39.8463C25.6647 36.7398 28.4332 34.3924 30.8446 32.8255C33.2607 31.2555 35.2616 30.5062 36.7347 30.5H45V29.5Z" fill="#EEEEEE"/>
</svg>
