<svg width="14" height="20" viewBox="0 0 14 20" fill="none" xmlns="http://www.w3.org/2000/svg">
<g clip-path="url(#clip0_414_13)">
<path d="M3.26715 19.1312C3.09014 19.1312 2.94531 18.979 2.94531 18.7929V11.6488C2.94531 11.4628 3.09014 11.3105 3.26715 11.3105C3.44416 11.3105 3.58899 11.4628 3.58899 11.6488V18.7985C3.58899 18.9846 3.44416 19.1312 3.26715 19.1312Z" fill="#3CAA9F"/>
<path d="M10.7222 19.1312C10.5452 19.1312 10.4004 18.979 10.4004 18.7929V11.6488C10.4004 11.4628 10.5452 11.3105 10.7222 11.3105C10.8992 11.3105 11.0441 11.4628 11.0441 11.6488V18.7985C11.0441 18.9846 10.8992 19.1312 10.7222 19.1312Z" fill="#3CAA9F"/>
<path d="M6.97854 20C5.84138 20 4.73103 19.7688 3.68506 19.3065H3.67969C3.51341 19.2332 3.34713 19.1711 3.18084 19.1204C2.95019 19.0527 2.71418 19.002 2.4728 18.9738L0.997701 18.7934C0.429119 18.7257 0 18.2182 0 17.6149V16.0474C0 13.9329 1.27126 12.0383 3.15939 11.3223C3.32567 11.2602 3.50268 11.2038 3.67969 11.1587C4.03372 11.0685 4.40383 11.0234 4.77395 11.0234H5.18161C5.35862 11.0234 5.50345 11.1756 5.50345 11.3617C5.50345 11.5478 5.35862 11.7 5.18161 11.7H4.77395C4.45211 11.7 4.13563 11.7395 3.82452 11.8128C3.66897 11.8523 3.51877 11.8974 3.37931 11.9538C1.7433 12.5684 0.643678 14.2148 0.643678 16.0417V17.6093C0.643678 17.8686 0.826054 18.0829 1.0728 18.1111L2.54789 18.2915C2.82146 18.3253 3.09502 18.3817 3.35785 18.4607C3.55096 18.5171 3.7387 18.5847 3.92644 18.6693H3.9318C4.90805 19.0978 5.93257 19.3121 6.98391 19.3121C8.04061 19.3121 9.0705 19.0922 10.0467 18.6637C10.2398 18.5791 10.4383 18.5058 10.6421 18.4494C10.8782 18.3817 11.1249 18.331 11.3716 18.3028L12.9272 18.1111C13.1686 18.0829 13.3563 17.863 13.3563 17.6093V16.0417C13.3563 14.0175 12.0529 12.2808 10.1808 11.8184C9.86973 11.7395 9.54789 11.7 9.22605 11.7H8.81839C8.64138 11.7 8.49655 11.5478 8.49655 11.3617C8.49655 11.1756 8.64138 11.0234 8.81839 11.0234H9.22605C9.60153 11.0234 9.97165 11.0685 10.331 11.1587C11.3609 11.4125 12.2889 12.0327 12.954 12.9067C13.6299 13.7919 14 14.9027 14 16.0417V17.6093C14 18.2126 13.5709 18.7144 13.0023 18.7877L11.4467 18.9794C11.2322 19.0076 11.023 19.0471 10.8138 19.1091C10.6368 19.1599 10.4651 19.2219 10.2989 19.2952C9.23678 19.7632 8.12107 20 6.97854 20Z" fill="#3CAA9F"/>
<path d="M6.99472 13.6059C6.91426 13.6059 6.82844 13.5721 6.76944 13.5101L4.95104 11.6155C4.89204 11.5535 4.85449 11.4633 4.85449 11.3731V10.2905C4.85449 10.1044 4.99932 9.95215 5.17633 9.95215C5.35334 9.95215 5.49817 10.1044 5.49817 10.2905V11.2321L6.99472 12.7883L8.49128 11.2321V10.2905C8.49128 10.1044 8.6361 9.95215 8.81312 9.95215C8.99013 9.95215 9.13496 10.1044 9.13496 10.2905V11.3731C9.13496 11.4633 9.10277 11.5479 9.0384 11.6155L7.22001 13.5101C7.16101 13.5721 7.07518 13.6059 6.99472 13.6059Z" fill="#3CAA9F"/>
<path d="M5.88413 15.1119C5.87877 15.1119 5.87877 15.1119 5.8734 15.1119C5.77149 15.1063 5.67494 15.0555 5.61593 14.9653L3.48107 11.6893C3.37915 11.5371 3.4167 11.3228 3.56689 11.2213C3.71172 11.1142 3.91555 11.1537 4.0121 11.3115L5.90022 14.2041L6.74237 13.0651C6.84965 12.9185 7.05348 12.8903 7.19294 13.0031C7.3324 13.1159 7.35922 13.3301 7.25195 13.4767L6.13624 14.9822C6.07723 15.0668 5.98068 15.1119 5.88413 15.1119Z" fill="#3CAA9F"/>
<path d="M8.11592 15.1117C8.01401 15.1117 7.92282 15.0609 7.86381 14.982L6.74811 13.4708C6.64083 13.3242 6.66228 13.11 6.80711 12.9972C6.94657 12.8844 7.15041 12.907 7.25768 13.0592L8.09983 14.1982L9.98259 11.3056C10.0845 11.1534 10.283 11.1139 10.4278 11.2154C10.5726 11.3225 10.6102 11.5312 10.5136 11.6834L8.38412 14.9651C8.32512 15.0553 8.22856 15.1117 8.12665 15.1117C8.12665 15.1117 8.12128 15.1117 8.11592 15.1117Z" fill="#3CAA9F"/>
<path d="M6.99498 11.2209C6.27621 11.2209 5.58425 10.9953 4.99422 10.5668C4.8333 10.4484 4.68847 10.3243 4.549 10.1834C3.88923 9.51238 3.50839 8.61585 3.47621 7.65166L3.37429 4.50534C3.36893 4.37001 3.37429 4.23469 3.37966 4.09372C3.39038 3.90765 3.54594 3.76669 3.72295 3.7836C3.89996 3.79488 4.03406 3.9584 4.01797 4.14447C4.01261 4.25724 4.00724 4.37001 4.01261 4.48278L4.11452 7.6291C4.14134 8.4185 4.45245 9.15152 4.98885 9.69846C5.1015 9.81123 5.22487 9.91836 5.3536 10.0142C5.83636 10.3638 6.39958 10.5499 6.98425 10.5499C7.57429 10.5499 8.13751 10.3638 8.62027 10.0142C9.37659 9.46728 9.82717 8.59894 9.85935 7.6291L9.96126 4.48278C9.96126 4.40384 9.96126 4.33618 9.96126 4.26288C9.9559 4.07681 10.09 3.91893 10.267 3.91329C10.444 3.90765 10.5942 4.04861 10.5996 4.23469C10.6049 4.3249 10.6049 4.40948 10.5996 4.50534L10.4977 7.65166C10.4601 8.8132 9.89153 9.90708 8.97966 10.5668C8.40571 10.9953 7.71376 11.2209 6.99498 11.2209Z" fill="#3CAA9F"/>
<path d="M6.25979 8.62741C6.22761 8.62741 6.19542 8.62741 6.16324 8.62177C5.41765 8.55975 5.06899 8.00717 5.03144 7.9395C4.93489 7.78162 4.98317 7.573 5.13336 7.4715C5.28355 7.37001 5.48202 7.42076 5.57857 7.57864C5.58393 7.58991 5.78776 7.90567 6.21688 7.94514C6.51726 7.9677 6.79619 7.74779 6.80155 7.74779C6.94102 7.63502 7.14485 7.66321 7.25213 7.80982C7.35941 7.95642 7.33259 8.17068 7.19312 8.28346C7.14485 8.32293 6.75864 8.62741 6.25979 8.62741Z" fill="#3CAA9F"/>
<path d="M7.72954 8.62655C7.23606 8.62655 6.84448 8.32207 6.80157 8.28824C6.66211 8.17547 6.63529 7.9612 6.74257 7.8146C6.84985 7.668 7.05368 7.63981 7.19314 7.75258C7.20387 7.75822 7.4828 7.97248 7.77782 7.94993C8.20694 7.91609 8.40541 7.60034 8.41613 7.58342C8.51269 7.42554 8.71115 7.38043 8.86135 7.48193C9.01154 7.58342 9.05445 7.78641 8.96326 7.94429C8.92571 8.00631 8.57169 8.56453 7.83146 8.62655C7.79391 8.62655 7.76173 8.62655 7.72954 8.62655Z" fill="#3CAA9F"/>
<path d="M6.99957 10.4035C6.82256 10.4035 6.67773 10.2513 6.67773 10.0652V9.57465C6.67773 9.38857 6.82256 9.23633 6.99957 9.23633C7.17658 9.23633 7.32141 9.38857 7.32141 9.57465V10.0652C7.32141 10.2513 7.17658 10.4035 6.99957 10.4035Z" fill="#3CAA9F"/>
<path d="M6.99469 15.6304C6.81768 15.6304 6.67285 15.4782 6.67285 15.2921V15.2865C6.67285 15.1004 6.81768 14.9482 6.99469 14.9482C7.1717 14.9482 7.31652 15.1004 7.31652 15.2865V15.2921C7.31652 15.4782 7.1717 15.6304 6.99469 15.6304Z" fill="#3CAA9F"/>
<path d="M6.99469 18.6188C6.81768 18.6188 6.67285 18.4665 6.67285 18.2805V18.2748C6.67285 18.0888 6.81768 17.9365 6.99469 17.9365C7.1717 17.9365 7.31652 18.0888 7.31652 18.2748V18.2805C7.31652 18.4665 7.1717 18.6188 6.99469 18.6188Z" fill="#3CAA9F"/>
<path d="M6.99469 17.1637C6.81768 17.1637 6.67285 17.0114 6.67285 16.8253V16.8197C6.67285 16.6336 6.81768 16.4814 6.99469 16.4814C7.1717 16.4814 7.31652 16.6336 7.31652 16.8197V16.8253C7.31652 17.0114 7.1717 17.1637 6.99469 17.1637Z" fill="#3CAA9F"/>
<path d="M10.2827 4.6631C10.2023 4.6631 10.1218 4.62926 10.0575 4.56724L8.63063 3.1294C7.54711 3.36059 6.41531 3.36059 5.33178 3.12377L3.8996 4.37553C3.81378 4.45447 3.69041 4.47702 3.58313 4.43191C3.47585 4.39244 3.39539 4.29095 3.37929 4.17254L3.28274 3.59741C3.28274 3.58613 3.28274 3.58049 3.27738 3.56921C3.20765 2.75162 3.51339 1.86637 4.08734 1.20665C4.56473 0.659712 5.46052 0 6.98389 0C8.51799 0 9.40841 0.648435 9.88581 1.19538C10.4598 1.84945 10.7655 2.73471 10.7011 3.56357C10.7011 3.56921 10.7011 3.57485 10.7011 3.58049L10.5992 4.35861C10.5831 4.48266 10.5027 4.58979 10.3847 4.6349C10.3578 4.65746 10.3203 4.6631 10.2827 4.6631ZM8.73791 2.42458C8.81837 2.42458 8.89883 2.45842 8.9632 2.52044L10.0575 3.61996L10.0735 3.50719C10.1218 2.87003 9.88044 2.17649 9.4245 1.66338C9.03293 1.21793 8.29807 0.687905 6.99462 0.687905C5.7019 0.687905 4.96703 1.22357 4.57546 1.67465C4.12489 2.18776 3.88887 2.86439 3.92642 3.49027L5.05286 2.50916C5.12795 2.4415 5.22987 2.41895 5.33178 2.4415C6.42604 2.70087 7.57929 2.70087 8.67355 2.4415C8.68964 2.43022 8.71109 2.42458 8.73791 2.42458Z" fill="#3CAA9F"/>
</g>
<defs>
<clipPath id="clip0_414_13">
<rect width="14" height="20" fill="white"/>
</clipPath>
</defs>
</svg>
