<svg width="106" height="106" viewBox="0 0 106 106" fill="none" xmlns="http://www.w3.org/2000/svg">
<mask id="path-1-inside-1_2389_11846" fill="white">
<path fill-rule="evenodd" clip-rule="evenodd" d="M53 0C82.2711 0 106 23.7289 106 53C106 82.2711 82.2711 106 53 106C23.7289 106 0 82.2711 0 53C0 23.7289 23.7289 0 53 0Z"/>
</mask>
<path d="M107 53C107 23.1766 82.8234 -1 53 -1V1C81.7188 1 105 24.2812 105 53H107ZM53 107C82.8234 107 107 82.8234 107 53H105C105 81.7188 81.7188 105 53 105V107ZM-1 53C-1 82.8234 23.1766 107 53 107V105C24.2812 105 1 81.7188 1 53H-1ZM53 -1C23.1766 -1 -1 23.1766 -1 53H1C1 24.2812 24.2812 1 53 1V-1Z" fill="#3CAA9F" mask="url(#path-1-inside-1_2389_11846)"/>
<path d="M42.6484 13.9135C42.6484 13.9135 42.6787 13.7828 42.7794 13.5917C42.8701 13.4006 43.0415 13.109 43.3035 12.7873C43.5655 12.4655 43.9283 12.1336 44.3717 11.8119C44.5934 11.661 44.8353 11.5605 45.0973 11.3996C45.3493 11.299 45.6415 11.1683 45.9237 11.108C46.4981 10.937 47.1129 10.8566 47.7478 10.8666C48.3827 10.8465 49.0277 10.927 49.6726 11.0577C50.3075 11.2085 50.9928 11.3594 51.6177 11.6108C52.2526 11.8521 52.8874 12.0834 53.5223 12.3247C54.1572 12.5459 54.7518 12.747 55.4069 12.8275C56.0519 12.9582 56.7069 13.0185 57.3317 12.9984C57.9666 12.9783 58.6015 12.8878 59.1861 12.7169C59.7907 12.5459 60.3551 12.3146 60.859 12.013C61.8567 11.4298 62.673 10.6756 63.1668 10.0622C63.6807 9.46892 63.9428 9.05664 63.9428 9.05664C63.9428 9.05664 63.7513 9.50914 63.3179 10.213C62.8644 10.8868 62.1288 11.8722 61.0504 12.6766C60.5163 13.0889 59.9016 13.4208 59.2364 13.6822C58.5814 13.9336 57.8759 14.1045 57.1705 14.195C56.4651 14.2151 55.7395 14.2554 55.0441 14.1347C54.3487 14.0442 53.6433 13.833 52.9781 13.6118C52.3533 13.3604 51.7184 13.109 51.1037 12.8476C50.499 12.5962 49.8742 12.4051 49.2897 12.2141C48.685 12.0633 48.1005 11.9124 47.5261 11.8521C46.9516 11.8119 46.4074 11.7918 45.8834 11.8521C45.3594 11.9325 44.8857 12.0633 44.4524 12.2543C44.0392 12.4454 43.6864 12.7068 43.4143 12.9582C42.8601 13.471 42.6484 13.9135 42.6484 13.9135Z" fill="url(#paint0_linear_2389_11846)"/>
<path d="M26.8764 22.2803C26.8764 22.2803 26.8562 22.1697 26.8562 21.9384C26.8562 21.7272 26.8764 21.3854 26.9872 21.0032C27.088 20.601 27.2593 20.1083 27.5213 19.6457C27.6624 19.4346 27.8337 19.2234 28.0051 18.962C28.1965 18.7709 28.388 18.5396 28.6198 18.3486C29.0632 17.9363 29.5772 17.6045 30.1516 17.343C30.7261 17.0715 31.3509 16.8503 31.9858 16.6894C32.6308 16.5587 33.2959 16.3877 33.9711 16.3676C34.6564 16.3073 35.3114 16.2369 35.9867 16.1967C36.6719 16.1162 37.2968 16.0459 37.9115 15.8347C38.5464 15.6637 39.1612 15.4325 39.7255 15.1509C40.2899 14.8593 40.8341 14.5174 41.2775 14.1051C41.7411 13.7029 42.1543 13.2605 42.4767 12.7376C43.1519 11.7823 43.545 10.7667 43.7264 10.0025C43.9279 9.24829 44.0086 8.76562 44.0086 8.76562C44.0086 8.76562 44.0287 9.24829 43.9179 10.0628C43.8171 10.8873 43.5752 12.084 42.9403 13.2605C42.638 13.8739 42.2248 14.4269 41.7411 14.9599C41.2674 15.4727 40.693 15.9352 40.0984 16.3073C39.4836 16.619 38.8286 16.9609 38.1433 17.152C37.4882 17.3631 36.7526 17.4939 36.0673 17.5743C35.4021 17.6145 34.7169 17.6547 34.0517 17.705C33.3866 17.7251 32.7517 17.8056 32.1269 17.8961C31.5222 18.0268 30.9175 18.1274 30.3935 18.3385C29.8493 18.5396 29.3454 18.7709 28.902 19.0424C28.4787 19.324 28.0857 19.6659 27.7934 20.0279C27.5012 20.3697 27.2895 20.7519 27.1585 21.0937C26.8764 21.7876 26.8764 22.2803 26.8764 22.2803Z" fill="url(#paint1_linear_2389_11846)"/>
<path d="M16.2539 36.6294C16.2539 36.6294 16.1834 36.5187 16.0826 36.3076C15.9919 36.1165 15.8508 35.7947 15.7904 35.4126C15.6997 34.9903 15.6493 34.4976 15.6997 33.9646C15.7299 33.6931 15.7904 33.4317 15.8508 33.13C15.9113 32.8786 16.002 32.587 16.1128 32.3055C16.3446 31.7524 16.6671 31.2195 17.0803 30.7469C17.4834 30.234 17.9369 29.7916 18.4509 29.3692C18.9749 28.9871 19.509 28.5346 20.0936 28.2129C20.6982 27.881 21.2626 27.5391 21.8471 27.1972C22.4316 26.8352 22.9657 26.4934 23.4394 26.0509C23.9533 25.6185 24.3968 25.156 24.7797 24.6632C25.1627 24.1504 25.5053 23.6074 25.7472 23.0443C25.979 22.4711 26.1604 21.898 26.2309 21.3047C26.4123 20.1583 26.3216 19.0723 26.1503 18.3081C26.0193 17.5338 25.8681 17.0713 25.8681 17.0713C25.8681 17.0713 26.0999 17.4936 26.3619 18.288C26.6139 19.0522 26.9263 20.2488 26.8457 21.5862C26.8457 22.26 26.7046 22.9437 26.503 23.6275C26.2914 24.2811 25.979 24.9448 25.596 25.5381C25.1828 26.0911 24.7394 26.6844 24.2053 27.157C23.7014 27.6196 23.0967 28.052 22.5223 28.414C21.9277 28.7559 21.323 29.0877 20.7486 29.3894C20.154 29.7111 19.6199 30.053 19.1059 30.415C18.6121 30.777 18.1183 31.139 17.7253 31.5412C17.3121 31.9435 16.9594 32.3759 16.6772 32.8183C16.4152 33.2708 16.2035 33.7334 16.1028 34.1758C15.9919 34.6283 15.9617 35.0506 15.9919 35.4126C16.0322 36.1869 16.2539 36.6294 16.2539 36.6294Z" fill="url(#paint2_linear_2389_11846)"/>
<path d="M12.8482 54.1257C12.8482 54.1257 12.7374 54.0653 12.556 53.9044C12.3947 53.7838 12.1327 53.5525 11.9211 53.2307C11.649 52.8888 11.387 52.4665 11.1955 51.9537C11.1048 51.7023 11.0645 51.4509 10.9839 51.1693C10.9234 50.8878 10.8831 50.5962 10.873 50.2945C10.8428 49.7012 10.8932 49.0778 11.0645 48.4644C11.2156 47.8409 11.4273 47.2275 11.6994 46.6343C12.0017 46.0611 12.294 45.4175 12.6971 44.8846C13.0901 44.3315 13.4529 43.7584 13.8359 43.2053C14.1987 42.6321 14.5413 42.0992 14.7731 41.5059C15.0553 40.8825 15.2468 40.2691 15.3878 39.6557C15.5189 39.0323 15.5894 38.3988 15.5592 37.7954C15.5189 37.182 15.4382 36.5686 15.2468 36.0055C14.9142 34.9095 14.3599 33.9441 13.8762 33.3308C13.4227 32.6973 13.0901 32.3252 13.0901 32.3252C13.0901 32.3252 13.4831 32.6269 14.0475 33.2201C14.6219 33.7933 15.408 34.7486 15.922 35.9854C16.2243 36.6089 16.3755 37.2625 16.5065 37.9865C16.5871 38.6703 16.5871 39.3943 16.5065 40.0981C16.3755 40.7719 16.2142 41.5059 15.9421 42.1595C15.7003 42.8031 15.3173 43.4366 14.9646 44.0098C14.5715 44.5729 14.1785 45.146 13.7956 45.679C13.3924 46.2119 13.0498 46.7348 12.7374 47.2979C12.4552 47.8208 12.1529 48.3538 11.9816 48.9169C11.7901 49.4398 11.6591 50.0029 11.5885 50.5057C11.5482 51.0185 11.5583 51.5313 11.6591 51.9738C11.7498 52.4162 11.9009 52.8184 12.0823 53.1402C12.4653 53.8039 12.8482 54.1257 12.8482 54.1257Z" fill="url(#paint3_linear_2389_11846)"/>
<path d="M17.3224 71.3906C17.3224 71.3906 17.1914 71.3705 16.9697 71.3303C16.7682 71.27 16.4255 71.1694 16.103 70.9884C15.71 70.7973 15.2867 70.5258 14.9038 70.1337C14.7123 69.9326 14.5611 69.7415 14.3596 69.5203C14.1883 69.289 14.027 69.0477 13.8759 68.7762C13.6038 68.2432 13.3921 67.66 13.2712 67.0567C13.1301 66.4131 13.0696 65.7796 13.0596 65.1159C13.0797 64.4623 13.0797 63.7685 13.2107 63.1048C13.3317 62.4311 13.4022 61.7674 13.503 61.1138C13.5937 60.4301 13.6642 59.8167 13.6239 59.153C13.6038 58.4994 13.5231 57.8558 13.372 57.2424C13.2208 56.619 13.0092 56.0257 12.727 55.4727C12.4247 54.9397 12.0921 54.4269 11.6789 54.0046C10.8928 53.1498 9.98583 52.5063 9.28039 52.1644C8.5951 51.7823 8.1416 51.6113 8.1416 51.6113C8.1416 51.6113 8.63541 51.7018 9.40132 51.9934C10.1672 52.275 11.2859 52.8079 12.2836 53.6828C12.8278 54.1252 13.241 54.6582 13.6743 55.2615C14.0472 55.8347 14.3596 56.4883 14.5914 57.1519C14.7627 57.8357 14.934 58.5597 14.9542 59.2636C15.0146 59.9373 14.9542 60.6915 14.8937 61.3451C14.7627 62.0188 14.6518 62.7127 14.5309 63.3361C14.3898 63.9998 14.3294 64.6433 14.279 65.2567C14.2588 65.8701 14.2185 66.4634 14.2991 67.0466C14.3495 67.6198 14.4805 68.1427 14.6317 68.6555C14.8131 69.1281 15.0549 69.6007 15.3371 69.9527C15.5991 70.3247 15.9216 70.6163 16.2139 70.8376C16.8488 71.27 17.3224 71.3906 17.3224 71.3906Z" fill="url(#paint4_linear_2389_11846)"/>
<path d="M28.8115 85.0377C28.8115 85.0377 28.6906 85.0779 28.4688 85.1383C28.2572 85.1584 27.9146 85.2489 27.5316 85.2187C27.1083 85.1986 26.5944 85.1181 26.0905 84.9673C25.8385 84.8668 25.6168 84.7461 25.3347 84.6355C25.0827 84.4846 24.8207 84.3338 24.5788 84.1729C24.0951 83.8009 23.6517 83.3685 23.2889 82.8556C22.8858 82.3428 22.5532 81.7998 22.2509 81.2065C21.9888 80.6132 21.6865 79.9898 21.5353 79.3563C21.3539 78.6725 21.1222 78.0491 20.9307 77.3955C20.719 76.7519 20.5175 76.1586 20.195 75.5855C19.8927 75.0022 19.5299 74.4492 19.1368 73.9565C18.7438 73.4738 18.2701 73.0414 17.8066 72.6492C17.2926 72.3074 16.7686 71.9755 16.2244 71.7845C15.136 71.332 14.0476 71.151 13.2615 71.1309C12.4754 71.0906 11.9917 71.1309 11.9917 71.1309C11.9917 71.1309 12.4754 71.0102 13.2917 70.9398C14.1181 70.8594 15.3476 70.8594 16.6174 71.2515C17.3027 71.3923 17.9073 71.6839 18.5523 72.056C19.1368 72.4079 19.7012 72.8604 20.2051 73.3732C20.6384 73.9062 21.1121 74.4693 21.4346 75.1229C21.7974 75.7061 22.0493 76.4 22.271 77.0234C22.4524 77.6871 22.6439 78.3608 22.8354 78.9842C22.9865 79.6379 23.1982 80.2211 23.4199 80.8144C23.6618 81.3875 23.8935 81.9506 24.206 82.4434C24.4982 82.916 24.8509 83.3484 25.2036 83.7405C25.5664 84.0724 25.9897 84.4243 26.4029 84.6053C26.7959 84.8265 27.2293 84.9573 27.582 85.0176C28.3177 85.1383 28.8115 85.0377 28.8115 85.0377Z" fill="url(#paint5_linear_2389_11846)"/>
<path d="M45.077 92.418C45.077 92.418 44.9863 92.4984 44.8251 92.6493C44.6336 92.79 44.3615 92.9912 43.9886 93.1319C43.6057 93.3029 43.1119 93.4638 42.5878 93.5241C42.3258 93.5643 42.0638 93.5241 41.7614 93.5643C41.4692 93.5241 41.187 93.504 40.8847 93.4638C40.2901 93.3431 39.6955 93.152 39.1513 92.8303C38.5668 92.5588 38.0327 92.1867 37.4985 91.7945C36.9947 91.3622 36.4605 90.9298 36.0473 90.4169C35.5838 89.884 35.1202 89.4114 34.6566 88.9086C34.193 88.4159 33.7496 87.9835 33.2155 87.6114C32.6914 87.2193 32.1271 86.8673 31.5627 86.5858C31.0085 86.3143 30.3736 86.1132 29.7991 85.9824C29.1743 85.8819 28.5797 85.8215 27.9952 85.8618C26.8161 85.9422 25.768 86.2539 25.0424 86.5657C24.3269 86.8673 23.8936 87.0986 23.8936 87.0986C23.8936 87.0986 24.2765 86.7869 24.992 86.3746C25.6975 85.9623 26.8161 85.4294 28.1161 85.2182C28.8014 85.0573 29.4766 85.0573 30.2022 85.0975C30.8976 85.1981 31.603 85.3489 32.2682 85.5903C32.9031 85.8819 33.5682 86.2137 34.1426 86.6461C34.7171 87.0182 35.231 87.531 35.7148 88.0036C36.1683 88.5365 36.6218 89.0393 37.0551 89.532C37.4784 90.065 37.9218 90.5175 38.3854 90.9499C38.8389 91.342 39.2924 91.7342 39.7963 92.066C40.2699 92.3577 40.7839 92.6191 41.2676 92.8102C41.7312 92.9509 42.2653 93.0817 42.7289 93.0817C43.1622 93.1118 43.6057 93.0515 43.9483 92.9308C44.684 92.7398 45.077 92.418 45.077 92.418Z" fill="url(#paint6_linear_2389_11846)"/>
<path d="M62.9348 92.107C62.9348 92.107 62.8945 92.2277 62.7937 92.4188C62.6929 92.6199 62.5417 92.9316 62.2596 93.2031C61.9875 93.5249 61.6247 93.8969 61.1712 94.1684C60.9394 94.3293 60.6975 94.4097 60.4153 94.5405C60.1634 94.6611 59.8913 94.7617 59.599 94.8522C59.0145 94.993 58.3897 95.0935 57.7548 95.0131C57.1098 95.0131 56.4749 94.9326 55.8199 94.7818C55.185 94.6209 54.5199 94.46 53.9253 94.1885C53.2803 93.8969 52.6655 93.6757 52.0206 93.4243C51.3957 93.1729 50.8012 92.9517 50.1562 92.8511C49.5112 92.7204 48.8561 92.6601 48.2212 92.6601C47.5964 92.64 46.9514 92.7204 46.3669 92.8511C45.7623 93.0523 45.1979 93.2232 44.6839 93.5148C43.6359 94.088 42.8397 94.8421 42.3358 95.4254C41.8017 95.9985 41.5195 96.4108 41.5195 96.4108C41.5195 96.4108 41.7312 95.9583 42.1947 95.2745C42.6482 94.6109 43.4343 93.6455 44.5126 92.9014C45.0669 92.4489 45.6917 92.1774 46.3468 91.8959C47.022 91.6847 47.7073 91.5037 48.4329 91.4434C49.1182 91.4434 49.8639 91.4434 50.5694 91.6042C51.2547 91.6746 51.9399 91.916 52.5849 92.1271C53.2198 92.4187 53.8547 92.6802 54.4594 92.9316C55.064 93.2232 55.6586 93.4444 56.2633 93.6556C56.8579 93.8165 57.4323 93.9673 58.0168 94.0276C58.5913 94.1081 59.1455 94.1282 59.6696 94.088C60.1634 94.0075 60.6874 93.907 61.1107 93.6958C61.5138 93.5148 61.8968 93.3036 62.1487 93.0623C62.7232 92.5595 62.9348 92.107 62.9348 92.107Z" fill="url(#paint7_linear_2389_11846)"/>
<path d="M78.9278 84.1328C78.9278 84.1328 78.9379 84.2736 78.9379 84.5049C78.9278 84.7261 78.9278 85.0579 78.7968 85.4501C78.6859 85.8423 78.4944 86.3149 78.2224 86.7875C78.0712 86.9986 77.8999 87.1796 77.6983 87.431C77.5169 87.6321 77.3154 87.8634 77.0836 88.0645C76.6401 88.4366 76.0959 88.7885 75.5215 88.9997C74.9168 89.2712 74.3223 89.4522 73.6571 89.6332C73.0021 89.7539 72.3369 89.8846 71.692 89.8846C70.9865 89.9047 70.3315 89.965 69.6563 90.0254C68.9609 90.0656 68.326 90.1259 67.7012 90.317C67.0663 90.4578 66.4616 90.689 65.8771 90.9505C65.3228 91.2019 64.7585 91.5739 64.2949 91.9259C63.8212 92.3583 63.398 92.7907 63.0654 93.2633C62.3599 94.2286 61.9669 95.2342 61.7553 95.9984C61.5336 96.7425 61.4429 97.2352 61.4429 97.2352C61.4429 97.2352 61.4429 96.7425 61.5638 95.9179C61.6847 95.1135 61.9669 93.8968 62.632 92.7605C62.9445 92.127 63.3677 91.6142 63.8515 91.0812C64.3654 90.5885 64.9298 90.136 65.5445 89.784C66.1693 89.4924 66.8446 89.1405 67.5399 88.9997C68.195 88.7885 68.9105 88.688 69.5857 88.6075C70.2811 88.6075 70.9764 88.5673 71.6315 88.5472C72.2865 88.5472 72.9416 88.4869 73.5563 88.4064C74.161 88.2858 74.7556 88.1953 75.3099 88.0143C75.8642 87.8232 76.368 87.5919 76.8115 87.3305C77.2347 87.0791 77.658 86.7372 77.9503 86.3651C78.2324 86.0534 78.4743 85.6814 78.5952 85.3395C78.9278 84.6456 78.9278 84.1328 78.9278 84.1328Z" fill="url(#paint8_linear_2389_11846)"/>
<path d="M89.9128 70.0938C89.9128 70.0938 89.9833 70.1943 90.0841 70.4055C90.1748 70.6066 90.3159 70.9183 90.3663 71.3306C90.4368 71.7228 90.4671 72.2356 90.4167 72.7786C90.3864 73.03 90.2957 73.2914 90.2353 73.583C90.1647 73.8646 90.074 74.1361 89.9531 74.4076C89.7012 74.9405 89.3787 75.4936 88.9352 75.9461C88.5221 76.4489 88.0585 76.8813 87.5344 77.3136C86.9902 77.6857 86.446 78.098 85.8615 78.3996C85.2266 78.7114 84.6824 79.0432 84.0778 79.375C83.4731 79.7069 82.939 80.0387 82.4552 80.4711C81.9413 80.8834 81.4979 81.3761 81.0847 81.8286C80.6816 82.3213 80.3389 82.8844 80.0769 83.4174C79.835 83.9905 79.6234 84.5536 79.5428 85.1268C79.3211 86.3134 79.3916 87.3893 79.5327 88.1535C79.6536 88.9178 79.7746 89.3904 79.7746 89.3904C79.7746 89.3904 79.5831 88.9882 79.3311 88.1737C79.0792 87.3893 78.8272 86.1927 78.928 84.8754C78.9381 84.1715 79.0993 83.4978 79.311 82.8342C79.5629 82.1705 79.8653 81.5169 80.2784 80.9336C80.7118 80.4007 81.1653 79.7974 81.7498 79.3851C82.2335 78.8924 82.8382 78.5002 83.4227 78.1382C84.0475 77.8466 84.6522 77.4946 85.2367 77.193C85.8414 76.9215 86.3856 76.5896 86.9096 76.2377C87.4034 75.8858 87.9073 75.574 88.3306 75.1416C88.7438 74.7294 89.1066 74.3171 89.3887 73.8847C89.6508 73.4523 89.8926 72.9998 90.0035 72.5272C90.1345 72.1149 90.1748 71.6624 90.1547 71.3306C90.1446 70.5463 89.9128 70.0938 89.9128 70.0938Z" fill="url(#paint9_linear_2389_11846)"/>
<path d="M93.7725 52.6982C93.7725 52.6982 93.8833 52.7586 94.0647 52.8893C94.226 53.0401 94.488 53.2513 94.7198 53.6133C94.9515 53.9552 95.2136 54.3876 95.3849 54.8904C95.4655 55.1417 95.5058 55.4032 95.5764 55.7049C95.6268 55.9764 95.6671 56.278 95.6772 56.5696C95.6772 57.173 95.6268 57.8065 95.4252 58.3796C95.2539 59.0232 95.0322 59.6165 94.7399 60.2399C94.4174 60.793 94.0949 61.4064 93.7019 61.9192C93.2585 62.4722 92.9158 63.0253 92.5228 63.5683C92.1197 64.1214 91.7771 64.6543 91.5251 65.2778C91.2329 65.8509 91.0515 66.4744 90.8801 67.0878C90.7189 67.6911 90.6483 68.3447 90.6383 68.9279C90.6786 69.5815 90.7491 70.1648 90.9104 70.7379C91.2026 71.8742 91.7468 72.8194 92.2104 73.4529C92.6538 74.0965 92.9662 74.4786 92.9662 74.4786C92.9662 74.4786 92.5934 74.1568 92.029 73.5635C91.4646 72.9602 90.6987 71.9748 90.2352 70.758C89.9328 70.1145 89.7917 69.4408 89.691 68.757C89.6406 68.033 89.6406 67.3291 89.7615 66.595C89.9127 65.9414 90.0739 65.2275 90.4065 64.5739C90.6383 63.9203 91.0313 63.3169 91.3941 62.7438C91.8174 62.1907 92.2205 61.6376 92.6135 61.1047C93.0469 60.5919 93.3895 60.0589 93.7221 59.526C94.0042 59.0031 94.3267 58.4902 94.5182 57.9372C94.7097 57.3841 94.8609 56.8512 94.9415 56.3384C94.9919 55.8456 95.0019 55.2926 94.9012 54.8501C94.8407 54.4278 94.6895 54.0055 94.5081 53.7038C94.1756 52.9999 93.7725 52.6982 93.7725 52.6982Z" fill="url(#paint10_linear_2389_11846)"/>
<path d="M89.762 35.332C89.762 35.332 89.8829 35.332 90.1147 35.3924C90.3062 35.4527 90.6488 35.5231 91.0015 35.7544C91.3543 35.9655 91.7775 36.2471 92.1605 36.6091C92.3217 36.8203 92.483 37.0314 92.6744 37.2627C92.8458 37.494 93.007 37.7554 93.138 38.0068C93.39 38.5398 93.6318 39.133 93.7024 39.7464C93.8334 40.4101 93.8737 41.0235 93.8737 41.7073C93.8334 42.3508 93.8032 43.0547 93.6721 43.6983C93.521 44.372 93.4403 45.0155 93.3194 45.6993C93.1985 46.3529 93.1179 46.9965 93.1481 47.6602C93.1481 48.2937 93.2388 48.9372 93.3496 49.5707C93.4706 50.164 93.6923 50.8075 93.9342 51.3405C94.2466 51.8935 94.5791 52.4265 94.9621 52.8287C95.7179 53.7438 96.6249 54.3572 97.3001 54.7493C97.9653 55.1314 98.4288 55.3426 98.4288 55.3426C98.4288 55.3426 97.9451 55.2119 97.1792 54.9102C96.4133 54.6186 95.2947 54.0655 94.3574 53.1505C93.8032 52.698 93.39 52.165 93.007 51.5718C92.6341 50.9584 92.3318 50.3148 92.1403 49.6109C91.9791 48.9473 91.8178 48.2032 91.838 47.4792C91.7775 46.8054 91.8581 46.1015 91.9388 45.4379C92.0798 44.7642 92.2109 44.0804 92.3318 43.4167C92.5031 42.7832 92.5938 42.1396 92.6644 41.5263C92.6946 40.9028 92.7349 40.3095 92.6946 39.7364C92.6241 39.1632 92.5333 38.6101 92.3721 38.1174C92.2109 37.6549 91.9791 37.1621 91.707 36.78C91.4651 36.418 91.1325 36.1164 90.8504 35.9253C90.2457 35.4326 89.762 35.332 89.762 35.332Z" fill="url(#paint11_linear_2389_11846)"/>
<path d="M78.6255 21.3853C78.6255 21.3853 78.7363 21.325 78.9681 21.2747C79.1898 21.2646 79.5123 21.1741 79.9356 21.2345C80.3488 21.2546 80.8527 21.3451 81.3566 21.516C81.5984 21.6166 81.8302 21.7473 82.1023 21.878C82.3543 22.0288 82.6163 22.1797 82.838 22.3506C83.3016 22.7327 83.7752 23.1651 84.0977 23.688C84.4907 24.221 84.8032 24.7539 85.1055 25.3874C85.3373 25.9807 85.6094 26.6242 85.7807 27.2376C85.9419 27.9415 86.1334 28.5348 86.3249 29.1985C86.5063 29.8521 86.6978 30.4755 87.0102 31.0487C87.2823 31.6219 87.6451 32.1548 88.028 32.6877C88.3908 33.1805 88.8645 33.6531 89.2978 34.0352C89.832 34.3972 90.3459 34.7391 90.8801 34.9502C91.9483 35.4631 93.0367 35.6139 93.8228 35.6742C94.5887 35.7346 95.1026 35.7145 95.1026 35.7145C95.1026 35.7145 94.6088 35.815 93.7925 35.8854C92.9661 35.9256 91.7165 35.9055 90.4669 35.5033C89.7816 35.3324 89.1769 35.0106 88.5622 34.6285C87.9777 34.2464 87.4335 33.7938 86.9396 33.2508C86.5164 32.7179 86.0528 32.1447 85.7505 31.461C85.4078 30.8777 85.176 30.204 84.9644 29.5605C84.7931 28.8767 84.6218 28.2231 84.4504 27.5795C84.3295 26.9259 84.138 26.3326 83.9163 25.7293C83.6845 25.1561 83.4729 24.6031 83.1806 24.1103C82.8783 23.6076 82.5558 23.1551 82.2132 22.773C81.8605 22.4311 81.4372 22.0691 81.024 21.8579C80.641 21.6467 80.2178 21.4959 79.8852 21.4557C79.1193 21.2646 78.6255 21.3853 78.6255 21.3853Z" fill="url(#paint12_linear_2389_11846)"/>
<path d="M62.572 13.5822C62.572 13.5822 62.6526 13.4716 62.834 13.3509C63.0154 13.2202 63.2875 13.0291 63.6806 12.8884C64.0736 12.7375 64.5473 12.5867 65.0814 12.5264C65.3434 12.5264 65.6155 12.5465 65.9078 12.5465C66.2101 12.5666 66.5023 12.5867 66.7845 12.6571C67.3791 12.7878 67.9838 12.9588 68.5078 13.3006C69.0923 13.6224 69.5962 13.9643 70.1404 14.4068C70.604 14.8291 71.1381 15.3017 71.5513 15.7844C71.9947 16.3374 72.4482 16.81 72.8917 17.3229C73.3452 17.8558 73.7785 18.2983 74.3025 18.6804C74.8064 19.1027 75.3506 19.4245 75.9251 19.7463C76.4693 20.0278 77.0941 20.2591 77.6584 20.4099C78.3034 20.5205 78.898 20.601 79.4825 20.5608C80.6616 20.5608 81.7198 20.239 82.4454 19.9373C83.1609 19.6658 83.6245 19.4345 83.6245 19.4345C83.6245 19.4345 83.2113 19.7262 82.5159 20.1284C81.7903 20.5306 80.6515 21.0736 79.3515 21.2144C78.6461 21.3652 77.9809 21.3451 77.2654 21.2647C76.56 21.1742 75.8747 21.0133 75.1894 20.7116C74.5948 20.4099 73.9095 20.0882 73.3552 19.6055C72.7808 19.2435 72.2668 18.7005 71.8234 18.2379C71.3699 17.6849 70.9265 17.172 70.4931 16.6592C70.1001 16.1263 69.6668 15.6536 69.2133 15.2112C68.7698 14.809 68.3163 14.3766 67.8528 14.0649C67.369 13.7431 66.8752 13.4917 66.4016 13.3006C65.9279 13.1297 65.3938 13.009 64.9302 12.9789C64.4868 12.9386 64.0535 12.999 63.731 13.0895C62.9651 13.2604 62.572 13.5822 62.572 13.5822Z" fill="url(#paint13_linear_2389_11846)"/>
<path d="M61.2415 23.7291C61.2415 23.7291 61.2113 23.6688 61.1508 23.4978C61.0803 23.3671 60.9493 23.1459 60.7578 22.9146C60.5663 22.6733 60.2942 22.4018 59.9516 22.1705C59.7903 22.0498 59.5989 21.9694 59.4074 21.8789C59.2159 21.7984 59.0043 21.6979 58.7826 21.6476C58.3593 21.5169 57.9058 21.4565 57.4321 21.4565C56.9585 21.4565 56.4647 21.5169 55.981 21.6174C55.5073 21.718 55.0034 21.8386 54.5298 22.0196C54.0561 22.1906 53.5925 22.3917 53.1088 22.5626C52.6351 22.7235 52.1816 22.8643 51.6878 22.9448C51.2041 23.0453 50.7204 23.0755 50.2467 23.0755C49.773 23.0353 49.2994 22.9749 48.856 22.8442C48.4226 22.7235 47.9893 22.5626 47.6164 22.3213C46.8606 21.8889 46.266 21.3158 45.8931 20.8733C45.5101 20.4208 45.3086 20.1191 45.3086 20.1191C45.3086 20.1191 45.4497 20.4409 45.7822 20.9538C46.1249 21.4766 46.6691 22.2107 47.4753 22.7939C47.8784 23.1157 48.342 23.357 48.8257 23.5581C49.3195 23.7593 49.8436 23.8699 50.3676 23.9302C50.9018 23.9604 51.446 23.9805 51.9599 23.9C52.484 23.8397 53.0181 23.6788 53.5119 23.528C53.9755 23.3269 54.439 23.1459 54.9127 22.9649C55.3662 22.7638 55.8298 22.6029 56.2631 22.452C56.7267 22.3515 57.1701 22.2409 57.5934 22.1906C58.0167 22.1604 58.4399 22.1604 58.833 22.1906C59.2159 22.2409 59.5686 22.3615 59.8911 22.5124C60.2035 22.6431 60.4555 22.8442 60.6772 23.0353C61.0904 23.4375 61.2415 23.7291 61.2415 23.7291Z" fill="url(#paint14_linear_2389_11846)"/>
<path d="M73.0631 30.0136C73.0631 30.0136 73.0631 29.9131 73.0631 29.7421C73.0631 29.5913 73.0631 29.3399 72.9724 29.0584C72.8817 28.7466 72.7507 28.3846 72.5693 28.0327C72.4685 27.8618 72.3375 27.7109 72.2065 27.5299C72.0654 27.3791 71.9243 27.2182 71.7429 27.0674C71.4104 26.7657 71.0174 26.5043 70.584 26.3031C70.1607 26.102 69.6972 25.9512 69.2134 25.8305C68.7499 25.74 68.246 25.5993 67.732 25.559C67.218 25.5289 66.7242 25.4886 66.2405 25.4283C65.7265 25.3881 65.2529 25.3278 64.7792 25.187C64.3056 25.0462 63.842 24.8853 63.4187 24.6842C62.9954 24.463 62.5823 24.2015 62.2598 23.8798C61.9171 23.5881 61.6047 23.2463 61.3729 22.8641C60.869 22.1603 60.5768 21.386 60.4357 20.8128C60.2745 20.2598 60.2341 19.8877 60.2341 19.8877C60.2341 19.8877 60.2241 20.2598 60.2946 20.8832C60.3853 21.4865 60.5566 22.3915 61.0303 23.2563C61.252 23.7189 61.5644 24.1211 61.9272 24.5233C62.29 24.9155 62.7133 25.2473 63.1567 25.5289C63.6102 25.7601 64.104 26.0316 64.6079 26.1724C65.1017 26.3132 65.6459 26.4138 66.1599 26.4942C66.6638 26.5043 67.1777 26.5445 67.6715 26.5847C68.1653 26.5847 68.6491 26.6651 69.1026 26.7456C69.5661 26.826 70.0196 26.9065 70.4127 27.0473C70.8158 27.1981 71.1987 27.3891 71.5313 27.5903C71.8336 27.8014 72.136 28.0528 72.3476 28.3143C72.5794 28.5858 72.7406 28.8573 72.8414 29.1187C73.0631 29.6416 73.0631 30.0136 73.0631 30.0136Z" fill="url(#paint15_linear_2389_11846)"/>
<path d="M80.9941 40.7434C80.9941 40.7434 81.0445 40.6831 81.1352 40.5222C81.2058 40.3714 81.2964 40.12 81.3569 39.8485C81.4073 39.5167 81.4375 39.1547 81.4174 38.7625C81.3972 38.5513 81.3569 38.3603 81.3065 38.1491C81.2561 37.948 81.1856 37.7167 81.105 37.5156C80.9336 37.1134 80.6817 36.691 80.3794 36.3592C80.0871 35.957 79.7344 35.6453 79.3514 35.3235C78.9483 35.0118 78.5654 34.69 78.122 34.4587C77.6785 34.2073 77.2452 33.9358 76.8118 33.6945C76.3684 33.423 75.9653 33.1716 75.6227 32.8398C75.2397 32.4979 74.9071 32.1459 74.6149 31.7739C74.3126 31.4119 74.0707 31.0097 73.8893 30.5873C73.728 30.1449 73.597 29.7125 73.5265 29.3002C73.4056 28.4254 73.466 27.6008 73.597 27.0277C73.6877 26.4645 73.8087 26.1025 73.8087 26.1025C73.8087 26.1025 73.6373 26.4243 73.4257 27.0176C73.2443 27.5807 73.0125 28.4958 73.0629 29.4712C73.0629 29.994 73.1637 30.5169 73.3149 31.0097C73.4862 31.5024 73.718 32.0152 73.9901 32.4476C74.3025 32.8498 74.635 33.2923 75.0281 33.6543C75.4312 34.0062 75.8847 34.328 76.308 34.5995C76.7615 34.8509 77.2049 35.1023 77.6281 35.3335C78.0816 35.5548 78.4747 35.8464 78.8677 36.0877C79.2507 36.3592 79.6135 36.6307 79.9057 36.9525C80.208 37.2441 80.4701 37.5759 80.6817 37.9078C80.8732 38.2295 81.0344 38.5714 81.1151 38.9234C81.2058 39.2351 81.236 39.5669 81.2057 39.8485C81.1654 40.3915 80.9941 40.7434 80.9941 40.7434Z" fill="url(#paint16_linear_2389_11846)"/>
<path d="M83.5539 53.846C83.5539 53.846 83.6345 53.7957 83.7756 53.675C83.8865 53.5845 84.088 53.4236 84.2392 53.1823C84.4609 52.9209 84.6524 52.589 84.8035 52.227C84.864 52.036 84.8842 51.8349 84.9648 51.6337C84.9849 51.4326 85.0353 51.2014 85.0353 50.9701C85.0555 50.5276 85.0051 50.055 84.8741 49.6226C84.7733 49.14 84.6121 48.6875 84.4105 48.2551C84.1787 47.8026 83.957 47.34 83.6648 46.9277C83.3725 46.5054 83.0903 46.0931 82.8081 45.6607C82.536 45.2485 82.274 44.8462 82.1128 44.3837C81.8911 43.9412 81.7601 43.4787 81.6593 43.0161C81.5484 42.5435 81.498 42.0709 81.5182 41.6285C81.5484 41.1558 81.619 40.7134 81.75 40.3011C81.9918 39.4766 82.405 38.7325 82.7678 38.29C83.1306 37.8073 83.3725 37.5459 83.3725 37.5459C83.3725 37.5459 83.0702 37.7671 82.657 38.2196C82.2136 38.6319 81.6391 39.3559 81.2461 40.271C81.0143 40.7436 80.9135 41.2363 80.8027 41.7793C80.7422 42.2921 80.7422 42.8251 80.8027 43.348C80.9135 43.8708 81.0345 44.3837 81.236 44.8764C81.4275 45.3591 81.6996 45.8417 81.9515 46.2942C82.2539 46.6965 82.5562 47.1188 82.8384 47.511C83.1407 47.9031 83.4128 48.3255 83.6345 48.7377C83.8562 49.14 84.0679 49.5221 84.1989 49.9545C84.34 50.3265 84.4307 50.7287 84.4911 51.1209C84.5214 51.5231 84.5214 51.9153 84.4307 52.2371C84.3601 52.5689 84.2694 52.8706 84.1082 53.122C83.8361 53.6046 83.5539 53.846 83.5539 53.846Z" fill="url(#paint17_linear_2389_11846)"/>
<path d="M80.1978 66.7559C80.1978 66.7559 80.2885 66.7559 80.4598 66.7056C80.6109 66.6754 80.8629 66.6151 81.1047 66.4743C81.3869 66.3134 81.7195 66.1123 82.0118 65.8408C82.1528 65.69 82.2637 65.5191 82.4149 65.3582C82.5559 65.1872 82.6567 65.0062 82.7676 64.8051C82.9893 64.4029 83.1405 63.9806 83.2412 63.4979C83.342 63.0454 83.3924 62.5728 83.4025 62.0599C83.3823 61.5773 83.3823 61.0644 83.2815 60.5617C83.1908 60.0589 83.1304 59.5662 83.0498 59.0634C82.9893 58.5707 82.9288 58.088 82.949 57.5852C82.9792 57.1025 83.0498 56.6299 83.1606 56.1674C83.2815 55.7048 83.4226 55.2523 83.6444 54.83C83.8661 54.4579 84.1079 54.0658 84.4203 53.744C85.0048 53.1105 85.6901 52.6278 86.2142 52.3563C86.7382 52.0848 87.0809 51.9541 87.0809 51.9541C87.0809 51.9541 86.7181 52.0446 86.1336 52.2558C85.5591 52.477 84.7126 52.8591 83.9668 53.5228C83.5637 53.8345 83.2614 54.2367 82.9288 54.6892C82.6567 55.1115 82.4249 55.6043 82.2536 56.107C82.1327 56.5998 82.0017 57.1629 81.9815 57.6757C81.9311 58.1986 81.9815 58.7517 82.0218 59.2645C82.1226 59.7472 82.2133 60.2701 82.2939 60.7427C82.3947 61.2253 82.4451 61.6979 82.4955 62.1706C82.5056 62.6331 82.5358 63.0756 82.4753 63.518C82.4249 63.9504 82.3141 64.3627 82.2133 64.7347C82.0823 65.0766 81.911 65.4286 81.6893 65.69C81.4978 65.9615 81.2458 66.1928 81.0342 66.3637C80.5606 66.6754 80.1978 66.7559 80.1978 66.7559Z" fill="url(#paint18_linear_2389_11846)"/>
<path d="M71.6016 76.9823C71.6016 76.9823 71.6923 77.0024 71.8434 77.0627C72.0148 77.0829 72.2667 77.1432 72.569 77.103C72.8814 77.103 73.2543 77.0627 73.6373 76.922C73.8388 76.8616 74.0001 76.7611 74.2218 76.6907C74.4032 76.57 74.5947 76.4494 74.766 76.3387C75.1288 76.0672 75.4613 75.7254 75.7234 75.3332C76.0358 74.9812 76.2877 74.569 76.5195 74.1366C76.7009 73.664 76.9428 73.1913 77.0536 72.6986C77.1947 72.216 77.3459 71.7635 77.4971 71.2707C77.6684 70.7981 77.8195 70.3255 78.0614 69.9132C78.273 69.4607 78.5552 69.0485 78.8475 68.7166C79.1397 68.3245 79.4824 67.9826 79.8452 67.7111C80.2382 67.4496 80.6212 67.2284 81.0243 67.0575C81.8507 66.7256 82.6569 66.605 83.2515 66.5748C83.8461 66.5446 84.2088 66.5748 84.2088 66.5748C84.2088 66.5748 83.836 66.4843 83.2111 66.434C82.6065 66.3636 81.6793 66.3636 80.7219 66.6351C80.2181 66.7558 79.7545 67.0072 79.2707 67.2686C78.8374 67.52 78.4141 67.872 78.0312 68.2742C77.7087 68.6462 77.366 69.0786 77.1141 69.5512C76.8521 69.9937 76.6606 70.5266 76.4994 70.9892C76.3683 71.4618 76.2172 71.9746 76.0761 72.4674C75.9552 72.94 75.8141 73.3925 75.6427 73.8249C75.4412 74.2371 75.29 74.6695 75.0381 75.0416C74.8264 75.3734 74.5544 75.7254 74.2923 75.9969C74.0303 76.2583 73.728 76.4896 73.4055 76.6505C73.1031 76.8315 72.7807 76.922 72.5287 76.9622C71.9744 77.0627 71.6016 76.9823 71.6016 76.9823Z" fill="url(#paint19_linear_2389_11846)"/>
<path d="M59.4277 82.5244C59.4277 82.5244 59.4983 82.5647 59.6192 82.6853C59.7502 82.7959 59.9719 82.9568 60.244 83.0373C60.5363 83.1781 60.9092 83.2887 61.3022 83.3289C61.5038 83.349 61.6852 83.3289 61.9169 83.349C62.1487 83.3289 62.3503 83.3088 62.5821 83.2887C63.0053 83.2082 63.4689 83.0574 63.872 82.8161C64.3155 82.5948 64.7085 82.3233 65.1116 82.0518C65.4845 81.72 65.8775 81.4083 66.2 81.0061C66.5326 80.6139 66.8752 80.2619 67.2178 79.8899C67.5706 79.5178 67.8931 79.1659 68.2962 78.8843C68.6791 78.6128 69.1024 78.3514 69.5357 78.1402C69.959 77.9391 70.4327 77.7682 70.8559 77.6877C71.3296 77.6173 71.773 77.5771 72.2164 77.6173C73.1033 77.6374 73.8792 77.8888 74.4234 78.1302C74.9576 78.3413 75.2901 78.5123 75.2901 78.5123C75.2901 78.5123 75.008 78.281 74.4738 77.9693C73.9296 77.6576 73.1033 77.2654 72.1257 77.1045C71.6118 76.9838 71.0978 76.9838 70.5637 77.0241C70.0497 77.1045 69.5257 77.2252 69.0117 77.3961C68.538 77.6173 68.0341 77.8687 67.621 78.2006C67.1775 78.4821 66.7845 78.8542 66.4217 79.186C66.1093 79.5782 65.7566 79.9904 65.4139 80.3223C65.1116 80.7346 64.779 81.0664 64.4465 81.4083C64.1038 81.72 63.7612 82.0116 63.3782 82.2328C63.0255 82.4641 62.6526 82.6652 62.2898 82.7959C61.9371 82.9166 61.5441 82.9971 61.2014 82.9971C60.8689 83.0373 60.5363 82.9568 60.2743 82.8965C59.7301 82.7356 59.4277 82.5244 59.4277 82.5244Z" fill="url(#paint20_linear_2389_11846)"/>
<path d="M46.0542 82.2831C46.0542 82.2831 46.0844 82.3434 46.155 82.5143C46.2356 82.6551 46.3565 82.8864 46.5581 83.0875C46.7596 83.3188 47.0418 83.6003 47.3744 83.8115C47.5457 83.9121 47.7372 83.9925 47.9387 84.083C48.1403 84.1836 48.3419 84.264 48.5636 84.3042C48.9868 84.4249 49.4605 84.5053 49.9241 84.4651C50.4179 84.445 50.8915 84.3847 51.3853 84.2942C51.859 84.1534 52.3629 84.0428 52.8164 83.8417C53.29 83.6104 53.7536 83.4495 54.2373 83.2685C54.7009 83.0674 55.1443 82.9166 55.6382 82.8361C56.1118 82.7155 56.6056 82.6752 57.0894 82.6752C57.5529 82.6752 58.0367 82.7356 58.4801 82.8361C58.9336 82.9568 59.3669 83.1076 59.7499 83.3288C60.5158 83.7612 61.1205 84.3143 61.5135 84.7567C61.8864 85.1992 62.0879 85.4908 62.0879 85.4908C62.0879 85.4908 61.9368 85.159 61.584 84.6461C61.2414 84.1132 60.667 83.4093 59.8507 82.8562C59.4274 82.5244 58.9739 82.3233 58.4801 82.1322C57.9762 81.9512 57.4522 81.8205 56.918 81.7803C56.394 81.7803 55.8296 81.7602 55.3157 81.901C54.8017 81.9512 54.2978 82.1322 53.804 82.2831C53.3404 82.5043 52.8567 82.7054 52.4032 82.8965C51.9598 83.1177 51.5063 83.2886 51.0528 83.4294C50.6194 83.54 50.1861 83.6808 49.7427 83.721C49.3295 83.7813 48.8961 83.7813 48.5132 83.7612C48.1403 83.7009 47.7473 83.6003 47.4349 83.4696C47.1325 83.3288 46.8403 83.1478 46.6589 82.997C46.2154 82.6048 46.0542 82.2831 46.0542 82.2831Z" fill="url(#paint21_linear_2389_11846)"/>
<path d="M34.0916 76.2988C34.0916 76.2988 34.0815 76.4195 34.0815 76.5904C34.0916 76.7513 34.0916 76.9826 34.1924 77.2742C34.2629 77.5658 34.394 77.9379 34.6157 78.2798C34.7265 78.4608 34.8676 78.6116 35.0087 78.7725C35.1498 78.9334 35.301 79.1043 35.4622 79.2451C35.8048 79.5166 36.1979 79.7781 36.6413 79.949C37.0847 80.1702 37.5281 80.3009 38.032 80.4015C38.5158 80.5222 39.0196 80.6227 39.5034 80.6227C40.0375 80.6227 40.5212 80.6831 41.0352 80.7233C41.5492 80.7635 42.0228 80.7836 42.4965 80.9445C42.9701 81.0652 43.4236 81.2562 43.857 81.4171C44.2702 81.5981 44.6934 81.8696 45.0462 82.1512C45.3989 82.4629 45.7214 82.7947 45.9632 83.1567C46.4873 83.8405 46.7896 84.6047 46.9408 85.198C47.1121 85.7511 47.1726 86.1231 47.1726 86.1231C47.1726 86.1231 47.1726 85.7511 47.0919 85.1176C47.0012 84.5042 46.7896 83.6092 46.2958 82.7646C46.0539 82.2819 45.7214 81.8897 45.3787 81.5177C44.9857 81.1255 44.5725 80.7937 44.1089 80.5121C43.6353 80.3211 43.1314 80.0496 42.6073 79.949C42.1337 79.768 41.5895 79.7378 41.0856 79.6574C40.5716 79.6574 40.0476 79.6373 39.5538 79.5971C39.0499 79.6172 38.5762 79.5568 38.1026 79.4965C37.6592 79.4161 37.2057 79.3557 36.7925 79.225C36.3894 79.044 36.0064 78.8932 35.6738 78.7122C35.3513 78.501 35.0389 78.2597 34.8172 77.9882C34.5955 77.7468 34.4242 77.4552 34.3335 77.2239C34.0916 76.691 34.0916 76.2988 34.0916 76.2988Z" fill="url(#paint22_linear_2389_11846)"/>
<path d="M25.869 65.8018C25.869 65.8018 25.8186 65.8721 25.738 66.0129C25.6775 66.1939 25.5667 66.4051 25.5365 66.7168C25.476 67.0084 25.4458 67.3905 25.4961 67.8028C25.5163 67.9939 25.5768 68.195 25.6272 68.4062C25.6775 68.5972 25.7481 68.8385 25.8287 69.0296C26.0202 69.4218 26.2721 69.8542 26.5946 70.1458C26.9171 70.5379 27.2598 70.8698 27.6427 71.1915C28.0559 71.463 28.459 71.8049 28.9125 72.0161C29.3761 72.2273 29.7893 72.4887 30.2327 72.7401C30.6761 72.9915 31.0893 73.2529 31.4521 73.5647C31.8351 73.8965 32.1676 74.2283 32.48 74.5903C32.7723 74.9423 33.0444 75.3747 33.2359 75.7869C33.4072 76.1992 33.5684 76.6517 33.6289 77.064C33.7901 77.9489 33.7398 78.7533 33.639 79.3265C33.5483 79.8896 33.4475 80.2415 33.4475 80.2415C33.4475 80.2415 33.5987 79.9298 33.7801 79.3365C33.9715 78.7533 34.163 77.8483 34.0925 76.8629C34.0824 76.34 33.9615 75.8473 33.7901 75.3344C33.6188 74.8216 33.387 74.3289 33.0746 73.9065C32.7622 73.5043 32.4196 73.0719 31.9862 72.7401C31.6133 72.3882 31.1598 72.0965 30.7265 71.815C30.2629 71.5837 29.8094 71.3524 29.366 71.091C28.9125 70.8999 28.5094 70.6586 28.1063 70.4072C27.7435 70.1357 27.3706 69.8743 27.0481 69.5625C26.7458 69.2709 26.4636 68.929 26.252 68.6374C26.0504 68.3056 25.8791 67.9637 25.7985 67.6118C25.7078 67.29 25.6775 66.9682 25.6977 66.7068C25.6977 66.1336 25.869 65.8018 25.869 65.8018Z" fill="url(#paint23_linear_2389_11846)"/>
<path d="M22.9761 52.7695C22.9761 52.7695 22.8955 52.7997 22.7644 52.9204C22.6334 53.041 22.442 53.2019 22.2706 53.4634C22.0892 53.7148 21.9078 54.0265 21.7667 54.3985C21.7164 54.5996 21.6861 54.8108 21.6357 55.032C21.6055 55.2331 21.5652 55.4644 21.5652 55.6655C21.5652 56.108 21.6055 56.5806 21.7567 57.0331C21.8675 57.5158 22.0288 57.9481 22.2505 58.4107C22.4923 58.823 22.7342 59.2855 23.0265 59.6676C23.349 60.1 23.611 60.4922 23.9133 60.9045C24.2056 61.3369 24.4777 61.729 24.6591 62.1815C24.8707 62.624 25.0118 63.0865 25.1428 63.539C25.2637 64.0117 25.3141 64.4843 25.3242 64.9368C25.294 65.4094 25.2436 65.8518 25.1226 66.2842C24.9009 67.1289 24.4978 67.8328 24.1552 68.3054C23.8226 68.7981 23.5807 69.0696 23.5807 69.0696C23.5807 69.0696 23.8528 68.8383 24.2862 68.3858C24.6994 67.9534 25.2738 67.2093 25.6265 66.2943C25.8482 65.8116 25.949 65.3189 26.0196 64.7859C26.0699 64.2429 26.0699 63.7402 25.9893 63.1871C25.8684 62.6944 25.7475 62.1313 25.5056 61.6486C25.3242 61.176 25.0319 60.7335 24.7598 60.3011C24.4474 59.8688 24.1451 59.4665 23.8428 59.0643C23.5303 58.6923 23.2582 58.3001 23.0164 57.8778C22.8048 57.5057 22.5629 57.1135 22.4218 56.7013C22.2706 56.299 22.1699 55.8767 22.1094 55.4946C22.059 55.1125 22.059 54.7103 22.1295 54.3885C22.1799 54.0466 22.3009 53.7449 22.4218 53.5237C22.6838 53.0008 22.9761 52.7695 22.9761 52.7695Z" fill="url(#paint24_linear_2389_11846)"/>
<path d="M25.9894 39.7676C25.9894 39.7676 25.9088 39.7676 25.7375 39.7977C25.5762 39.8581 25.3344 39.9184 25.0723 40.0793C24.7902 40.2603 24.4778 40.4614 24.1855 40.743C24.0646 40.8737 23.9436 41.0446 23.8025 41.2357C23.6715 41.3966 23.5405 41.5876 23.4599 41.7887C23.2583 42.191 23.0769 42.6234 23.0366 43.0859C22.9459 43.5887 22.9056 44.0512 22.9056 44.5741C22.9359 45.0568 22.9661 45.5797 23.0669 46.0322C23.1676 46.545 23.2382 47.0277 23.3188 47.5305C23.4095 48.0131 23.47 48.4958 23.4498 49.0086C23.4498 49.4913 23.3894 49.9639 23.2987 50.4466C23.208 50.889 23.0366 51.3616 22.8653 51.7639C22.6335 52.1661 22.3917 52.5683 22.0893 52.87C21.535 53.5538 20.8498 54.0163 20.3358 54.3079C19.8319 54.5995 19.4893 54.7604 19.4893 54.7604C19.4893 54.7604 19.8521 54.6699 20.4265 54.4386C21.0009 54.2174 21.8273 53.7951 22.5428 53.1214C22.9661 52.7795 23.2684 52.3773 23.5506 51.9248C23.8328 51.4723 24.0545 50.9996 24.2057 50.4566C24.3165 49.9639 24.4374 49.4109 24.4274 48.8779C24.4778 48.3651 24.4173 47.8422 24.3467 47.3394C24.2359 46.8165 24.1452 46.3238 24.0444 45.8512C23.9235 45.3585 23.863 44.8758 23.8126 44.3831C23.7925 43.9507 23.7522 43.4982 23.7925 43.0759C23.8429 42.6334 23.9134 42.2211 24.0243 41.8591C24.1553 41.5072 24.3165 41.1351 24.5281 40.8536C24.6995 40.572 24.9514 40.3508 25.163 40.2201C25.6266 39.8681 25.9894 39.7676 25.9894 39.7676Z" fill="url(#paint25_linear_2389_11846)"/>
<path d="M34.3235 29.3407C34.3235 29.3407 34.2328 29.3005 34.0614 29.2703C33.9002 29.2301 33.6483 29.1798 33.3358 29.2301C33.0234 29.2602 32.6506 29.3105 32.2777 29.4412C32.0963 29.5116 31.9149 29.6122 31.7234 29.7127C31.5218 29.8233 31.3404 29.9138 31.159 30.0647C30.8164 30.3462 30.4637 30.6781 30.2218 31.0702C29.9296 31.4825 29.6877 31.8747 29.466 32.3473C29.2947 32.7797 29.083 33.2624 28.9621 33.735C28.8512 34.2478 28.69 34.6902 28.559 35.183C28.4179 35.6857 28.2768 36.1282 28.045 36.5706C27.8334 37.003 27.5714 37.4052 27.2791 37.7974C27.007 38.1594 26.6543 38.5114 26.3318 38.813C25.9287 39.0845 25.5457 39.3259 25.1426 39.5069C24.3465 39.8689 23.5302 39.9795 22.9457 40.0398C22.3712 40.07 21.9883 40.07 21.9883 40.07C21.9883 40.07 22.3612 40.1404 22.9658 40.1806C23.5806 40.2208 24.5178 40.2208 25.445 39.9091C25.969 39.7683 26.4124 39.527 26.8659 39.2454C27.3194 38.9639 27.7225 38.632 28.0954 38.2298C28.4078 37.8175 28.7505 37.3952 28.9823 36.8824C29.2443 36.46 29.4257 35.9371 29.5668 35.4645C29.6978 34.9416 29.8187 34.459 29.9598 33.9763C30.0505 33.4936 30.2017 33.0311 30.3629 32.5786C30.5443 32.1764 30.6955 31.744 30.9172 31.3719C31.149 31.0099 31.3908 30.668 31.6428 30.3764C31.8947 30.115 32.2172 29.8636 32.5296 29.7027C32.8118 29.5317 33.1343 29.4111 33.3762 29.3809C33.9506 29.2602 34.3235 29.3407 34.3235 29.3407Z" fill="url(#paint26_linear_2389_11846)"/>
<path d="M46.3263 23.4968C46.3263 23.4968 46.2759 23.4365 46.1247 23.3158C45.9937 23.2052 45.7921 23.0644 45.4999 22.9639C45.2076 22.8432 44.8549 22.7326 44.4518 22.6924C44.2502 22.6924 44.0487 22.7125 43.8169 22.7125C43.6053 22.7326 43.3835 22.7326 43.182 22.7929C42.7386 22.9136 42.2851 23.0343 41.9021 23.2957C41.4587 23.527 41.0657 23.7683 40.6726 24.1203C40.3098 24.4421 39.9168 24.794 39.6145 25.156C39.2718 25.5582 38.9493 25.9202 38.6067 26.3023C38.2741 26.6945 37.9416 27.0263 37.5384 27.3179C37.1656 27.6196 36.7625 27.8811 36.3392 28.1123C35.926 28.3134 35.4725 28.4944 35.0392 28.5849C34.5554 28.6654 34.112 28.7458 33.6787 28.7056C32.7918 28.7056 32.0057 28.4643 31.4515 28.2531C30.9174 28.0419 30.5747 27.8811 30.5747 27.8811C30.5747 27.8811 30.877 28.1023 31.4112 28.3939C31.9453 28.7157 32.8019 29.1078 33.7694 29.2184C34.2934 29.3291 34.7973 29.319 35.3314 29.2587C35.8555 29.1782 36.3694 29.0576 36.8834 28.8263C37.3369 28.595 37.8408 28.3637 38.254 28.0118C38.6873 27.7302 39.0602 27.3481 39.4028 26.9761C39.7455 26.5638 40.078 26.1716 40.4005 25.7895C40.6928 25.3973 41.0254 25.0454 41.3478 24.7136C41.6905 24.4219 42.0231 24.1102 42.3758 23.8689C42.7486 23.6376 43.1114 23.4365 43.4541 23.2656C43.8169 23.165 44.22 23.0443 44.5626 23.0443C44.8952 23.0041 45.2278 23.0644 45.4696 23.1248C46.034 23.2454 46.3263 23.4968 46.3263 23.4968Z" fill="url(#paint27_linear_2389_11846)"/>
<path d="M54.7418 16.6996C54.7418 17.4939 54.0968 18.1476 53.2805 18.1476C52.4743 18.1476 51.7991 17.4939 51.7991 16.6996C51.7991 15.8549 52.4743 15.2314 53.2805 15.2314C54.0968 15.2314 54.7418 15.8549 54.7418 16.6996Z" fill="#3CAA9F"/>
<path d="M48.3822 17.0216C48.5535 17.8059 48.0194 18.5299 47.2233 18.6808C46.407 18.8014 45.6411 18.2786 45.5403 17.4842C45.369 16.73 45.893 15.9457 46.6992 15.825C47.5055 15.7043 48.2512 16.187 48.3822 17.0216Z" fill="#3CAA9F"/>
<path d="M42.2049 18.3894C42.477 19.1235 42.0941 19.948 41.3483 20.2296C40.5522 20.5614 39.7157 20.129 39.4537 19.395C39.1816 18.6508 39.5746 17.8062 40.3305 17.4945C41.1065 17.2028 41.953 17.6051 42.2049 18.3894Z" fill="#3CAA9F"/>
<path d="M36.3905 20.8322C36.7533 21.5059 36.5316 22.3707 35.8563 22.8232C35.1408 23.2053 34.2439 22.974 33.8408 22.2802C33.3974 21.6064 33.6392 20.631 34.3447 20.269C35.0804 19.897 35.9773 20.1182 36.3905 20.8322Z" fill="#3CAA9F"/>
<path d="M31.0089 24.252C31.543 24.8452 31.4624 25.7201 30.8375 26.3033C30.2127 26.786 29.3057 26.7558 28.7817 26.1424C28.2677 25.4787 28.3483 24.5637 28.9429 24.081C29.598 23.5883 30.5251 23.5883 31.0089 24.252Z" fill="#3CAA9F"/>
<path d="M26.3529 28.5353C26.9777 29.0481 27.0482 29.933 26.5444 30.5364C26.0002 31.2 25.0831 31.3307 24.4683 30.7676C23.8435 30.285 23.8032 29.3498 24.2869 28.6962C24.8009 28.1029 25.718 27.9923 26.3529 28.5353Z" fill="#3CAA9F"/>
<path d="M22.5131 33.5531C23.2287 33.9754 23.4302 34.8603 23.0473 35.5341C22.6341 36.2581 21.7573 36.4692 21.0619 36.1273C20.3363 35.7151 20.1045 34.7799 20.4976 34.1062C20.941 33.4123 21.7875 33.1509 22.5131 33.5531Z" fill="#3CAA9F"/>
<path d="M19.6005 39.1836C20.3865 39.4652 20.7594 40.2897 20.4974 41.054C20.2051 41.8282 19.3384 42.2003 18.6128 41.8886C17.8268 41.6472 17.4539 40.8126 17.7361 40.0585C18.0082 39.3144 18.8648 38.9121 19.6005 39.1836Z" fill="#3CAA9F"/>
<path d="M17.7365 45.2273C18.5024 45.3681 19.0265 46.1223 18.8854 46.8865C18.7846 47.7312 17.9985 48.254 17.2326 48.1032C16.4163 47.9624 15.8822 47.2083 16.0031 46.4038C16.1543 45.5994 16.9404 45.0865 17.7365 45.2273Z" fill="#3CAA9F"/>
<path d="M16.92 51.5117C17.7363 51.5117 18.3712 52.1352 18.3712 52.9798C18.3712 53.8044 17.7363 54.4178 16.92 54.4178C16.1037 54.458 15.4285 53.7642 15.4285 52.9798C15.4587 52.1854 16.1037 51.5117 16.92 51.5117Z" fill="#3CAA9F"/>
<path d="M17.192 57.8269C17.9982 57.7062 18.7339 58.2291 18.8851 59.0134C19.0463 59.8581 18.492 60.5318 17.7362 60.7329C16.9199 60.8838 16.1338 60.3307 16.0028 59.486C15.902 58.7319 16.416 57.9375 17.192 57.8269Z" fill="#3CAA9F"/>
<path d="M18.5924 63.9906C19.3483 63.7191 20.1646 64.071 20.4669 64.9056C20.7591 65.6699 20.3359 66.4441 19.6002 66.776C18.8343 67.0877 17.9978 66.6352 17.7358 65.8509C17.4536 65.1067 17.8265 64.3124 18.5924 63.9906Z" fill="#3CAA9F"/>
<path d="M21.7771 72.5979C22.5953 72.5979 23.2585 71.9361 23.2585 71.1198C23.2585 70.3034 22.5953 69.6416 21.7771 69.6416C20.9589 69.6416 20.2957 70.3034 20.2957 71.1198C20.2957 71.9361 20.9589 72.5979 21.7771 72.5979Z" fill="#3CAA9F"/>
<path d="M24.438 75.1926C25.093 74.6597 26 74.7603 26.514 75.3837C27.0481 75.977 26.9574 76.8719 26.3528 77.4049C25.7179 77.968 24.8008 77.8674 24.2868 77.254C23.8031 76.5904 23.8434 75.6653 24.438 75.1926Z" fill="#3CAA9F"/>
<path d="M28.7612 79.8484C29.3054 79.225 30.162 79.1244 30.8372 79.6976C31.4519 80.1903 31.4922 81.1355 31.0085 81.6785C30.4945 82.3422 29.5775 82.3824 28.9426 81.8595C28.348 81.3467 28.2472 80.5221 28.7612 79.8484Z" fill="#3CAA9F"/>
<path d="M33.7999 83.7C34.2433 82.9961 35.0697 82.6944 35.8053 83.1469C36.5209 83.5391 36.7224 84.424 36.3697 85.1077C35.9767 85.8418 35.0596 86.0731 34.3441 85.6407C33.6386 85.2485 33.3968 84.3335 33.7999 83.7Z" fill="#3CAA9F"/>
<path d="M39.4135 86.6063C39.7159 85.8018 40.5019 85.4499 41.3082 85.7214C42.064 86.0029 42.4671 86.7873 42.2051 87.5515C41.9531 88.3559 41.1066 88.7481 40.3306 88.4766C39.5748 88.1448 39.1616 87.3102 39.4135 86.6063Z" fill="#3CAA9F"/>
<path d="M45.49 88.4762C45.6512 87.6718 46.397 87.1187 47.2032 87.3198C48.0195 87.4003 48.5133 88.1846 48.3823 88.9488C48.2513 89.7734 47.4854 90.2963 46.6993 90.1857C45.8931 90.0248 45.369 89.2605 45.49 88.4762Z" fill="#3CAA9F"/>
<path d="M51.7688 89.3003C51.8091 88.4758 52.444 87.8624 53.2805 87.792C54.0665 87.792 54.6914 88.4758 54.7417 89.2702C54.7417 90.0947 54.0262 90.7785 53.2805 90.7785C52.444 90.7684 51.7688 90.0444 51.7688 89.3003Z" fill="#3CAA9F"/>
<path d="M58.1176 88.9895C58.0168 88.1449 58.4703 87.4309 59.337 87.3103C60.1533 87.1091 60.8789 87.7225 61.0099 88.4063C61.2014 89.251 60.6068 90.0353 59.851 90.1761C59.0246 90.2968 58.2587 89.7739 58.1176 88.9895Z" fill="#3CAA9F"/>
<path d="M64.2956 87.5916C64.0638 86.7872 64.3964 86.0431 65.2026 85.7213C65.9685 85.3694 66.7646 85.842 67.0468 86.5056C67.3895 87.3101 66.9763 88.1749 66.1701 88.4665C65.4142 88.6877 64.5979 88.3559 64.2956 87.5916Z" fill="#3CAA9F"/>
<path d="M70.1912 85.1577C69.778 84.4237 69.9997 83.6192 70.7354 83.1466C71.4307 82.6941 72.247 82.9857 72.6602 83.6594C73.1339 84.3332 72.8819 85.2884 72.2067 85.7208C71.461 86.0728 70.5741 85.8415 70.1912 85.1577Z" fill="#3CAA9F"/>
<path d="M75.532 81.759C75.018 81.1255 75.0583 80.2507 75.6831 79.6976C76.3382 79.1245 77.1747 79.2854 77.739 79.8585C78.3235 80.5222 78.2026 81.4473 77.5778 81.9601C76.9429 82.3825 76.0459 82.3422 75.532 81.759Z" fill="#3CAA9F"/>
<path d="M80.158 77.4552C79.5937 76.882 79.4526 76.0173 79.9968 75.3938C80.5511 74.7603 81.4379 74.7603 82.0224 75.2028C82.7379 75.6754 82.7379 76.6809 82.2744 77.3044C81.6798 77.8675 80.7829 77.968 80.158 77.4552Z" fill="#3CAA9F"/>
<path d="M83.9974 72.4071C83.2819 71.9747 83.04 71.13 83.4733 70.3859C83.8865 69.6619 84.7935 69.5211 85.4385 69.8328C86.2246 70.2049 86.406 71.13 86.0432 71.8942C85.5494 72.5679 84.7532 72.8193 83.9974 72.4071Z" fill="#3CAA9F"/>
<path d="M86.9403 66.7761C86.1341 66.4442 85.8015 65.6901 86.0938 64.8957C86.3054 64.1013 87.1822 63.7896 87.8876 64.0309C88.7443 64.3024 89.0869 65.1772 88.835 65.9314C88.5024 66.6353 87.6559 67.0878 86.9403 66.7761Z" fill="#3CAA9F"/>
<path d="M88.8349 60.733C88.0387 60.5319 87.5349 59.8984 87.5852 59.0135C87.7465 58.2392 88.5527 57.7465 89.2985 57.9074C90.1148 57.9376 90.6388 58.7319 90.5481 59.5666C90.3365 60.3609 89.6008 60.8838 88.8349 60.733Z" fill="#3CAA9F"/>
<path d="M89.6311 54.4581C88.7946 54.4179 88.2 53.8648 88.1497 52.9799C88.1497 52.1855 88.8249 51.5822 89.5908 51.5822C90.4575 51.5118 91.1327 52.1855 91.1327 52.9799C91.0823 53.8045 90.3365 54.4581 89.6311 54.4581Z" fill="#3CAA9F"/>
<path d="M89.3288 48.1631C88.5024 48.2436 87.8373 47.7609 87.5853 46.9263C87.4846 46.1218 88.0388 45.428 88.7947 45.247C89.6311 45.076 90.3366 45.6291 90.5482 46.3933C90.6389 47.2682 90.0443 47.962 89.3288 48.1631Z" fill="#3CAA9F"/>
<path d="M87.9576 41.9596C87.1917 42.1909 86.4057 41.849 86.1033 41.0546C85.7304 40.3306 86.2243 39.5061 86.8793 39.2245C87.6553 38.8726 88.5421 39.315 88.8344 40.0591C89.0863 40.8133 88.6933 41.7384 87.9576 41.9596Z" fill="#3CAA9F"/>
<path d="M85.4991 36.1269C84.7937 36.4789 83.9471 36.2878 83.4735 35.5336C83.0402 34.9102 83.3324 34.0253 83.9975 33.5829C84.7534 33.1505 85.6201 33.4119 86.0433 34.1058C86.4061 34.7795 86.134 35.7348 85.4991 36.1269Z" fill="#3CAA9F"/>
<path d="M82.1137 30.7675C81.4384 31.3307 80.602 31.1999 79.9973 30.6067C79.4531 29.9329 79.6345 29.1385 80.1586 28.5855C80.7834 27.9922 81.7206 28.1129 82.2749 28.7062C82.7385 29.3497 82.6478 30.2849 82.1137 30.7675Z" fill="#3CAA9F"/>
<path d="M77.7799 26.142C77.1752 26.7554 76.4294 26.7856 75.6837 26.313C75.079 25.8303 75.0589 24.8851 75.5325 24.2918C76.0465 23.598 77.024 23.5376 77.5783 24.0203C78.2031 24.6236 78.2636 25.5588 77.7799 26.142Z" fill="#3CAA9F"/>
<path d="M72.7201 22.28C72.3069 22.9738 71.4806 23.2051 70.7348 22.823C70.0394 22.4509 69.8379 21.566 70.1906 20.832C70.5534 20.118 71.4806 19.8968 72.2062 20.2186C72.9519 20.7113 73.1333 21.6163 72.7201 22.28Z" fill="#3CAA9F"/>
<path d="M67.0671 19.3953C66.7647 20.1495 66.019 20.4713 65.2027 20.2199C64.4267 19.9987 64.1244 19.1842 64.3158 18.4099C64.5779 17.5753 65.4546 17.2032 66.2205 17.4948C67.0268 17.8066 67.3896 18.6814 67.0671 19.3953Z" fill="#3CAA9F"/>
<path d="M61.0301 17.4942C60.879 18.3187 60.1836 18.7411 59.3371 18.6606C58.5309 18.5601 58.0471 17.8059 58.1378 17.0216C58.2386 16.187 59.0549 15.6339 59.851 15.7445C60.7077 15.9456 61.2015 16.7802 61.0301 17.4942Z" fill="#3CAA9F"/>
<path d="M53.2804 87.079C34.4148 87.079 19.1067 71.8146 19.1067 52.9805C19.1067 34.1766 34.4148 18.8721 53.2804 18.8721C72.1258 18.8721 87.444 34.1766 87.444 52.9805C87.444 71.8146 72.1258 87.079 53.2804 87.079ZM53.2804 19.8977C34.959 19.8977 20.1044 34.7397 20.1044 52.9805C20.1044 71.2716 34.9691 86.0835 53.2804 86.0835C71.5917 86.0835 86.4362 71.2716 86.4362 52.9805C86.4362 34.7397 71.5917 19.8977 53.2804 19.8977Z" fill="#3CAA9F"/>
<path d="M43.898 51.7417H62.7031V43.2548C62.7031 41.4348 62.6023 40.0974 62.4008 39.2427C62.1891 38.3678 61.8163 37.674 61.262 37.0908C60.7783 36.588 60.224 36.2159 59.5891 35.9947C58.9643 35.7534 58.1379 35.6126 57.1099 35.5623V34.959H74.0406V35.5623C73.0227 35.6126 72.2064 35.7534 71.5917 35.9947C70.9669 36.2159 70.4025 36.588 69.9087 37.0908C69.3544 37.674 68.9816 38.3678 68.7901 39.2427C68.5684 40.1175 68.4676 41.4549 68.4676 43.2548V62.7425C68.4676 64.5425 68.5684 65.8798 68.78 66.7145C68.9816 67.5893 69.3544 68.3032 69.9087 68.8865C70.4025 69.3792 70.9669 69.7512 71.5917 69.9825C72.2165 70.2339 73.0328 70.3747 74.0406 70.4149V71.0283H57.1099V70.425C58.1379 70.3847 58.9643 70.244 59.5891 69.9926C60.224 69.7613 60.7682 69.3792 61.262 68.8965C61.8163 68.3334 62.1891 67.6295 62.3907 66.7647C62.6023 65.9 62.693 64.5626 62.693 62.7526V52.9987H43.898V62.7526C43.898 64.5525 43.9988 65.8899 44.2003 66.7647C44.412 67.6295 44.7848 68.3334 45.329 68.8965C45.8027 69.3892 46.357 69.7613 46.9818 69.9926C47.6066 70.244 48.433 70.3847 49.4609 70.425V71.0383H32.5303V70.425C33.5582 70.3847 34.3846 70.244 35.0094 69.9926C35.6241 69.7512 36.1885 69.3792 36.6622 68.8865C37.2366 68.3233 37.6095 67.6195 37.7909 66.7547C37.9924 65.8899 38.0831 64.5525 38.0831 62.7425V43.2548C38.0831 41.4348 37.9924 40.0974 37.7909 39.2427C37.6095 38.3678 37.2366 37.674 36.6622 37.0908C36.1885 36.588 35.6241 36.2159 34.9993 35.9947C34.3543 35.7534 33.5381 35.6126 32.5303 35.5623V34.959H49.4609V35.5623C48.4531 35.6126 47.6268 35.7534 47.0019 35.9947C46.3771 36.2159 45.8228 36.588 45.319 37.0908C44.7748 37.674 44.4019 38.3678 44.2003 39.2427C43.9988 40.1175 43.898 41.4549 43.898 43.2548V51.7417Z" fill="url(#paint28_linear_2389_11846)"/>
<defs>
<linearGradient id="paint0_linear_2389_11846" x1="58.0991" y1="14.5005" x2="57.8828" y2="8.4931" gradientUnits="userSpaceOnUse">
<stop stop-color="#3CAA9F"/>
<stop offset="0.0528" stop-color="#3CAA9F"/>
<stop offset="0.1288" stop-color="#37BDB0"/>
<stop offset="0.2187" stop-color="#13B1A2"/>
<stop offset="0.3185" stop-color="#249C90"/>
<stop offset="0.411458" stop-color="#27B7A8"/>
<stop offset="0.5161" stop-color="#0F9184"/>
<stop offset="0.6613" stop-color="#1CCFBD"/>
<stop offset="1" stop-color="#04AA99"/>
</linearGradient>
<linearGradient id="paint1_linear_2389_11846" x1="39.3026" y1="23.0201" x2="37.4847" y2="7.48232" gradientUnits="userSpaceOnUse">
<stop stop-color="#3CAA9F"/>
<stop offset="0.0528" stop-color="#3CAA9F"/>
<stop offset="0.1288" stop-color="#37BDB0"/>
<stop offset="0.2187" stop-color="#13B1A2"/>
<stop offset="0.3185" stop-color="#249C90"/>
<stop offset="0.411458" stop-color="#27B7A8"/>
<stop offset="0.5161" stop-color="#0F9184"/>
<stop offset="0.6613" stop-color="#1CCFBD"/>
<stop offset="1" stop-color="#04AA99"/>
</linearGradient>
<linearGradient id="paint2_linear_2389_11846" x1="23.7908" y1="37.7" x2="18.2432" y2="16.3477" gradientUnits="userSpaceOnUse">
<stop stop-color="#3CAA9F"/>
<stop offset="0.0528" stop-color="#3CAA9F"/>
<stop offset="0.1288" stop-color="#37BDB0"/>
<stop offset="0.2187" stop-color="#13B1A2"/>
<stop offset="0.3185" stop-color="#249C90"/>
<stop offset="0.411458" stop-color="#27B7A8"/>
<stop offset="0.5161" stop-color="#0F9184"/>
<stop offset="0.6613" stop-color="#1CCFBD"/>
<stop offset="1" stop-color="#04AA99"/>
</linearGradient>
<linearGradient id="paint3_linear_2389_11846" x1="15.0021" y1="55.319" x2="4.09351" y2="36.1054" gradientUnits="userSpaceOnUse">
<stop stop-color="#3CAA9F"/>
<stop offset="0.0528" stop-color="#3CAA9F"/>
<stop offset="0.1288" stop-color="#37BDB0"/>
<stop offset="0.2187" stop-color="#13B1A2"/>
<stop offset="0.3185" stop-color="#249C90"/>
<stop offset="0.411458" stop-color="#27B7A8"/>
<stop offset="0.5161" stop-color="#0F9184"/>
<stop offset="0.6613" stop-color="#1CCFBD"/>
<stop offset="1" stop-color="#04AA99"/>
</linearGradient>
<linearGradient id="paint4_linear_2389_11846" x1="14.803" y1="72.4734" x2="8.11279" y2="51.5623" gradientUnits="userSpaceOnUse">
<stop stop-color="#3CAA9F"/>
<stop offset="0.0528" stop-color="#3CAA9F"/>
<stop offset="0.1288" stop-color="#37BDB0"/>
<stop offset="0.2187" stop-color="#13B1A2"/>
<stop offset="0.3185" stop-color="#249C90"/>
<stop offset="0.411458" stop-color="#27B7A8"/>
<stop offset="0.5161" stop-color="#0F9184"/>
<stop offset="0.6613" stop-color="#1CCFBD"/>
<stop offset="1" stop-color="#04AA99"/>
</linearGradient>
<linearGradient id="paint5_linear_2389_11846" x1="24.1957" y1="86.0091" x2="22.1168" y2="69.5745" gradientUnits="userSpaceOnUse">
<stop stop-color="#3CAA9F"/>
<stop offset="0.0528" stop-color="#3CAA9F"/>
<stop offset="0.1288" stop-color="#37BDB0"/>
<stop offset="0.2187" stop-color="#13B1A2"/>
<stop offset="0.3185" stop-color="#249C90"/>
<stop offset="0.411458" stop-color="#27B7A8"/>
<stop offset="0.5161" stop-color="#0F9184"/>
<stop offset="0.6613" stop-color="#1CCFBD"/>
<stop offset="1" stop-color="#04AA99"/>
</linearGradient>
<linearGradient id="paint6_linear_2389_11846" x1="39.2638" y1="94.029" x2="38.6771" y2="84.1704" gradientUnits="userSpaceOnUse">
<stop stop-color="#3CAA9F"/>
<stop offset="0.0528" stop-color="#3CAA9F"/>
<stop offset="0.1288" stop-color="#37BDB0"/>
<stop offset="0.2187" stop-color="#13B1A2"/>
<stop offset="0.3185" stop-color="#249C90"/>
<stop offset="0.411458" stop-color="#27B7A8"/>
<stop offset="0.5161" stop-color="#0F9184"/>
<stop offset="0.6613" stop-color="#1CCFBD"/>
<stop offset="1" stop-color="#04AA99"/>
</linearGradient>
<linearGradient id="paint7_linear_2389_11846" x1="57.0579" y1="96.6827" x2="56.8587" y2="90.9004" gradientUnits="userSpaceOnUse">
<stop stop-color="#3CAA9F"/>
<stop offset="0.0528" stop-color="#3CAA9F"/>
<stop offset="0.1288" stop-color="#37BDB0"/>
<stop offset="0.2187" stop-color="#13B1A2"/>
<stop offset="0.3185" stop-color="#249C90"/>
<stop offset="0.411458" stop-color="#27B7A8"/>
<stop offset="0.5161" stop-color="#0F9184"/>
<stop offset="0.6613" stop-color="#1CCFBD"/>
<stop offset="1" stop-color="#04AA99"/>
</linearGradient>
<linearGradient id="paint8_linear_2389_11846" x1="74.1368" y1="97.9525" x2="72.4593" y2="82.869" gradientUnits="userSpaceOnUse">
<stop stop-color="#3CAA9F"/>
<stop offset="0.0528" stop-color="#3CAA9F"/>
<stop offset="0.1288" stop-color="#37BDB0"/>
<stop offset="0.2187" stop-color="#13B1A2"/>
<stop offset="0.3185" stop-color="#249C90"/>
<stop offset="0.411458" stop-color="#27B7A8"/>
<stop offset="0.5161" stop-color="#0F9184"/>
<stop offset="0.6613" stop-color="#1CCFBD"/>
<stop offset="1" stop-color="#04AA99"/>
</linearGradient>
<linearGradient id="paint9_linear_2389_11846" x1="87.2758" y1="90.4467" x2="82.0143" y2="69.2647" gradientUnits="userSpaceOnUse">
<stop stop-color="#3CAA9F"/>
<stop offset="0.0528" stop-color="#3CAA9F"/>
<stop offset="0.1288" stop-color="#37BDB0"/>
<stop offset="0.2187" stop-color="#13B1A2"/>
<stop offset="0.3185" stop-color="#249C90"/>
<stop offset="0.411458" stop-color="#27B7A8"/>
<stop offset="0.5161" stop-color="#0F9184"/>
<stop offset="0.6613" stop-color="#1CCFBD"/>
<stop offset="1" stop-color="#04AA99"/>
</linearGradient>
<linearGradient id="paint10_linear_2389_11846" x1="94.0257" y1="75.6709" x2="83.4406" y2="55.9764" gradientUnits="userSpaceOnUse">
<stop stop-color="#3CAA9F"/>
<stop offset="0.0528" stop-color="#3CAA9F"/>
<stop offset="0.1288" stop-color="#37BDB0"/>
<stop offset="0.2187" stop-color="#13B1A2"/>
<stop offset="0.3185" stop-color="#249C90"/>
<stop offset="0.411458" stop-color="#27B7A8"/>
<stop offset="0.5161" stop-color="#0F9184"/>
<stop offset="0.6613" stop-color="#1CCFBD"/>
<stop offset="1" stop-color="#04AA99"/>
</linearGradient>
<linearGradient id="paint11_linear_2389_11846" x1="96.0504" y1="56.438" x2="88.8954" y2="35.5702" gradientUnits="userSpaceOnUse">
<stop stop-color="#3CAA9F"/>
<stop offset="0.0528" stop-color="#3CAA9F"/>
<stop offset="0.1288" stop-color="#37BDB0"/>
<stop offset="0.2187" stop-color="#13B1A2"/>
<stop offset="0.3185" stop-color="#249C90"/>
<stop offset="0.411458" stop-color="#27B7A8"/>
<stop offset="0.5161" stop-color="#0F9184"/>
<stop offset="0.6613" stop-color="#1CCFBD"/>
<stop offset="1" stop-color="#04AA99"/>
</linearGradient>
<linearGradient id="paint12_linear_2389_11846" x1="90.5809" y1="36.7037" x2="88.3545" y2="19.8829" gradientUnits="userSpaceOnUse">
<stop stop-color="#3CAA9F"/>
<stop offset="0.0528" stop-color="#3CAA9F"/>
<stop offset="0.1288" stop-color="#37BDB0"/>
<stop offset="0.2187" stop-color="#13B1A2"/>
<stop offset="0.3185" stop-color="#249C90"/>
<stop offset="0.411458" stop-color="#27B7A8"/>
<stop offset="0.5161" stop-color="#0F9184"/>
<stop offset="0.6613" stop-color="#1CCFBD"/>
<stop offset="1" stop-color="#04AA99"/>
</linearGradient>
<linearGradient id="paint13_linear_2389_11846" x1="77.8472" y1="21.8083" x2="77.2129" y2="11.5916" gradientUnits="userSpaceOnUse">
<stop stop-color="#3CAA9F"/>
<stop offset="0.0528" stop-color="#3CAA9F"/>
<stop offset="0.1288" stop-color="#37BDB0"/>
<stop offset="0.2187" stop-color="#13B1A2"/>
<stop offset="0.3185" stop-color="#249C90"/>
<stop offset="0.411458" stop-color="#27B7A8"/>
<stop offset="0.5161" stop-color="#0F9184"/>
<stop offset="0.6613" stop-color="#1CCFBD"/>
<stop offset="1" stop-color="#04AA99"/>
</linearGradient>
<linearGradient id="paint14_linear_2389_11846" x1="56.8692" y1="24.1668" x2="56.7094" y2="19.7001" gradientUnits="userSpaceOnUse">
<stop stop-color="#3CAA9F"/>
<stop offset="0.0528" stop-color="#3CAA9F"/>
<stop offset="0.1288" stop-color="#37BDB0"/>
<stop offset="0.2187" stop-color="#13B1A2"/>
<stop offset="0.3185" stop-color="#249C90"/>
<stop offset="0.411458" stop-color="#27B7A8"/>
<stop offset="0.5161" stop-color="#0F9184"/>
<stop offset="0.6613" stop-color="#1CCFBD"/>
<stop offset="1" stop-color="#04AA99"/>
</linearGradient>
<linearGradient id="paint15_linear_2389_11846" x1="69.5424" y1="30.5679" x2="68.178" y2="18.9267" gradientUnits="userSpaceOnUse">
<stop stop-color="#3CAA9F"/>
<stop offset="0.0528" stop-color="#3CAA9F"/>
<stop offset="0.1288" stop-color="#37BDB0"/>
<stop offset="0.2187" stop-color="#13B1A2"/>
<stop offset="0.3185" stop-color="#249C90"/>
<stop offset="0.411458" stop-color="#27B7A8"/>
<stop offset="0.5161" stop-color="#0F9184"/>
<stop offset="0.6613" stop-color="#1CCFBD"/>
<stop offset="1" stop-color="#04AA99"/>
</linearGradient>
<linearGradient id="paint16_linear_2389_11846" x1="79.1274" y1="41.5449" x2="74.9742" y2="25.561" gradientUnits="userSpaceOnUse">
<stop stop-color="#3CAA9F"/>
<stop offset="0.0528" stop-color="#3CAA9F"/>
<stop offset="0.1288" stop-color="#37BDB0"/>
<stop offset="0.2187" stop-color="#13B1A2"/>
<stop offset="0.3185" stop-color="#249C90"/>
<stop offset="0.411458" stop-color="#27B7A8"/>
<stop offset="0.5161" stop-color="#0F9184"/>
<stop offset="0.6613" stop-color="#1CCFBD"/>
<stop offset="1" stop-color="#04AA99"/>
</linearGradient>
<linearGradient id="paint17_linear_2389_11846" x1="83.8645" y1="54.7382" x2="75.7266" y2="40.3416" gradientUnits="userSpaceOnUse">
<stop stop-color="#3CAA9F"/>
<stop offset="0.0528" stop-color="#3CAA9F"/>
<stop offset="0.1288" stop-color="#37BDB0"/>
<stop offset="0.2187" stop-color="#13B1A2"/>
<stop offset="0.3185" stop-color="#249C90"/>
<stop offset="0.411458" stop-color="#27B7A8"/>
<stop offset="0.5161" stop-color="#0F9184"/>
<stop offset="0.6613" stop-color="#1CCFBD"/>
<stop offset="1" stop-color="#04AA99"/>
</linearGradient>
<linearGradient id="paint18_linear_2389_11846" x1="85.192" y1="67.5662" x2="80.1929" y2="51.9121" gradientUnits="userSpaceOnUse">
<stop stop-color="#3CAA9F"/>
<stop offset="0.0528" stop-color="#3CAA9F"/>
<stop offset="0.1288" stop-color="#37BDB0"/>
<stop offset="0.2187" stop-color="#13B1A2"/>
<stop offset="0.3185" stop-color="#249C90"/>
<stop offset="0.411458" stop-color="#27B7A8"/>
<stop offset="0.5161" stop-color="#0F9184"/>
<stop offset="0.6613" stop-color="#1CCFBD"/>
<stop offset="1" stop-color="#04AA99"/>
</linearGradient>
<linearGradient id="paint19_linear_2389_11846" x1="80.7491" y1="77.7034" x2="79.1957" y2="65.4039" gradientUnits="userSpaceOnUse">
<stop stop-color="#3CAA9F"/>
<stop offset="0.0528" stop-color="#3CAA9F"/>
<stop offset="0.1288" stop-color="#37BDB0"/>
<stop offset="0.2187" stop-color="#13B1A2"/>
<stop offset="0.3185" stop-color="#249C90"/>
<stop offset="0.411458" stop-color="#27B7A8"/>
<stop offset="0.5161" stop-color="#0F9184"/>
<stop offset="0.6613" stop-color="#1CCFBD"/>
<stop offset="1" stop-color="#04AA99"/>
</linearGradient>
<linearGradient id="paint20_linear_2389_11846" x1="70.9371" y1="83.6966" x2="70.4988" y2="76.3233" gradientUnits="userSpaceOnUse">
<stop stop-color="#3CAA9F"/>
<stop offset="0.0528" stop-color="#3CAA9F"/>
<stop offset="0.1288" stop-color="#37BDB0"/>
<stop offset="0.2187" stop-color="#13B1A2"/>
<stop offset="0.3185" stop-color="#249C90"/>
<stop offset="0.411458" stop-color="#27B7A8"/>
<stop offset="0.5161" stop-color="#0F9184"/>
<stop offset="0.6613" stop-color="#1CCFBD"/>
<stop offset="1" stop-color="#04AA99"/>
</linearGradient>
<linearGradient id="paint21_linear_2389_11846" x1="57.6879" y1="85.694" x2="57.5394" y2="81.3736" gradientUnits="userSpaceOnUse">
<stop stop-color="#3CAA9F"/>
<stop offset="0.0528" stop-color="#3CAA9F"/>
<stop offset="0.1288" stop-color="#37BDB0"/>
<stop offset="0.2187" stop-color="#13B1A2"/>
<stop offset="0.3185" stop-color="#249C90"/>
<stop offset="0.411458" stop-color="#27B7A8"/>
<stop offset="0.5161" stop-color="#0F9184"/>
<stop offset="0.6613" stop-color="#1CCFBD"/>
<stop offset="1" stop-color="#04AA99"/>
</linearGradient>
<linearGradient id="paint22_linear_2389_11846" x1="43.5801" y1="86.6609" x2="42.3197" y2="75.3518" gradientUnits="userSpaceOnUse">
<stop stop-color="#3CAA9F"/>
<stop offset="0.0528" stop-color="#3CAA9F"/>
<stop offset="0.1288" stop-color="#37BDB0"/>
<stop offset="0.2187" stop-color="#13B1A2"/>
<stop offset="0.3185" stop-color="#249C90"/>
<stop offset="0.411458" stop-color="#27B7A8"/>
<stop offset="0.5161" stop-color="#0F9184"/>
<stop offset="0.6613" stop-color="#1CCFBD"/>
<stop offset="1" stop-color="#04AA99"/>
</linearGradient>
<linearGradient id="paint23_linear_2389_11846" x1="31.7373" y1="81.032" x2="27.8017" y2="65.1805" gradientUnits="userSpaceOnUse">
<stop stop-color="#3CAA9F"/>
<stop offset="0.0528" stop-color="#3CAA9F"/>
<stop offset="0.1288" stop-color="#37BDB0"/>
<stop offset="0.2187" stop-color="#13B1A2"/>
<stop offset="0.3185" stop-color="#249C90"/>
<stop offset="0.411458" stop-color="#27B7A8"/>
<stop offset="0.5161" stop-color="#0F9184"/>
<stop offset="0.6613" stop-color="#1CCFBD"/>
<stop offset="1" stop-color="#04AA99"/>
</linearGradient>
<linearGradient id="paint24_linear_2389_11846" x1="24.8223" y1="69.9619" x2="16.8863" y2="55.2445" gradientUnits="userSpaceOnUse">
<stop stop-color="#3CAA9F"/>
<stop offset="0.0528" stop-color="#3CAA9F"/>
<stop offset="0.1288" stop-color="#37BDB0"/>
<stop offset="0.2187" stop-color="#13B1A2"/>
<stop offset="0.3185" stop-color="#249C90"/>
<stop offset="0.411458" stop-color="#27B7A8"/>
<stop offset="0.5161" stop-color="#0F9184"/>
<stop offset="0.6613" stop-color="#1CCFBD"/>
<stop offset="1" stop-color="#04AA99"/>
</linearGradient>
<linearGradient id="paint25_linear_2389_11846" x1="24.2056" y1="55.5811" x2="18.849" y2="39.9427" gradientUnits="userSpaceOnUse">
<stop stop-color="#3CAA9F"/>
<stop offset="0.0528" stop-color="#3CAA9F"/>
<stop offset="0.1288" stop-color="#37BDB0"/>
<stop offset="0.2187" stop-color="#13B1A2"/>
<stop offset="0.3185" stop-color="#249C90"/>
<stop offset="0.411458" stop-color="#27B7A8"/>
<stop offset="0.5161" stop-color="#0F9184"/>
<stop offset="0.6613" stop-color="#1CCFBD"/>
<stop offset="1" stop-color="#04AA99"/>
</linearGradient>
<linearGradient id="paint26_linear_2389_11846" x1="30.9384" y1="40.8006" x2="29.2729" y2="28.2128" gradientUnits="userSpaceOnUse">
<stop stop-color="#3CAA9F"/>
<stop offset="0.0528" stop-color="#3CAA9F"/>
<stop offset="0.1288" stop-color="#37BDB0"/>
<stop offset="0.2187" stop-color="#13B1A2"/>
<stop offset="0.3185" stop-color="#249C90"/>
<stop offset="0.411458" stop-color="#27B7A8"/>
<stop offset="0.5161" stop-color="#0F9184"/>
<stop offset="0.6613" stop-color="#1CCFBD"/>
<stop offset="1" stop-color="#04AA99"/>
</linearGradient>
<linearGradient id="paint27_linear_2389_11846" x1="42.0036" y1="29.665" x2="41.5253" y2="21.9904" gradientUnits="userSpaceOnUse">
<stop stop-color="#3CAA9F"/>
<stop offset="0.0528" stop-color="#3CAA9F"/>
<stop offset="0.1288" stop-color="#37BDB0"/>
<stop offset="0.2187" stop-color="#13B1A2"/>
<stop offset="0.3185" stop-color="#249C90"/>
<stop offset="0.411458" stop-color="#27B7A8"/>
<stop offset="0.5161" stop-color="#0F9184"/>
<stop offset="0.6613" stop-color="#1CCFBD"/>
<stop offset="1" stop-color="#04AA99"/>
</linearGradient>
<linearGradient id="paint28_linear_2389_11846" x1="46.943" y1="35.2058" x2="74.5787" y2="79.4987" gradientUnits="userSpaceOnUse">
<stop stop-color="#3CAA9F"/>
<stop offset="0.0885417" stop-color="#099183"/>
<stop offset="0.213542" stop-color="#1D988B"/>
<stop offset="0.307292" stop-color="#1B9285"/>
<stop offset="0.432292" stop-color="#1C9A8D"/>
<stop offset="0.640625" stop-color="#21BCAC"/>
<stop offset="0.78125" stop-color="#0FAA9A"/>
<stop offset="1" stop-color="#009484"/>
</linearGradient>
</defs>
</svg>
