<svg width="120" height="118" viewBox="0 0 120 118" fill="none" xmlns="http://www.w3.org/2000/svg">
<path d="M46.3281 7.37703C46.3281 7.37703 46.3681 7.20438 46.5012 6.95204C46.621 6.6997 46.8472 6.31456 47.1933 5.88957C47.5394 5.46458 48.0185 5.02631 48.6042 4.60132C48.897 4.4021 49.2165 4.26929 49.5625 4.0568C49.8953 3.92399 50.2813 3.75134 50.654 3.67165C51.4126 3.44588 52.2246 3.33963 53.0631 3.35291C53.9017 3.32635 54.7535 3.43259 55.6054 3.60525C56.4439 3.80446 57.349 4.00367 58.1743 4.3357C59.0128 4.65444 59.8513 4.9599 60.6899 5.27864C61.5284 5.57082 62.3137 5.83644 63.1789 5.94269C64.0308 6.11534 64.8959 6.19503 65.7212 6.16847C66.5597 6.14191 67.3983 6.02238 68.1703 5.7966C68.9689 5.57083 69.7142 5.26536 70.3798 4.86694C71.6975 4.09664 72.7756 3.10057 73.4278 2.29043C74.1066 1.50686 74.4527 0.962341 74.4527 0.962341C74.4527 0.962341 74.1998 1.55998 73.6275 2.48965C73.0285 3.37947 72.0569 4.681 70.6327 5.74348C69.9272 6.288 69.1153 6.72627 68.2368 7.07157C67.3716 7.40359 66.4399 7.62937 65.5082 7.7489C64.5765 7.77546 63.6181 7.82858 62.6997 7.66921C61.7813 7.54968 60.8496 7.27078 59.9711 6.9786C59.1459 6.64658 58.3074 6.31456 57.4954 5.96925C56.6968 5.63723 55.8716 5.38489 55.0996 5.13255C54.301 4.93334 53.529 4.73413 52.7703 4.65444C52.0116 4.60132 51.2928 4.57475 50.6007 4.65444C49.9086 4.76069 49.283 4.93334 48.7107 5.18568C48.1649 5.43802 47.6991 5.78332 47.3397 6.11534C46.6076 6.79267 46.3281 7.37703 46.3281 7.37703Z" fill="url(#paint0_linear_2389_11658)"/>
<path d="M25.4973 18.4268C25.4973 18.4268 25.4707 18.2807 25.4707 17.9752C25.4707 17.6963 25.4973 17.2447 25.6437 16.7401C25.7768 16.2088 26.0031 15.5581 26.3492 14.9471C26.5355 14.6682 26.7618 14.3893 26.9881 14.044C27.241 13.7917 27.4939 13.4862 27.8 13.2339C28.3857 12.6894 29.0645 12.2511 29.8232 11.9058C30.5818 11.5472 31.4071 11.255 32.2456 11.0426C33.0975 10.8699 33.976 10.6441 34.8677 10.6176C35.7728 10.5379 36.638 10.4449 37.5298 10.3918C38.4349 10.2855 39.2601 10.1926 40.0721 9.91367C40.9106 9.6879 41.7225 9.38244 42.4679 9.01057C43.2133 8.62542 43.932 8.17387 44.5177 7.62935C45.13 7.09812 45.6757 6.51376 46.1016 5.82315C46.9934 4.56146 47.5125 3.22008 47.7521 2.21073C48.0183 1.21466 48.1248 0.577179 48.1248 0.577179C48.1248 0.577179 48.1514 1.21466 48.005 2.29042C47.8719 3.37946 47.5524 4.95989 46.7139 6.51376C46.3146 7.32389 45.7688 8.05434 45.13 8.75823C44.5044 9.43556 43.7457 10.0465 42.9604 10.5379C42.1485 10.9496 41.2833 11.4011 40.3782 11.6535C39.513 11.9324 38.5414 12.105 37.6363 12.2113C36.7578 12.2644 35.8527 12.3175 34.9742 12.3839C34.0958 12.4105 33.2572 12.5167 32.432 12.6363C31.6334 12.8089 30.8347 12.9417 30.1426 13.2206C29.4238 13.4862 28.7583 13.7917 28.1727 14.1503C27.6137 14.5222 27.0946 14.9737 26.7086 15.4518C26.3226 15.9034 26.043 16.408 25.87 16.8596C25.4973 17.776 25.4973 18.4268 25.4973 18.4268Z" fill="url(#paint1_linear_2389_11658)"/>
<path d="M11.4682 37.3787C11.4682 37.3787 11.375 37.2326 11.2419 36.9537C11.1221 36.7013 10.9357 36.2763 10.8559 35.7717C10.7361 35.2139 10.6695 34.5631 10.7361 33.8592C10.776 33.5006 10.8559 33.1553 10.9357 32.7569C11.0156 32.4249 11.1354 32.0397 11.2818 31.6679C11.5879 30.9374 12.0139 30.2335 12.5596 29.6093C13.092 28.932 13.691 28.3476 14.3698 27.7898C15.0619 27.2851 15.7674 26.6875 16.5394 26.2625C17.338 25.8242 18.0833 25.3727 18.8553 24.9211C19.6273 24.443 20.3328 23.9915 20.9584 23.4071C21.6372 22.836 22.2228 22.2251 22.7286 21.5743C23.2344 20.897 23.687 20.1798 24.0064 19.4361C24.3125 18.6791 24.5521 17.9221 24.6453 17.1385C24.8849 15.6245 24.7651 14.1901 24.5388 13.1808C24.3658 12.1582 24.1661 11.5472 24.1661 11.5472C24.1661 11.5472 24.4723 12.105 24.8183 13.1542C25.1511 14.1636 25.5637 15.744 25.4572 17.5104C25.4572 18.4002 25.2709 19.3033 25.0047 20.2064C24.7252 21.0697 24.3125 21.9462 23.8068 22.7298C23.261 23.4602 22.6754 24.2438 21.9699 24.868C21.3044 25.4789 20.5058 26.05 19.7471 26.5281C18.9618 26.9797 18.1632 27.418 17.4045 27.8164C16.6192 28.2414 15.9138 28.6929 15.235 29.171C14.5828 29.6492 13.9305 30.1273 13.4114 30.6585C12.8657 31.1897 12.3999 31.7608 12.0272 32.3452C11.6811 32.9428 11.4016 33.5537 11.2685 34.1381C11.1221 34.7357 11.0822 35.2935 11.1221 35.7717C11.1753 36.7943 11.4682 37.3787 11.4682 37.3787Z" fill="url(#paint2_linear_2389_11658)"/>
<path d="M6.96957 60.4875C6.96957 60.4875 6.82315 60.4078 6.58357 60.1953C6.3706 60.0359 6.02454 59.7304 5.74502 59.3055C5.38565 58.8539 5.03958 58.2961 4.78668 57.6188C4.66689 57.2868 4.61365 56.9547 4.50717 56.5829C4.42731 56.211 4.37407 55.8259 4.36076 55.4274C4.32082 54.6439 4.38738 53.8204 4.61365 53.0103C4.8133 52.1869 5.09282 51.3767 5.4522 50.5932C5.8515 49.8362 6.2375 48.9862 6.76991 48.2823C7.28901 47.5518 7.76818 46.7948 8.27397 46.0644C8.75314 45.3074 9.20569 44.6035 9.51183 43.8199C9.88451 42.9965 10.1374 42.1863 10.3238 41.3762C10.4968 40.5528 10.59 39.7161 10.55 38.9192C10.4968 38.1091 10.3903 37.299 10.1374 36.5552C9.69817 35.1076 8.9661 33.8326 8.32721 33.0225C7.72825 32.1858 7.28901 31.6944 7.28901 31.6944C7.28901 31.6944 7.80811 32.0928 8.55349 32.8764C9.31217 33.6334 10.3504 34.8951 11.0292 36.5287C11.4285 37.3521 11.6282 38.2153 11.8012 39.1716C11.9077 40.0747 11.9077 41.0309 11.8012 41.9606C11.6282 42.8504 11.4152 43.8199 11.0558 44.6832C10.7364 45.5331 10.2306 46.3698 9.76472 47.1268C9.24562 47.8706 8.72652 48.6276 8.22073 49.3315C7.68832 50.0354 7.23577 50.726 6.82315 51.4697C6.45047 52.1603 6.05116 52.8642 5.82488 53.6079C5.57199 54.2985 5.39896 55.0423 5.30578 55.7063C5.25254 56.3837 5.26585 57.061 5.39896 57.6453C5.51875 58.2297 5.7184 58.7609 5.95799 59.1859C6.46378 60.0625 6.96957 60.4875 6.96957 60.4875Z" fill="url(#paint3_linear_2389_11658)"/>
<path d="M12.8791 83.2908C12.8791 83.2908 12.706 83.2643 12.4132 83.2111C12.147 83.1315 11.6945 82.9986 11.2685 82.7596C10.7494 82.5073 10.1904 82.1487 9.6846 81.6307C9.43171 81.3651 9.23205 81.1128 8.96585 80.8206C8.73957 80.5151 8.52661 80.1964 8.32696 79.8378C7.96758 79.1339 7.68806 78.3636 7.52834 77.5667C7.342 76.7168 7.26213 75.8801 7.24882 75.0035C7.27544 74.1403 7.27544 73.2239 7.44848 72.3473C7.6082 71.4575 7.70137 70.581 7.83448 69.7177C7.95427 68.8146 8.04744 68.0045 7.9942 67.1279C7.96758 66.2647 7.8611 65.4147 7.66144 64.6046C7.46179 63.7811 7.18227 62.9976 6.80959 62.2671C6.41028 61.5632 5.97104 60.8859 5.42532 60.3281C4.38712 59.1992 3.1892 58.3492 2.25748 57.8977C1.35238 57.393 0.753418 57.1672 0.753418 57.1672C0.753418 57.1672 1.40562 57.2868 2.4172 57.6719C3.42878 58.0438 4.90622 58.7477 6.22393 59.9031C6.94269 60.4875 7.48841 61.1914 8.06075 61.9882C8.55323 62.7452 8.96585 63.6085 9.27198 64.485C9.49826 65.3881 9.72453 66.3444 9.75115 67.274C9.83101 68.1638 9.75115 69.1599 9.67129 70.0232C9.49826 70.913 9.35184 71.8294 9.19212 72.6528C9.00578 73.5293 8.92592 74.3793 8.85937 75.1895C8.83275 75.9996 8.7795 76.7832 8.88599 77.5535C8.95254 78.3105 9.12557 79.0011 9.32522 79.6784C9.56481 80.3026 9.88426 80.9268 10.2569 81.3917C10.603 81.8831 11.0289 82.2682 11.4149 82.5604C12.2535 83.1315 12.8791 83.2908 12.8791 83.2908Z" fill="url(#paint4_linear_2389_11658)"/>
<path d="M28.0527 101.313C28.0527 101.313 27.893 101.366 27.6002 101.446C27.3206 101.472 26.8681 101.592 26.3623 101.552C25.8033 101.526 25.1245 101.419 24.4589 101.22C24.1262 101.087 23.8334 100.928 23.4607 100.782C23.1279 100.583 22.7818 100.383 22.4624 100.171C21.8235 99.6795 21.2379 99.1084 20.7587 98.4311C20.2263 97.7538 19.787 97.0366 19.3877 96.253C19.0417 95.4694 18.6424 94.646 18.4427 93.8093C18.2031 92.9062 17.897 92.0828 17.6441 91.2195C17.3646 90.3696 17.0984 89.586 16.6724 88.829C16.2731 88.0587 15.794 87.3282 15.2749 86.6775C14.7558 86.04 14.1302 85.4689 13.5179 84.9509C12.8391 84.4994 12.147 84.0611 11.4282 83.8088C9.99069 83.2111 8.55318 82.9721 7.51498 82.9455C6.47678 82.8924 5.83789 82.9455 5.83789 82.9455C5.83789 82.9455 6.47678 82.7862 7.55491 82.6932C8.64635 82.5869 10.2702 82.5869 11.9473 83.1049C12.8524 83.2908 13.651 83.676 14.5029 84.1674C15.2749 84.6322 16.0202 85.2298 16.6858 85.9072C17.2581 86.6111 17.8837 87.3548 18.3096 88.2181C18.7888 88.9883 19.1215 89.9047 19.4144 90.7281C19.6539 91.6047 19.9068 92.4945 20.1597 93.3179C20.3594 94.1812 20.6389 94.9515 20.9317 95.7351C21.2512 96.4921 21.5573 97.2358 21.9699 97.8866C22.3559 98.5108 22.8218 99.0819 23.2876 99.5998C23.7668 100.038 24.3258 100.503 24.8716 100.742C25.3907 101.034 25.963 101.207 26.4289 101.286C27.4005 101.446 28.0527 101.313 28.0527 101.313Z" fill="url(#paint5_linear_2389_11658)"/>
<path d="M49.5358 111.061C49.5358 111.061 49.416 111.167 49.203 111.367C48.9501 111.553 48.5907 111.818 48.0983 112.004C47.5925 112.23 46.9403 112.442 46.2481 112.522C45.9021 112.575 45.556 112.522 45.1567 112.575C44.7707 112.522 44.398 112.496 43.9987 112.442C43.2134 112.283 42.4281 112.031 41.7093 111.606C40.9374 111.247 40.2319 110.756 39.5265 110.238C38.861 109.667 38.1555 109.096 37.6098 108.418C36.9975 107.714 36.3852 107.09 35.773 106.426C35.1607 105.775 34.575 105.204 33.8696 104.713C33.1775 104.195 32.4321 103.73 31.6867 103.358C30.9547 103 30.1161 102.734 29.3574 102.561C28.5322 102.429 27.7469 102.349 26.9749 102.402C25.4176 102.508 24.0333 102.92 23.075 103.332C22.13 103.73 21.5576 104.036 21.5576 104.036C21.5576 104.036 22.0634 103.624 23.0084 103.079C23.9402 102.535 25.4176 101.831 27.1346 101.552C28.0397 101.34 28.9315 101.34 29.8898 101.393C30.8082 101.526 31.74 101.725 32.6184 102.043C33.457 102.429 34.3355 102.867 35.0941 103.438C35.8528 103.929 36.5317 104.607 37.1706 105.231C37.7695 105.935 38.3685 106.599 38.9408 107.25C39.4998 107.954 40.0855 108.551 40.6978 109.122C41.2967 109.64 41.8957 110.158 42.5612 110.596C43.1868 110.982 43.8656 111.327 44.5045 111.579C45.1168 111.765 45.8222 111.938 46.4345 111.938C47.0068 111.978 47.5925 111.898 48.045 111.739C49.0167 111.486 49.5358 111.061 49.5358 111.061Z" fill="url(#paint6_linear_2389_11658)"/>
<path d="M73.1215 110.65C73.1215 110.65 73.0682 110.809 72.9351 111.061C72.802 111.327 72.6024 111.739 72.2297 112.097C71.8703 112.522 71.3911 113.014 70.7922 113.372C70.486 113.585 70.1666 113.691 69.7939 113.864C69.4611 114.023 69.1018 114.156 68.7158 114.275C67.9438 114.461 67.1185 114.594 66.28 114.488C65.4281 114.488 64.5896 114.381 63.7244 114.182C62.8859 113.97 62.0074 113.757 61.2221 113.399C60.3702 113.014 59.5583 112.721 58.7064 112.389C57.8812 112.057 57.0959 111.765 56.2441 111.632C55.3922 111.46 54.527 111.38 53.6885 111.38C52.8632 111.353 52.0114 111.46 51.2394 111.632C50.4408 111.898 49.6954 112.124 49.0166 112.509C47.6323 113.266 46.5808 114.262 45.9153 115.032C45.2098 115.789 44.8372 116.334 44.8372 116.334C44.8372 116.334 45.1167 115.736 45.7289 114.833C46.3279 113.956 47.3661 112.682 48.7903 111.699C49.5224 111.101 50.3476 110.743 51.2128 110.371C52.1046 110.092 53.0097 109.853 53.968 109.773C54.8731 109.773 55.8581 109.773 56.7898 109.986C57.6949 110.078 58.6 110.397 59.4518 110.676C60.2904 111.061 61.1289 111.407 61.9275 111.739C62.7261 112.124 63.5114 112.416 64.3101 112.695C65.0954 112.907 65.8541 113.107 66.626 113.186C67.3847 113.292 68.1168 113.319 68.8089 113.266C69.4611 113.16 70.1533 113.027 70.7123 112.748C71.2447 112.509 71.7505 112.23 72.0833 111.911C72.8419 111.247 73.1215 110.65 73.1215 110.65Z" fill="url(#paint7_linear_2389_11658)"/>
<path d="M94.2444 100.118C94.2444 100.118 94.2577 100.304 94.2577 100.609C94.2444 100.901 94.2444 101.34 94.0714 101.858C93.925 102.376 93.6721 103 93.3127 103.624C93.113 103.903 92.8868 104.142 92.6206 104.474C92.381 104.74 92.1148 105.045 91.8086 105.311C91.223 105.802 90.5042 106.267 89.7455 106.546C88.9469 106.904 88.1616 107.143 87.2832 107.382C86.418 107.542 85.5395 107.714 84.6877 107.714C83.7559 107.741 82.8908 107.821 81.999 107.9C81.0806 107.954 80.242 108.033 79.4168 108.286C78.5782 108.471 77.7796 108.777 77.0076 109.122C76.2756 109.454 75.5302 109.946 74.9179 110.41C74.2923 110.982 73.7333 111.553 73.2941 112.177C72.3624 113.452 71.8433 114.78 71.5637 115.789C71.2709 116.772 71.1511 117.423 71.1511 117.423C71.1511 117.423 71.1511 116.772 71.3108 115.683C71.4706 114.621 71.8433 113.014 72.7217 111.513C73.1344 110.676 73.6934 109.999 74.3323 109.295C75.0111 108.644 75.7565 108.046 76.5684 107.582C77.3936 107.197 78.2854 106.732 79.2038 106.546C80.069 106.267 81.014 106.134 81.9058 106.028C82.8242 106.028 83.7426 105.975 84.6078 105.948C85.473 105.948 86.3381 105.868 87.1501 105.762C87.9487 105.603 88.734 105.483 89.466 105.244C90.1981 104.992 90.8636 104.686 91.4493 104.341C92.0083 104.009 92.5673 103.558 92.9533 103.066C93.326 102.654 93.6455 102.163 93.8052 101.711C94.2444 100.795 94.2444 100.118 94.2444 100.118Z" fill="url(#paint8_linear_2389_11658)"/>
<path d="M108.753 81.5775C108.753 81.5775 108.846 81.7104 108.979 81.9893C109.099 82.2549 109.285 82.6666 109.352 83.2111C109.445 83.7291 109.485 84.4064 109.418 85.1236C109.378 85.4556 109.258 85.8009 109.179 86.186C109.085 86.5579 108.966 86.9165 108.806 87.2751C108.473 87.979 108.047 88.7094 107.461 89.3071C106.916 89.9711 106.303 90.5422 105.611 91.1133C104.893 91.6046 104.174 92.1492 103.402 92.5476C102.563 92.9593 101.845 93.3976 101.046 93.8358C100.247 94.2741 99.5419 94.7124 98.903 95.2835C98.2242 95.828 97.6385 96.4788 97.0928 97.0764C96.5604 97.7272 96.1078 98.4709 95.7618 99.1748C95.4423 99.9318 95.1628 100.676 95.0563 101.433C94.7635 103 94.8567 104.421 95.043 105.43C95.2027 106.439 95.3625 107.064 95.3625 107.064C95.3625 107.064 95.1096 106.532 94.7768 105.457C94.4441 104.421 94.1113 102.84 94.2444 101.101C94.2577 100.171 94.4707 99.281 94.7502 98.4045C95.0829 97.5279 95.4823 96.6647 96.028 95.8944C96.6003 95.1905 97.1993 94.3936 97.9713 93.8491C98.6102 93.1984 99.4088 92.6804 100.181 92.2023C101.006 91.8171 101.805 91.3523 102.577 90.9539C103.375 90.5953 104.094 90.157 104.786 89.6922C105.438 89.2274 106.104 88.8157 106.663 88.2446C107.209 87.7001 107.688 87.1555 108.06 86.5845C108.407 86.0134 108.726 85.4157 108.872 84.7915C109.045 84.247 109.099 83.6494 109.072 83.2111C109.059 82.1752 108.753 81.5775 108.753 81.5775Z" fill="url(#paint9_linear_2389_11658)"/>
<path d="M113.851 58.6016C113.851 58.6016 113.997 58.6812 114.237 58.8539C114.45 59.0531 114.796 59.332 115.102 59.8101C115.408 60.2617 115.754 60.8328 115.98 61.4968C116.087 61.8288 116.14 62.1741 116.233 62.5726C116.3 62.9312 116.353 63.3296 116.366 63.7147C116.366 64.5116 116.3 65.3483 116.034 66.1053C115.807 66.9553 115.515 67.7388 115.129 68.5623C114.703 69.2927 114.277 70.1028 113.758 70.7802C113.172 71.5106 112.719 72.2411 112.2 72.9582C111.668 73.6887 111.215 74.3926 110.883 75.216C110.497 75.973 110.257 76.7964 110.031 77.6066C109.818 78.4034 109.725 79.2667 109.711 80.037C109.765 80.9002 109.858 81.6705 110.071 82.4276C110.457 83.9283 111.175 85.1767 111.788 86.0134C112.373 86.8634 112.786 87.3681 112.786 87.3681C112.786 87.3681 112.294 86.9431 111.548 86.1595C110.803 85.3626 109.791 84.0611 109.179 82.4541C108.78 81.6041 108.593 80.7143 108.46 79.8112C108.394 78.855 108.394 77.9253 108.553 76.9558C108.753 76.0926 108.966 75.1496 109.405 74.2863C109.711 73.4231 110.23 72.6262 110.71 71.8692C111.269 71.1388 111.801 70.4083 112.32 69.7044C112.893 69.0271 113.345 68.3232 113.784 67.6193C114.157 66.9287 114.583 66.2514 114.836 65.5209C115.089 64.7905 115.288 64.0866 115.395 63.4093C115.461 62.7585 115.475 62.028 115.342 61.4437C115.262 60.8859 115.062 60.3281 114.822 59.9297C114.383 59 113.851 58.6016 113.851 58.6016Z" fill="url(#paint10_linear_2389_11658)"/>
<path d="M108.553 35.6654C108.553 35.6654 108.713 35.6654 109.019 35.7451C109.272 35.8248 109.725 35.9177 110.191 36.2232C110.656 36.5021 111.216 36.874 111.721 37.3521C111.934 37.631 112.147 37.9099 112.4 38.2153C112.626 38.5208 112.839 38.8661 113.012 39.1981C113.345 39.902 113.665 40.6856 113.758 41.4957C113.931 42.3723 113.984 43.1824 113.984 44.0855C113.931 44.9355 113.891 45.8652 113.718 46.7151C113.518 47.605 113.412 48.4549 113.252 49.358C113.092 50.2213 112.986 51.0713 113.026 51.9478C113.026 52.7845 113.146 53.6345 113.292 54.4712C113.452 55.2548 113.744 56.1048 114.064 56.8087C114.477 57.5391 114.916 58.243 115.422 58.7742C116.42 59.9828 117.618 60.7929 118.51 61.3109C119.388 61.8156 120 62.0945 120 62.0945C120 62.0945 119.361 61.9218 118.35 61.5234C117.338 61.1382 115.861 60.4078 114.623 59.1992C113.891 58.6016 113.345 57.8977 112.839 57.1141C112.347 56.304 111.948 55.454 111.695 54.5243C111.482 53.6478 111.269 52.665 111.295 51.7088C111.216 50.8189 111.322 49.8893 111.428 49.0127C111.615 48.1229 111.788 47.2198 111.948 46.3433C112.174 45.5066 112.294 44.6566 112.387 43.8465C112.427 43.023 112.48 42.2395 112.427 41.4825C112.334 40.7254 112.214 39.995 112.001 39.3442C111.788 38.7333 111.482 38.0825 111.122 37.5779C110.803 37.0997 110.364 36.7013 109.991 36.449C109.192 35.7982 108.553 35.6654 108.553 35.6654Z" fill="url(#paint11_linear_2389_11658)"/>
<path d="M93.8452 17.2447C93.8452 17.2447 93.9916 17.1651 94.2978 17.0987C94.5906 17.0854 95.0165 16.9658 95.5755 17.0455C96.1213 17.0721 96.7868 17.1916 97.4523 17.4174C97.7717 17.5502 98.0779 17.7229 98.4373 17.8955C98.77 18.0947 99.1161 18.2939 99.4089 18.5197C100.021 19.0244 100.647 19.5955 101.073 20.2861C101.592 20.99 102.004 21.6939 102.404 22.5306C102.71 23.3141 103.069 24.1641 103.295 24.9742C103.508 25.9039 103.761 26.6875 104.014 27.564C104.254 28.4273 104.507 29.2507 104.919 30.0077C105.279 30.7647 105.758 31.4686 106.264 32.1725C106.743 32.8233 107.368 33.4475 107.941 33.9522C108.646 34.4303 109.325 34.8818 110.03 35.1607C111.441 35.8381 112.879 36.0373 113.917 36.1169C114.929 36.1966 115.607 36.1701 115.607 36.1701C115.607 36.1701 114.955 36.3029 113.877 36.3958C112.786 36.449 111.135 36.4224 109.485 35.8912C108.58 35.6654 107.781 35.2404 106.969 34.7357C106.197 34.2311 105.478 33.6334 104.826 32.9162C104.267 32.2124 103.655 31.4553 103.256 30.5522C102.803 29.7819 102.497 28.8921 102.217 28.0421C101.991 27.139 101.765 26.2758 101.539 25.4258C101.379 24.5625 101.126 23.779 100.833 22.9821C100.527 22.2251 100.247 21.4946 99.8615 20.8439C99.4621 20.1798 99.0362 19.5822 98.5837 19.0775C98.1178 18.626 97.5588 18.1478 97.0131 17.8689C96.5073 17.59 95.9482 17.3908 95.509 17.3377C94.4974 17.0854 93.8452 17.2447 93.8452 17.2447Z" fill="url(#paint12_linear_2389_11658)"/>
<path d="M72.6421 6.93875C72.6421 6.93875 72.7486 6.79266 72.9882 6.63329C73.2277 6.46063 73.5871 6.2083 74.1062 6.02236C74.6253 5.82315 75.2509 5.62394 75.9563 5.54425C76.3024 5.54425 76.6618 5.57081 77.0478 5.57081C77.4471 5.59737 77.8331 5.62394 78.2058 5.7169C78.9911 5.88955 79.7897 6.11533 80.4818 6.56688C81.2538 6.99187 81.9193 7.44342 82.6381 8.02778C83.2504 8.58558 83.9558 9.20979 84.5015 9.84727C85.0872 10.5777 85.6861 11.2019 86.2718 11.8793C86.8708 12.5831 87.4431 13.1675 88.1352 13.6722C88.8007 14.23 89.5195 14.655 90.2782 15.08C90.9969 15.4518 91.8222 15.7573 92.5675 15.9565C93.4194 16.1026 94.2047 16.2088 94.9767 16.1557C96.534 16.1557 97.9316 15.7307 98.8899 15.3323C99.8349 14.9737 100.447 14.6683 100.447 14.6683C100.447 14.6683 99.9015 15.0534 98.9831 15.5846C98.0247 16.1159 96.5207 16.833 94.8037 17.019C93.8719 17.2182 92.9935 17.1916 92.0484 17.0854C91.1167 16.9659 90.2116 16.7534 89.3065 16.3549C88.5212 15.9565 87.6161 15.5315 86.8841 14.894C86.1254 14.4159 85.4466 13.6987 84.8609 13.0878C84.2619 12.3574 83.6763 11.68 83.1039 11.0027C82.5848 10.2988 82.0125 9.67462 81.4135 9.09026C80.8279 8.55902 80.2289 7.98794 79.6167 7.57623C78.9778 7.15124 78.3256 6.81922 77.7 6.56688C77.0744 6.34111 76.369 6.18174 75.7567 6.14189C75.171 6.08877 74.5987 6.16845 74.1728 6.28798C73.1612 6.51376 72.6421 6.93875 72.6421 6.93875Z" fill="url(#paint13_linear_2389_11658)"/>
<path d="M70.8853 20.3392C70.8853 20.3392 70.8454 20.2596 70.7655 20.0338C70.6724 19.8611 70.4993 19.5689 70.2464 19.2635C69.9935 18.9447 69.6341 18.5862 69.1816 18.2807C68.9686 18.1213 68.7157 18.0151 68.4628 17.8955C68.21 17.7893 67.9304 17.6565 67.6376 17.5901C67.0786 17.4174 66.4796 17.3377 65.854 17.3377C65.2285 17.3377 64.5763 17.4174 63.9374 17.5502C63.3118 17.683 62.6463 17.8424 62.0207 18.0815C61.3951 18.3073 60.7828 18.5729 60.1439 18.7986C59.5184 19.0111 58.9194 19.1971 58.2672 19.3033C57.6283 19.4361 56.9894 19.476 56.3638 19.476C55.7382 19.4229 55.1127 19.3432 54.527 19.1705C53.9547 19.0111 53.3823 18.7986 52.8898 18.4799C51.8916 17.9088 51.1063 17.1518 50.6138 16.5675C50.108 15.9698 49.8418 15.5714 49.8418 15.5714C49.8418 15.5714 50.0281 15.9964 50.4674 16.6737C50.9199 17.3643 51.6387 18.3338 52.7035 19.1041C53.2359 19.5291 53.8482 19.8478 54.4871 20.1135C55.1393 20.3791 55.8314 20.5252 56.5235 20.6049C57.229 20.6447 57.9477 20.6713 58.6266 20.565C59.3187 20.4853 60.0241 20.2728 60.6763 20.0736C61.2886 19.808 61.9009 19.5689 62.5265 19.3299C63.1254 19.0643 63.7377 18.8518 64.31 18.6526C64.9223 18.5197 65.508 18.3737 66.067 18.3073C66.626 18.2674 67.1851 18.2674 67.7042 18.3073C68.21 18.3737 68.6758 18.533 69.1017 18.7322C69.5144 18.9049 69.8471 19.1705 70.1399 19.4229C70.6857 19.9541 70.8853 20.3392 70.8853 20.3392Z" fill="url(#paint14_linear_2389_11658)"/>
<path d="M86.4983 28.6398C86.4983 28.6398 86.4983 28.507 86.4983 28.2812C86.4983 28.082 86.4983 27.75 86.3785 27.3781C86.2587 26.9664 86.0857 26.4883 85.8461 26.0235C85.713 25.7977 85.54 25.5985 85.367 25.3594C85.1806 25.1602 84.9943 24.9477 84.7547 24.7485C84.3154 24.3501 83.7963 24.0048 83.224 23.7391C82.665 23.4735 82.0527 23.2743 81.4138 23.1149C80.8015 22.9954 80.136 22.8095 79.4572 22.7563C78.7784 22.7165 78.1262 22.6634 77.4873 22.5837C76.8085 22.5306 76.1829 22.4509 75.5573 22.265C74.9317 22.079 74.3194 21.8665 73.7604 21.6009C73.2014 21.3087 72.6557 20.9634 72.2297 20.5384C71.7772 20.1533 71.3646 19.7017 71.0584 19.1971C70.3929 18.2674 70.0069 17.2448 69.8206 16.4877C69.6076 15.7573 69.5544 15.2659 69.5544 15.2659C69.5544 15.2659 69.5411 15.7573 69.6342 16.5807C69.754 17.3776 69.9803 18.5729 70.6059 19.715C70.8987 20.3259 71.3113 20.8572 71.7905 21.3884C72.2697 21.9064 72.8287 22.3446 73.4143 22.7165C74.0133 23.022 74.6655 23.3805 75.331 23.5665C75.9832 23.7524 76.702 23.8852 77.3808 23.9915C78.0463 24.0048 78.7251 24.0579 79.3773 24.111C80.0295 24.111 80.6684 24.2172 81.2674 24.3235C81.8797 24.4297 82.4786 24.536 82.9977 24.7219C83.5301 24.9211 84.0359 25.1735 84.4752 25.4391C84.8745 25.718 85.2738 26.05 85.5533 26.3953C85.8594 26.7539 86.0724 27.1125 86.2055 27.4578C86.4983 28.1484 86.4983 28.6398 86.4983 28.6398Z" fill="url(#paint15_linear_2389_11658)"/>
<path d="M96.9732 42.8106C96.9732 42.8106 97.0397 42.7309 97.1595 42.5184C97.2527 42.3192 97.3725 41.9872 97.4524 41.6286C97.5189 41.1903 97.5588 40.7122 97.5322 40.1942C97.5056 39.9153 97.4524 39.663 97.3858 39.3841C97.3193 39.1185 97.2261 38.813 97.1196 38.5474C96.8933 38.0162 96.5606 37.4584 96.1613 37.0201C95.7753 36.4889 95.3094 36.0771 94.8036 35.6522C94.2712 35.2404 93.7654 34.8155 93.1798 34.51C92.5941 34.178 92.0218 33.8194 91.4494 33.5006C90.8638 33.1421 90.3314 32.81 89.8788 32.3718C89.373 31.9202 88.9338 31.4554 88.5478 30.964C88.1485 30.4859 87.8291 29.9546 87.5895 29.3968C87.3765 28.8125 87.2035 28.2414 87.1103 27.6969C86.9506 26.5414 87.0304 25.4524 87.2035 24.6954C87.3233 23.9517 87.483 23.4735 87.483 23.4735C87.483 23.4735 87.2567 23.8985 86.9772 24.6821C86.7376 25.4258 86.4315 26.6344 86.498 27.9227C86.498 28.6133 86.6311 29.3039 86.8308 29.9546C87.0571 30.6054 87.3632 31.2827 87.7226 31.8538C88.1352 32.385 88.5744 32.9694 89.0935 33.4475C89.6259 33.9124 90.2249 34.3373 90.7839 34.6959C91.3829 35.028 91.9685 35.36 92.5276 35.6654C93.1265 35.9576 93.6456 36.3428 94.1647 36.6615C94.6705 37.0201 95.1497 37.3787 95.5357 37.8037C95.935 38.1888 96.2811 38.6271 96.5606 39.0654C96.8135 39.4903 97.0264 39.9419 97.1329 40.4067C97.2527 40.8184 97.2926 41.2567 97.2527 41.6286C97.1995 42.3457 96.9732 42.8106 96.9732 42.8106Z" fill="url(#paint16_linear_2389_11658)"/>
<path d="M100.354 60.1156C100.354 60.1156 100.461 60.0492 100.647 59.8898C100.793 59.7703 101.06 59.5578 101.259 59.2391C101.552 58.8938 101.805 58.4555 102.005 57.9774C102.085 57.725 102.111 57.4594 102.218 57.1938C102.244 56.9282 102.311 56.6227 102.311 56.3173C102.337 55.7329 102.271 55.1087 102.098 54.5376C101.965 53.9001 101.752 53.3025 101.486 52.7314C101.179 52.1338 100.887 51.5228 100.501 50.9783C100.115 50.4205 99.742 49.876 99.3693 49.3049C99.0099 48.7604 98.6638 48.2292 98.4509 47.6183C98.158 47.0339 97.985 46.423 97.8519 45.812C97.7055 45.1878 97.6389 44.5636 97.6656 43.9793C97.7055 43.3551 97.7987 42.7707 97.9717 42.2262C98.2911 41.1372 98.8369 40.1544 99.316 39.57C99.7952 38.9325 100.115 38.5872 100.115 38.5872C100.115 38.5872 99.7153 38.8794 99.1696 39.477C98.584 40.0216 97.8253 40.9778 97.3062 42.1864C97.0001 42.8106 96.867 43.4613 96.7205 44.1785C96.6407 44.8558 96.6407 45.5597 96.7205 46.2503C96.867 46.9409 97.0267 47.6183 97.2929 48.269C97.5458 48.9065 97.9052 49.544 98.2379 50.1416C98.6372 50.6729 99.0365 51.2307 99.4092 51.7486C99.8085 52.2666 100.168 52.8244 100.461 53.3689C100.754 53.9001 101.033 54.4048 101.206 54.9759C101.392 55.4673 101.512 55.9985 101.592 56.5165C101.632 57.0477 101.632 57.5657 101.512 57.9907C101.419 58.4289 101.299 58.8274 101.086 59.1594C100.727 59.7969 100.354 60.1156 100.354 60.1156Z" fill="url(#paint17_linear_2389_11658)"/>
<path d="M95.9219 77.1683C95.9219 77.1683 96.0417 77.1683 96.2679 77.1019C96.4676 77.0621 96.8003 76.9824 97.1198 76.7965C97.4925 76.584 97.9317 76.3184 98.3177 75.9598C98.5041 75.7606 98.6505 75.5348 98.8501 75.3223C99.0365 75.0965 99.1696 74.8575 99.316 74.5918C99.6088 74.0606 99.8085 73.5028 99.9416 72.8653C100.075 72.2677 100.141 71.6435 100.155 70.9661C100.128 70.3287 100.128 69.6513 99.9948 68.9873C99.875 68.3232 99.7952 67.6725 99.6887 67.0084C99.6088 66.3577 99.529 65.7202 99.5556 65.0561C99.5955 64.4186 99.6887 63.7944 99.8351 63.1835C99.9948 62.5726 100.181 61.9749 100.474 61.4171C100.767 60.9258 101.086 60.4078 101.499 59.9828C102.271 59.1461 103.176 58.5086 103.868 58.15C104.56 57.7915 105.013 57.6188 105.013 57.6188C105.013 57.6188 104.534 57.7383 103.762 58.0172C103.003 58.3094 101.885 58.8141 100.9 59.6906C100.368 60.1023 99.9682 60.6336 99.529 61.2312C99.1696 61.789 98.8634 62.4398 98.6372 63.1038C98.4774 63.7546 98.3044 64.4983 98.2778 65.1757C98.2112 65.8663 98.2778 66.5967 98.331 67.274C98.4641 67.9115 98.5839 68.6021 98.6904 69.2263C98.8235 69.8638 98.8901 70.488 98.9566 71.1122C98.9699 71.7232 99.0099 72.3075 98.93 72.8919C98.8634 73.463 98.717 74.0075 98.5839 74.4989C98.4109 74.9504 98.1846 75.4153 97.8918 75.7606C97.6389 76.1191 97.3061 76.4246 97.0266 76.6504C96.401 77.0621 95.9219 77.1683 95.9219 77.1683Z" fill="url(#paint18_linear_2389_11658)"/>
<path d="M84.5681 90.675C84.5681 90.675 84.6879 90.7016 84.8876 90.7813C85.1138 90.8078 85.4466 90.8875 85.8459 90.8344C86.2585 90.8344 86.751 90.7813 87.2568 90.5953C87.523 90.5156 87.736 90.3828 88.0288 90.2899C88.2684 90.1305 88.5213 89.9711 88.7475 89.825C89.2267 89.4664 89.6659 89.0149 90.012 88.4969C90.4246 88.0321 90.7574 87.4876 91.0635 86.9165C91.3031 86.2923 91.6226 85.6681 91.769 85.0173C91.9553 84.3798 92.155 83.7822 92.3546 83.1314C92.5809 82.5072 92.7805 81.883 93.1 81.3385C93.3795 80.7409 93.7522 80.1964 94.1382 79.7581C94.5242 79.2401 94.9767 78.7886 95.4559 78.43C95.975 78.0847 96.4808 77.7925 97.0132 77.5667C98.1046 77.1285 99.1695 76.9691 99.9548 76.9292C100.74 76.8894 101.219 76.9292 101.219 76.9292C101.219 76.9292 100.727 76.8097 99.9015 76.7433C99.1029 76.6503 97.8784 76.6503 96.6139 77.0089C95.9484 77.1683 95.3361 77.5003 94.6972 77.8456C94.1249 78.1776 93.5658 78.6425 93.0601 79.1737C92.6341 79.6651 92.1816 80.2362 91.8488 80.8604C91.5028 81.4448 91.2499 82.1487 91.0369 82.7596C90.8639 83.3838 90.6642 84.0611 90.4779 84.7119C90.3181 85.3361 90.1318 85.9337 89.9055 86.5048C89.6393 87.0493 89.4397 87.6204 89.1069 88.1118C88.8274 88.5501 88.468 89.0149 88.122 89.3735C87.7759 89.7188 87.3766 90.0242 86.9506 90.2367C86.5513 90.4758 86.1254 90.5953 85.7927 90.6484C85.0606 90.7813 84.5681 90.675 84.5681 90.675Z" fill="url(#paint19_linear_2389_11658)"/>
<path d="M68.4897 97.9928C68.4897 97.9928 68.5829 98.0459 68.7426 98.2053C68.9157 98.3514 69.2085 98.5639 69.5679 98.6702C69.9539 98.8561 70.4464 99.0022 70.9655 99.0553C71.2317 99.0819 71.4712 99.0553 71.7774 99.0819C72.0835 99.0553 72.3497 99.0287 72.6559 99.0022C73.2149 98.8959 73.8272 98.6967 74.3596 98.378C74.9452 98.0858 75.4643 97.7272 75.9967 97.3686C76.4892 96.9303 77.0083 96.5186 77.4342 95.9874C77.8735 95.4694 78.326 95.0046 78.7786 94.5132C79.2444 94.0218 79.6704 93.557 80.2028 93.1851C80.7086 92.8265 81.2676 92.4812 81.8399 92.2023C82.399 91.9367 83.0245 91.7109 83.5836 91.6047C84.2092 91.5117 84.7948 91.4586 85.3805 91.5117C86.5518 91.5383 87.5767 91.8703 88.2954 92.1891C89.0009 92.468 89.4401 92.6937 89.4401 92.6937C89.4401 92.6937 89.0674 92.3883 88.362 91.9766C87.6432 91.5649 86.5518 91.0469 85.2607 90.8344C84.5818 90.675 83.903 90.675 83.1976 90.7282C82.5188 90.8344 81.8266 90.9938 81.1478 91.2195C80.5222 91.5117 79.8567 91.8438 79.311 92.282C78.7253 92.6539 78.2062 93.1453 77.7271 93.5835C77.3144 94.1015 76.8486 94.646 76.396 95.0843C75.9967 95.6288 75.5575 96.0671 75.1182 96.5186C74.6657 96.9303 74.2132 97.3155 73.7074 97.6077C73.2415 97.9131 72.749 98.1788 72.2699 98.3514C71.804 98.5108 71.2849 98.617 70.8323 98.617C70.3931 98.6701 69.9539 98.5639 69.6078 98.4842C68.889 98.2717 68.4897 97.9928 68.4897 97.9928Z" fill="url(#paint20_linear_2389_11658)"/>
<path d="M50.8269 97.6741C50.8269 97.6741 50.8668 97.7538 50.96 97.9795C51.0665 98.1655 51.2262 98.4709 51.4924 98.7366C51.7586 99.042 52.1313 99.4139 52.5705 99.6928C52.7968 99.8256 53.0497 99.9318 53.3159 100.051C53.5821 100.184 53.8483 100.29 54.1412 100.344C54.7002 100.503 55.3258 100.609 55.938 100.556C56.5902 100.529 57.2158 100.45 57.868 100.33C58.4936 100.144 59.1591 99.9982 59.7581 99.7326C60.3837 99.4272 60.9959 99.2147 61.6348 98.9756C62.2471 98.71 62.8328 98.5108 63.485 98.4045C64.1105 98.2452 64.7627 98.192 65.4016 98.192C66.0139 98.192 66.6528 98.2717 67.2384 98.4045C67.8374 98.5639 68.4097 98.7631 68.9155 99.0553C69.9271 99.6264 70.7257 100.357 71.2448 100.941C71.7373 101.526 72.0035 101.911 72.0035 101.911C72.0035 101.911 71.8039 101.472 71.338 100.795C70.8855 100.091 70.1268 99.1615 69.0486 98.4311C68.4896 97.9928 67.8907 97.7272 67.2384 97.4749C66.5729 97.2358 65.8808 97.0632 65.1754 97.01C64.4832 97.01 63.7379 96.9835 63.059 97.1694C62.3802 97.2358 61.7147 97.4749 61.0625 97.6741C60.4502 97.9663 59.8113 98.2319 59.2124 98.4842C58.6267 98.7764 58.0278 99.0022 57.4288 99.1881C56.8564 99.3342 56.2841 99.5201 55.6985 99.5733C55.1527 99.6529 54.5804 99.6529 54.0746 99.6264C53.5821 99.5467 53.063 99.4139 52.6504 99.2412C52.2511 99.0553 51.8651 98.8162 51.6255 98.617C51.0399 98.0991 50.8269 97.6741 50.8269 97.6741Z" fill="url(#paint21_linear_2389_11658)"/>
<path d="M35.0272 89.7719C35.0272 89.7719 35.0139 89.9313 35.0139 90.1571C35.0272 90.3696 35.0272 90.675 35.1603 91.0602C35.2535 91.4453 35.4265 91.9367 35.7194 92.3883C35.8658 92.6273 36.0521 92.8265 36.2385 93.039C36.4248 93.2515 36.6245 93.4773 36.8374 93.6632C37.29 94.0218 37.8091 94.3671 38.3947 94.5929C38.9804 94.8851 39.566 95.0577 40.2315 95.1905C40.8704 95.3499 41.5359 95.4827 42.1748 95.4827C42.8803 95.4827 43.5192 95.5624 44.198 95.6155C44.8768 95.6686 45.5024 95.6952 46.128 95.9077C46.7536 96.0671 47.3525 96.3194 47.9249 96.5319C48.4706 96.771 49.0296 97.1295 49.4955 97.5014C49.9613 97.9131 50.3873 98.3514 50.7067 98.8295C51.3988 99.7326 51.7982 100.742 51.9978 101.526C52.2241 102.256 52.3039 102.747 52.3039 102.747C52.3039 102.747 52.3039 102.256 52.1975 101.419C52.0777 100.609 51.7982 99.4272 51.1459 98.3116C50.8265 97.6741 50.3873 97.1561 49.9347 96.6647C49.4156 96.1468 48.8699 95.7085 48.2576 95.3366C47.632 95.0843 46.9665 94.7257 46.2744 94.5929C45.6488 94.3538 44.9301 94.314 44.2645 94.2077C43.5857 94.2077 42.8936 94.1812 42.2414 94.1281C41.5759 94.1546 40.9503 94.0749 40.3247 93.9952C39.7391 93.889 39.1401 93.8093 38.5944 93.6367C38.062 93.3976 37.5562 93.1984 37.1169 92.9593C36.691 92.6804 36.2784 92.3617 35.9856 92.0031C35.6927 91.6844 35.4665 91.2992 35.3467 90.9938C35.0272 90.2899 35.0272 89.7719 35.0272 89.7719Z" fill="url(#paint22_linear_2389_11658)"/>
<path d="M24.1662 75.9066C24.1662 75.9066 24.0997 75.9996 23.9932 76.1855C23.9133 76.4246 23.7669 76.7035 23.727 77.1152C23.6471 77.5004 23.6072 78.005 23.6737 78.5496C23.7004 78.8019 23.7802 79.0675 23.8468 79.3464C23.9133 79.5988 24.0065 79.9175 24.113 80.1698C24.3659 80.6878 24.6986 81.2589 25.1246 81.644C25.5505 82.162 26.003 82.6002 26.5088 83.0252C27.0545 83.3838 27.587 83.8354 28.1859 84.1143C28.7982 84.3932 29.3439 84.7385 29.9296 85.0705C30.5152 85.4025 31.0609 85.7478 31.5401 86.1595C32.0459 86.5978 32.4851 87.0361 32.8977 87.5142C33.2837 87.979 33.6431 88.5501 33.896 89.0946C34.1223 89.6391 34.3353 90.2368 34.4151 90.7813C34.6281 91.95 34.5615 93.0125 34.4284 93.7695C34.3086 94.5132 34.1755 94.9781 34.1755 94.9781C34.1755 94.9781 34.3752 94.5664 34.6148 93.7828C34.8677 93.0125 35.1206 91.8172 35.0274 90.5157C35.0141 89.8251 34.8544 89.1743 34.6281 88.497C34.4018 87.8196 34.0957 87.1689 33.6831 86.6111C33.2704 86.0798 32.8179 85.5088 32.2455 85.0705C31.7531 84.6057 31.1541 84.2205 30.5818 83.8486C29.9695 83.5432 29.3705 83.2377 28.7849 82.8924C28.1859 82.6401 27.6535 82.3213 27.1211 81.9893C26.6419 81.6307 26.1494 81.2854 25.7235 80.8737C25.3242 80.4886 24.9515 80.037 24.672 79.6519C24.4058 79.2136 24.1795 78.7621 24.073 78.2972C23.9533 77.8722 23.9133 77.4472 23.9399 77.1019C23.9399 76.3449 24.1662 75.9066 24.1662 75.9066Z" fill="url(#paint23_linear_2389_11658)"/>
<path d="M20.3461 58.6945C20.3461 58.6945 20.2396 58.7344 20.0666 58.8938C19.8936 59.0531 19.6407 59.2656 19.4144 59.6109C19.1748 59.943 18.9352 60.3547 18.7489 60.8461C18.6823 61.1117 18.6424 61.3906 18.5758 61.6828C18.5359 61.9484 18.4827 62.2538 18.4827 62.5195C18.4827 63.1038 18.5359 63.728 18.7356 64.3257C18.882 64.9632 19.0949 65.5342 19.3878 66.1452C19.7072 66.6897 20.0267 67.3006 20.4127 67.8053C20.8386 68.3763 21.1846 68.8943 21.584 69.4388C21.97 70.0099 22.3293 70.5279 22.5689 71.1255C22.8484 71.7099 23.0348 72.3208 23.2078 72.9184C23.3675 73.5426 23.4341 74.1668 23.4474 74.7645C23.4075 75.3887 23.3409 75.973 23.1812 76.5441C22.8884 77.6597 22.356 78.5894 21.9034 79.2136C21.4642 79.8644 21.1447 80.2229 21.1447 80.2229C21.1447 80.2229 21.5041 79.9175 22.0764 79.3198C22.6222 78.7488 23.3808 77.766 23.8467 76.5574C24.1395 75.9199 24.2726 75.2692 24.3658 74.5653C24.4324 73.8481 24.4324 73.1841 24.3259 72.4536C24.1661 71.8028 24.0064 71.0591 23.687 70.4216C23.4474 69.7974 23.0614 69.213 22.702 68.642C22.2894 68.0709 21.8901 67.5396 21.4908 67.0084C21.0782 66.517 20.7188 65.9991 20.3993 65.4413C20.1198 64.9499 19.8004 64.4319 19.614 63.8874C19.4144 63.3562 19.2813 62.7984 19.2014 62.2937C19.1349 61.789 19.1349 61.2578 19.228 60.8328C19.2946 60.3812 19.4543 59.9828 19.614 59.6906C19.9601 59 20.3461 58.6945 20.3461 58.6945Z" fill="url(#paint24_linear_2389_11658)"/>
<path d="M24.3258 41.5223C24.3258 41.5223 24.2194 41.5223 23.9931 41.5622C23.7801 41.6418 23.4607 41.7215 23.1146 41.934C22.7419 42.1731 22.3293 42.4387 21.9433 42.8106C21.7836 42.9832 21.6239 43.209 21.4375 43.4613C21.2645 43.6738 21.0914 43.9262 20.985 44.1918C20.7188 44.723 20.4792 45.2941 20.4259 45.905C20.3061 46.5691 20.2529 47.18 20.2529 47.8706C20.2928 48.5081 20.3328 49.1987 20.4659 49.7963C20.599 50.4737 20.6921 51.1111 20.7986 51.7752C20.9184 52.4127 20.9983 53.0502 20.9717 53.7275C20.9717 54.365 20.8918 54.9892 20.772 55.6267C20.6522 56.211 20.4259 56.8352 20.1997 57.3665C19.8935 57.8977 19.5741 58.4289 19.1748 58.8274C18.4427 59.7305 17.5376 60.3414 16.8588 60.7265C16.1933 61.1117 15.7407 61.3242 15.7407 61.3242C15.7407 61.3242 16.2199 61.2046 16.9786 60.8992C17.7373 60.607 18.8287 60.0492 19.7737 59.1594C20.3328 58.7078 20.7321 58.1766 21.1048 57.579C21.4774 56.9813 21.7703 56.3571 21.9699 55.6399C22.1163 54.9892 22.2761 54.2587 22.2627 53.5548C22.3293 52.8775 22.2494 52.1869 22.1563 51.5229C22.0099 50.8322 21.8901 50.1815 21.757 49.5573C21.5972 48.9065 21.5174 48.269 21.4508 47.6183C21.4242 47.0472 21.371 46.4495 21.4242 45.8917C21.4908 45.3074 21.5839 44.7629 21.7303 44.2847C21.9034 43.8199 22.1163 43.3285 22.3959 42.9566C22.6221 42.5848 22.9549 42.2926 23.2344 42.12C23.8467 41.6551 24.3258 41.5223 24.3258 41.5223Z" fill="url(#paint25_linear_2389_11658)"/>
<path d="M35.3335 27.75C35.3335 27.75 35.2137 27.6968 34.9874 27.657C34.7745 27.6039 34.4417 27.5375 34.0291 27.6039C33.6165 27.6437 33.124 27.7101 32.6315 27.8828C32.3919 27.9757 32.1524 28.1085 31.8995 28.2414C31.6333 28.3874 31.3937 28.507 31.1541 28.7062C30.7015 29.0781 30.2357 29.5163 29.9162 30.0343C29.5302 30.5788 29.2108 31.0968 28.918 31.721C28.6917 32.292 28.4122 32.9295 28.2524 33.5537C28.106 34.2311 27.8931 34.8154 27.72 35.4662C27.5337 36.1302 27.3473 36.7146 27.0412 37.299C26.7617 37.87 26.4156 38.4013 26.0296 38.9192C25.6703 39.3973 25.2044 39.8622 24.7785 40.2606C24.2461 40.6192 23.7403 40.9379 23.2079 41.177C22.1563 41.6551 21.0782 41.8012 20.3062 41.8809C19.5475 41.9207 19.0417 41.9207 19.0417 41.9207C19.0417 41.9207 19.5342 42.0137 20.3328 42.0668C21.1448 42.1199 22.3826 42.1199 23.6072 41.7082C24.2993 41.5223 24.885 41.2035 25.4839 40.8317C26.0829 40.4598 26.6153 40.0215 27.1078 39.4903C27.5204 38.9458 27.9729 38.388 28.2791 37.7107C28.6251 37.1529 28.8647 36.4623 29.0511 35.838C29.2241 35.1474 29.3838 34.51 29.5702 33.8725C29.69 33.235 29.8896 32.6241 30.1026 32.0264C30.3422 31.4952 30.5418 30.9241 30.8346 30.4327C31.1408 29.9546 31.4602 29.503 31.793 29.1179C32.1257 28.7726 32.5517 28.4406 32.9643 28.2281C33.337 28.0023 33.7629 27.8429 34.0823 27.8031C34.841 27.6437 35.3335 27.75 35.3335 27.75Z" fill="url(#paint26_linear_2389_11658)"/>
<path d="M51.1863 20.0338C51.1863 20.0338 51.1197 19.9541 50.9201 19.7947C50.747 19.6486 50.4808 19.4627 50.0948 19.3299C49.7088 19.1705 49.243 19.0244 48.7105 18.9713C48.4443 18.9713 48.1781 18.9978 47.872 18.9978C47.5925 19.0244 47.2997 19.0244 47.0335 19.1041C46.4478 19.2635 45.8488 19.4228 45.3431 19.7681C44.7574 20.0736 44.2383 20.3923 43.7192 20.8572C43.24 21.2822 42.7209 21.747 42.3216 22.2251C41.8691 22.7563 41.4431 23.2345 40.9906 23.7391C40.5514 24.2571 40.1121 24.6954 39.5797 25.0805C39.0872 25.4789 38.5548 25.8242 37.9958 26.1297C37.4501 26.3953 36.8511 26.6344 36.2788 26.7539C35.6399 26.8602 35.0542 26.9664 34.4819 26.9133C33.3106 26.9133 32.2724 26.5945 31.5403 26.3156C30.8349 26.0367 30.3823 25.8242 30.3823 25.8242C30.3823 25.8242 30.7816 26.1164 31.4871 26.5016C32.1925 26.9266 33.3239 27.4445 34.6017 27.5906C35.2938 27.7367 35.9593 27.7234 36.6648 27.6437C37.3569 27.5375 38.0357 27.3781 38.7145 27.0727C39.3135 26.7672 39.979 26.4617 40.5247 25.9969C41.0971 25.625 41.5896 25.1204 42.0421 24.629C42.4947 24.0844 42.9339 23.5665 43.3598 23.0618C43.7458 22.5439 44.1851 22.079 44.611 21.6407C45.0635 21.2556 45.5028 20.8439 45.9686 20.5252C46.4611 20.2197 46.9403 19.9541 47.3928 19.7283C47.872 19.5955 48.4044 19.4361 48.857 19.4361C49.2962 19.383 49.7354 19.4627 50.0549 19.5424C50.8003 19.7017 51.1863 20.0338 51.1863 20.0338Z" fill="url(#paint27_linear_2389_11658)"/>
<path d="M62.2999 11.0558C62.2999 12.105 61.4481 12.9683 60.3699 12.9683C59.3051 12.9683 58.4133 12.105 58.4133 11.0558C58.4133 9.94024 59.3051 9.11682 60.3699 9.11682C61.4481 9.11682 62.2999 9.94024 62.2999 11.0558Z" fill="#3CAA9F"/>
<path d="M53.9009 11.4808C54.1272 12.5168 53.4217 13.473 52.3702 13.6722C51.2921 13.8316 50.2805 13.141 50.1474 12.0918C49.9211 11.0957 50.6132 10.0598 51.6781 9.90041C52.7429 9.74104 53.7278 10.3785 53.9009 11.4808Z" fill="#3CAA9F"/>
<path d="M45.742 13.287C46.1014 14.2565 45.5956 15.3456 44.6107 15.7174C43.5591 16.1557 42.4544 15.5846 42.1083 14.6151C41.749 13.6323 42.2681 12.5167 43.2663 12.105C44.2912 11.7199 45.4093 12.2511 45.742 13.287Z" fill="#3CAA9F"/>
<path d="M38.0619 16.5143C38.5411 17.4041 38.2483 18.5463 37.3565 19.1439C36.4114 19.6486 35.2268 19.3431 34.6944 18.4267C34.1088 17.5369 34.4282 16.2487 35.3599 15.7705C36.3316 15.2792 37.5162 15.5713 38.0619 16.5143Z" fill="#3CAA9F"/>
<path d="M30.9544 21.0298C31.6598 21.8134 31.5533 22.9688 30.7281 23.7391C29.9029 24.3766 28.7049 24.3368 28.0128 23.5266C27.334 22.6501 27.4405 21.4415 28.2258 20.804C29.0909 20.1533 30.3155 20.1533 30.9544 21.0298Z" fill="#3CAA9F"/>
<path d="M24.805 26.6875C25.6302 27.3648 25.7234 28.5335 25.0579 29.3304C24.3391 30.2069 23.1279 30.3796 22.3159 29.6358C21.4907 28.9984 21.4375 27.7632 22.0764 26.9C22.7552 26.1164 23.9664 25.9703 24.805 26.6875Z" fill="#3CAA9F"/>
<path d="M19.7337 33.3147C20.6787 33.8725 20.9449 35.0412 20.4391 35.931C19.8934 36.8873 18.7354 37.1662 17.817 36.7146C16.8586 36.1701 16.5525 34.935 17.0716 34.0451C17.6573 33.1288 18.7753 32.7835 19.7337 33.3147Z" fill="#3CAA9F"/>
<path d="M15.887 40.752C16.9252 41.1239 17.4177 42.2129 17.0716 43.2223C16.6856 44.2449 15.5409 44.7363 14.5826 44.3246C13.5444 44.0058 13.0519 42.9035 13.4246 41.9074C13.784 40.9247 14.9153 40.3934 15.887 40.752Z" fill="#3CAA9F"/>
<path d="M13.4249 48.7338C14.4365 48.9197 15.1286 49.9158 14.9423 50.9252C14.8092 52.0408 13.771 52.7314 12.7594 52.5322C11.6813 52.3462 10.9758 51.3502 11.1356 50.2877C11.3352 49.2252 12.3734 48.5479 13.4249 48.7338Z" fill="#3CAA9F"/>
<path d="M12.3464 57.0344C13.4245 57.0344 14.2631 57.8578 14.2631 58.9734C14.2631 60.0625 13.4245 60.8726 12.3464 60.8726C11.2683 60.9257 10.3765 60.0094 10.3765 58.9734C10.4164 57.9242 11.2683 57.0344 12.3464 57.0344Z" fill="#3CAA9F"/>
<path d="M12.7059 65.3748C13.7707 65.2155 14.7424 65.9061 14.942 66.942C15.155 68.0576 14.4229 68.9474 13.4246 69.213C12.3465 69.4122 11.3083 68.6818 11.1353 67.5662C11.0022 66.5701 11.681 65.5209 12.7059 65.3748Z" fill="#3CAA9F"/>
<path d="M14.5558 73.516C15.554 73.1574 16.6322 73.6223 17.0315 74.7246C17.4175 75.7339 16.8584 76.7566 15.8868 77.1948C14.8752 77.6066 13.7705 77.0089 13.4244 75.973C13.0517 74.9902 13.5442 73.941 14.5558 73.516Z" fill="#3CAA9F"/>
<path d="M18.7618 84.8845C19.8424 84.8845 20.7184 84.0104 20.7184 82.9322C20.7184 81.854 19.8424 80.9799 18.7618 80.9799C17.6812 80.9799 16.8052 81.854 16.8052 82.9322C16.8052 84.0104 17.6812 84.8845 18.7618 84.8845Z" fill="#3CAA9F"/>
<path d="M22.2763 88.311C23.1415 87.6071 24.3394 87.7399 25.0182 88.5633C25.7237 89.3469 25.6039 90.5289 24.8052 91.2328C23.9667 91.9765 22.7555 91.8437 22.0766 91.0336C21.4378 90.157 21.491 88.9352 22.2763 88.311Z" fill="#3CAA9F"/>
<path d="M27.9864 94.4601C28.7052 93.6367 29.8366 93.5038 30.7284 94.2609C31.5403 94.9116 31.5935 96.16 30.9546 96.8772C30.2758 97.7537 29.0646 97.8069 28.226 97.1163C27.4407 96.4389 27.3076 95.3499 27.9864 94.4601Z" fill="#3CAA9F"/>
<path d="M34.6412 99.5467C35.2268 98.617 36.3183 98.2186 37.2899 98.8162C38.235 99.3342 38.5012 100.503 38.0353 101.406C37.5162 102.376 36.305 102.681 35.3599 102.11C34.4282 101.592 34.1088 100.383 34.6412 99.5467Z" fill="#3CAA9F"/>
<path d="M42.0549 103.385C42.4542 102.322 43.4924 101.858 44.5572 102.216C45.5555 102.588 46.0879 103.624 45.7419 104.633C45.4091 105.696 44.291 106.214 43.2662 105.855C42.2679 105.417 41.7222 104.315 42.0549 103.385Z" fill="#3CAA9F"/>
<path d="M50.081 105.855C50.2939 104.793 51.2789 104.062 52.3437 104.328C53.4218 104.434 54.0741 105.47 53.901 106.479C53.728 107.568 52.7164 108.259 51.6782 108.113C50.6134 107.9 49.9213 106.891 50.081 105.855Z" fill="#3CAA9F"/>
<path d="M58.3735 106.944C58.4268 105.855 59.2653 105.045 60.3701 104.952C61.4083 104.952 62.2335 105.855 62.3001 106.904C62.3001 107.993 61.355 108.896 60.3701 108.896C59.2653 108.883 58.3735 107.927 58.3735 106.944Z" fill="#3CAA9F"/>
<path d="M66.7585 106.532C66.6254 105.417 67.2244 104.474 68.3691 104.315C69.4472 104.049 70.4055 104.859 70.5786 105.762C70.8315 106.878 70.0462 107.914 69.0479 108.1C67.9564 108.259 66.9449 107.568 66.7585 106.532Z" fill="#3CAA9F"/>
<path d="M74.9181 104.686C74.612 103.624 75.0512 102.641 76.116 102.216C77.1276 101.751 78.1791 102.376 78.5518 103.252C79.0044 104.315 78.4586 105.457 77.3938 105.842C76.3956 106.134 75.3174 105.696 74.9181 104.686Z" fill="#3CAA9F"/>
<path d="M82.7048 101.472C82.159 100.503 82.4519 99.4404 83.4235 98.8162C84.3419 98.2186 85.42 98.6038 85.9658 99.4936C86.5914 100.383 86.2586 101.645 85.3668 102.216C84.3818 102.681 83.2105 102.376 82.7048 101.472Z" fill="#3CAA9F"/>
<path d="M89.7592 96.9835C89.0804 96.1468 89.1336 94.9913 89.9589 94.2609C90.824 93.5039 91.9288 93.7164 92.6741 94.4734C93.4461 95.3499 93.2864 96.5718 92.4612 97.2491C91.6226 97.8069 90.438 97.7538 89.7592 96.9835Z" fill="#3CAA9F"/>
<path d="M95.8683 91.2992C95.1229 90.5422 94.9366 89.4 95.6553 88.5766C96.3874 87.7399 97.5587 87.7399 98.3307 88.3243C99.2757 88.9485 99.2757 90.2766 98.6634 91.1C97.8781 91.8437 96.6935 91.9765 95.8683 91.2992Z" fill="#3CAA9F"/>
<path d="M100.94 84.6322C99.9945 84.0611 99.6751 82.9455 100.247 81.9627C100.793 81.0065 101.991 80.8206 102.843 81.2323C103.881 81.7237 104.121 82.9455 103.642 83.9549C102.989 84.8447 101.938 85.1767 100.94 84.6322Z" fill="#3CAA9F"/>
<path d="M104.826 77.1949C103.761 76.7566 103.322 75.7605 103.708 74.7113C103.988 73.6621 105.146 73.2504 106.077 73.5692C107.209 73.9278 107.661 75.0832 107.329 76.0793C106.889 77.0089 105.771 77.6066 104.826 77.1949Z" fill="#3CAA9F"/>
<path d="M107.329 69.2131C106.277 68.9474 105.612 68.1107 105.678 66.942C105.891 65.9194 106.956 65.2686 107.941 65.4811C109.019 65.521 109.711 66.5702 109.592 67.6725C109.312 68.7217 108.34 69.4123 107.329 69.2131Z" fill="#3CAA9F"/>
<path d="M108.38 60.9257C107.275 60.8726 106.49 60.1422 106.424 58.9734C106.424 57.9242 107.315 57.1274 108.327 57.1274C109.472 57.0344 110.363 57.9242 110.363 58.9734C110.297 60.0625 109.312 60.9257 108.38 60.9257Z" fill="#3CAA9F"/>
<path d="M107.981 52.6119C106.889 52.7181 106.011 52.0806 105.678 50.9783C105.545 49.9159 106.277 48.9995 107.275 48.7604C108.38 48.5346 109.312 49.2651 109.591 50.2744C109.711 51.4299 108.926 52.3463 107.981 52.6119Z" fill="#3CAA9F"/>
<path d="M106.171 44.4175C105.159 44.723 104.121 44.2714 103.721 43.2222C103.229 42.266 103.881 41.177 104.746 40.8051C105.771 40.3403 106.943 40.9246 107.329 41.9074C107.661 42.9035 107.142 44.1253 106.171 44.4175Z" fill="#3CAA9F"/>
<path d="M102.923 36.7146C101.991 37.1794 100.873 36.9271 100.248 35.931C99.6753 35.1076 100.061 33.9389 100.94 33.3545C101.938 32.7834 103.083 33.1287 103.642 34.0451C104.121 34.935 103.762 36.1966 102.923 36.7146Z" fill="#3CAA9F"/>
<path d="M98.4508 29.6359C97.5591 30.3796 96.4543 30.2069 95.6557 29.4234C94.9369 28.5335 95.1765 27.4844 95.8686 26.7539C96.6939 25.9703 97.9317 26.1297 98.6638 26.9133C99.2761 27.7633 99.1563 28.9984 98.4508 29.6359Z" fill="#3CAA9F"/>
<path d="M92.7273 23.5266C91.9287 24.3368 90.9438 24.3766 89.9588 23.7524C89.1602 23.1149 89.1336 21.8665 89.7592 21.083C90.438 20.1666 91.7291 20.0869 92.4611 20.7244C93.2864 21.5212 93.3662 22.7563 92.7273 23.5266Z" fill="#3CAA9F"/>
<path d="M86.0454 18.4267C85.4996 19.3431 84.4082 19.6486 83.4232 19.1439C82.5048 18.6525 82.2386 17.4838 82.7045 16.5143C83.1836 15.5713 84.4082 15.2791 85.3665 15.7041C86.3515 16.3549 86.5911 17.5502 86.0454 18.4267Z" fill="#3CAA9F"/>
<path d="M78.5783 14.6151C78.179 15.6112 77.194 16.0362 76.1159 15.7042C75.091 15.412 74.6917 14.3362 74.9446 13.3136C75.2907 12.2113 76.4487 11.7199 77.4602 12.105C78.5251 12.5167 79.0042 13.6722 78.5783 14.6151Z" fill="#3CAA9F"/>
<path d="M70.6056 12.105C70.406 13.1941 69.4876 13.7519 68.3695 13.6456C67.3047 13.5128 66.6658 12.5167 66.7856 11.4808C66.9187 10.3785 67.9968 9.64805 69.0483 9.79414C70.1797 10.0598 70.8319 11.1621 70.6056 12.105Z" fill="#3CAA9F"/>
<path d="M60.3699 104.009C35.4531 104.009 15.2349 83.8486 15.2349 58.9734C15.2349 34.1381 35.4531 13.9245 60.3699 13.9245C85.2601 13.9245 105.492 34.1381 105.492 58.9734C105.492 83.8486 85.2601 104.009 60.3699 104.009ZM60.3699 15.2792C36.1719 15.2792 16.5526 34.8818 16.5526 58.9734C16.5526 83.1314 36.1852 102.694 60.3699 102.694C84.5547 102.694 104.161 83.1314 104.161 58.9734C104.161 34.8818 84.5547 15.2792 60.3699 15.2792Z" fill="#3CAA9F"/>
<path d="M47.9783 57.3399H72.8153V46.1308C72.8153 43.7269 72.6822 41.9606 72.416 40.8317C72.1364 39.6762 71.644 38.7599 70.9119 37.9896C70.273 37.3255 69.5409 36.8341 68.7024 36.5419C67.8772 36.2232 66.7857 36.0373 65.4281 35.9709V35.174H87.7893V35.9709C86.445 36.0373 85.3668 36.2232 84.5549 36.5419C83.7297 36.8341 82.9843 37.3255 82.3321 37.9896C81.6 38.7599 81.1076 39.6762 80.8547 40.8317C80.5618 41.9871 80.4287 43.7535 80.4287 46.1308V71.8692C80.4287 74.2465 80.5618 76.0129 80.8414 77.1152C81.1076 78.2706 81.6 79.2136 82.3321 79.9839C82.9843 80.6346 83.7297 81.126 84.5549 81.4315C85.3801 81.7635 86.4583 81.9495 87.7893 82.0026V82.8127H65.4281V82.0159C66.7857 81.9627 67.8772 81.7768 68.7024 81.4448C69.5409 81.1393 70.2597 80.6346 70.9119 79.9972C71.644 79.2534 72.1364 78.3238 72.4026 77.1816C72.6822 76.0394 72.802 74.2731 72.802 71.8825V59H47.9783V71.8825C47.9783 74.2598 48.1114 76.0262 48.3776 77.1816C48.6571 78.3238 49.1496 79.2534 49.8684 79.9972C50.494 80.6479 51.226 81.1393 52.0513 81.4448C52.8765 81.7768 53.9679 81.9627 55.3256 82.0159V82.826H32.9644V82.0159C34.322 81.9627 35.4134 81.7768 36.2387 81.4448C37.0506 81.126 37.796 80.6346 38.4216 79.9839C39.1802 79.2402 39.6727 78.3105 39.9123 77.1683C40.1785 76.0262 40.2983 74.2598 40.2983 71.8692V46.1308C40.2983 43.7269 40.1785 41.9606 39.9123 40.8317C39.6727 39.6762 39.1802 38.7599 38.4216 37.9896C37.796 37.3255 37.0506 36.8341 36.2254 36.5419C35.3735 36.2232 34.2954 36.0373 32.9644 35.9709V35.174H55.3256V35.9709C53.9946 36.0373 52.9031 36.2232 52.0779 36.5419C51.2526 36.8341 50.5206 37.3255 49.8551 37.9896C49.1363 38.7599 48.6438 39.6762 48.3776 40.8317C48.1114 41.9871 47.9783 43.7535 47.9783 46.1308V57.3399Z" fill="url(#paint28_linear_2389_11658)"/>
<defs>
<linearGradient id="paint0_linear_2389_11658" x1="66.7346" y1="8.1523" x2="66.449" y2="0.218041" gradientUnits="userSpaceOnUse">
<stop stop-color="#3CAA9F"/>
<stop offset="0.0528" stop-color="#3CAA9F"/>
<stop offset="0.1288" stop-color="#37BDB0"/>
<stop offset="0.2187" stop-color="#13B1A2"/>
<stop offset="0.3185" stop-color="#249C90"/>
<stop offset="0.411458" stop-color="#27B7A8"/>
<stop offset="0.5161" stop-color="#0F9184"/>
<stop offset="0.6613" stop-color="#1CCFBD"/>
<stop offset="1" stop-color="#04AA99"/>
</linearGradient>
<linearGradient id="paint1_linear_2389_11658" x1="41.9093" y1="19.4039" x2="39.5083" y2="-1.11775" gradientUnits="userSpaceOnUse">
<stop stop-color="#3CAA9F"/>
<stop offset="0.0528" stop-color="#3CAA9F"/>
<stop offset="0.1288" stop-color="#37BDB0"/>
<stop offset="0.2187" stop-color="#13B1A2"/>
<stop offset="0.3185" stop-color="#249C90"/>
<stop offset="0.411458" stop-color="#27B7A8"/>
<stop offset="0.5161" stop-color="#0F9184"/>
<stop offset="0.6613" stop-color="#1CCFBD"/>
<stop offset="1" stop-color="#04AA99"/>
</linearGradient>
<linearGradient id="paint2_linear_2389_11658" x1="21.4226" y1="38.7927" x2="14.0955" y2="10.5915" gradientUnits="userSpaceOnUse">
<stop stop-color="#3CAA9F"/>
<stop offset="0.0528" stop-color="#3CAA9F"/>
<stop offset="0.1288" stop-color="#37BDB0"/>
<stop offset="0.2187" stop-color="#13B1A2"/>
<stop offset="0.3185" stop-color="#249C90"/>
<stop offset="0.411458" stop-color="#27B7A8"/>
<stop offset="0.5161" stop-color="#0F9184"/>
<stop offset="0.6613" stop-color="#1CCFBD"/>
<stop offset="1" stop-color="#04AA99"/>
</linearGradient>
<linearGradient id="paint3_linear_2389_11658" x1="9.81431" y1="62.0636" x2="-4.59328" y2="36.6871" gradientUnits="userSpaceOnUse">
<stop stop-color="#3CAA9F"/>
<stop offset="0.0528" stop-color="#3CAA9F"/>
<stop offset="0.1288" stop-color="#37BDB0"/>
<stop offset="0.2187" stop-color="#13B1A2"/>
<stop offset="0.3185" stop-color="#249C90"/>
<stop offset="0.411458" stop-color="#27B7A8"/>
<stop offset="0.5161" stop-color="#0F9184"/>
<stop offset="0.6613" stop-color="#1CCFBD"/>
<stop offset="1" stop-color="#04AA99"/>
</linearGradient>
<linearGradient id="paint4_linear_2389_11658" x1="9.55149" y1="84.7209" x2="0.715365" y2="57.1025" gradientUnits="userSpaceOnUse">
<stop stop-color="#3CAA9F"/>
<stop offset="0.0528" stop-color="#3CAA9F"/>
<stop offset="0.1288" stop-color="#37BDB0"/>
<stop offset="0.2187" stop-color="#13B1A2"/>
<stop offset="0.3185" stop-color="#249C90"/>
<stop offset="0.411458" stop-color="#27B7A8"/>
<stop offset="0.5161" stop-color="#0F9184"/>
<stop offset="0.6613" stop-color="#1CCFBD"/>
<stop offset="1" stop-color="#04AA99"/>
</linearGradient>
<linearGradient id="paint5_linear_2389_11658" x1="21.9564" y1="102.596" x2="19.2107" y2="80.8899" gradientUnits="userSpaceOnUse">
<stop stop-color="#3CAA9F"/>
<stop offset="0.0528" stop-color="#3CAA9F"/>
<stop offset="0.1288" stop-color="#37BDB0"/>
<stop offset="0.2187" stop-color="#13B1A2"/>
<stop offset="0.3185" stop-color="#249C90"/>
<stop offset="0.411458" stop-color="#27B7A8"/>
<stop offset="0.5161" stop-color="#0F9184"/>
<stop offset="0.6613" stop-color="#1CCFBD"/>
<stop offset="1" stop-color="#04AA99"/>
</linearGradient>
<linearGradient id="paint6_linear_2389_11658" x1="41.8579" y1="113.189" x2="41.083" y2="100.168" gradientUnits="userSpaceOnUse">
<stop stop-color="#3CAA9F"/>
<stop offset="0.0528" stop-color="#3CAA9F"/>
<stop offset="0.1288" stop-color="#37BDB0"/>
<stop offset="0.2187" stop-color="#13B1A2"/>
<stop offset="0.3185" stop-color="#249C90"/>
<stop offset="0.411458" stop-color="#27B7A8"/>
<stop offset="0.5161" stop-color="#0F9184"/>
<stop offset="0.6613" stop-color="#1CCFBD"/>
<stop offset="1" stop-color="#04AA99"/>
</linearGradient>
<linearGradient id="paint7_linear_2389_11658" x1="65.3596" y1="116.693" x2="65.0965" y2="109.056" gradientUnits="userSpaceOnUse">
<stop stop-color="#3CAA9F"/>
<stop offset="0.0528" stop-color="#3CAA9F"/>
<stop offset="0.1288" stop-color="#37BDB0"/>
<stop offset="0.2187" stop-color="#13B1A2"/>
<stop offset="0.3185" stop-color="#249C90"/>
<stop offset="0.411458" stop-color="#27B7A8"/>
<stop offset="0.5161" stop-color="#0F9184"/>
<stop offset="0.6613" stop-color="#1CCFBD"/>
<stop offset="1" stop-color="#04AA99"/>
</linearGradient>
<linearGradient id="paint8_linear_2389_11658" x1="87.9167" y1="118.37" x2="85.7011" y2="98.4486" gradientUnits="userSpaceOnUse">
<stop stop-color="#3CAA9F"/>
<stop offset="0.0528" stop-color="#3CAA9F"/>
<stop offset="0.1288" stop-color="#37BDB0"/>
<stop offset="0.2187" stop-color="#13B1A2"/>
<stop offset="0.3185" stop-color="#249C90"/>
<stop offset="0.411458" stop-color="#27B7A8"/>
<stop offset="0.5161" stop-color="#0F9184"/>
<stop offset="0.6613" stop-color="#1CCFBD"/>
<stop offset="1" stop-color="#04AA99"/>
</linearGradient>
<linearGradient id="paint9_linear_2389_11658" x1="105.27" y1="108.459" x2="98.3206" y2="80.4825" gradientUnits="userSpaceOnUse">
<stop stop-color="#3CAA9F"/>
<stop offset="0.0528" stop-color="#3CAA9F"/>
<stop offset="0.1288" stop-color="#37BDB0"/>
<stop offset="0.2187" stop-color="#13B1A2"/>
<stop offset="0.3185" stop-color="#249C90"/>
<stop offset="0.411458" stop-color="#27B7A8"/>
<stop offset="0.5161" stop-color="#0F9184"/>
<stop offset="0.6613" stop-color="#1CCFBD"/>
<stop offset="1" stop-color="#04AA99"/>
</linearGradient>
<linearGradient id="paint10_linear_2389_11658" x1="114.185" y1="88.9428" x2="100.205" y2="62.9312" gradientUnits="userSpaceOnUse">
<stop stop-color="#3CAA9F"/>
<stop offset="0.0528" stop-color="#3CAA9F"/>
<stop offset="0.1288" stop-color="#37BDB0"/>
<stop offset="0.2187" stop-color="#13B1A2"/>
<stop offset="0.3185" stop-color="#249C90"/>
<stop offset="0.411458" stop-color="#27B7A8"/>
<stop offset="0.5161" stop-color="#0F9184"/>
<stop offset="0.6613" stop-color="#1CCFBD"/>
<stop offset="1" stop-color="#04AA99"/>
</linearGradient>
<linearGradient id="paint11_linear_2389_11658" x1="116.859" y1="63.5412" x2="107.409" y2="35.98" gradientUnits="userSpaceOnUse">
<stop stop-color="#3CAA9F"/>
<stop offset="0.0528" stop-color="#3CAA9F"/>
<stop offset="0.1288" stop-color="#37BDB0"/>
<stop offset="0.2187" stop-color="#13B1A2"/>
<stop offset="0.3185" stop-color="#249C90"/>
<stop offset="0.411458" stop-color="#27B7A8"/>
<stop offset="0.5161" stop-color="#0F9184"/>
<stop offset="0.6613" stop-color="#1CCFBD"/>
<stop offset="1" stop-color="#04AA99"/>
</linearGradient>
<linearGradient id="paint12_linear_2389_11658" x1="109.635" y1="37.4766" x2="106.695" y2="15.2605" gradientUnits="userSpaceOnUse">
<stop stop-color="#3CAA9F"/>
<stop offset="0.0528" stop-color="#3CAA9F"/>
<stop offset="0.1288" stop-color="#37BDB0"/>
<stop offset="0.2187" stop-color="#13B1A2"/>
<stop offset="0.3185" stop-color="#249C90"/>
<stop offset="0.411458" stop-color="#27B7A8"/>
<stop offset="0.5161" stop-color="#0F9184"/>
<stop offset="0.6613" stop-color="#1CCFBD"/>
<stop offset="1" stop-color="#04AA99"/>
</linearGradient>
<linearGradient id="paint13_linear_2389_11658" x1="92.8168" y1="17.8035" x2="91.9792" y2="4.30966" gradientUnits="userSpaceOnUse">
<stop stop-color="#3CAA9F"/>
<stop offset="0.0528" stop-color="#3CAA9F"/>
<stop offset="0.1288" stop-color="#37BDB0"/>
<stop offset="0.2187" stop-color="#13B1A2"/>
<stop offset="0.3185" stop-color="#249C90"/>
<stop offset="0.411458" stop-color="#27B7A8"/>
<stop offset="0.5161" stop-color="#0F9184"/>
<stop offset="0.6613" stop-color="#1CCFBD"/>
<stop offset="1" stop-color="#04AA99"/>
</linearGradient>
<linearGradient id="paint14_linear_2389_11658" x1="65.1105" y1="20.9173" x2="64.8995" y2="15.0179" gradientUnits="userSpaceOnUse">
<stop stop-color="#3CAA9F"/>
<stop offset="0.0528" stop-color="#3CAA9F"/>
<stop offset="0.1288" stop-color="#37BDB0"/>
<stop offset="0.2187" stop-color="#13B1A2"/>
<stop offset="0.3185" stop-color="#249C90"/>
<stop offset="0.411458" stop-color="#27B7A8"/>
<stop offset="0.5161" stop-color="#0F9184"/>
<stop offset="0.6613" stop-color="#1CCFBD"/>
<stop offset="1" stop-color="#04AA99"/>
</linearGradient>
<linearGradient id="paint15_linear_2389_11658" x1="81.8483" y1="29.3719" x2="80.0462" y2="13.9967" gradientUnits="userSpaceOnUse">
<stop stop-color="#3CAA9F"/>
<stop offset="0.0528" stop-color="#3CAA9F"/>
<stop offset="0.1288" stop-color="#37BDB0"/>
<stop offset="0.2187" stop-color="#13B1A2"/>
<stop offset="0.3185" stop-color="#249C90"/>
<stop offset="0.411458" stop-color="#27B7A8"/>
<stop offset="0.5161" stop-color="#0F9184"/>
<stop offset="0.6613" stop-color="#1CCFBD"/>
<stop offset="1" stop-color="#04AA99"/>
</linearGradient>
<linearGradient id="paint16_linear_2389_11658" x1="94.5077" y1="43.8691" x2="89.0224" y2="22.7583" gradientUnits="userSpaceOnUse">
<stop stop-color="#3CAA9F"/>
<stop offset="0.0528" stop-color="#3CAA9F"/>
<stop offset="0.1288" stop-color="#37BDB0"/>
<stop offset="0.2187" stop-color="#13B1A2"/>
<stop offset="0.3185" stop-color="#249C90"/>
<stop offset="0.411458" stop-color="#27B7A8"/>
<stop offset="0.5161" stop-color="#0F9184"/>
<stop offset="0.6613" stop-color="#1CCFBD"/>
<stop offset="1" stop-color="#04AA99"/>
</linearGradient>
<linearGradient id="paint17_linear_2389_11658" x1="100.764" y1="61.2941" x2="90.0163" y2="42.2796" gradientUnits="userSpaceOnUse">
<stop stop-color="#3CAA9F"/>
<stop offset="0.0528" stop-color="#3CAA9F"/>
<stop offset="0.1288" stop-color="#37BDB0"/>
<stop offset="0.2187" stop-color="#13B1A2"/>
<stop offset="0.3185" stop-color="#249C90"/>
<stop offset="0.411458" stop-color="#27B7A8"/>
<stop offset="0.5161" stop-color="#0F9184"/>
<stop offset="0.6613" stop-color="#1CCFBD"/>
<stop offset="1" stop-color="#04AA99"/>
</linearGradient>
<linearGradient id="paint18_linear_2389_11658" x1="102.518" y1="78.2385" x2="95.9154" y2="57.5633" gradientUnits="userSpaceOnUse">
<stop stop-color="#3CAA9F"/>
<stop offset="0.0528" stop-color="#3CAA9F"/>
<stop offset="0.1288" stop-color="#37BDB0"/>
<stop offset="0.2187" stop-color="#13B1A2"/>
<stop offset="0.3185" stop-color="#249C90"/>
<stop offset="0.411458" stop-color="#27B7A8"/>
<stop offset="0.5161" stop-color="#0F9184"/>
<stop offset="0.6613" stop-color="#1CCFBD"/>
<stop offset="1" stop-color="#04AA99"/>
</linearGradient>
<linearGradient id="paint19_linear_2389_11658" x1="96.6498" y1="91.6274" x2="94.5981" y2="75.3827" gradientUnits="userSpaceOnUse">
<stop stop-color="#3CAA9F"/>
<stop offset="0.0528" stop-color="#3CAA9F"/>
<stop offset="0.1288" stop-color="#37BDB0"/>
<stop offset="0.2187" stop-color="#13B1A2"/>
<stop offset="0.3185" stop-color="#249C90"/>
<stop offset="0.411458" stop-color="#27B7A8"/>
<stop offset="0.5161" stop-color="#0F9184"/>
<stop offset="0.6613" stop-color="#1CCFBD"/>
<stop offset="1" stop-color="#04AA99"/>
</linearGradient>
<linearGradient id="paint20_linear_2389_11658" x1="83.6908" y1="99.5409" x2="83.112" y2="89.8026" gradientUnits="userSpaceOnUse">
<stop stop-color="#3CAA9F"/>
<stop offset="0.0528" stop-color="#3CAA9F"/>
<stop offset="0.1288" stop-color="#37BDB0"/>
<stop offset="0.2187" stop-color="#13B1A2"/>
<stop offset="0.3185" stop-color="#249C90"/>
<stop offset="0.411458" stop-color="#27B7A8"/>
<stop offset="0.5161" stop-color="#0F9184"/>
<stop offset="0.6613" stop-color="#1CCFBD"/>
<stop offset="1" stop-color="#04AA99"/>
</linearGradient>
<linearGradient id="paint21_linear_2389_11658" x1="66.1921" y1="102.179" x2="65.996" y2="96.4729" gradientUnits="userSpaceOnUse">
<stop stop-color="#3CAA9F"/>
<stop offset="0.0528" stop-color="#3CAA9F"/>
<stop offset="0.1288" stop-color="#37BDB0"/>
<stop offset="0.2187" stop-color="#13B1A2"/>
<stop offset="0.3185" stop-color="#249C90"/>
<stop offset="0.411458" stop-color="#27B7A8"/>
<stop offset="0.5161" stop-color="#0F9184"/>
<stop offset="0.6613" stop-color="#1CCFBD"/>
<stop offset="1" stop-color="#04AA99"/>
</linearGradient>
<linearGradient id="paint22_linear_2389_11658" x1="47.5591" y1="103.458" x2="45.8945" y2="88.5211" gradientUnits="userSpaceOnUse">
<stop stop-color="#3CAA9F"/>
<stop offset="0.0528" stop-color="#3CAA9F"/>
<stop offset="0.1288" stop-color="#37BDB0"/>
<stop offset="0.2187" stop-color="#13B1A2"/>
<stop offset="0.3185" stop-color="#249C90"/>
<stop offset="0.411458" stop-color="#27B7A8"/>
<stop offset="0.5161" stop-color="#0F9184"/>
<stop offset="0.6613" stop-color="#1CCFBD"/>
<stop offset="1" stop-color="#04AA99"/>
</linearGradient>
<linearGradient id="paint23_linear_2389_11658" x1="31.9168" y1="96.022" x2="26.7187" y2="75.0861" gradientUnits="userSpaceOnUse">
<stop stop-color="#3CAA9F"/>
<stop offset="0.0528" stop-color="#3CAA9F"/>
<stop offset="0.1288" stop-color="#37BDB0"/>
<stop offset="0.2187" stop-color="#13B1A2"/>
<stop offset="0.3185" stop-color="#249C90"/>
<stop offset="0.411458" stop-color="#27B7A8"/>
<stop offset="0.5161" stop-color="#0F9184"/>
<stop offset="0.6613" stop-color="#1CCFBD"/>
<stop offset="1" stop-color="#04AA99"/>
</linearGradient>
<linearGradient id="paint24_linear_2389_11658" x1="22.7846" y1="81.4014" x2="12.303" y2="61.9634" gradientUnits="userSpaceOnUse">
<stop stop-color="#3CAA9F"/>
<stop offset="0.0528" stop-color="#3CAA9F"/>
<stop offset="0.1288" stop-color="#37BDB0"/>
<stop offset="0.2187" stop-color="#13B1A2"/>
<stop offset="0.3185" stop-color="#249C90"/>
<stop offset="0.411458" stop-color="#27B7A8"/>
<stop offset="0.5161" stop-color="#0F9184"/>
<stop offset="0.6613" stop-color="#1CCFBD"/>
<stop offset="1" stop-color="#04AA99"/>
</linearGradient>
<linearGradient id="paint25_linear_2389_11658" x1="21.9699" y1="62.4081" x2="14.8951" y2="41.7537" gradientUnits="userSpaceOnUse">
<stop stop-color="#3CAA9F"/>
<stop offset="0.0528" stop-color="#3CAA9F"/>
<stop offset="0.1288" stop-color="#37BDB0"/>
<stop offset="0.2187" stop-color="#13B1A2"/>
<stop offset="0.3185" stop-color="#249C90"/>
<stop offset="0.411458" stop-color="#27B7A8"/>
<stop offset="0.5161" stop-color="#0F9184"/>
<stop offset="0.6613" stop-color="#1CCFBD"/>
<stop offset="1" stop-color="#04AA99"/>
</linearGradient>
<linearGradient id="paint26_linear_2389_11658" x1="30.8626" y1="42.8857" x2="28.663" y2="26.2603" gradientUnits="userSpaceOnUse">
<stop stop-color="#3CAA9F"/>
<stop offset="0.0528" stop-color="#3CAA9F"/>
<stop offset="0.1288" stop-color="#37BDB0"/>
<stop offset="0.2187" stop-color="#13B1A2"/>
<stop offset="0.3185" stop-color="#249C90"/>
<stop offset="0.411458" stop-color="#27B7A8"/>
<stop offset="0.5161" stop-color="#0F9184"/>
<stop offset="0.6613" stop-color="#1CCFBD"/>
<stop offset="1" stop-color="#04AA99"/>
</linearGradient>
<linearGradient id="paint27_linear_2389_11658" x1="45.4772" y1="28.1805" x2="44.8454" y2="18.0442" gradientUnits="userSpaceOnUse">
<stop stop-color="#3CAA9F"/>
<stop offset="0.0528" stop-color="#3CAA9F"/>
<stop offset="0.1288" stop-color="#37BDB0"/>
<stop offset="0.2187" stop-color="#13B1A2"/>
<stop offset="0.3185" stop-color="#249C90"/>
<stop offset="0.411458" stop-color="#27B7A8"/>
<stop offset="0.5161" stop-color="#0F9184"/>
<stop offset="0.6613" stop-color="#1CCFBD"/>
<stop offset="1" stop-color="#04AA99"/>
</linearGradient>
<linearGradient id="paint28_linear_2389_11658" x1="52" y1="35.5" x2="88.5" y2="94" gradientUnits="userSpaceOnUse">
<stop stop-color="#3CAA9F"/>
<stop offset="0.0885417" stop-color="#099183"/>
<stop offset="0.213542" stop-color="#1D988B"/>
<stop offset="0.307292" stop-color="#1B9285"/>
<stop offset="0.432292" stop-color="#1C9A8D"/>
<stop offset="0.640625" stop-color="#21BCAC"/>
<stop offset="0.78125" stop-color="#0FAA9A"/>
<stop offset="1" stop-color="#009484"/>
</linearGradient>
</defs>
</svg>
