<svg width="139" height="34" viewBox="0 0 139 34" fill="none" xmlns="http://www.w3.org/2000/svg">
<path d="M54.6406 15.4029C54.528 16.2135 54.2915 17.621 53.9312 19.6252C53.1656 23.8812 52.7828 27.0338 52.7828 29.0831C52.7828 31.1323 52.9404 32.5059 53.2556 33.204C51.5217 32.7536 50.3282 32.0668 49.6752 31.1435C49.0221 30.1977 48.6956 28.8691 48.6956 27.1577C48.6956 25.6489 48.932 23.5885 49.4049 20.9763C49.8778 18.3416 50.1818 16.5626 50.3169 15.6393C49.146 15.842 47.8962 16.2361 46.5676 16.8216C46.5225 16.3261 46.5 15.9546 46.5 15.7069C46.5 14.5134 46.8603 13.7027 47.5809 13.2748C48.3015 12.8245 49.3374 12.588 50.6885 12.5655C50.8461 10.8766 50.9249 9.66057 50.9249 8.91745C50.9249 8.17433 50.9137 7.55506 50.8912 7.05965C50.8912 6.56424 50.8912 6.19268 50.8912 5.94497C52.3774 6.1026 53.4583 6.55298 54.1339 7.2961C54.8094 8.0167 55.1472 9.05257 55.1472 10.4037C55.1472 10.9441 55.0909 11.6985 54.9783 12.6668C56.8699 12.6218 58.2548 12.2502 59.1331 11.5522C59.1781 12.0025 59.2006 12.3403 59.2006 12.5655C59.2006 13.6464 59.0092 14.4008 58.6264 14.8286C58.2436 15.234 57.6018 15.4367 56.701 15.4367C55.8003 15.4367 55.1134 15.4254 54.6406 15.4029Z" fill="white"/>
<path d="M68.1769 22.9692C67.096 22.9692 66.0376 22.8453 65.0018 22.5976C64.9792 22.8228 64.968 23.1719 64.968 23.6448C64.968 25.5138 65.317 26.9212 66.0151 27.867C66.7132 28.8128 67.5464 29.2857 68.5147 29.2857C69.483 29.2857 70.4063 28.993 71.2845 28.4075C72.1627 27.822 72.9284 27.0113 73.5814 25.9755C74.3921 26.1556 74.7974 26.5722 74.7974 27.2253C72.8158 30.2653 70.2599 31.7853 67.1298 31.7853C65.2382 31.7853 63.5831 31.0647 62.1644 29.6235C60.7457 28.1598 60.0364 26.1331 60.0364 23.5434C60.0364 21.6068 60.4079 19.7715 61.151 18.0376C61.8942 16.2811 63.0764 14.8061 64.6978 13.6126C66.3191 12.3966 68.1094 11.7886 70.0685 11.7886C72.0502 11.7886 73.5026 12.239 74.4259 13.1397C75.3492 14.0405 75.8108 15.2227 75.8108 16.6864C75.8108 18.8032 75.0677 20.3795 73.5814 21.4154C72.1177 22.4513 70.3162 22.9692 68.1769 22.9692ZM69.5956 13.8829C68.4471 13.8829 67.4788 14.5922 66.6907 16.0109C65.9025 17.4296 65.3846 19.1523 65.1369 21.1789H65.6435C67.6027 21.1789 69.0439 20.6723 69.9672 19.6589C70.913 18.6456 71.3858 17.4296 71.3858 16.0109C71.3858 15.4254 71.2282 14.93 70.913 14.5246C70.6202 14.0968 70.1811 13.8829 69.5956 13.8829Z" fill="white"/>
<path d="M80.1199 30.4342C79.8497 29.9838 79.6808 29.556 79.6132 29.1506C79.5457 28.7228 79.5119 28.0697 79.5119 27.1915C79.5119 26.3132 79.8834 22.8566 80.6266 16.8216C81.3922 10.7865 81.775 6.64305 81.775 4.39117C81.775 2.13929 81.6399 0.675565 81.3697 0C83.0586 0.450377 84.2071 1.1372 84.8151 2.06047C85.4456 2.96122 85.7609 4.2448 85.7609 5.91119C85.7609 6.90202 85.4343 10.1222 84.7813 15.5718C84.1282 21.0213 83.8017 25.4125 83.8017 28.7453C83.8017 29.4659 83.8468 30.4792 83.9368 31.7853C81.8876 31.6952 80.6153 31.2449 80.1199 30.4342Z" fill="white"/>
<path d="M96.0236 14.4909C96.0236 14.8286 95.7421 16.6076 95.1792 19.8278C94.6387 23.0255 94.3572 25.6715 94.3347 27.7657C94.3347 29.8374 94.4698 31.1773 94.7401 31.7853C92.9836 31.3349 91.8014 30.6594 91.1933 29.7586C90.5853 28.8353 90.2813 27.4955 90.2813 25.739C90.2813 24.7932 90.4615 23.0818 90.8218 20.6047C91.1821 18.1276 91.3622 16.2023 91.3622 14.8286C91.3622 13.455 91.2947 12.3966 91.1596 11.6535C91.655 11.6085 92.1166 11.5859 92.5445 11.5859C93.8506 11.5859 94.7513 11.8111 95.2467 12.2615C95.7647 12.6894 96.0236 13.4325 96.0236 14.4909ZM96.5303 8.61345C95.8998 8.70352 95.3481 8.74856 94.8752 8.74856C92.5557 8.74856 91.396 7.93788 91.396 6.31653C91.396 5.73104 91.5649 4.93162 91.9027 3.91827C92.5332 3.8282 93.0849 3.78316 93.5578 3.78316C95.8773 3.78316 97.037 4.59384 97.037 6.21519C97.037 6.80068 96.8681 7.6001 96.5303 8.61345Z" fill="white"/>
<path d="M113.328 11.7886C114.656 11.7886 115.602 12.2052 116.165 13.0384C116.751 13.8491 117.043 14.9638 117.043 16.3824C117.043 17.7786 116.818 19.749 116.368 22.2936C115.94 24.8383 115.726 26.6961 115.726 27.867C115.726 29.0155 115.872 29.86 116.165 30.4004C116.458 30.9183 116.953 31.3687 117.651 31.7515C117.359 31.7741 116.942 31.7853 116.402 31.7853C114.51 31.7853 113.159 31.4926 112.348 30.9071C111.56 30.3216 111.166 29.297 111.166 27.8333C111.166 27.0001 111.391 25.3787 111.842 22.9692C112.292 20.5372 112.517 18.7244 112.517 17.5309C112.517 16.0447 112.067 15.3015 111.166 15.3015C110.648 15.3015 110.063 15.6055 109.41 16.2135C108.757 16.8216 108.126 17.6548 107.518 18.7131C106.91 19.749 106.403 21.0889 105.998 22.7327C105.593 24.3766 105.39 26.0205 105.39 27.6644C105.39 29.2857 105.458 30.4905 105.593 31.2786C104.872 31.3237 104.399 31.3462 104.174 31.3462C102.89 31.3462 101.967 31.121 101.404 30.6706C100.841 30.2203 100.56 29.4771 100.56 28.4413C100.56 27.9909 100.796 26.2569 101.269 23.2394C101.742 20.2219 101.978 17.8236 101.978 16.0447C101.978 14.2432 101.787 12.588 101.404 11.0793C103.048 11.5972 104.196 12.3403 104.85 13.3086C105.503 14.2544 105.829 15.3466 105.829 16.5851C105.829 17.8011 105.694 19.2198 105.424 20.8412C106.167 18.3191 107.338 16.1798 108.937 14.4233C110.536 12.6668 111.999 11.7886 113.328 11.7886Z" fill="white"/>
<path d="M125.622 24.8946C125.622 25.9529 125.814 26.8199 126.197 27.4955C126.602 28.1485 127.165 28.475 127.885 28.475C128.944 28.475 129.946 27.8558 130.892 26.6172C131.86 25.3787 132.626 23.7911 133.189 21.8545C133.774 19.9179 134.067 18.0826 134.067 16.3487C134.067 14.5922 133.999 13.1735 133.864 12.0926C134.54 12.0476 135.013 12.025 135.283 12.025C136.431 12.025 137.298 12.239 137.884 12.6668C138.469 13.0947 138.762 13.8603 138.762 14.9638C138.762 15.3916 138.492 17.1368 137.951 20.1994C137.411 23.2394 137.141 25.6827 137.141 27.5293C137.141 29.3533 137.49 30.9746 138.188 32.3933C136.499 32.1006 135.26 31.4813 134.472 30.5355C133.684 29.5672 133.29 28.1823 133.29 26.3808C133.29 26.0655 133.335 25.4575 133.425 24.5568C132.817 26.6961 131.736 28.4187 130.182 29.7248C128.629 31.0309 127.097 31.684 125.589 31.684C124.102 31.684 122.898 31.1323 121.974 30.0288C121.074 28.9029 120.623 27.3153 120.623 25.2661C120.623 23.2169 120.983 21.2352 121.704 19.3211C122.447 17.3845 123.551 15.7519 125.014 14.4233C126.478 13.0722 128.111 12.3966 129.912 12.3966C130.948 12.3966 132.006 12.6443 133.087 13.1397C130.813 13.9504 129 15.5492 127.649 17.9362C126.298 20.3007 125.622 22.6202 125.622 24.8946Z" fill="white"/>
<path d="M13.5788 19.5914L10.3361 19.5576C9.18768 19.5576 7.81403 19.5914 6.21519 19.659C5.69726 23.5322 5.43829 26.4259 5.43829 28.34C5.43829 30.2541 5.59593 31.5827 5.91119 32.3258C3.99709 31.8304 2.691 31.1773 1.99292 30.3667C1.29483 29.5335 0.94579 28.385 0.94579 26.9213C0.94579 26.0656 1.18224 23.8925 1.65513 20.4021C1.67765 20.312 1.68891 20.2557 1.68891 20.2332C1.01335 20.4133 0.472895 20.5935 0.0675566 20.7736C0.0225189 20.2782 0 19.9067 0 19.659C0 18.0827 0.720602 17.1143 2.16181 16.754C2.6347 12.7457 2.87115 9.48046 2.87115 6.95835C2.87115 6.28279 2.82611 5.35952 2.73604 4.18854C4.98792 4.27861 6.4066 4.68395 6.99209 5.40455C7.28484 5.80989 7.46499 6.20397 7.53255 6.58679C7.62262 6.94709 7.66766 7.54384 7.66766 8.37704C7.66766 9.18772 7.51003 10.6514 7.19476 12.7682C6.8795 14.8625 6.69935 16.1123 6.65431 16.5176C10.3924 16.5176 13.6126 16.4951 16.3149 16.45C16.7878 12.5768 17.0242 9.41291 17.0242 6.95835C17.0242 6.28279 16.9792 5.35952 16.8891 4.18854C19.141 4.27861 20.5484 4.68395 21.1114 5.40455C21.4267 5.80989 21.6181 6.20397 21.6856 6.58679C21.7757 6.94709 21.8207 7.54384 21.8207 8.37704C21.8207 9.18772 21.4379 12.1827 20.6723 17.362C19.9292 22.5189 19.5576 26.1219 19.5576 28.1711C19.5576 30.1978 19.7152 31.5827 20.0305 32.3258C18.1164 31.8304 16.8103 31.1773 16.1122 30.3667C15.4367 29.556 15.0989 28.5201 15.0989 27.2591C15.0989 25.998 15.3241 23.7124 15.7744 20.4021L15.9771 18.9496C15.4817 19.3775 14.6823 19.5914 13.5788 19.5914Z" fill="#3CAA9F"/>
<path fill-rule="evenodd" clip-rule="evenodd" d="M42.6738 16.285C41.8823 14.7924 40.7742 13.6391 39.3868 12.8249C37.9901 11.9914 36.4444 11.5746 34.7591 11.5746C33.083 11.5746 31.5373 11.9914 30.1406 12.8249C28.7439 13.6391 27.6358 14.7924 26.8164 16.285C26.0063 17.7873 25.6152 19.5028 25.6152 21.4121C25.6152 23.3214 26.0063 25.0369 26.8164 26.5586V26.5683C27.6358 28.0608 28.7439 29.2239 30.1406 30.0671C31.5373 30.8715 33.083 31.2786 34.7591 31.2786C36.4444 31.2786 37.9901 30.8715 39.3775 30.0671H39.3868C40.7836 29.2239 41.8823 28.0608 42.6738 26.5683C43.5025 25.0466 43.9122 23.3214 43.9122 21.4121C43.9122 19.4931 43.5025 17.7873 42.6738 16.285ZM39.7593 23.1567C39.7593 25.2211 39.331 26.8881 38.4836 28.1384C37.6549 29.3984 36.4165 30.0283 34.7591 30.0283C33.1109 30.0283 31.8539 29.3984 31.0066 28.1384C30.8017 27.8282 30.6155 27.489 30.4665 27.1207C30.4013 26.9656 30.3361 26.8106 30.2803 26.6458C30.2523 26.578 30.2337 26.5004 30.2151 26.4326C30.1592 26.2775 30.122 26.1224 30.0754 25.9577C30.0754 25.948 30.0754 25.9383 30.0661 25.9286C30.0289 25.7444 29.9823 25.5506 29.9544 25.3568C29.9078 25.1145 29.8706 24.8722 29.8426 24.6202C29.7961 24.1549 29.7681 23.6703 29.7681 23.1567V19.6675C29.7681 17.5934 30.1778 15.9458 31.0066 14.7052C31.8539 13.4549 33.1109 12.8249 34.7591 12.8249C36.4165 12.8249 37.6549 13.4549 38.4836 14.7052C38.5861 14.8603 38.6885 15.025 38.7816 15.1898C38.8747 15.3546 38.9585 15.529 39.0423 15.7132C39.1168 15.8973 39.1913 16.0815 39.2565 16.2753C39.3217 16.4594 39.3775 16.6436 39.4334 16.8374C39.4706 16.9828 39.4986 17.1379 39.5358 17.293C39.5358 17.3123 39.5451 17.3317 39.5451 17.3511C39.5638 17.448 39.5824 17.545 39.601 17.6516C39.6289 17.8357 39.6569 18.0199 39.6755 18.2137C39.7314 18.6692 39.7593 19.1538 39.7593 19.6675V23.1567Z" fill="white"/>
<path fill-rule="evenodd" clip-rule="evenodd" d="M39.2913 19.6674V23.1566C39.2913 25.1532 38.8816 26.7136 38.0994 27.8669C37.3731 28.9718 36.2837 29.5437 34.7566 29.5437C33.2388 29.5437 32.1401 28.9718 31.3859 27.8669C30.7899 26.9462 30.4082 25.7831 30.2871 24.3293L39.2354 18.5044C39.2726 18.8727 39.2913 19.2604 39.2913 19.6674Z" fill="#3CAA9F"/>
</svg>
