<svg width="141" height="140" viewBox="0 0 141 140" fill="none" xmlns="http://www.w3.org/2000/svg">
<path d="M56.3459 18.377C56.3459 18.377 56.3859 18.2043 56.519 17.952C56.6388 17.6996 56.865 17.3145 57.2111 16.8895C57.5572 16.4645 58.0363 16.0262 58.622 15.6013C58.9148 15.402 59.2343 15.2692 59.5803 15.0567C59.9131 14.9239 60.2991 14.7513 60.6718 14.6716C61.4305 14.4458 62.2424 14.3396 63.0809 14.3528C63.9195 14.3263 64.7713 14.4325 65.6232 14.6052C66.4617 14.8044 67.3668 15.0036 68.1921 15.3356C69.0306 15.6544 69.8692 15.9598 70.7077 16.2786C71.5463 16.5708 72.3316 16.8364 73.1967 16.9426C74.0486 17.1153 74.9138 17.195 75.739 17.1684C76.5775 17.1418 77.4161 17.0223 78.1881 16.7965C78.9867 16.5708 79.7321 16.2653 80.3976 15.8669C81.7153 15.0966 82.7934 14.1005 83.4456 13.2904C84.1245 12.5068 84.4705 11.9623 84.4705 11.9623C84.4705 11.9623 84.2176 12.5599 83.6453 13.4896C83.0463 14.3794 82.0747 15.6809 80.6505 16.7434C79.945 17.2879 79.1331 17.7262 78.2546 18.0715C77.3895 18.4035 76.4577 18.6293 75.526 18.7488C74.5943 18.7754 73.636 18.8285 72.7176 18.6692C71.7992 18.5496 70.8674 18.2707 69.989 17.9785C69.1637 17.6465 68.3252 17.3145 67.5133 16.9692C66.7146 16.6372 65.8894 16.3848 65.1174 16.1325C64.3188 15.9333 63.5468 15.7341 62.7881 15.6544C62.0294 15.6013 61.3107 15.5747 60.6185 15.6544C59.9264 15.7606 59.3008 15.9333 58.7285 16.1856C58.1828 16.438 57.7169 16.7833 57.3575 17.1153C56.6255 17.7926 56.3459 18.377 56.3459 18.377Z" fill="url(#paint0_linear_410_26)"/>
<path d="M35.5152 29.4267C35.5152 29.4267 35.4886 29.2806 35.4886 28.9752C35.4886 28.6963 35.5152 28.2447 35.6617 27.74C35.7948 27.2088 36.021 26.558 36.3671 25.9471C36.5534 25.6682 36.7797 25.3893 37.006 25.044C37.2589 24.7917 37.5118 24.4862 37.8179 24.2339C38.4036 23.6894 39.0824 23.2511 39.8411 22.9058C40.5998 22.5472 41.425 22.255 42.2635 22.0425C43.1154 21.8699 43.9939 21.6441 44.8857 21.6175C45.7908 21.5378 46.6559 21.4449 47.5477 21.3918C48.4528 21.2855 49.278 21.1925 50.09 20.9136C50.9285 20.6879 51.7404 20.3824 52.4858 20.0105C53.2312 19.6254 53.9499 19.1738 54.5356 18.6293C55.1479 18.0981 55.6936 17.5137 56.1195 16.8231C57.0113 15.5614 57.5304 14.2201 57.77 13.2107C58.0362 12.2146 58.1427 11.5771 58.1427 11.5771C58.1427 11.5771 58.1693 12.2146 58.0229 13.2904C57.8898 14.3794 57.5703 15.9599 56.7318 17.5137C56.3325 18.3239 55.7868 19.0543 55.1479 19.7582C54.5223 20.4355 53.7636 21.0465 52.9783 21.5378C52.1664 21.9496 51.3012 22.4011 50.3961 22.6534C49.5309 22.9323 48.5593 23.105 47.6542 23.2112C46.7757 23.2644 45.8706 23.3175 44.9921 23.3839C44.1137 23.4105 43.2751 23.5167 42.4499 23.6362C41.6513 23.8089 40.8526 23.9417 40.1605 24.2206C39.4418 24.4862 38.7762 24.7917 38.1906 25.1503C37.6316 25.5221 37.1125 25.9737 36.7265 26.4518C36.3405 26.9033 36.061 27.408 35.8879 27.8596C35.5152 28.776 35.5152 29.4267 35.5152 29.4267Z" fill="url(#paint1_linear_410_26)"/>
<path d="M21.4859 48.3787C21.4859 48.3787 21.3928 48.2326 21.2597 47.9537C21.1399 47.7013 20.9535 47.2763 20.8737 46.7717C20.7539 46.2139 20.6873 45.5631 20.7539 44.8592C20.7938 44.5006 20.8737 44.1553 20.9535 43.7569C21.0334 43.4249 21.1532 43.0397 21.2996 42.6679C21.6057 41.9374 22.0317 41.2335 22.5774 40.6093C23.1098 39.932 23.7088 39.3476 24.3876 38.7898C25.0797 38.2851 25.7852 37.6875 26.5572 37.2625C27.3558 36.8242 28.1011 36.3727 28.8731 35.9211C29.6451 35.443 30.3506 34.9915 30.9762 34.4071C31.655 33.836 32.2406 33.2251 32.7464 32.5743C33.2522 31.897 33.7048 31.1798 34.0242 30.4361C34.3303 29.6791 34.5699 28.9221 34.6631 28.1385C34.9027 26.6245 34.7829 25.1901 34.5566 24.1808C34.3836 23.1582 34.1839 22.5472 34.1839 22.5472C34.1839 22.5472 34.4901 23.105 34.8361 24.1542C35.1689 25.1636 35.5815 26.744 35.475 28.5104C35.475 29.4002 35.2887 30.3033 35.0225 31.2064C34.743 32.0697 34.3303 32.9462 33.8246 33.7298C33.2788 34.4602 32.6932 35.2438 31.9877 35.868C31.3222 36.4789 30.5236 37.05 29.7649 37.5281C28.9796 37.9797 28.181 38.418 27.4223 38.8164C26.637 39.2414 25.9316 39.6929 25.2527 40.171C24.6005 40.6492 23.9483 41.1273 23.4292 41.6585C22.8835 42.1897 22.4177 42.7608 22.045 43.3452C21.6989 43.9428 21.4194 44.5537 21.2863 45.1381C21.1399 45.7357 21.0999 46.2935 21.1399 46.7717C21.1931 47.7943 21.4859 48.3787 21.4859 48.3787Z" fill="url(#paint2_linear_410_26)"/>
<path d="M16.9874 71.4874C16.9874 71.4874 16.841 71.4077 16.6015 71.1952C16.3885 71.0358 16.0424 70.7304 15.7629 70.3054C15.4035 69.8538 15.0575 69.296 14.8046 68.6187C14.6848 68.2867 14.6315 67.9547 14.5251 67.5828C14.4452 67.2109 14.3919 66.8258 14.3786 66.4274C14.3387 65.6438 14.4053 64.8204 14.6315 64.0102C14.8312 63.1868 15.1107 62.3767 15.4701 61.5931C15.8694 60.8361 16.2554 59.9861 16.7878 59.2822C17.3069 58.5518 17.7861 57.7948 18.2919 57.0643C18.771 56.3073 19.2236 55.6034 19.5297 54.8198C19.9024 53.9964 20.1553 53.1863 20.3416 52.3761C20.5147 51.5527 20.6078 50.716 20.5679 49.9192C20.5147 49.109 20.4082 48.2989 20.1553 47.5552C19.7161 46.1075 18.984 44.8326 18.3451 44.0224C17.7461 43.1857 17.3069 42.6943 17.3069 42.6943C17.3069 42.6943 17.826 43.0928 18.5714 43.8763C19.3301 44.6334 20.3683 45.895 21.0471 47.5286C21.4464 48.352 21.646 49.2153 21.8191 50.1715C21.9256 51.0746 21.9256 52.0308 21.8191 52.9605C21.646 53.8503 21.4331 54.8198 21.0737 55.6831C20.7543 56.5331 20.2485 57.3698 19.7826 58.1268C19.2635 58.8705 18.7444 59.6275 18.2386 60.3314C17.7062 61.0353 17.2537 61.7259 16.841 62.4696C16.4683 63.1603 16.069 63.8641 15.8428 64.6079C15.5899 65.2985 15.4168 66.0422 15.3237 66.7063C15.2704 67.3836 15.2837 68.0609 15.4168 68.6453C15.5366 69.2296 15.7363 69.7609 15.9759 70.1859C16.4817 71.0624 16.9874 71.4874 16.9874 71.4874Z" fill="url(#paint3_linear_410_26)"/>
<path d="M22.8969 94.2908C22.8969 94.2908 22.7239 94.2643 22.431 94.2111C22.1648 94.1315 21.7123 93.9987 21.2863 93.7596C20.7672 93.5073 20.2082 93.1487 19.7024 92.6307C19.4495 92.3651 19.2499 92.1128 18.9837 91.8206C18.7574 91.5151 18.5444 91.1964 18.3448 90.8378C17.9854 90.1339 17.7059 89.3636 17.5462 88.5667C17.3598 87.7168 17.28 86.8801 17.2666 86.0035C17.2933 85.1403 17.2933 84.2239 17.4663 83.3473C17.626 82.4575 17.7192 81.581 17.8523 80.7177C17.9721 79.8146 18.0653 79.0045 18.012 78.1279C17.9854 77.2647 17.8789 76.4147 17.6793 75.6046C17.4796 74.7811 17.2001 73.9976 16.8274 73.2671C16.4281 72.5632 15.9889 71.8859 15.4431 71.3281C14.4049 70.1992 13.207 69.3492 12.2753 68.8977C11.3702 68.393 10.7712 68.1672 10.7712 68.1672C10.7712 68.1672 11.4234 68.2868 12.435 68.6719C13.4466 69.0438 14.924 69.7477 16.2418 70.9031C16.9605 71.4875 17.5062 72.1914 18.0786 72.9882C18.5711 73.7452 18.9837 74.6085 19.2898 75.485C19.5161 76.3881 19.7424 77.3444 19.769 78.274C19.8488 79.1638 19.769 80.1599 19.6891 81.0232C19.5161 81.913 19.3697 82.8294 19.2099 83.6528C19.0236 84.5293 18.9437 85.3793 18.8772 86.1895C18.8506 86.9996 18.7973 87.7832 18.9038 88.5535C18.9704 89.3105 19.1434 90.0011 19.343 90.6784C19.5826 91.3026 19.9021 91.9268 20.2748 92.3917C20.6208 92.8831 21.0468 93.2682 21.4328 93.5604C22.2713 94.1315 22.8969 94.2908 22.8969 94.2908Z" fill="url(#paint4_linear_410_26)"/>
<path d="M38.0706 112.313C38.0706 112.313 37.9109 112.366 37.6181 112.446C37.3386 112.472 36.886 112.592 36.3802 112.552C35.8212 112.525 35.1424 112.419 34.4769 112.22C34.1441 112.087 33.8513 111.928 33.4786 111.782C33.1458 111.583 32.7998 111.383 32.4803 111.171C31.8414 110.679 31.2558 110.108 30.7766 109.431C30.2442 108.754 29.805 108.037 29.4057 107.253C29.0596 106.469 28.6603 105.646 28.4606 104.809C28.221 103.906 27.9149 103.083 27.662 102.219C27.3825 101.369 27.1163 100.586 26.6904 99.8289C26.2911 99.0586 25.8119 98.3282 25.2928 97.6774C24.7737 97.0399 24.1481 96.4688 23.5358 95.9509C22.857 95.4993 22.1649 95.0611 21.4461 94.8087C20.0086 94.2111 18.5711 93.972 17.5329 93.9455C16.4947 93.8923 15.8558 93.9455 15.8558 93.9455C15.8558 93.9455 16.4947 93.7861 17.5728 93.6931C18.6643 93.5869 20.2881 93.5869 21.9652 94.1048C22.8703 94.2908 23.6689 94.6759 24.5208 95.1673C25.2928 95.6321 26.0382 96.2298 26.7037 96.9071C27.276 97.611 27.9016 98.3547 28.3275 99.218C28.8067 99.9883 29.1395 100.905 29.4323 101.728C29.6719 102.605 29.9248 103.494 30.1777 104.318C30.3773 105.181 30.6568 105.951 30.9497 106.735C31.2691 107.492 31.5752 108.236 31.9879 108.887C32.3738 109.511 32.8397 110.082 33.3056 110.6C33.7847 111.038 34.3438 111.503 34.8895 111.742C35.4086 112.034 35.9809 112.207 36.4468 112.286C37.4184 112.446 38.0706 112.313 38.0706 112.313Z" fill="url(#paint5_linear_410_26)"/>
<path d="M59.5535 122.061C59.5535 122.061 59.4337 122.167 59.2208 122.367C58.9679 122.553 58.6085 122.818 58.116 123.004C57.6102 123.23 56.958 123.442 56.2659 123.522C55.9198 123.575 55.5737 123.522 55.1744 123.575C54.7884 123.522 54.4158 123.496 54.0164 123.442C53.2311 123.283 52.4458 123.031 51.7271 122.606C50.9551 122.247 50.2496 121.756 49.5442 121.238C48.8787 120.667 48.1732 120.096 47.6275 119.418C47.0152 118.714 46.403 118.09 45.7907 117.426C45.1784 116.775 44.5928 116.204 43.8873 115.713C43.1952 115.195 42.4498 114.73 41.7045 114.358C40.9724 114 40.1338 113.734 39.3752 113.561C38.5499 113.429 37.7646 113.349 36.9926 113.402C35.4353 113.508 34.0511 113.92 33.0927 114.332C32.1477 114.73 31.5753 115.036 31.5753 115.036C31.5753 115.036 32.0811 114.624 33.0262 114.079C33.9579 113.535 35.4353 112.831 37.1523 112.552C38.0574 112.34 38.9492 112.34 39.9076 112.393C40.826 112.525 41.7577 112.725 42.6362 113.043C43.4747 113.429 44.3532 113.867 45.1119 114.438C45.8706 114.929 46.5494 115.607 47.1883 116.231C47.7872 116.935 48.3862 117.599 48.9585 118.25C49.5176 118.953 50.1032 119.551 50.7155 120.122C51.3145 120.64 51.9134 121.158 52.5789 121.596C53.2045 121.982 53.8833 122.327 54.5222 122.579C55.1345 122.765 55.8399 122.938 56.4522 122.938C57.0246 122.978 57.6102 122.898 58.0628 122.739C59.0344 122.486 59.5535 122.061 59.5535 122.061Z" fill="url(#paint6_linear_410_26)"/>
<path d="M83.1392 121.649C83.1392 121.649 83.0859 121.809 82.9528 122.061C82.8197 122.327 82.6201 122.739 82.2474 123.097C81.888 123.522 81.4089 124.013 80.8099 124.372C80.5038 124.585 80.1843 124.691 79.8116 124.863C79.4789 125.023 79.1195 125.156 78.7335 125.275C77.9615 125.461 77.1363 125.594 76.2977 125.488C75.4459 125.488 74.6073 125.381 73.7421 125.182C72.9036 124.97 72.0251 124.757 71.2398 124.399C70.388 124.013 69.576 123.721 68.7242 123.389C67.8989 123.057 67.1136 122.765 66.2618 122.632C65.4099 122.46 64.5448 122.38 63.7062 122.38C62.881 122.353 62.0291 122.46 61.2571 122.632C60.4585 122.898 59.7131 123.124 59.0343 123.509C57.65 124.266 56.5985 125.262 55.933 126.032C55.2276 126.789 54.8549 127.334 54.8549 127.334C54.8549 127.334 55.1344 126.736 55.7467 125.833C56.3456 124.956 57.3838 123.681 58.808 122.699C59.5401 122.101 60.3653 121.742 61.2305 121.371C62.1223 121.092 63.0274 120.853 63.9857 120.773C64.8908 120.773 65.8758 120.773 66.8075 120.985C67.7126 121.078 68.6177 121.397 69.4695 121.676C70.3081 122.061 71.1466 122.407 71.9453 122.739C72.7439 123.124 73.5292 123.416 74.3278 123.695C75.1131 123.907 75.8718 124.106 76.6438 124.186C77.4025 124.292 78.1345 124.319 78.8267 124.266C79.4789 124.16 80.171 124.027 80.73 123.748C81.2624 123.509 81.7682 123.23 82.101 122.911C82.8597 122.247 83.1392 121.649 83.1392 121.649Z" fill="url(#paint7_linear_410_26)"/>
<path d="M104.262 111.118C104.262 111.118 104.276 111.304 104.276 111.609C104.262 111.901 104.262 112.34 104.089 112.858C103.943 113.376 103.69 114 103.33 114.624C103.131 114.903 102.905 115.142 102.638 115.474C102.399 115.74 102.133 116.045 101.826 116.311C101.241 116.802 100.522 117.267 99.7633 117.546C98.9647 117.904 98.1794 118.143 97.301 118.382C96.4358 118.542 95.5573 118.714 94.7055 118.714C93.7737 118.741 92.9086 118.821 92.0168 118.9C91.0984 118.954 90.2598 119.033 89.4346 119.286C88.596 119.472 87.7974 119.777 87.0254 120.122C86.2934 120.454 85.548 120.946 84.9357 121.411C84.3101 121.982 83.7511 122.553 83.3119 123.177C82.3802 124.452 81.8611 125.78 81.5815 126.789C81.2887 127.772 81.1689 128.423 81.1689 128.423C81.1689 128.423 81.1689 127.772 81.3286 126.683C81.4884 125.621 81.8611 124.014 82.7395 122.513C83.1522 121.676 83.7112 120.999 84.3501 120.295C85.0289 119.644 85.7743 119.047 86.5862 118.582C87.4114 118.197 88.3032 117.732 89.2216 117.546C90.0868 117.267 91.0318 117.134 91.9236 117.028C92.842 117.028 93.7604 116.975 94.6256 116.948C95.4908 116.948 96.3559 116.868 97.1679 116.762C97.9665 116.603 98.7518 116.483 99.4838 116.244C100.216 115.992 100.881 115.686 101.467 115.341C102.026 115.009 102.585 114.558 102.971 114.066C103.344 113.654 103.663 113.163 103.823 112.712C104.262 111.795 104.262 111.118 104.262 111.118Z" fill="url(#paint8_linear_410_26)"/>
<path d="M118.77 92.5775C118.77 92.5775 118.864 92.7103 118.997 92.9892C119.116 93.2548 119.303 93.6666 119.369 94.2111C119.463 94.729 119.502 95.4064 119.436 96.1235C119.396 96.4555 119.276 96.8009 119.196 97.186C119.103 97.5579 118.983 97.9164 118.824 98.275C118.491 98.9789 118.065 99.7094 117.479 100.307C116.934 100.971 116.321 101.542 115.629 102.113C114.91 102.605 114.192 103.149 113.42 103.548C112.581 103.959 111.862 104.398 111.064 104.836C110.265 105.274 109.56 105.712 108.921 106.283C108.242 106.828 107.656 107.479 107.111 108.076C106.578 108.727 106.126 109.471 105.78 110.175C105.46 110.932 105.181 111.675 105.074 112.433C104.781 114 104.874 115.421 105.061 116.43C105.221 117.439 105.38 118.064 105.38 118.064C105.38 118.064 105.127 117.532 104.795 116.457C104.462 115.421 104.129 113.84 104.262 112.1C104.276 111.171 104.488 110.281 104.768 109.404C105.101 108.528 105.5 107.665 106.046 106.894C106.618 106.19 107.217 105.394 107.989 104.849C108.628 104.198 109.427 103.68 110.199 103.202C111.024 102.817 111.822 102.352 112.594 101.954C113.393 101.595 114.112 101.157 114.804 100.692C115.456 100.227 116.122 99.8156 116.681 99.2445C117.226 98.7 117.706 98.1555 118.078 97.5844C118.424 97.0133 118.744 96.4157 118.89 95.7915C119.063 95.247 119.116 94.6493 119.09 94.2111C119.077 93.1752 118.77 92.5775 118.77 92.5775Z" fill="url(#paint9_linear_410_26)"/>
<path d="M123.869 69.6016C123.869 69.6016 124.015 69.6812 124.255 69.8539C124.468 70.0531 124.814 70.332 125.12 70.8101C125.426 71.2617 125.772 71.8328 125.998 72.4968C126.105 72.8288 126.158 73.1741 126.251 73.5726C126.318 73.9312 126.371 74.3296 126.384 74.7147C126.384 75.5116 126.318 76.3483 126.051 77.1053C125.825 77.9553 125.532 78.7388 125.146 79.5623C124.72 80.2927 124.295 81.1028 123.775 81.7802C123.19 82.5106 122.737 83.2411 122.218 83.9582C121.686 84.6887 121.233 85.3926 120.9 86.216C120.514 86.973 120.275 87.7964 120.049 88.6066C119.836 89.4034 119.742 90.2667 119.729 91.037C119.782 91.9002 119.876 92.6705 120.088 93.4276C120.474 94.9283 121.193 96.1767 121.805 97.0134C122.391 97.8634 122.804 98.3681 122.804 98.3681C122.804 98.3681 122.311 97.9431 121.566 97.1595C120.821 96.3626 119.809 95.0611 119.197 93.4541C118.797 92.6041 118.611 91.7143 118.478 90.8112C118.411 89.855 118.411 88.9253 118.571 87.9558C118.771 87.0926 118.984 86.1496 119.423 85.2863C119.729 84.4231 120.248 83.6262 120.727 82.8692C121.286 82.1388 121.819 81.4083 122.338 80.7044C122.91 80.0271 123.363 79.3232 123.802 78.6193C124.175 77.9287 124.601 77.2514 124.854 76.5209C125.106 75.7905 125.306 75.0866 125.413 74.4093C125.479 73.7585 125.492 73.028 125.359 72.4437C125.279 71.8859 125.08 71.3281 124.84 70.9297C124.401 70 123.869 69.6016 123.869 69.6016Z" fill="url(#paint10_linear_410_26)"/>
<path d="M118.571 46.6654C118.571 46.6654 118.731 46.6654 119.037 46.7451C119.29 46.8248 119.743 46.9177 120.209 47.2232C120.674 47.5021 121.233 47.874 121.739 48.3521C121.952 48.631 122.165 48.9099 122.418 49.2153C122.644 49.5208 122.857 49.8661 123.03 50.1981C123.363 50.902 123.682 51.6856 123.776 52.4957C123.949 53.3723 124.002 54.1824 124.002 55.0855C123.949 55.9355 123.909 56.8652 123.736 57.7151C123.536 58.605 123.43 59.4549 123.27 60.358C123.11 61.2213 123.004 62.0713 123.044 62.9478C123.044 63.7845 123.163 64.6345 123.31 65.4712C123.47 66.2548 123.762 67.1048 124.082 67.8087C124.494 68.5391 124.934 69.243 125.439 69.7742C126.438 70.9828 127.636 71.7929 128.527 72.3109C129.406 72.8156 130.018 73.0945 130.018 73.0945C130.018 73.0945 129.379 72.9218 128.368 72.5234C127.356 72.1382 125.879 71.4078 124.641 70.1992C123.909 69.6016 123.363 68.8977 122.857 68.1141C122.365 67.304 121.965 66.454 121.713 65.5243C121.5 64.6478 121.287 63.665 121.313 62.7088C121.233 61.8189 121.34 60.8893 121.446 60.0127C121.633 59.1229 121.806 58.2198 121.965 57.3433C122.192 56.5066 122.312 55.6566 122.405 54.8465C122.445 54.023 122.498 53.2395 122.445 52.4825C122.351 51.7254 122.232 50.995 122.019 50.3442C121.806 49.7333 121.5 49.0825 121.14 48.5779C120.821 48.0997 120.382 47.7013 120.009 47.449C119.21 46.7982 118.571 46.6654 118.571 46.6654Z" fill="url(#paint11_linear_410_26)"/>
<path d="M103.863 28.2447C103.863 28.2447 104.009 28.165 104.316 28.0986C104.608 28.0853 105.034 27.9658 105.593 28.0455C106.139 28.0721 106.805 28.1916 107.47 28.4174C107.79 28.5502 108.096 28.7228 108.455 28.8955C108.788 29.0947 109.134 29.2939 109.427 29.5197C110.039 30.0244 110.665 30.5954 111.091 31.286C111.61 31.9899 112.022 32.6938 112.422 33.5305C112.728 34.3141 113.087 35.1641 113.313 35.9742C113.526 36.9039 113.779 37.6875 114.032 38.564C114.272 39.4273 114.525 40.2507 114.937 41.0077C115.297 41.7647 115.776 42.4686 116.282 43.1725C116.761 43.8232 117.386 44.4475 117.959 44.9521C118.664 45.4302 119.343 45.8818 120.048 46.1607C121.459 46.838 122.897 47.0372 123.935 47.1169C124.946 47.1966 125.625 47.17 125.625 47.17C125.625 47.17 124.973 47.3029 123.895 47.3958C122.804 47.4489 121.153 47.4224 119.503 46.8911C118.597 46.6654 117.799 46.2404 116.987 45.7357C116.215 45.231 115.496 44.6334 114.844 43.9162C114.285 43.2123 113.673 42.4553 113.273 41.5522C112.821 40.7819 112.515 39.8921 112.235 39.0421C112.009 38.139 111.783 37.2757 111.556 36.4258C111.397 35.5625 111.144 34.7789 110.851 33.9821C110.545 33.2251 110.265 32.4946 109.879 31.8438C109.48 31.1798 109.054 30.5822 108.601 30.0775C108.136 29.6259 107.577 29.1478 107.031 28.8689C106.525 28.59 105.966 28.3908 105.527 28.3377C104.515 28.0853 103.863 28.2447 103.863 28.2447Z" fill="url(#paint12_linear_410_26)"/>
<path d="M82.66 17.9387C82.66 17.9387 82.7665 17.7926 83.006 17.6332C83.2456 17.4606 83.605 17.2082 84.1241 17.0223C84.6432 16.8231 85.2688 16.6239 85.9742 16.5442C86.3203 16.5442 86.6797 16.5708 87.0657 16.5708C87.465 16.5973 87.851 16.6239 88.2237 16.7168C89.009 16.8895 89.8076 17.1153 90.4997 17.5668C91.2717 17.9918 91.9372 18.4434 92.656 19.0277C93.2683 19.5855 93.9737 20.2097 94.5194 20.8472C95.1051 21.5777 95.704 22.2019 96.2897 22.8792C96.8886 23.5831 97.461 24.1674 98.1531 24.6721C98.8186 25.2299 99.5374 25.6549 100.296 26.0799C101.015 26.4518 101.84 26.7572 102.585 26.9564C103.437 27.1025 104.223 27.2088 104.995 27.1557C106.552 27.1557 107.949 26.7307 108.908 26.3322C109.853 25.9737 110.465 25.6682 110.465 25.6682C110.465 25.6682 109.919 26.0533 109.001 26.5846C108.043 27.1158 106.539 27.833 104.822 28.0189C103.89 28.2181 103.011 28.1916 102.066 28.0853C101.135 27.9658 100.23 27.7533 99.3244 27.3549C98.5391 26.9564 97.634 26.5314 96.902 25.894C96.1433 25.4159 95.4644 24.6987 94.8788 24.0878C94.2798 23.3573 93.6942 22.68 93.1218 22.0027C92.6027 21.2988 92.0304 20.6746 91.4314 20.0902C90.8458 19.559 90.2468 18.9879 89.6346 18.5762C88.9957 18.1512 88.3435 17.8192 87.7179 17.5668C87.0923 17.341 86.3869 17.1817 85.7746 17.1418C85.1889 17.0887 84.6166 17.1684 84.1907 17.2879C83.1791 17.5137 82.66 17.9387 82.66 17.9387Z" fill="url(#paint13_linear_410_26)"/>
<path d="M80.9032 31.3391C80.9032 31.3391 80.8633 31.2595 80.7834 31.0337C80.6902 30.861 80.5172 30.5688 80.2643 30.2634C80.0114 29.9446 79.652 29.5861 79.1995 29.2806C78.9865 29.1212 78.7336 29.015 78.4807 28.8955C78.2278 28.7892 77.9483 28.6564 77.6555 28.59C77.0965 28.4173 76.4975 28.3377 75.8719 28.3377C75.2463 28.3377 74.5941 28.4173 73.9552 28.5501C73.3297 28.683 72.6642 28.8423 72.0386 29.0814C71.413 29.3072 70.8007 29.5728 70.1618 29.7986C69.5362 30.0111 68.9373 30.197 68.2851 30.3032C67.6462 30.436 67.0073 30.4759 66.3817 30.4759C65.7561 30.4228 65.1305 30.3431 64.5449 30.1704C63.9725 30.0111 63.4002 29.7986 62.9077 29.4798C61.9095 28.9087 61.1242 28.1517 60.6317 27.5674C60.1259 26.9697 59.8597 26.5713 59.8597 26.5713C59.8597 26.5713 60.046 26.9963 60.4853 27.6736C60.9378 28.3642 61.6566 29.3337 62.7214 30.104C63.2538 30.529 63.8661 30.8477 64.505 31.1134C65.1572 31.379 65.8493 31.5251 66.5414 31.6048C67.2469 31.6446 67.9656 31.6712 68.6445 31.5649C69.3366 31.4852 70.042 31.2727 70.6942 31.0735C71.3065 30.8079 71.9188 30.5688 72.5444 30.3298C73.1433 30.0642 73.7556 29.8517 74.3279 29.6525C74.9402 29.5197 75.5259 29.3736 76.0849 29.3072C76.6439 29.2673 77.2029 29.2673 77.722 29.3072C78.2278 29.3736 78.6937 29.5329 79.1196 29.7322C79.5322 29.9048 79.865 30.1704 80.1578 30.4228C80.7035 30.954 80.9032 31.3391 80.9032 31.3391Z" fill="url(#paint14_linear_410_26)"/>
<path d="M96.5163 39.6398C96.5163 39.6398 96.5163 39.507 96.5163 39.2812C96.5163 39.082 96.5163 38.7499 96.3965 38.3781C96.2767 37.9664 96.1037 37.4883 95.8641 37.0234C95.731 36.7976 95.558 36.5984 95.3849 36.3594C95.1986 36.1602 95.0122 35.9477 94.7727 35.7485C94.3334 35.35 93.8143 35.0047 93.242 34.7391C92.6829 34.4735 92.0707 34.2743 91.4318 34.1149C90.8195 33.9954 90.154 33.8094 89.4752 33.7563C88.7964 33.7165 88.1441 33.6633 87.5053 33.5837C86.8264 33.5305 86.2008 33.4509 85.5753 33.2649C84.9497 33.079 84.3374 32.8665 83.7784 32.6009C83.2194 32.3087 82.6736 31.9634 82.2477 31.5384C81.7952 31.1533 81.3825 30.7017 81.0764 30.197C80.4109 29.2674 80.0249 28.2447 79.8385 27.4877C79.6256 26.7573 79.5723 26.2659 79.5723 26.2659C79.5723 26.2659 79.559 26.7573 79.6522 27.5807C79.772 28.3775 79.9983 29.5728 80.6239 30.715C80.9167 31.3259 81.3293 31.8571 81.8085 32.3884C82.2876 32.9063 82.8467 33.3446 83.4323 33.7165C84.0313 34.0219 84.6835 34.3805 85.349 34.5665C86.0012 34.7524 86.7199 34.8852 87.3988 34.9914C88.0643 35.0047 88.7431 35.0578 89.3953 35.111C90.0475 35.111 90.6864 35.2172 91.2854 35.3235C91.8976 35.4297 92.4966 35.536 93.0157 35.7219C93.5481 35.9211 94.0539 36.1734 94.4931 36.4391C94.8924 36.718 95.2918 37.05 95.5713 37.3953C95.8774 37.7539 96.0904 38.1125 96.2235 38.4578C96.5163 39.1484 96.5163 39.6398 96.5163 39.6398Z" fill="url(#paint15_linear_410_26)"/>
<path d="M106.991 53.8105C106.991 53.8105 107.058 53.7309 107.178 53.5184C107.271 53.3192 107.391 52.9871 107.47 52.6285C107.537 52.1903 107.577 51.7122 107.55 51.1942C107.524 50.9153 107.47 50.663 107.404 50.3841C107.337 50.1184 107.244 49.813 107.138 49.5474C106.911 49.0161 106.579 48.4583 106.179 48.0201C105.793 47.4888 105.327 47.0771 104.822 46.6521C104.289 46.2404 103.783 45.8154 103.198 45.51C102.612 45.1779 102.04 44.8194 101.467 44.5006C100.882 44.142 100.349 43.81 99.8969 43.3717C99.3911 42.9202 98.9518 42.4554 98.5658 41.964C98.1665 41.4858 97.8471 40.9546 97.6075 40.3968C97.3945 39.8124 97.2215 39.2414 97.1283 38.6968C96.9686 37.5414 97.0485 36.4524 97.2215 35.6954C97.3413 34.9516 97.501 34.4735 97.501 34.4735C97.501 34.4735 97.2747 34.8985 96.9952 35.6821C96.7556 36.4258 96.4495 37.6344 96.516 38.9226C96.516 39.6132 96.6491 40.3038 96.8488 40.9546C97.0751 41.6054 97.3812 42.2827 97.7406 42.8538C98.1532 43.385 98.5924 43.9694 99.1115 44.4475C99.644 44.9123 100.243 45.3373 100.802 45.6959C101.401 46.0279 101.987 46.3599 102.546 46.6654C103.145 46.9576 103.664 47.3427 104.183 47.6615C104.689 48.0201 105.168 48.3786 105.554 48.8036C105.953 49.1888 106.299 49.6271 106.579 50.0653C106.831 50.4903 107.044 50.9419 107.151 51.4067C107.271 51.8184 107.311 52.2567 107.271 52.6285C107.217 53.3457 106.991 53.8105 106.991 53.8105Z" fill="url(#paint16_linear_410_26)"/>
<path d="M110.372 71.1155C110.372 71.1155 110.479 71.0491 110.665 70.8898C110.811 70.7702 111.078 70.5577 111.277 70.239C111.57 69.8937 111.823 69.4554 112.023 68.9773C112.102 68.725 112.129 68.4594 112.236 68.1937C112.262 67.9281 112.329 67.6227 112.329 67.3172C112.355 66.7328 112.289 66.1086 112.116 65.5376C111.983 64.9001 111.77 64.3024 111.503 63.7314C111.197 63.1337 110.905 62.5228 110.519 61.9783C110.133 61.4205 109.76 60.876 109.387 60.3049C109.028 59.7604 108.682 59.2291 108.469 58.6182C108.176 58.0338 108.003 57.4229 107.87 56.812C107.723 56.1878 107.657 55.5636 107.683 54.9792C107.723 54.355 107.817 53.7707 107.99 53.2261C108.309 52.1371 108.855 51.1543 109.334 50.5699C109.813 49.9325 110.133 49.5872 110.133 49.5872C110.133 49.5872 109.733 49.8793 109.187 50.477C108.602 51.0215 107.843 51.9777 107.324 53.1863C107.018 53.8105 106.885 54.4613 106.738 55.1784C106.659 55.8558 106.659 56.5596 106.738 57.2503C106.885 57.9409 107.045 58.6182 107.311 59.269C107.564 59.9064 107.923 60.5439 108.256 61.1416C108.655 61.6728 109.054 62.2306 109.427 62.7486C109.826 63.2665 110.186 63.8243 110.479 64.3688C110.771 64.9001 111.051 65.4048 111.224 65.9758C111.41 66.4672 111.53 66.9985 111.61 67.5164C111.65 68.0477 111.65 68.5656 111.53 68.9906C111.437 69.4289 111.317 69.8273 111.104 70.1593C110.745 70.7968 110.372 71.1155 110.372 71.1155Z" fill="url(#paint17_linear_410_26)"/>
<path d="M105.94 88.1683C105.94 88.1683 106.06 88.1683 106.286 88.1019C106.486 88.0621 106.818 87.9824 107.138 87.7964C107.51 87.5839 107.95 87.3183 108.336 86.9597C108.522 86.7605 108.668 86.5347 108.868 86.3223C109.054 86.0965 109.187 85.8574 109.334 85.5918C109.627 85.0606 109.826 84.5028 109.959 83.8653C110.093 83.2676 110.159 82.6434 110.172 81.9661C110.146 81.3286 110.146 80.6513 110.013 79.9873C109.893 79.3232 109.813 78.6724 109.707 78.0084C109.627 77.3576 109.547 76.7201 109.573 76.0561C109.613 75.4186 109.707 74.7944 109.853 74.1835C110.013 73.5726 110.199 72.9749 110.492 72.4171C110.785 71.9257 111.104 71.4078 111.517 70.9828C112.289 70.1461 113.194 69.5086 113.886 69.15C114.578 68.7914 115.031 68.6188 115.031 68.6188C115.031 68.6188 114.552 68.7383 113.78 69.0172C113.021 69.3094 111.903 69.8141 110.918 70.6906C110.385 71.1023 109.986 71.6335 109.547 72.2312C109.187 72.789 108.881 73.4398 108.655 74.1038C108.495 74.7546 108.322 75.4983 108.296 76.1756C108.229 76.8662 108.296 77.5967 108.349 78.274C108.482 78.9115 108.602 79.6021 108.708 80.2263C108.841 80.8638 108.908 81.488 108.975 82.1122C108.988 82.7231 109.028 83.3075 108.948 83.8918C108.881 84.4629 108.735 85.0074 108.602 85.4988C108.429 85.9504 108.203 86.4152 107.91 86.7605C107.657 87.1191 107.324 87.4246 107.045 87.6504C106.419 88.0621 105.94 88.1683 105.94 88.1683Z" fill="url(#paint18_linear_410_26)"/>
<path d="M94.5861 101.675C94.5861 101.675 94.7059 101.702 94.9056 101.781C95.1319 101.808 95.4646 101.888 95.8639 101.834C96.2765 101.834 96.769 101.781 97.2748 101.595C97.541 101.516 97.754 101.383 98.0468 101.29C98.2864 101.13 98.5393 100.971 98.7656 100.825C99.2447 100.466 99.684 100.015 100.03 99.4969C100.443 99.0321 100.775 98.4876 101.082 97.9165C101.321 97.2923 101.641 96.6681 101.787 96.0173C101.973 95.3798 102.173 94.7822 102.373 94.1314C102.599 93.5072 102.799 92.883 103.118 92.3385C103.398 91.7409 103.77 91.1964 104.156 90.7581C104.542 90.2401 104.995 89.7886 105.474 89.43C105.993 89.0847 106.499 88.7925 107.031 88.5667C108.123 88.1285 109.187 87.9691 109.973 87.9292C110.758 87.8894 111.237 87.9292 111.237 87.9292C111.237 87.9292 110.745 87.8097 109.92 87.7433C109.121 87.6503 107.896 87.6503 106.632 88.0089C105.966 88.1683 105.354 88.5003 104.715 88.8456C104.143 89.1776 103.584 89.6425 103.078 90.1737C102.652 90.6651 102.2 91.2362 101.867 91.8604C101.521 92.4448 101.268 93.1487 101.055 93.7596C100.882 94.3838 100.682 95.0611 100.496 95.7119C100.336 96.3361 100.15 96.9337 99.9235 97.5048C99.6573 98.0493 99.4577 98.6204 99.1249 99.1118C98.8454 99.5501 98.486 100.015 98.14 100.373C97.7939 100.719 97.3946 101.024 96.9687 101.237C96.5694 101.476 96.1434 101.595 95.8107 101.648C95.0786 101.781 94.5861 101.675 94.5861 101.675Z" fill="url(#paint19_linear_410_26)"/>
<path d="M78.5077 108.993C78.5077 108.993 78.6008 109.046 78.7606 109.205C78.9336 109.351 79.2264 109.564 79.5858 109.67C79.9718 109.856 80.4643 110.002 80.9834 110.055C81.2496 110.082 81.4892 110.055 81.7953 110.082C82.1014 110.055 82.3676 110.029 82.6738 110.002C83.2328 109.896 83.8451 109.697 84.3775 109.378C84.9631 109.086 85.4822 108.727 86.0147 108.369C86.5071 107.93 87.0262 107.519 87.4522 106.987C87.8914 106.469 88.344 106.005 88.7965 105.513C89.2624 105.022 89.6883 104.557 90.2207 104.185C90.7265 103.826 91.2855 103.481 91.8579 103.202C92.4169 102.937 93.0425 102.711 93.6015 102.605C94.2271 102.512 94.8127 102.459 95.3984 102.512C96.5697 102.538 97.5946 102.87 98.3133 103.189C99.0188 103.468 99.458 103.694 99.458 103.694C99.458 103.694 99.0853 103.388 98.3799 102.976C97.6611 102.565 96.5697 102.047 95.2786 101.834C94.5998 101.675 93.9209 101.675 93.2155 101.728C92.5367 101.834 91.8445 101.994 91.1657 102.219C90.5401 102.512 89.8746 102.844 89.3289 103.282C88.7433 103.654 88.2242 104.145 87.745 104.583C87.3324 105.101 86.8665 105.646 86.414 106.084C86.0147 106.629 85.5754 107.067 85.1362 107.519C84.6836 107.93 84.2311 108.315 83.7253 108.608C83.2594 108.913 82.767 109.179 82.2878 109.351C81.8219 109.511 81.3028 109.617 80.8503 109.617C80.411 109.67 79.9718 109.564 79.6257 109.484C78.907 109.272 78.5077 108.993 78.5077 108.993Z" fill="url(#paint20_linear_410_26)"/>
<path d="M60.8449 108.674C60.8449 108.674 60.8849 108.754 60.978 108.979C61.0845 109.165 61.2442 109.471 61.5104 109.736C61.7766 110.042 62.1493 110.414 62.5886 110.693C62.8148 110.826 63.0677 110.932 63.3339 111.051C63.6001 111.184 63.8664 111.29 64.1592 111.343C64.7182 111.503 65.3438 111.609 65.9561 111.556C66.6083 111.529 67.2338 111.45 67.886 111.33C68.5116 111.144 69.1771 110.998 69.7761 110.733C70.4017 110.427 71.014 110.215 71.6529 109.976C72.2651 109.71 72.8508 109.511 73.503 109.404C74.1286 109.245 74.7808 109.192 75.4197 109.192C76.0319 109.192 76.6708 109.272 77.2565 109.404C77.8554 109.564 78.4278 109.763 78.9336 110.055C79.9451 110.626 80.7438 111.357 81.2629 111.941C81.7553 112.525 82.0215 112.911 82.0215 112.911C82.0215 112.911 81.8219 112.472 81.356 111.795C80.9035 111.091 80.1448 110.161 79.0667 109.431C78.5076 108.993 77.9087 108.727 77.2565 108.475C76.591 108.236 75.8988 108.063 75.1934 108.01C74.5012 108.01 73.7559 107.983 73.0771 108.169C72.3982 108.236 71.7327 108.475 71.0805 108.674C70.4682 108.966 69.8293 109.232 69.2304 109.484C68.6447 109.776 68.0458 110.002 67.4468 110.188C66.8745 110.334 66.3021 110.52 65.7165 110.573C65.1708 110.653 64.5984 110.653 64.0926 110.626C63.6001 110.547 63.081 110.414 62.6684 110.241C62.2691 110.055 61.8831 109.816 61.6435 109.617C61.0579 109.099 60.8449 108.674 60.8449 108.674Z" fill="url(#paint21_linear_410_26)"/>
<path d="M45.045 100.772C45.045 100.772 45.0317 100.931 45.0317 101.157C45.045 101.369 45.045 101.675 45.1781 102.06C45.2713 102.445 45.4443 102.937 45.7372 103.388C45.8836 103.627 46.0699 103.826 46.2563 104.039C46.4426 104.251 46.6423 104.477 46.8552 104.663C47.3078 105.022 47.8269 105.367 48.4125 105.593C48.9982 105.885 49.5838 106.058 50.2493 106.19C50.8882 106.35 51.5538 106.483 52.1926 106.483C52.8981 106.483 53.537 106.562 54.2158 106.615C54.8946 106.669 55.5202 106.695 56.1458 106.908C56.7714 107.067 57.3703 107.319 57.9427 107.532C58.4884 107.771 59.0474 108.129 59.5133 108.501C59.9791 108.913 60.4051 109.351 60.7245 109.829C61.4167 110.733 61.816 111.742 62.0156 112.525C62.2419 113.256 62.3217 113.747 62.3217 113.747C62.3217 113.747 62.3217 113.256 62.2153 112.419C62.0955 111.609 61.816 110.427 61.1638 109.311C60.8443 108.674 60.4051 108.156 59.9525 107.665C59.4334 107.147 58.8877 106.708 58.2754 106.337C57.6498 106.084 56.9843 105.726 56.2922 105.593C55.6666 105.354 54.9479 105.314 54.2824 105.208C53.6035 105.208 52.9114 105.181 52.2592 105.128C51.5937 105.155 50.9681 105.075 50.3425 104.995C49.7569 104.889 49.1579 104.809 48.6122 104.637C48.0798 104.398 47.574 104.198 47.1347 103.959C46.7088 103.68 46.2962 103.362 46.0034 103.003C45.7105 102.684 45.4843 102.299 45.3645 101.994C45.045 101.29 45.045 100.772 45.045 100.772Z" fill="url(#paint22_linear_410_26)"/>
<path d="M34.1841 86.9066C34.1841 86.9066 34.1176 86.9996 34.0111 87.1855C33.9312 87.4246 33.7848 87.7035 33.7449 88.1152C33.665 88.5003 33.6251 89.005 33.6917 89.5495C33.7183 89.8019 33.7981 90.0675 33.8647 90.3464C33.9312 90.5987 34.0244 90.9175 34.1309 91.1698C34.3838 91.6878 34.7165 92.2588 35.1425 92.644C35.5684 93.1619 36.0209 93.6002 36.5267 94.0252C37.0725 94.3838 37.6049 94.8353 38.2038 95.1142C38.8161 95.3931 39.3618 95.7384 39.9475 96.0705C40.5331 96.4025 41.0788 96.7478 41.558 97.1595C42.0638 97.5978 42.503 98.036 42.9157 98.5142C43.3017 98.979 43.661 99.5501 43.9139 100.095C44.1402 100.639 44.3532 101.237 44.433 101.781C44.646 102.95 44.5794 104.012 44.4463 104.769C44.3265 105.513 44.1934 105.978 44.1934 105.978C44.1934 105.978 44.3931 105.566 44.6327 104.783C44.8856 104.012 45.1385 102.817 45.0453 101.516C45.032 100.825 44.8723 100.174 44.646 99.4969C44.4197 98.8196 44.1136 98.1689 43.701 97.6111C43.2883 97.0798 42.8358 96.5087 42.2635 96.0705C41.771 95.6056 41.172 95.2205 40.5997 94.8486C39.9874 94.5432 39.3884 94.2377 38.8028 93.8924C38.2038 93.64 37.6714 93.3213 37.139 92.9893C36.6598 92.6307 36.1674 92.2854 35.7414 91.8737C35.3421 91.4885 34.9694 91.037 34.6899 90.6518C34.4237 90.2136 34.1974 89.762 34.091 89.2972C33.9712 88.8722 33.9312 88.4472 33.9579 88.1019C33.9579 87.3449 34.1841 86.9066 34.1841 86.9066Z" fill="url(#paint23_linear_410_26)"/>
<path d="M30.3641 69.6946C30.3641 69.6946 30.2576 69.7344 30.0846 69.8938C29.9116 70.0532 29.6587 70.2657 29.4324 70.611C29.1928 70.943 28.9532 71.3547 28.7669 71.8461C28.7003 72.1117 28.6604 72.3906 28.5938 72.6828C28.5539 72.9484 28.5007 73.2539 28.5007 73.5195C28.5007 74.1039 28.5539 74.7281 28.7536 75.3257C28.9 75.9632 29.1129 76.5343 29.4058 77.1452C29.7252 77.6897 30.0447 78.3006 30.4307 78.8053C30.8566 79.3764 31.2027 79.8943 31.602 80.4389C31.988 81.0099 32.3473 81.5279 32.5869 82.1255C32.8664 82.7099 33.0528 83.3208 33.2258 83.9185C33.3855 84.5427 33.4521 85.1669 33.4654 85.7645C33.4255 86.3887 33.3589 86.9731 33.1992 87.5442C32.9064 88.6598 32.374 89.5894 31.9214 90.2136C31.4822 90.8644 31.1627 91.223 31.1627 91.223C31.1627 91.223 31.5221 90.9175 32.0944 90.3199C32.6402 89.7488 33.3988 88.766 33.8647 87.5574C34.1575 86.92 34.2906 86.2692 34.3838 85.5653C34.4504 84.8481 34.4504 84.1841 34.3439 83.4536C34.1842 82.8029 34.0244 82.0591 33.705 81.4216C33.4654 80.7974 33.0794 80.2131 32.72 79.642C32.3074 79.0709 31.9081 78.5397 31.5088 78.0084C31.0962 77.517 30.7368 76.9991 30.4173 76.4413C30.1378 75.9499 29.8184 75.4319 29.632 74.8874C29.4324 74.3562 29.2993 73.7984 29.2194 73.2937C29.1529 72.789 29.1529 72.2578 29.246 71.8328C29.3126 71.3813 29.4723 70.9828 29.632 70.6907C29.9781 70 30.3641 69.6946 30.3641 69.6946Z" fill="url(#paint24_linear_410_26)"/>
<path d="M34.3438 52.5222C34.3438 52.5222 34.2373 52.5222 34.0111 52.5621C33.7981 52.6417 33.4786 52.7214 33.1326 52.9339C32.7599 53.173 32.3473 53.4386 31.9613 53.8105C31.8016 53.9831 31.6418 54.2089 31.4555 54.4612C31.2825 54.6737 31.1094 54.9261 31.0029 55.1917C30.7367 55.7229 30.4971 56.294 30.4439 56.9049C30.3241 57.569 30.2709 58.1799 30.2709 58.8705C30.3108 59.508 30.3507 60.1986 30.4838 60.7962C30.6169 61.4736 30.7101 62.1111 30.8166 62.7751C30.9364 63.4126 31.0162 64.0501 30.9896 64.7274C30.9896 65.3649 30.9098 65.9891 30.79 66.6266C30.6702 67.2109 30.4439 67.8351 30.2176 68.3664C29.9115 68.8976 29.5921 69.4288 29.1927 69.8273C28.4607 70.7304 27.5556 71.3413 26.8768 71.7264C26.2112 72.1116 25.7587 72.3241 25.7587 72.3241C25.7587 72.3241 26.2379 72.2046 26.9966 71.8991C27.7552 71.6069 28.8467 71.0491 29.7917 70.1593C30.3507 69.7077 30.75 69.1765 31.1227 68.5789C31.4954 67.9812 31.7882 67.357 31.9879 66.6398C32.1343 65.9891 32.294 65.2586 32.2807 64.5547C32.3473 63.8774 32.2674 63.1868 32.1742 62.5228C32.0278 61.8322 31.908 61.1814 31.7749 60.5572C31.6152 59.9064 31.5353 59.2689 31.4688 58.6182C31.4422 58.0471 31.3889 57.4494 31.4422 56.8916C31.5087 56.3073 31.6019 55.7628 31.7483 55.2847C31.9213 54.8198 32.1343 54.3284 32.4138 53.9566C32.6401 53.5847 32.9729 53.2925 33.2524 53.1199C33.8646 52.655 34.3438 52.5222 34.3438 52.5222Z" fill="url(#paint25_linear_410_26)"/>
<path d="M45.3515 38.75C45.3515 38.75 45.2317 38.6969 45.0054 38.657C44.7924 38.6039 44.4597 38.5375 44.0471 38.6039C43.6344 38.6437 43.142 38.7101 42.6495 38.8828C42.4099 38.9758 42.1703 39.1086 41.9174 39.2414C41.6512 39.3875 41.4116 39.507 41.172 39.7062C40.7195 40.0781 40.2536 40.5164 39.9342 41.0343C39.5482 41.5788 39.2287 42.0968 38.9359 42.721C38.7096 43.2921 38.4301 43.9296 38.2704 44.5538C38.124 45.2311 37.911 45.8154 37.738 46.4662C37.5517 47.1303 37.3653 47.7146 37.0592 48.299C36.7797 48.8701 36.4336 49.4013 36.0476 49.9193C35.6882 50.3974 35.2224 50.8622 34.7964 51.2606C34.264 51.6192 33.7582 51.938 33.2258 52.177C32.1743 52.6551 31.0962 52.8012 30.3242 52.8809C29.5655 52.9207 29.0597 52.9207 29.0597 52.9207C29.0597 52.9207 29.5522 53.0137 30.3508 53.0668C31.1627 53.12 32.4006 53.12 33.6251 52.7082C34.3173 52.5223 34.9029 52.2036 35.5019 51.8317C36.1008 51.4598 36.6332 51.0216 37.1257 50.4903C37.5383 49.9458 37.9909 49.388 38.297 48.7107C38.6431 48.1529 38.8827 47.4623 39.069 46.8381C39.2421 46.1475 39.4018 45.51 39.5881 44.8725C39.7079 44.235 39.9076 43.6241 40.1205 43.0265C40.3601 42.4952 40.5598 41.9241 40.8526 41.4327C41.1587 40.9546 41.4782 40.5031 41.8109 40.1179C42.1437 39.7726 42.5696 39.4406 42.9822 39.2281C43.3549 39.0023 43.7809 38.843 44.1003 38.8031C44.859 38.6437 45.3515 38.75 45.3515 38.75Z" fill="url(#paint26_linear_410_26)"/>
<path d="M61.2041 31.0337C61.2041 31.0337 61.1375 30.954 60.9379 30.7946C60.7649 30.6485 60.4987 30.4626 60.1127 30.3298C59.7267 30.1704 59.2608 30.0243 58.7284 29.9712C58.4622 29.9712 58.196 29.9978 57.8898 29.9978C57.6103 30.0243 57.3175 30.0243 57.0513 30.104C56.4656 30.2634 55.8667 30.4227 55.3609 30.768C54.7752 31.0735 54.2561 31.3923 53.737 31.8571C53.2579 32.2821 52.7388 32.7469 52.3395 33.225C51.8869 33.7563 51.461 34.2344 51.0084 34.739C50.5692 35.257 50.13 35.6953 49.5975 36.0804C49.1051 36.4788 48.5727 36.8242 48.0136 37.1296C47.4679 37.3952 46.8689 37.6343 46.2966 37.7538C45.6577 37.8601 45.0721 37.9663 44.4997 37.9132C43.3284 37.9132 42.2902 37.5944 41.5582 37.3155C40.8527 37.0366 40.4002 36.8242 40.4002 36.8242C40.4002 36.8242 40.7995 37.1163 41.5049 37.5015C42.2104 37.9265 43.3417 38.4444 44.6195 38.5905C45.3116 38.7366 45.9772 38.7233 46.6826 38.6436C47.3747 38.5374 48.0536 38.378 48.7324 38.0726C49.3313 37.7671 49.9969 37.4616 50.5426 36.9968C51.1149 36.6249 51.6074 36.1203 52.0599 35.6289C52.5125 35.0843 52.9517 34.5664 53.3777 34.0617C53.7637 33.5438 54.2029 33.0789 54.6288 32.6407C55.0814 32.2555 55.5206 31.8438 55.9865 31.5251C56.479 31.2196 56.9581 30.954 57.4107 30.7282C57.8898 30.5954 58.4223 30.436 58.8748 30.436C59.314 30.3829 59.7533 30.4626 60.0727 30.5423C60.8181 30.7016 61.2041 31.0337 61.2041 31.0337Z" fill="url(#paint27_linear_410_26)"/>
<path d="M72.3179 22.0558C72.3179 23.105 71.466 23.9683 70.3879 23.9683C69.3231 23.9683 68.4313 23.105 68.4313 22.0558C68.4313 20.9402 69.3231 20.1168 70.3879 20.1168C71.466 20.1168 72.3179 20.9402 72.3179 22.0558Z" fill="#3CAA9F"/>
<path d="M63.9187 22.4808C64.145 23.5167 63.4396 24.4729 62.3881 24.6721C61.3099 24.8315 60.2983 24.1409 60.1652 23.0917C59.939 22.0956 60.6311 21.0597 61.6959 20.9003C62.7607 20.741 63.7457 21.3785 63.9187 22.4808Z" fill="#3CAA9F"/>
<path d="M55.7599 24.287C56.1192 25.2565 55.6135 26.3456 54.6285 26.7174C53.577 27.1557 52.4722 26.5846 52.1262 25.6151C51.7668 24.6323 52.2859 23.5167 53.2842 23.105C54.309 22.7199 55.4271 23.2511 55.7599 24.287Z" fill="#3CAA9F"/>
<path d="M48.0798 27.5143C48.5589 28.4041 48.2661 29.5463 47.3743 30.1439C46.4293 30.6486 45.2447 30.3431 44.7123 29.4267C44.1266 28.5369 44.4461 27.2487 45.3778 26.7705C46.3494 26.2792 47.5341 26.5713 48.0798 27.5143Z" fill="#3CAA9F"/>
<path d="M40.9722 32.0298C41.6776 32.8134 41.5711 33.9688 40.7459 34.7391C39.9207 35.3766 38.7227 35.3368 38.0306 34.5266C37.3518 33.6501 37.4583 32.4415 38.2436 31.8041C39.1087 31.1533 40.3333 31.1533 40.9722 32.0298Z" fill="#3CAA9F"/>
<path d="M34.8228 37.6874C35.648 38.3647 35.7412 39.5335 35.0757 40.3303C34.3569 41.2069 33.1457 41.3795 32.3338 40.6358C31.5085 39.9983 31.4553 38.7632 32.0942 37.8999C32.773 37.1163 33.9843 36.9702 34.8228 37.6874Z" fill="#3CAA9F"/>
<path d="M29.7515 44.3147C30.6965 44.8725 30.9627 46.0412 30.4569 46.931C29.9112 47.8873 28.7532 48.1662 27.8348 47.7146C26.8764 47.1701 26.5703 45.935 27.0894 45.0451C27.6751 44.1288 28.7931 43.7835 29.7515 44.3147Z" fill="#3CAA9F"/>
<path d="M25.9047 51.752C26.9429 52.1239 27.4354 53.2129 27.0894 54.2223C26.7034 55.2449 25.5587 55.7363 24.6003 55.3246C23.5621 55.0059 23.0697 53.9035 23.4423 52.9075C23.8017 51.9247 24.9331 51.3934 25.9047 51.752Z" fill="#3CAA9F"/>
<path d="M23.4428 59.7338C24.4544 59.9197 25.1465 60.9158 24.9602 61.9251C24.8271 63.0407 23.7889 63.7313 22.7773 63.5321C21.6992 63.3462 20.9937 62.3501 21.1534 61.2877C21.3531 60.2252 22.3913 59.5479 23.4428 59.7338Z" fill="#3CAA9F"/>
<path d="M22.3643 68.0344C23.4424 68.0344 24.2809 68.8578 24.2809 69.9734C24.2809 71.0625 23.4424 71.8726 22.3643 71.8726C21.2861 71.9257 20.3943 71.0094 20.3943 69.9734C20.4343 68.9242 21.2861 68.0344 22.3643 68.0344Z" fill="#3CAA9F"/>
<path d="M22.7237 76.3749C23.7885 76.2155 24.7602 76.9061 24.9598 77.942C25.1728 79.0576 24.4407 79.9475 23.4425 80.2131C22.3643 80.4123 21.3261 79.6818 21.1531 78.5663C21.02 77.5702 21.6988 76.521 22.7237 76.3749Z" fill="#3CAA9F"/>
<path d="M24.5736 84.5161C25.5719 84.1575 26.65 84.6223 27.0493 85.7247C27.4353 86.734 26.8763 87.7566 25.9046 88.1949C24.893 88.6066 23.7883 88.009 23.4422 86.9731C23.0695 85.9903 23.562 84.9411 24.5736 84.5161Z" fill="#3CAA9F"/>
<path d="M28.7797 95.8846C29.8603 95.8846 30.7363 95.0105 30.7363 93.9323C30.7363 92.8541 29.8603 91.98 28.7797 91.98C27.6991 91.98 26.8231 92.8541 26.8231 93.9323C26.8231 95.0105 27.6991 95.8846 28.7797 95.8846Z" fill="#3CAA9F"/>
<path d="M32.2942 99.311C33.1593 98.6071 34.3572 98.7399 35.0361 99.5633C35.7415 100.347 35.6217 101.529 34.8231 102.233C33.9846 102.977 32.7733 102.844 32.0945 102.034C31.4556 101.157 31.5088 99.9352 32.2942 99.311Z" fill="#3CAA9F"/>
<path d="M38.0043 105.46C38.723 104.637 39.8544 104.504 40.7462 105.261C41.5581 105.912 41.6114 107.16 40.9725 107.877C40.2937 108.754 39.0824 108.807 38.2439 108.116C37.4586 107.439 37.3255 106.35 38.0043 105.46Z" fill="#3CAA9F"/>
<path d="M44.6589 110.547C45.2446 109.617 46.336 109.219 47.3077 109.816C48.2527 110.334 48.5189 111.503 48.0531 112.406C47.534 113.376 46.3227 113.681 45.3777 113.11C44.446 112.592 44.1265 111.383 44.6589 110.547Z" fill="#3CAA9F"/>
<path d="M52.0728 114.385C52.4721 113.322 53.5103 112.858 54.5751 113.216C55.5734 113.588 56.1058 114.624 55.7598 115.633C55.427 116.696 54.3089 117.214 53.2841 116.855C52.2858 116.417 51.7401 115.315 52.0728 114.385Z" fill="#3CAA9F"/>
<path d="M60.0988 116.855C60.3118 115.793 61.2967 115.062 62.3615 115.328C63.4397 115.434 64.0919 116.47 63.9188 117.479C63.7458 118.568 62.7342 119.259 61.696 119.113C60.6312 118.9 59.9391 117.891 60.0988 116.855Z" fill="#3CAA9F"/>
<path d="M68.3913 117.944C68.4445 116.855 69.2831 116.045 70.3878 115.952C71.426 115.952 72.2512 116.855 72.3178 117.904C72.3178 118.993 71.3728 119.896 70.3878 119.896C69.2831 119.883 68.3913 118.927 68.3913 117.944Z" fill="#3CAA9F"/>
<path d="M76.7764 117.532C76.6433 116.417 77.2423 115.474 78.387 115.315C79.4651 115.049 80.4234 115.859 80.5965 116.762C80.8494 117.878 80.0641 118.914 79.0658 119.1C77.9743 119.259 76.9628 118.568 76.7764 117.532Z" fill="#3CAA9F"/>
<path d="M84.9359 115.686C84.6298 114.624 85.069 113.641 86.1339 113.216C87.1454 112.751 88.1969 113.375 88.5696 114.252C89.0222 115.315 88.4765 116.457 87.4116 116.842C86.4134 117.134 85.3352 116.696 84.9359 115.686Z" fill="#3CAA9F"/>
<path d="M92.7225 112.472C92.1768 111.503 92.4697 110.44 93.4413 109.816C94.3597 109.219 95.4378 109.604 95.9836 110.494C96.6091 111.383 96.2764 112.645 95.3846 113.216C94.3996 113.681 93.2283 113.376 92.7225 112.472Z" fill="#3CAA9F"/>
<path d="M99.7769 107.983C99.0981 107.147 99.1514 105.991 99.9766 105.261C100.842 104.504 101.947 104.716 102.692 105.473C103.464 106.35 103.304 107.572 102.479 108.249C101.64 108.807 100.456 108.754 99.7769 107.983Z" fill="#3CAA9F"/>
<path d="M105.886 102.299C105.141 101.542 104.955 100.4 105.673 99.5766C106.405 98.7399 107.577 98.7399 108.349 99.3243C109.294 99.9485 109.294 101.277 108.681 102.1C107.896 102.844 106.711 102.977 105.886 102.299Z" fill="#3CAA9F"/>
<path d="M110.957 95.6322C110.012 95.0611 109.693 93.9455 110.265 92.9627C110.811 92.0065 112.009 91.8206 112.861 92.2323C113.899 92.7237 114.139 93.9455 113.659 94.9549C113.007 95.8447 111.956 96.1767 110.957 95.6322Z" fill="#3CAA9F"/>
<path d="M114.844 88.1949C113.779 87.7566 113.34 86.7605 113.726 85.7113C114.005 84.6621 115.163 84.2504 116.095 84.5692C117.227 84.9278 117.679 86.0832 117.346 87.0793C116.907 88.0089 115.789 88.6066 114.844 88.1949Z" fill="#3CAA9F"/>
<path d="M117.347 80.2131C116.295 79.9474 115.63 79.1107 115.696 77.942C115.909 76.9194 116.974 76.2686 117.959 76.4811C119.037 76.521 119.729 77.5702 119.609 78.6725C119.33 79.7217 118.358 80.4123 117.347 80.2131Z" fill="#3CAA9F"/>
<path d="M118.398 71.9258C117.293 71.8726 116.508 71.1422 116.441 69.9735C116.441 68.9243 117.333 68.1274 118.345 68.1274C119.489 68.0344 120.381 68.9243 120.381 69.9735C120.315 71.0625 119.33 71.9258 118.398 71.9258Z" fill="#3CAA9F"/>
<path d="M117.998 63.6119C116.907 63.7181 116.029 63.0806 115.696 61.9783C115.563 60.9159 116.295 59.9995 117.293 59.7604C118.398 59.5346 119.329 60.2651 119.609 61.2744C119.729 62.4299 118.943 63.3463 117.998 63.6119Z" fill="#3CAA9F"/>
<path d="M116.188 55.4175C115.177 55.723 114.139 55.2714 113.739 54.2222C113.247 53.266 113.899 52.1769 114.764 51.8051C115.789 51.3402 116.96 51.9246 117.346 52.9074C117.679 53.9035 117.16 55.1253 116.188 55.4175Z" fill="#3CAA9F"/>
<path d="M112.941 47.7147C112.009 48.1795 110.891 47.9272 110.266 46.9311C109.693 46.1077 110.079 44.9389 110.958 44.3546C111.956 43.7835 113.101 44.1288 113.66 45.0452C114.139 45.935 113.779 47.1967 112.941 47.7147Z" fill="#3CAA9F"/>
<path d="M108.469 40.6359C107.577 41.3796 106.472 41.2069 105.674 40.4234C104.955 39.5335 105.194 38.4844 105.887 37.7539C106.712 36.9703 107.95 37.1297 108.682 37.9133C109.294 38.7633 109.174 39.9984 108.469 40.6359Z" fill="#3CAA9F"/>
<path d="M102.745 34.5266C101.947 35.3368 100.962 35.3766 99.9767 34.7524C99.1781 34.1149 99.1514 32.8665 99.777 32.083C100.456 31.1666 101.747 31.0869 102.479 31.7244C103.304 32.5212 103.384 33.7563 102.745 34.5266Z" fill="#3CAA9F"/>
<path d="M96.0631 29.4268C95.5174 30.3432 94.4259 30.6486 93.441 30.144C92.5226 29.6526 92.2564 28.4838 92.7222 27.5143C93.2014 26.5714 94.4259 26.2792 95.3843 26.7042C96.3692 27.355 96.6088 28.5502 96.0631 29.4268Z" fill="#3CAA9F"/>
<path d="M88.5961 25.6151C88.1968 26.6112 87.2119 27.0361 86.1337 26.7041C85.1088 26.4119 84.7095 25.3362 84.9624 24.3136C85.3085 23.2112 86.4665 22.7198 87.4781 23.105C88.5429 23.5167 89.0221 24.6721 88.5961 25.6151Z" fill="#3CAA9F"/>
<path d="M80.6236 23.105C80.424 24.194 79.5056 24.7518 78.3875 24.6455C77.3227 24.5127 76.6838 23.5167 76.8036 22.4808C76.9367 21.3784 78.0148 20.648 79.0663 20.7941C80.1977 21.0597 80.8499 22.162 80.6236 23.105Z" fill="#3CAA9F"/>
<path d="M70.3879 115.009C45.4711 115.009 25.2528 94.8487 25.2528 69.9735C25.2528 45.1381 45.4711 24.9246 70.3879 24.9246C95.2781 24.9246 115.51 45.1381 115.51 69.9735C115.51 94.8487 95.2781 115.009 70.3879 115.009ZM70.3879 26.2792C46.1899 26.2792 26.5706 45.8819 26.5706 69.9735C26.5706 94.1315 46.2032 113.694 70.3879 113.694C94.5727 113.694 114.179 94.1315 114.179 69.9735C114.179 45.8819 94.5727 26.2792 70.3879 26.2792Z" fill="#3CAA9F"/>
<path d="M57.9962 68.3398H82.8331V57.1307C82.8331 54.7269 82.7 52.9605 82.4338 51.8316C82.1543 50.6762 81.6618 49.7598 80.9298 48.9895C80.2909 48.3255 79.5588 47.8341 78.7203 47.5419C77.895 47.2231 76.8036 47.0372 75.4459 46.9708V46.174H97.8072V46.9708C96.4628 47.0372 95.3847 47.2231 94.5728 47.5419C93.7475 47.8341 93.0022 48.3255 92.35 48.9895C91.6179 49.7598 91.1254 50.6762 90.8725 51.8316C90.5797 52.9871 90.4466 54.7534 90.4466 57.1307V82.8692C90.4466 85.2465 90.5797 87.0128 90.8592 88.1151C91.1254 89.2706 91.6179 90.2135 92.35 90.9838C93.0022 91.6346 93.7475 92.126 94.5728 92.4314C95.398 92.7635 96.4761 92.9494 97.8072 93.0025V93.8127H75.4459V93.0158C76.8036 92.9627 77.895 92.7767 78.7203 92.4447C79.5588 92.1393 80.2776 91.6346 80.9298 90.9971C81.6618 90.2534 82.1543 89.3237 82.4205 88.1815C82.7 87.0394 82.8198 85.273 82.8198 82.8824V69.9999H57.9962V82.8824C57.9962 85.2597 58.1293 87.0261 58.3955 88.1815C58.675 89.3237 59.1675 90.2534 59.8862 90.9971C60.5118 91.6479 61.2439 92.1393 62.0691 92.4447C62.8944 92.7767 63.9858 92.9627 65.3435 93.0158V93.8259H42.9822V93.0158C44.3399 92.9627 45.4313 92.7767 46.2565 92.4447C47.0685 92.126 47.8138 91.6346 48.4394 90.9838C49.1981 90.2401 49.6906 89.3104 49.9302 88.1683C50.1964 87.0261 50.3162 85.2597 50.3162 82.8692V57.1307C50.3162 54.7269 50.1964 52.9605 49.9302 51.8316C49.6906 50.6762 49.1981 49.7598 48.4394 48.9895C47.8138 48.3255 47.0685 47.8341 46.2432 47.5419C45.3914 47.2231 44.3132 47.0372 42.9822 46.9708V46.174H65.3435V46.9708C64.0124 47.0372 62.921 47.2231 62.0958 47.5419C61.2705 47.8341 60.5384 48.3255 59.8729 48.9895C59.1542 49.7598 58.6617 50.6762 58.3955 51.8316C58.1293 52.9871 57.9962 54.7534 57.9962 57.1307V68.3398Z" fill="url(#paint28_linear_410_26)"/>
<mask id="path-67-inside-1_410_26" fill="white">
<path fill-rule="evenodd" clip-rule="evenodd" d="M70.0178 0C108.678 0 140.018 31.3401 140.018 70C140.018 108.66 108.678 140 70.0178 140C31.3579 140 0.0178223 108.66 0.0178223 70C0.0178223 31.3401 31.3579 0 70.0178 0Z"/>
</mask>
<path d="M141.018 70C141.018 30.7878 109.23 -1 70.0178 -1V1C108.125 1 139.018 31.8924 139.018 70H141.018ZM70.0178 141C109.23 141 141.018 109.212 141.018 70H139.018C139.018 108.108 108.125 139 70.0178 139V141ZM-0.982178 70C-0.982178 109.212 30.8056 141 70.0178 141V139C31.9102 139 1.01782 108.108 1.01782 70H-0.982178ZM70.0178 -1C30.8056 -1 -0.982178 30.7878 -0.982178 70H1.01782C1.01782 31.8924 31.9102 1 70.0178 1V-1Z" fill="#3CAA9F" mask="url(#path-67-inside-1_410_26)"/>
<defs>
<linearGradient id="paint0_linear_410_26" x1="76.7525" y1="19.1522" x2="76.4669" y2="11.218" gradientUnits="userSpaceOnUse">
<stop stop-color="#3CAA9F"/>
<stop offset="0.0528" stop-color="#3CAA9F"/>
<stop offset="0.1288" stop-color="#37BDB0"/>
<stop offset="0.2187" stop-color="#13B1A2"/>
<stop offset="0.3185" stop-color="#249C90"/>
<stop offset="0.411458" stop-color="#27B7A8"/>
<stop offset="0.5161" stop-color="#0F9184"/>
<stop offset="0.6613" stop-color="#1CCFBD"/>
<stop offset="1" stop-color="#04AA99"/>
</linearGradient>
<linearGradient id="paint1_linear_410_26" x1="51.9272" y1="30.4038" x2="49.5262" y2="9.88222" gradientUnits="userSpaceOnUse">
<stop stop-color="#3CAA9F"/>
<stop offset="0.0528" stop-color="#3CAA9F"/>
<stop offset="0.1288" stop-color="#37BDB0"/>
<stop offset="0.2187" stop-color="#13B1A2"/>
<stop offset="0.3185" stop-color="#249C90"/>
<stop offset="0.411458" stop-color="#27B7A8"/>
<stop offset="0.5161" stop-color="#0F9184"/>
<stop offset="0.6613" stop-color="#1CCFBD"/>
<stop offset="1" stop-color="#04AA99"/>
</linearGradient>
<linearGradient id="paint2_linear_410_26" x1="31.4403" y1="49.7927" x2="24.1133" y2="21.5915" gradientUnits="userSpaceOnUse">
<stop stop-color="#3CAA9F"/>
<stop offset="0.0528" stop-color="#3CAA9F"/>
<stop offset="0.1288" stop-color="#37BDB0"/>
<stop offset="0.2187" stop-color="#13B1A2"/>
<stop offset="0.3185" stop-color="#249C90"/>
<stop offset="0.411458" stop-color="#27B7A8"/>
<stop offset="0.5161" stop-color="#0F9184"/>
<stop offset="0.6613" stop-color="#1CCFBD"/>
<stop offset="1" stop-color="#04AA99"/>
</linearGradient>
<linearGradient id="paint3_linear_410_26" x1="19.8322" y1="73.0636" x2="5.4246" y2="47.6871" gradientUnits="userSpaceOnUse">
<stop stop-color="#3CAA9F"/>
<stop offset="0.0528" stop-color="#3CAA9F"/>
<stop offset="0.1288" stop-color="#37BDB0"/>
<stop offset="0.2187" stop-color="#13B1A2"/>
<stop offset="0.3185" stop-color="#249C90"/>
<stop offset="0.411458" stop-color="#27B7A8"/>
<stop offset="0.5161" stop-color="#0F9184"/>
<stop offset="0.6613" stop-color="#1CCFBD"/>
<stop offset="1" stop-color="#04AA99"/>
</linearGradient>
<linearGradient id="paint4_linear_410_26" x1="19.5693" y1="95.7209" x2="10.7332" y2="68.1025" gradientUnits="userSpaceOnUse">
<stop stop-color="#3CAA9F"/>
<stop offset="0.0528" stop-color="#3CAA9F"/>
<stop offset="0.1288" stop-color="#37BDB0"/>
<stop offset="0.2187" stop-color="#13B1A2"/>
<stop offset="0.3185" stop-color="#249C90"/>
<stop offset="0.411458" stop-color="#27B7A8"/>
<stop offset="0.5161" stop-color="#0F9184"/>
<stop offset="0.6613" stop-color="#1CCFBD"/>
<stop offset="1" stop-color="#04AA99"/>
</linearGradient>
<linearGradient id="paint5_linear_410_26" x1="31.9744" y1="113.596" x2="29.2286" y2="91.8899" gradientUnits="userSpaceOnUse">
<stop stop-color="#3CAA9F"/>
<stop offset="0.0528" stop-color="#3CAA9F"/>
<stop offset="0.1288" stop-color="#37BDB0"/>
<stop offset="0.2187" stop-color="#13B1A2"/>
<stop offset="0.3185" stop-color="#249C90"/>
<stop offset="0.411458" stop-color="#27B7A8"/>
<stop offset="0.5161" stop-color="#0F9184"/>
<stop offset="0.6613" stop-color="#1CCFBD"/>
<stop offset="1" stop-color="#04AA99"/>
</linearGradient>
<linearGradient id="paint6_linear_410_26" x1="51.8756" y1="124.189" x2="51.1007" y2="111.168" gradientUnits="userSpaceOnUse">
<stop stop-color="#3CAA9F"/>
<stop offset="0.0528" stop-color="#3CAA9F"/>
<stop offset="0.1288" stop-color="#37BDB0"/>
<stop offset="0.2187" stop-color="#13B1A2"/>
<stop offset="0.3185" stop-color="#249C90"/>
<stop offset="0.411458" stop-color="#27B7A8"/>
<stop offset="0.5161" stop-color="#0F9184"/>
<stop offset="0.6613" stop-color="#1CCFBD"/>
<stop offset="1" stop-color="#04AA99"/>
</linearGradient>
<linearGradient id="paint7_linear_410_26" x1="75.3773" y1="127.693" x2="75.1142" y2="120.056" gradientUnits="userSpaceOnUse">
<stop stop-color="#3CAA9F"/>
<stop offset="0.0528" stop-color="#3CAA9F"/>
<stop offset="0.1288" stop-color="#37BDB0"/>
<stop offset="0.2187" stop-color="#13B1A2"/>
<stop offset="0.3185" stop-color="#249C90"/>
<stop offset="0.411458" stop-color="#27B7A8"/>
<stop offset="0.5161" stop-color="#0F9184"/>
<stop offset="0.6613" stop-color="#1CCFBD"/>
<stop offset="1" stop-color="#04AA99"/>
</linearGradient>
<linearGradient id="paint8_linear_410_26" x1="97.9345" y1="129.37" x2="95.7189" y2="109.449" gradientUnits="userSpaceOnUse">
<stop stop-color="#3CAA9F"/>
<stop offset="0.0528" stop-color="#3CAA9F"/>
<stop offset="0.1288" stop-color="#37BDB0"/>
<stop offset="0.2187" stop-color="#13B1A2"/>
<stop offset="0.3185" stop-color="#249C90"/>
<stop offset="0.411458" stop-color="#27B7A8"/>
<stop offset="0.5161" stop-color="#0F9184"/>
<stop offset="0.6613" stop-color="#1CCFBD"/>
<stop offset="1" stop-color="#04AA99"/>
</linearGradient>
<linearGradient id="paint9_linear_410_26" x1="115.288" y1="119.459" x2="108.338" y2="91.4825" gradientUnits="userSpaceOnUse">
<stop stop-color="#3CAA9F"/>
<stop offset="0.0528" stop-color="#3CAA9F"/>
<stop offset="0.1288" stop-color="#37BDB0"/>
<stop offset="0.2187" stop-color="#13B1A2"/>
<stop offset="0.3185" stop-color="#249C90"/>
<stop offset="0.411458" stop-color="#27B7A8"/>
<stop offset="0.5161" stop-color="#0F9184"/>
<stop offset="0.6613" stop-color="#1CCFBD"/>
<stop offset="1" stop-color="#04AA99"/>
</linearGradient>
<linearGradient id="paint10_linear_410_26" x1="124.203" y1="99.9428" x2="110.223" y2="73.9312" gradientUnits="userSpaceOnUse">
<stop stop-color="#3CAA9F"/>
<stop offset="0.0528" stop-color="#3CAA9F"/>
<stop offset="0.1288" stop-color="#37BDB0"/>
<stop offset="0.2187" stop-color="#13B1A2"/>
<stop offset="0.3185" stop-color="#249C90"/>
<stop offset="0.411458" stop-color="#27B7A8"/>
<stop offset="0.5161" stop-color="#0F9184"/>
<stop offset="0.6613" stop-color="#1CCFBD"/>
<stop offset="1" stop-color="#04AA99"/>
</linearGradient>
<linearGradient id="paint11_linear_410_26" x1="126.877" y1="74.5412" x2="117.427" y2="46.98" gradientUnits="userSpaceOnUse">
<stop stop-color="#3CAA9F"/>
<stop offset="0.0528" stop-color="#3CAA9F"/>
<stop offset="0.1288" stop-color="#37BDB0"/>
<stop offset="0.2187" stop-color="#13B1A2"/>
<stop offset="0.3185" stop-color="#249C90"/>
<stop offset="0.411458" stop-color="#27B7A8"/>
<stop offset="0.5161" stop-color="#0F9184"/>
<stop offset="0.6613" stop-color="#1CCFBD"/>
<stop offset="1" stop-color="#04AA99"/>
</linearGradient>
<linearGradient id="paint12_linear_410_26" x1="119.653" y1="48.4766" x2="116.713" y2="26.2604" gradientUnits="userSpaceOnUse">
<stop stop-color="#3CAA9F"/>
<stop offset="0.0528" stop-color="#3CAA9F"/>
<stop offset="0.1288" stop-color="#37BDB0"/>
<stop offset="0.2187" stop-color="#13B1A2"/>
<stop offset="0.3185" stop-color="#249C90"/>
<stop offset="0.411458" stop-color="#27B7A8"/>
<stop offset="0.5161" stop-color="#0F9184"/>
<stop offset="0.6613" stop-color="#1CCFBD"/>
<stop offset="1" stop-color="#04AA99"/>
</linearGradient>
<linearGradient id="paint13_linear_410_26" x1="102.835" y1="28.8034" x2="101.997" y2="15.3096" gradientUnits="userSpaceOnUse">
<stop stop-color="#3CAA9F"/>
<stop offset="0.0528" stop-color="#3CAA9F"/>
<stop offset="0.1288" stop-color="#37BDB0"/>
<stop offset="0.2187" stop-color="#13B1A2"/>
<stop offset="0.3185" stop-color="#249C90"/>
<stop offset="0.411458" stop-color="#27B7A8"/>
<stop offset="0.5161" stop-color="#0F9184"/>
<stop offset="0.6613" stop-color="#1CCFBD"/>
<stop offset="1" stop-color="#04AA99"/>
</linearGradient>
<linearGradient id="paint14_linear_410_26" x1="75.1283" y1="31.9172" x2="74.9173" y2="26.0178" gradientUnits="userSpaceOnUse">
<stop stop-color="#3CAA9F"/>
<stop offset="0.0528" stop-color="#3CAA9F"/>
<stop offset="0.1288" stop-color="#37BDB0"/>
<stop offset="0.2187" stop-color="#13B1A2"/>
<stop offset="0.3185" stop-color="#249C90"/>
<stop offset="0.411458" stop-color="#27B7A8"/>
<stop offset="0.5161" stop-color="#0F9184"/>
<stop offset="0.6613" stop-color="#1CCFBD"/>
<stop offset="1" stop-color="#04AA99"/>
</linearGradient>
<linearGradient id="paint15_linear_410_26" x1="91.8663" y1="40.3719" x2="90.0642" y2="24.9967" gradientUnits="userSpaceOnUse">
<stop stop-color="#3CAA9F"/>
<stop offset="0.0528" stop-color="#3CAA9F"/>
<stop offset="0.1288" stop-color="#37BDB0"/>
<stop offset="0.2187" stop-color="#13B1A2"/>
<stop offset="0.3185" stop-color="#249C90"/>
<stop offset="0.411458" stop-color="#27B7A8"/>
<stop offset="0.5161" stop-color="#0F9184"/>
<stop offset="0.6613" stop-color="#1CCFBD"/>
<stop offset="1" stop-color="#04AA99"/>
</linearGradient>
<linearGradient id="paint16_linear_410_26" x1="104.526" y1="54.8691" x2="99.0404" y2="33.7583" gradientUnits="userSpaceOnUse">
<stop stop-color="#3CAA9F"/>
<stop offset="0.0528" stop-color="#3CAA9F"/>
<stop offset="0.1288" stop-color="#37BDB0"/>
<stop offset="0.2187" stop-color="#13B1A2"/>
<stop offset="0.3185" stop-color="#249C90"/>
<stop offset="0.411458" stop-color="#27B7A8"/>
<stop offset="0.5161" stop-color="#0F9184"/>
<stop offset="0.6613" stop-color="#1CCFBD"/>
<stop offset="1" stop-color="#04AA99"/>
</linearGradient>
<linearGradient id="paint17_linear_410_26" x1="110.782" y1="72.294" x2="100.034" y2="53.2796" gradientUnits="userSpaceOnUse">
<stop stop-color="#3CAA9F"/>
<stop offset="0.0528" stop-color="#3CAA9F"/>
<stop offset="0.1288" stop-color="#37BDB0"/>
<stop offset="0.2187" stop-color="#13B1A2"/>
<stop offset="0.3185" stop-color="#249C90"/>
<stop offset="0.411458" stop-color="#27B7A8"/>
<stop offset="0.5161" stop-color="#0F9184"/>
<stop offset="0.6613" stop-color="#1CCFBD"/>
<stop offset="1" stop-color="#04AA99"/>
</linearGradient>
<linearGradient id="paint18_linear_410_26" x1="112.536" y1="89.2385" x2="105.933" y2="68.5633" gradientUnits="userSpaceOnUse">
<stop stop-color="#3CAA9F"/>
<stop offset="0.0528" stop-color="#3CAA9F"/>
<stop offset="0.1288" stop-color="#37BDB0"/>
<stop offset="0.2187" stop-color="#13B1A2"/>
<stop offset="0.3185" stop-color="#249C90"/>
<stop offset="0.411458" stop-color="#27B7A8"/>
<stop offset="0.5161" stop-color="#0F9184"/>
<stop offset="0.6613" stop-color="#1CCFBD"/>
<stop offset="1" stop-color="#04AA99"/>
</linearGradient>
<linearGradient id="paint19_linear_410_26" x1="106.668" y1="102.627" x2="104.616" y2="86.3827" gradientUnits="userSpaceOnUse">
<stop stop-color="#3CAA9F"/>
<stop offset="0.0528" stop-color="#3CAA9F"/>
<stop offset="0.1288" stop-color="#37BDB0"/>
<stop offset="0.2187" stop-color="#13B1A2"/>
<stop offset="0.3185" stop-color="#249C90"/>
<stop offset="0.411458" stop-color="#27B7A8"/>
<stop offset="0.5161" stop-color="#0F9184"/>
<stop offset="0.6613" stop-color="#1CCFBD"/>
<stop offset="1" stop-color="#04AA99"/>
</linearGradient>
<linearGradient id="paint20_linear_410_26" x1="93.7087" y1="110.541" x2="93.1299" y2="100.802" gradientUnits="userSpaceOnUse">
<stop stop-color="#3CAA9F"/>
<stop offset="0.0528" stop-color="#3CAA9F"/>
<stop offset="0.1288" stop-color="#37BDB0"/>
<stop offset="0.2187" stop-color="#13B1A2"/>
<stop offset="0.3185" stop-color="#249C90"/>
<stop offset="0.411458" stop-color="#27B7A8"/>
<stop offset="0.5161" stop-color="#0F9184"/>
<stop offset="0.6613" stop-color="#1CCFBD"/>
<stop offset="1" stop-color="#04AA99"/>
</linearGradient>
<linearGradient id="paint21_linear_410_26" x1="76.2102" y1="113.179" x2="76.014" y2="107.473" gradientUnits="userSpaceOnUse">
<stop stop-color="#3CAA9F"/>
<stop offset="0.0528" stop-color="#3CAA9F"/>
<stop offset="0.1288" stop-color="#37BDB0"/>
<stop offset="0.2187" stop-color="#13B1A2"/>
<stop offset="0.3185" stop-color="#249C90"/>
<stop offset="0.411458" stop-color="#27B7A8"/>
<stop offset="0.5161" stop-color="#0F9184"/>
<stop offset="0.6613" stop-color="#1CCFBD"/>
<stop offset="1" stop-color="#04AA99"/>
</linearGradient>
<linearGradient id="paint22_linear_410_26" x1="57.5769" y1="114.458" x2="55.9123" y2="99.5211" gradientUnits="userSpaceOnUse">
<stop stop-color="#3CAA9F"/>
<stop offset="0.0528" stop-color="#3CAA9F"/>
<stop offset="0.1288" stop-color="#37BDB0"/>
<stop offset="0.2187" stop-color="#13B1A2"/>
<stop offset="0.3185" stop-color="#249C90"/>
<stop offset="0.411458" stop-color="#27B7A8"/>
<stop offset="0.5161" stop-color="#0F9184"/>
<stop offset="0.6613" stop-color="#1CCFBD"/>
<stop offset="1" stop-color="#04AA99"/>
</linearGradient>
<linearGradient id="paint23_linear_410_26" x1="41.9347" y1="107.022" x2="36.7367" y2="86.0861" gradientUnits="userSpaceOnUse">
<stop stop-color="#3CAA9F"/>
<stop offset="0.0528" stop-color="#3CAA9F"/>
<stop offset="0.1288" stop-color="#37BDB0"/>
<stop offset="0.2187" stop-color="#13B1A2"/>
<stop offset="0.3185" stop-color="#249C90"/>
<stop offset="0.411458" stop-color="#27B7A8"/>
<stop offset="0.5161" stop-color="#0F9184"/>
<stop offset="0.6613" stop-color="#1CCFBD"/>
<stop offset="1" stop-color="#04AA99"/>
</linearGradient>
<linearGradient id="paint24_linear_410_26" x1="32.8026" y1="92.4015" x2="22.321" y2="72.9634" gradientUnits="userSpaceOnUse">
<stop stop-color="#3CAA9F"/>
<stop offset="0.0528" stop-color="#3CAA9F"/>
<stop offset="0.1288" stop-color="#37BDB0"/>
<stop offset="0.2187" stop-color="#13B1A2"/>
<stop offset="0.3185" stop-color="#249C90"/>
<stop offset="0.411458" stop-color="#27B7A8"/>
<stop offset="0.5161" stop-color="#0F9184"/>
<stop offset="0.6613" stop-color="#1CCFBD"/>
<stop offset="1" stop-color="#04AA99"/>
</linearGradient>
<linearGradient id="paint25_linear_410_26" x1="31.9878" y1="73.4081" x2="24.9131" y2="52.7536" gradientUnits="userSpaceOnUse">
<stop stop-color="#3CAA9F"/>
<stop offset="0.0528" stop-color="#3CAA9F"/>
<stop offset="0.1288" stop-color="#37BDB0"/>
<stop offset="0.2187" stop-color="#13B1A2"/>
<stop offset="0.3185" stop-color="#249C90"/>
<stop offset="0.411458" stop-color="#27B7A8"/>
<stop offset="0.5161" stop-color="#0F9184"/>
<stop offset="0.6613" stop-color="#1CCFBD"/>
<stop offset="1" stop-color="#04AA99"/>
</linearGradient>
<linearGradient id="paint26_linear_410_26" x1="40.8806" y1="53.8858" x2="38.6809" y2="37.2603" gradientUnits="userSpaceOnUse">
<stop stop-color="#3CAA9F"/>
<stop offset="0.0528" stop-color="#3CAA9F"/>
<stop offset="0.1288" stop-color="#37BDB0"/>
<stop offset="0.2187" stop-color="#13B1A2"/>
<stop offset="0.3185" stop-color="#249C90"/>
<stop offset="0.411458" stop-color="#27B7A8"/>
<stop offset="0.5161" stop-color="#0F9184"/>
<stop offset="0.6613" stop-color="#1CCFBD"/>
<stop offset="1" stop-color="#04AA99"/>
</linearGradient>
<linearGradient id="paint27_linear_410_26" x1="55.495" y1="39.1804" x2="54.8632" y2="29.0441" gradientUnits="userSpaceOnUse">
<stop stop-color="#3CAA9F"/>
<stop offset="0.0528" stop-color="#3CAA9F"/>
<stop offset="0.1288" stop-color="#37BDB0"/>
<stop offset="0.2187" stop-color="#13B1A2"/>
<stop offset="0.3185" stop-color="#249C90"/>
<stop offset="0.411458" stop-color="#27B7A8"/>
<stop offset="0.5161" stop-color="#0F9184"/>
<stop offset="0.6613" stop-color="#1CCFBD"/>
<stop offset="1" stop-color="#04AA99"/>
</linearGradient>
<linearGradient id="paint28_linear_410_26" x1="62.0179" y1="46.4999" x2="98.5179" y2="105" gradientUnits="userSpaceOnUse">
<stop stop-color="#3CAA9F"/>
<stop offset="0.0885417" stop-color="#099183"/>
<stop offset="0.213542" stop-color="#1D988B"/>
<stop offset="0.307292" stop-color="#1B9285"/>
<stop offset="0.432292" stop-color="#1C9A8D"/>
<stop offset="0.640625" stop-color="#21BCAC"/>
<stop offset="0.78125" stop-color="#0FAA9A"/>
<stop offset="1" stop-color="#009484"/>
</linearGradient>
</defs>
</svg>
